G04 #@! TF.GenerationSoftware,KiCad,Pcbnew,(5.1.4-0-10_14)*
G04 #@! TF.CreationDate,2020-04-27T10:11:36-04:00*
G04 #@! TF.ProjectId,laser_card,6c617365-725f-4636-9172-642e6b696361,rev?*
G04 #@! TF.SameCoordinates,Original*
G04 #@! TF.FileFunction,Paste,Top*
G04 #@! TF.FilePolarity,Positive*
%FSLAX46Y46*%
G04 Gerber Fmt 4.6, Leading zero omitted, Abs format (unit mm)*
G04 Created by KiCad (PCBNEW (5.1.4-0-10_14)) date 2020-04-27 10:11:36*
%MOMM*%
%LPD*%
G04 APERTURE LIST*
%ADD10C,0.100000*%
%ADD11C,0.975000*%
%ADD12C,0.550000*%
%ADD13C,0.600000*%
%ADD14R,1.200000X0.900000*%
%ADD15R,1.100000X1.100000*%
%ADD16R,0.400000X0.650000*%
G04 APERTURE END LIST*
D10*
G36*
X199480142Y-61451174D02*
G01*
X199503803Y-61454684D01*
X199527007Y-61460496D01*
X199549529Y-61468554D01*
X199571153Y-61478782D01*
X199591670Y-61491079D01*
X199610883Y-61505329D01*
X199628607Y-61521393D01*
X199644671Y-61539117D01*
X199658921Y-61558330D01*
X199671218Y-61578847D01*
X199681446Y-61600471D01*
X199689504Y-61622993D01*
X199695316Y-61646197D01*
X199698826Y-61669858D01*
X199700000Y-61693750D01*
X199700000Y-62181250D01*
X199698826Y-62205142D01*
X199695316Y-62228803D01*
X199689504Y-62252007D01*
X199681446Y-62274529D01*
X199671218Y-62296153D01*
X199658921Y-62316670D01*
X199644671Y-62335883D01*
X199628607Y-62353607D01*
X199610883Y-62369671D01*
X199591670Y-62383921D01*
X199571153Y-62396218D01*
X199549529Y-62406446D01*
X199527007Y-62414504D01*
X199503803Y-62420316D01*
X199480142Y-62423826D01*
X199456250Y-62425000D01*
X198543750Y-62425000D01*
X198519858Y-62423826D01*
X198496197Y-62420316D01*
X198472993Y-62414504D01*
X198450471Y-62406446D01*
X198428847Y-62396218D01*
X198408330Y-62383921D01*
X198389117Y-62369671D01*
X198371393Y-62353607D01*
X198355329Y-62335883D01*
X198341079Y-62316670D01*
X198328782Y-62296153D01*
X198318554Y-62274529D01*
X198310496Y-62252007D01*
X198304684Y-62228803D01*
X198301174Y-62205142D01*
X198300000Y-62181250D01*
X198300000Y-61693750D01*
X198301174Y-61669858D01*
X198304684Y-61646197D01*
X198310496Y-61622993D01*
X198318554Y-61600471D01*
X198328782Y-61578847D01*
X198341079Y-61558330D01*
X198355329Y-61539117D01*
X198371393Y-61521393D01*
X198389117Y-61505329D01*
X198408330Y-61491079D01*
X198428847Y-61478782D01*
X198450471Y-61468554D01*
X198472993Y-61460496D01*
X198496197Y-61454684D01*
X198519858Y-61451174D01*
X198543750Y-61450000D01*
X199456250Y-61450000D01*
X199480142Y-61451174D01*
X199480142Y-61451174D01*
G37*
D11*
X199000000Y-61937500D03*
D10*
G36*
X199480142Y-59576174D02*
G01*
X199503803Y-59579684D01*
X199527007Y-59585496D01*
X199549529Y-59593554D01*
X199571153Y-59603782D01*
X199591670Y-59616079D01*
X199610883Y-59630329D01*
X199628607Y-59646393D01*
X199644671Y-59664117D01*
X199658921Y-59683330D01*
X199671218Y-59703847D01*
X199681446Y-59725471D01*
X199689504Y-59747993D01*
X199695316Y-59771197D01*
X199698826Y-59794858D01*
X199700000Y-59818750D01*
X199700000Y-60306250D01*
X199698826Y-60330142D01*
X199695316Y-60353803D01*
X199689504Y-60377007D01*
X199681446Y-60399529D01*
X199671218Y-60421153D01*
X199658921Y-60441670D01*
X199644671Y-60460883D01*
X199628607Y-60478607D01*
X199610883Y-60494671D01*
X199591670Y-60508921D01*
X199571153Y-60521218D01*
X199549529Y-60531446D01*
X199527007Y-60539504D01*
X199503803Y-60545316D01*
X199480142Y-60548826D01*
X199456250Y-60550000D01*
X198543750Y-60550000D01*
X198519858Y-60548826D01*
X198496197Y-60545316D01*
X198472993Y-60539504D01*
X198450471Y-60531446D01*
X198428847Y-60521218D01*
X198408330Y-60508921D01*
X198389117Y-60494671D01*
X198371393Y-60478607D01*
X198355329Y-60460883D01*
X198341079Y-60441670D01*
X198328782Y-60421153D01*
X198318554Y-60399529D01*
X198310496Y-60377007D01*
X198304684Y-60353803D01*
X198301174Y-60330142D01*
X198300000Y-60306250D01*
X198300000Y-59818750D01*
X198301174Y-59794858D01*
X198304684Y-59771197D01*
X198310496Y-59747993D01*
X198318554Y-59725471D01*
X198328782Y-59703847D01*
X198341079Y-59683330D01*
X198355329Y-59664117D01*
X198371393Y-59646393D01*
X198389117Y-59630329D01*
X198408330Y-59616079D01*
X198428847Y-59603782D01*
X198450471Y-59593554D01*
X198472993Y-59585496D01*
X198496197Y-59579684D01*
X198519858Y-59576174D01*
X198543750Y-59575000D01*
X199456250Y-59575000D01*
X199480142Y-59576174D01*
X199480142Y-59576174D01*
G37*
D11*
X199000000Y-60062500D03*
D10*
G36*
X151545977Y-60325662D02*
G01*
X151559325Y-60327642D01*
X151572414Y-60330921D01*
X151585119Y-60335467D01*
X151597317Y-60341236D01*
X151608891Y-60348173D01*
X151619729Y-60356211D01*
X151629727Y-60365273D01*
X151638789Y-60375271D01*
X151646827Y-60386109D01*
X151653764Y-60397683D01*
X151659533Y-60409881D01*
X151664079Y-60422586D01*
X151667358Y-60435675D01*
X151669338Y-60449023D01*
X151670000Y-60462500D01*
X151670000Y-61787500D01*
X151669338Y-61800977D01*
X151667358Y-61814325D01*
X151664079Y-61827414D01*
X151659533Y-61840119D01*
X151653764Y-61852317D01*
X151646827Y-61863891D01*
X151638789Y-61874729D01*
X151629727Y-61884727D01*
X151619729Y-61893789D01*
X151608891Y-61901827D01*
X151597317Y-61908764D01*
X151585119Y-61914533D01*
X151572414Y-61919079D01*
X151559325Y-61922358D01*
X151545977Y-61924338D01*
X151532500Y-61925000D01*
X151257500Y-61925000D01*
X151244023Y-61924338D01*
X151230675Y-61922358D01*
X151217586Y-61919079D01*
X151204881Y-61914533D01*
X151192683Y-61908764D01*
X151181109Y-61901827D01*
X151170271Y-61893789D01*
X151160273Y-61884727D01*
X151151211Y-61874729D01*
X151143173Y-61863891D01*
X151136236Y-61852317D01*
X151130467Y-61840119D01*
X151125921Y-61827414D01*
X151122642Y-61814325D01*
X151120662Y-61800977D01*
X151120000Y-61787500D01*
X151120000Y-60462500D01*
X151120662Y-60449023D01*
X151122642Y-60435675D01*
X151125921Y-60422586D01*
X151130467Y-60409881D01*
X151136236Y-60397683D01*
X151143173Y-60386109D01*
X151151211Y-60375271D01*
X151160273Y-60365273D01*
X151170271Y-60356211D01*
X151181109Y-60348173D01*
X151192683Y-60341236D01*
X151204881Y-60335467D01*
X151217586Y-60330921D01*
X151230675Y-60327642D01*
X151244023Y-60325662D01*
X151257500Y-60325000D01*
X151532500Y-60325000D01*
X151545977Y-60325662D01*
X151545977Y-60325662D01*
G37*
D12*
X151395000Y-61125000D03*
D10*
G36*
X150275977Y-60325662D02*
G01*
X150289325Y-60327642D01*
X150302414Y-60330921D01*
X150315119Y-60335467D01*
X150327317Y-60341236D01*
X150338891Y-60348173D01*
X150349729Y-60356211D01*
X150359727Y-60365273D01*
X150368789Y-60375271D01*
X150376827Y-60386109D01*
X150383764Y-60397683D01*
X150389533Y-60409881D01*
X150394079Y-60422586D01*
X150397358Y-60435675D01*
X150399338Y-60449023D01*
X150400000Y-60462500D01*
X150400000Y-61787500D01*
X150399338Y-61800977D01*
X150397358Y-61814325D01*
X150394079Y-61827414D01*
X150389533Y-61840119D01*
X150383764Y-61852317D01*
X150376827Y-61863891D01*
X150368789Y-61874729D01*
X150359727Y-61884727D01*
X150349729Y-61893789D01*
X150338891Y-61901827D01*
X150327317Y-61908764D01*
X150315119Y-61914533D01*
X150302414Y-61919079D01*
X150289325Y-61922358D01*
X150275977Y-61924338D01*
X150262500Y-61925000D01*
X149987500Y-61925000D01*
X149974023Y-61924338D01*
X149960675Y-61922358D01*
X149947586Y-61919079D01*
X149934881Y-61914533D01*
X149922683Y-61908764D01*
X149911109Y-61901827D01*
X149900271Y-61893789D01*
X149890273Y-61884727D01*
X149881211Y-61874729D01*
X149873173Y-61863891D01*
X149866236Y-61852317D01*
X149860467Y-61840119D01*
X149855921Y-61827414D01*
X149852642Y-61814325D01*
X149850662Y-61800977D01*
X149850000Y-61787500D01*
X149850000Y-60462500D01*
X149850662Y-60449023D01*
X149852642Y-60435675D01*
X149855921Y-60422586D01*
X149860467Y-60409881D01*
X149866236Y-60397683D01*
X149873173Y-60386109D01*
X149881211Y-60375271D01*
X149890273Y-60365273D01*
X149900271Y-60356211D01*
X149911109Y-60348173D01*
X149922683Y-60341236D01*
X149934881Y-60335467D01*
X149947586Y-60330921D01*
X149960675Y-60327642D01*
X149974023Y-60325662D01*
X149987500Y-60325000D01*
X150262500Y-60325000D01*
X150275977Y-60325662D01*
X150275977Y-60325662D01*
G37*
D12*
X150125000Y-61125000D03*
D10*
G36*
X149005977Y-60325662D02*
G01*
X149019325Y-60327642D01*
X149032414Y-60330921D01*
X149045119Y-60335467D01*
X149057317Y-60341236D01*
X149068891Y-60348173D01*
X149079729Y-60356211D01*
X149089727Y-60365273D01*
X149098789Y-60375271D01*
X149106827Y-60386109D01*
X149113764Y-60397683D01*
X149119533Y-60409881D01*
X149124079Y-60422586D01*
X149127358Y-60435675D01*
X149129338Y-60449023D01*
X149130000Y-60462500D01*
X149130000Y-61787500D01*
X149129338Y-61800977D01*
X149127358Y-61814325D01*
X149124079Y-61827414D01*
X149119533Y-61840119D01*
X149113764Y-61852317D01*
X149106827Y-61863891D01*
X149098789Y-61874729D01*
X149089727Y-61884727D01*
X149079729Y-61893789D01*
X149068891Y-61901827D01*
X149057317Y-61908764D01*
X149045119Y-61914533D01*
X149032414Y-61919079D01*
X149019325Y-61922358D01*
X149005977Y-61924338D01*
X148992500Y-61925000D01*
X148717500Y-61925000D01*
X148704023Y-61924338D01*
X148690675Y-61922358D01*
X148677586Y-61919079D01*
X148664881Y-61914533D01*
X148652683Y-61908764D01*
X148641109Y-61901827D01*
X148630271Y-61893789D01*
X148620273Y-61884727D01*
X148611211Y-61874729D01*
X148603173Y-61863891D01*
X148596236Y-61852317D01*
X148590467Y-61840119D01*
X148585921Y-61827414D01*
X148582642Y-61814325D01*
X148580662Y-61800977D01*
X148580000Y-61787500D01*
X148580000Y-60462500D01*
X148580662Y-60449023D01*
X148582642Y-60435675D01*
X148585921Y-60422586D01*
X148590467Y-60409881D01*
X148596236Y-60397683D01*
X148603173Y-60386109D01*
X148611211Y-60375271D01*
X148620273Y-60365273D01*
X148630271Y-60356211D01*
X148641109Y-60348173D01*
X148652683Y-60341236D01*
X148664881Y-60335467D01*
X148677586Y-60330921D01*
X148690675Y-60327642D01*
X148704023Y-60325662D01*
X148717500Y-60325000D01*
X148992500Y-60325000D01*
X149005977Y-60325662D01*
X149005977Y-60325662D01*
G37*
D12*
X148855000Y-61125000D03*
D10*
G36*
X147735977Y-60325662D02*
G01*
X147749325Y-60327642D01*
X147762414Y-60330921D01*
X147775119Y-60335467D01*
X147787317Y-60341236D01*
X147798891Y-60348173D01*
X147809729Y-60356211D01*
X147819727Y-60365273D01*
X147828789Y-60375271D01*
X147836827Y-60386109D01*
X147843764Y-60397683D01*
X147849533Y-60409881D01*
X147854079Y-60422586D01*
X147857358Y-60435675D01*
X147859338Y-60449023D01*
X147860000Y-60462500D01*
X147860000Y-61787500D01*
X147859338Y-61800977D01*
X147857358Y-61814325D01*
X147854079Y-61827414D01*
X147849533Y-61840119D01*
X147843764Y-61852317D01*
X147836827Y-61863891D01*
X147828789Y-61874729D01*
X147819727Y-61884727D01*
X147809729Y-61893789D01*
X147798891Y-61901827D01*
X147787317Y-61908764D01*
X147775119Y-61914533D01*
X147762414Y-61919079D01*
X147749325Y-61922358D01*
X147735977Y-61924338D01*
X147722500Y-61925000D01*
X147447500Y-61925000D01*
X147434023Y-61924338D01*
X147420675Y-61922358D01*
X147407586Y-61919079D01*
X147394881Y-61914533D01*
X147382683Y-61908764D01*
X147371109Y-61901827D01*
X147360271Y-61893789D01*
X147350273Y-61884727D01*
X147341211Y-61874729D01*
X147333173Y-61863891D01*
X147326236Y-61852317D01*
X147320467Y-61840119D01*
X147315921Y-61827414D01*
X147312642Y-61814325D01*
X147310662Y-61800977D01*
X147310000Y-61787500D01*
X147310000Y-60462500D01*
X147310662Y-60449023D01*
X147312642Y-60435675D01*
X147315921Y-60422586D01*
X147320467Y-60409881D01*
X147326236Y-60397683D01*
X147333173Y-60386109D01*
X147341211Y-60375271D01*
X147350273Y-60365273D01*
X147360271Y-60356211D01*
X147371109Y-60348173D01*
X147382683Y-60341236D01*
X147394881Y-60335467D01*
X147407586Y-60330921D01*
X147420675Y-60327642D01*
X147434023Y-60325662D01*
X147447500Y-60325000D01*
X147722500Y-60325000D01*
X147735977Y-60325662D01*
X147735977Y-60325662D01*
G37*
D12*
X147585000Y-61125000D03*
D10*
G36*
X146465977Y-60325662D02*
G01*
X146479325Y-60327642D01*
X146492414Y-60330921D01*
X146505119Y-60335467D01*
X146517317Y-60341236D01*
X146528891Y-60348173D01*
X146539729Y-60356211D01*
X146549727Y-60365273D01*
X146558789Y-60375271D01*
X146566827Y-60386109D01*
X146573764Y-60397683D01*
X146579533Y-60409881D01*
X146584079Y-60422586D01*
X146587358Y-60435675D01*
X146589338Y-60449023D01*
X146590000Y-60462500D01*
X146590000Y-61787500D01*
X146589338Y-61800977D01*
X146587358Y-61814325D01*
X146584079Y-61827414D01*
X146579533Y-61840119D01*
X146573764Y-61852317D01*
X146566827Y-61863891D01*
X146558789Y-61874729D01*
X146549727Y-61884727D01*
X146539729Y-61893789D01*
X146528891Y-61901827D01*
X146517317Y-61908764D01*
X146505119Y-61914533D01*
X146492414Y-61919079D01*
X146479325Y-61922358D01*
X146465977Y-61924338D01*
X146452500Y-61925000D01*
X146177500Y-61925000D01*
X146164023Y-61924338D01*
X146150675Y-61922358D01*
X146137586Y-61919079D01*
X146124881Y-61914533D01*
X146112683Y-61908764D01*
X146101109Y-61901827D01*
X146090271Y-61893789D01*
X146080273Y-61884727D01*
X146071211Y-61874729D01*
X146063173Y-61863891D01*
X146056236Y-61852317D01*
X146050467Y-61840119D01*
X146045921Y-61827414D01*
X146042642Y-61814325D01*
X146040662Y-61800977D01*
X146040000Y-61787500D01*
X146040000Y-60462500D01*
X146040662Y-60449023D01*
X146042642Y-60435675D01*
X146045921Y-60422586D01*
X146050467Y-60409881D01*
X146056236Y-60397683D01*
X146063173Y-60386109D01*
X146071211Y-60375271D01*
X146080273Y-60365273D01*
X146090271Y-60356211D01*
X146101109Y-60348173D01*
X146112683Y-60341236D01*
X146124881Y-60335467D01*
X146137586Y-60330921D01*
X146150675Y-60327642D01*
X146164023Y-60325662D01*
X146177500Y-60325000D01*
X146452500Y-60325000D01*
X146465977Y-60325662D01*
X146465977Y-60325662D01*
G37*
D12*
X146315000Y-61125000D03*
D10*
G36*
X145195977Y-60325662D02*
G01*
X145209325Y-60327642D01*
X145222414Y-60330921D01*
X145235119Y-60335467D01*
X145247317Y-60341236D01*
X145258891Y-60348173D01*
X145269729Y-60356211D01*
X145279727Y-60365273D01*
X145288789Y-60375271D01*
X145296827Y-60386109D01*
X145303764Y-60397683D01*
X145309533Y-60409881D01*
X145314079Y-60422586D01*
X145317358Y-60435675D01*
X145319338Y-60449023D01*
X145320000Y-60462500D01*
X145320000Y-61787500D01*
X145319338Y-61800977D01*
X145317358Y-61814325D01*
X145314079Y-61827414D01*
X145309533Y-61840119D01*
X145303764Y-61852317D01*
X145296827Y-61863891D01*
X145288789Y-61874729D01*
X145279727Y-61884727D01*
X145269729Y-61893789D01*
X145258891Y-61901827D01*
X145247317Y-61908764D01*
X145235119Y-61914533D01*
X145222414Y-61919079D01*
X145209325Y-61922358D01*
X145195977Y-61924338D01*
X145182500Y-61925000D01*
X144907500Y-61925000D01*
X144894023Y-61924338D01*
X144880675Y-61922358D01*
X144867586Y-61919079D01*
X144854881Y-61914533D01*
X144842683Y-61908764D01*
X144831109Y-61901827D01*
X144820271Y-61893789D01*
X144810273Y-61884727D01*
X144801211Y-61874729D01*
X144793173Y-61863891D01*
X144786236Y-61852317D01*
X144780467Y-61840119D01*
X144775921Y-61827414D01*
X144772642Y-61814325D01*
X144770662Y-61800977D01*
X144770000Y-61787500D01*
X144770000Y-60462500D01*
X144770662Y-60449023D01*
X144772642Y-60435675D01*
X144775921Y-60422586D01*
X144780467Y-60409881D01*
X144786236Y-60397683D01*
X144793173Y-60386109D01*
X144801211Y-60375271D01*
X144810273Y-60365273D01*
X144820271Y-60356211D01*
X144831109Y-60348173D01*
X144842683Y-60341236D01*
X144854881Y-60335467D01*
X144867586Y-60330921D01*
X144880675Y-60327642D01*
X144894023Y-60325662D01*
X144907500Y-60325000D01*
X145182500Y-60325000D01*
X145195977Y-60325662D01*
X145195977Y-60325662D01*
G37*
D12*
X145045000Y-61125000D03*
D10*
G36*
X143925977Y-60325662D02*
G01*
X143939325Y-60327642D01*
X143952414Y-60330921D01*
X143965119Y-60335467D01*
X143977317Y-60341236D01*
X143988891Y-60348173D01*
X143999729Y-60356211D01*
X144009727Y-60365273D01*
X144018789Y-60375271D01*
X144026827Y-60386109D01*
X144033764Y-60397683D01*
X144039533Y-60409881D01*
X144044079Y-60422586D01*
X144047358Y-60435675D01*
X144049338Y-60449023D01*
X144050000Y-60462500D01*
X144050000Y-61787500D01*
X144049338Y-61800977D01*
X144047358Y-61814325D01*
X144044079Y-61827414D01*
X144039533Y-61840119D01*
X144033764Y-61852317D01*
X144026827Y-61863891D01*
X144018789Y-61874729D01*
X144009727Y-61884727D01*
X143999729Y-61893789D01*
X143988891Y-61901827D01*
X143977317Y-61908764D01*
X143965119Y-61914533D01*
X143952414Y-61919079D01*
X143939325Y-61922358D01*
X143925977Y-61924338D01*
X143912500Y-61925000D01*
X143637500Y-61925000D01*
X143624023Y-61924338D01*
X143610675Y-61922358D01*
X143597586Y-61919079D01*
X143584881Y-61914533D01*
X143572683Y-61908764D01*
X143561109Y-61901827D01*
X143550271Y-61893789D01*
X143540273Y-61884727D01*
X143531211Y-61874729D01*
X143523173Y-61863891D01*
X143516236Y-61852317D01*
X143510467Y-61840119D01*
X143505921Y-61827414D01*
X143502642Y-61814325D01*
X143500662Y-61800977D01*
X143500000Y-61787500D01*
X143500000Y-60462500D01*
X143500662Y-60449023D01*
X143502642Y-60435675D01*
X143505921Y-60422586D01*
X143510467Y-60409881D01*
X143516236Y-60397683D01*
X143523173Y-60386109D01*
X143531211Y-60375271D01*
X143540273Y-60365273D01*
X143550271Y-60356211D01*
X143561109Y-60348173D01*
X143572683Y-60341236D01*
X143584881Y-60335467D01*
X143597586Y-60330921D01*
X143610675Y-60327642D01*
X143624023Y-60325662D01*
X143637500Y-60325000D01*
X143912500Y-60325000D01*
X143925977Y-60325662D01*
X143925977Y-60325662D01*
G37*
D12*
X143775000Y-61125000D03*
D10*
G36*
X142655977Y-60325662D02*
G01*
X142669325Y-60327642D01*
X142682414Y-60330921D01*
X142695119Y-60335467D01*
X142707317Y-60341236D01*
X142718891Y-60348173D01*
X142729729Y-60356211D01*
X142739727Y-60365273D01*
X142748789Y-60375271D01*
X142756827Y-60386109D01*
X142763764Y-60397683D01*
X142769533Y-60409881D01*
X142774079Y-60422586D01*
X142777358Y-60435675D01*
X142779338Y-60449023D01*
X142780000Y-60462500D01*
X142780000Y-61787500D01*
X142779338Y-61800977D01*
X142777358Y-61814325D01*
X142774079Y-61827414D01*
X142769533Y-61840119D01*
X142763764Y-61852317D01*
X142756827Y-61863891D01*
X142748789Y-61874729D01*
X142739727Y-61884727D01*
X142729729Y-61893789D01*
X142718891Y-61901827D01*
X142707317Y-61908764D01*
X142695119Y-61914533D01*
X142682414Y-61919079D01*
X142669325Y-61922358D01*
X142655977Y-61924338D01*
X142642500Y-61925000D01*
X142367500Y-61925000D01*
X142354023Y-61924338D01*
X142340675Y-61922358D01*
X142327586Y-61919079D01*
X142314881Y-61914533D01*
X142302683Y-61908764D01*
X142291109Y-61901827D01*
X142280271Y-61893789D01*
X142270273Y-61884727D01*
X142261211Y-61874729D01*
X142253173Y-61863891D01*
X142246236Y-61852317D01*
X142240467Y-61840119D01*
X142235921Y-61827414D01*
X142232642Y-61814325D01*
X142230662Y-61800977D01*
X142230000Y-61787500D01*
X142230000Y-60462500D01*
X142230662Y-60449023D01*
X142232642Y-60435675D01*
X142235921Y-60422586D01*
X142240467Y-60409881D01*
X142246236Y-60397683D01*
X142253173Y-60386109D01*
X142261211Y-60375271D01*
X142270273Y-60365273D01*
X142280271Y-60356211D01*
X142291109Y-60348173D01*
X142302683Y-60341236D01*
X142314881Y-60335467D01*
X142327586Y-60330921D01*
X142340675Y-60327642D01*
X142354023Y-60325662D01*
X142367500Y-60325000D01*
X142642500Y-60325000D01*
X142655977Y-60325662D01*
X142655977Y-60325662D01*
G37*
D12*
X142505000Y-61125000D03*
D10*
G36*
X142655977Y-53825662D02*
G01*
X142669325Y-53827642D01*
X142682414Y-53830921D01*
X142695119Y-53835467D01*
X142707317Y-53841236D01*
X142718891Y-53848173D01*
X142729729Y-53856211D01*
X142739727Y-53865273D01*
X142748789Y-53875271D01*
X142756827Y-53886109D01*
X142763764Y-53897683D01*
X142769533Y-53909881D01*
X142774079Y-53922586D01*
X142777358Y-53935675D01*
X142779338Y-53949023D01*
X142780000Y-53962500D01*
X142780000Y-55287500D01*
X142779338Y-55300977D01*
X142777358Y-55314325D01*
X142774079Y-55327414D01*
X142769533Y-55340119D01*
X142763764Y-55352317D01*
X142756827Y-55363891D01*
X142748789Y-55374729D01*
X142739727Y-55384727D01*
X142729729Y-55393789D01*
X142718891Y-55401827D01*
X142707317Y-55408764D01*
X142695119Y-55414533D01*
X142682414Y-55419079D01*
X142669325Y-55422358D01*
X142655977Y-55424338D01*
X142642500Y-55425000D01*
X142367500Y-55425000D01*
X142354023Y-55424338D01*
X142340675Y-55422358D01*
X142327586Y-55419079D01*
X142314881Y-55414533D01*
X142302683Y-55408764D01*
X142291109Y-55401827D01*
X142280271Y-55393789D01*
X142270273Y-55384727D01*
X142261211Y-55374729D01*
X142253173Y-55363891D01*
X142246236Y-55352317D01*
X142240467Y-55340119D01*
X142235921Y-55327414D01*
X142232642Y-55314325D01*
X142230662Y-55300977D01*
X142230000Y-55287500D01*
X142230000Y-53962500D01*
X142230662Y-53949023D01*
X142232642Y-53935675D01*
X142235921Y-53922586D01*
X142240467Y-53909881D01*
X142246236Y-53897683D01*
X142253173Y-53886109D01*
X142261211Y-53875271D01*
X142270273Y-53865273D01*
X142280271Y-53856211D01*
X142291109Y-53848173D01*
X142302683Y-53841236D01*
X142314881Y-53835467D01*
X142327586Y-53830921D01*
X142340675Y-53827642D01*
X142354023Y-53825662D01*
X142367500Y-53825000D01*
X142642500Y-53825000D01*
X142655977Y-53825662D01*
X142655977Y-53825662D01*
G37*
D12*
X142505000Y-54625000D03*
D10*
G36*
X143925977Y-53825662D02*
G01*
X143939325Y-53827642D01*
X143952414Y-53830921D01*
X143965119Y-53835467D01*
X143977317Y-53841236D01*
X143988891Y-53848173D01*
X143999729Y-53856211D01*
X144009727Y-53865273D01*
X144018789Y-53875271D01*
X144026827Y-53886109D01*
X144033764Y-53897683D01*
X144039533Y-53909881D01*
X144044079Y-53922586D01*
X144047358Y-53935675D01*
X144049338Y-53949023D01*
X144050000Y-53962500D01*
X144050000Y-55287500D01*
X144049338Y-55300977D01*
X144047358Y-55314325D01*
X144044079Y-55327414D01*
X144039533Y-55340119D01*
X144033764Y-55352317D01*
X144026827Y-55363891D01*
X144018789Y-55374729D01*
X144009727Y-55384727D01*
X143999729Y-55393789D01*
X143988891Y-55401827D01*
X143977317Y-55408764D01*
X143965119Y-55414533D01*
X143952414Y-55419079D01*
X143939325Y-55422358D01*
X143925977Y-55424338D01*
X143912500Y-55425000D01*
X143637500Y-55425000D01*
X143624023Y-55424338D01*
X143610675Y-55422358D01*
X143597586Y-55419079D01*
X143584881Y-55414533D01*
X143572683Y-55408764D01*
X143561109Y-55401827D01*
X143550271Y-55393789D01*
X143540273Y-55384727D01*
X143531211Y-55374729D01*
X143523173Y-55363891D01*
X143516236Y-55352317D01*
X143510467Y-55340119D01*
X143505921Y-55327414D01*
X143502642Y-55314325D01*
X143500662Y-55300977D01*
X143500000Y-55287500D01*
X143500000Y-53962500D01*
X143500662Y-53949023D01*
X143502642Y-53935675D01*
X143505921Y-53922586D01*
X143510467Y-53909881D01*
X143516236Y-53897683D01*
X143523173Y-53886109D01*
X143531211Y-53875271D01*
X143540273Y-53865273D01*
X143550271Y-53856211D01*
X143561109Y-53848173D01*
X143572683Y-53841236D01*
X143584881Y-53835467D01*
X143597586Y-53830921D01*
X143610675Y-53827642D01*
X143624023Y-53825662D01*
X143637500Y-53825000D01*
X143912500Y-53825000D01*
X143925977Y-53825662D01*
X143925977Y-53825662D01*
G37*
D12*
X143775000Y-54625000D03*
D10*
G36*
X145195977Y-53825662D02*
G01*
X145209325Y-53827642D01*
X145222414Y-53830921D01*
X145235119Y-53835467D01*
X145247317Y-53841236D01*
X145258891Y-53848173D01*
X145269729Y-53856211D01*
X145279727Y-53865273D01*
X145288789Y-53875271D01*
X145296827Y-53886109D01*
X145303764Y-53897683D01*
X145309533Y-53909881D01*
X145314079Y-53922586D01*
X145317358Y-53935675D01*
X145319338Y-53949023D01*
X145320000Y-53962500D01*
X145320000Y-55287500D01*
X145319338Y-55300977D01*
X145317358Y-55314325D01*
X145314079Y-55327414D01*
X145309533Y-55340119D01*
X145303764Y-55352317D01*
X145296827Y-55363891D01*
X145288789Y-55374729D01*
X145279727Y-55384727D01*
X145269729Y-55393789D01*
X145258891Y-55401827D01*
X145247317Y-55408764D01*
X145235119Y-55414533D01*
X145222414Y-55419079D01*
X145209325Y-55422358D01*
X145195977Y-55424338D01*
X145182500Y-55425000D01*
X144907500Y-55425000D01*
X144894023Y-55424338D01*
X144880675Y-55422358D01*
X144867586Y-55419079D01*
X144854881Y-55414533D01*
X144842683Y-55408764D01*
X144831109Y-55401827D01*
X144820271Y-55393789D01*
X144810273Y-55384727D01*
X144801211Y-55374729D01*
X144793173Y-55363891D01*
X144786236Y-55352317D01*
X144780467Y-55340119D01*
X144775921Y-55327414D01*
X144772642Y-55314325D01*
X144770662Y-55300977D01*
X144770000Y-55287500D01*
X144770000Y-53962500D01*
X144770662Y-53949023D01*
X144772642Y-53935675D01*
X144775921Y-53922586D01*
X144780467Y-53909881D01*
X144786236Y-53897683D01*
X144793173Y-53886109D01*
X144801211Y-53875271D01*
X144810273Y-53865273D01*
X144820271Y-53856211D01*
X144831109Y-53848173D01*
X144842683Y-53841236D01*
X144854881Y-53835467D01*
X144867586Y-53830921D01*
X144880675Y-53827642D01*
X144894023Y-53825662D01*
X144907500Y-53825000D01*
X145182500Y-53825000D01*
X145195977Y-53825662D01*
X145195977Y-53825662D01*
G37*
D12*
X145045000Y-54625000D03*
D10*
G36*
X146465977Y-53825662D02*
G01*
X146479325Y-53827642D01*
X146492414Y-53830921D01*
X146505119Y-53835467D01*
X146517317Y-53841236D01*
X146528891Y-53848173D01*
X146539729Y-53856211D01*
X146549727Y-53865273D01*
X146558789Y-53875271D01*
X146566827Y-53886109D01*
X146573764Y-53897683D01*
X146579533Y-53909881D01*
X146584079Y-53922586D01*
X146587358Y-53935675D01*
X146589338Y-53949023D01*
X146590000Y-53962500D01*
X146590000Y-55287500D01*
X146589338Y-55300977D01*
X146587358Y-55314325D01*
X146584079Y-55327414D01*
X146579533Y-55340119D01*
X146573764Y-55352317D01*
X146566827Y-55363891D01*
X146558789Y-55374729D01*
X146549727Y-55384727D01*
X146539729Y-55393789D01*
X146528891Y-55401827D01*
X146517317Y-55408764D01*
X146505119Y-55414533D01*
X146492414Y-55419079D01*
X146479325Y-55422358D01*
X146465977Y-55424338D01*
X146452500Y-55425000D01*
X146177500Y-55425000D01*
X146164023Y-55424338D01*
X146150675Y-55422358D01*
X146137586Y-55419079D01*
X146124881Y-55414533D01*
X146112683Y-55408764D01*
X146101109Y-55401827D01*
X146090271Y-55393789D01*
X146080273Y-55384727D01*
X146071211Y-55374729D01*
X146063173Y-55363891D01*
X146056236Y-55352317D01*
X146050467Y-55340119D01*
X146045921Y-55327414D01*
X146042642Y-55314325D01*
X146040662Y-55300977D01*
X146040000Y-55287500D01*
X146040000Y-53962500D01*
X146040662Y-53949023D01*
X146042642Y-53935675D01*
X146045921Y-53922586D01*
X146050467Y-53909881D01*
X146056236Y-53897683D01*
X146063173Y-53886109D01*
X146071211Y-53875271D01*
X146080273Y-53865273D01*
X146090271Y-53856211D01*
X146101109Y-53848173D01*
X146112683Y-53841236D01*
X146124881Y-53835467D01*
X146137586Y-53830921D01*
X146150675Y-53827642D01*
X146164023Y-53825662D01*
X146177500Y-53825000D01*
X146452500Y-53825000D01*
X146465977Y-53825662D01*
X146465977Y-53825662D01*
G37*
D12*
X146315000Y-54625000D03*
D10*
G36*
X147735977Y-53825662D02*
G01*
X147749325Y-53827642D01*
X147762414Y-53830921D01*
X147775119Y-53835467D01*
X147787317Y-53841236D01*
X147798891Y-53848173D01*
X147809729Y-53856211D01*
X147819727Y-53865273D01*
X147828789Y-53875271D01*
X147836827Y-53886109D01*
X147843764Y-53897683D01*
X147849533Y-53909881D01*
X147854079Y-53922586D01*
X147857358Y-53935675D01*
X147859338Y-53949023D01*
X147860000Y-53962500D01*
X147860000Y-55287500D01*
X147859338Y-55300977D01*
X147857358Y-55314325D01*
X147854079Y-55327414D01*
X147849533Y-55340119D01*
X147843764Y-55352317D01*
X147836827Y-55363891D01*
X147828789Y-55374729D01*
X147819727Y-55384727D01*
X147809729Y-55393789D01*
X147798891Y-55401827D01*
X147787317Y-55408764D01*
X147775119Y-55414533D01*
X147762414Y-55419079D01*
X147749325Y-55422358D01*
X147735977Y-55424338D01*
X147722500Y-55425000D01*
X147447500Y-55425000D01*
X147434023Y-55424338D01*
X147420675Y-55422358D01*
X147407586Y-55419079D01*
X147394881Y-55414533D01*
X147382683Y-55408764D01*
X147371109Y-55401827D01*
X147360271Y-55393789D01*
X147350273Y-55384727D01*
X147341211Y-55374729D01*
X147333173Y-55363891D01*
X147326236Y-55352317D01*
X147320467Y-55340119D01*
X147315921Y-55327414D01*
X147312642Y-55314325D01*
X147310662Y-55300977D01*
X147310000Y-55287500D01*
X147310000Y-53962500D01*
X147310662Y-53949023D01*
X147312642Y-53935675D01*
X147315921Y-53922586D01*
X147320467Y-53909881D01*
X147326236Y-53897683D01*
X147333173Y-53886109D01*
X147341211Y-53875271D01*
X147350273Y-53865273D01*
X147360271Y-53856211D01*
X147371109Y-53848173D01*
X147382683Y-53841236D01*
X147394881Y-53835467D01*
X147407586Y-53830921D01*
X147420675Y-53827642D01*
X147434023Y-53825662D01*
X147447500Y-53825000D01*
X147722500Y-53825000D01*
X147735977Y-53825662D01*
X147735977Y-53825662D01*
G37*
D12*
X147585000Y-54625000D03*
D10*
G36*
X149005977Y-53825662D02*
G01*
X149019325Y-53827642D01*
X149032414Y-53830921D01*
X149045119Y-53835467D01*
X149057317Y-53841236D01*
X149068891Y-53848173D01*
X149079729Y-53856211D01*
X149089727Y-53865273D01*
X149098789Y-53875271D01*
X149106827Y-53886109D01*
X149113764Y-53897683D01*
X149119533Y-53909881D01*
X149124079Y-53922586D01*
X149127358Y-53935675D01*
X149129338Y-53949023D01*
X149130000Y-53962500D01*
X149130000Y-55287500D01*
X149129338Y-55300977D01*
X149127358Y-55314325D01*
X149124079Y-55327414D01*
X149119533Y-55340119D01*
X149113764Y-55352317D01*
X149106827Y-55363891D01*
X149098789Y-55374729D01*
X149089727Y-55384727D01*
X149079729Y-55393789D01*
X149068891Y-55401827D01*
X149057317Y-55408764D01*
X149045119Y-55414533D01*
X149032414Y-55419079D01*
X149019325Y-55422358D01*
X149005977Y-55424338D01*
X148992500Y-55425000D01*
X148717500Y-55425000D01*
X148704023Y-55424338D01*
X148690675Y-55422358D01*
X148677586Y-55419079D01*
X148664881Y-55414533D01*
X148652683Y-55408764D01*
X148641109Y-55401827D01*
X148630271Y-55393789D01*
X148620273Y-55384727D01*
X148611211Y-55374729D01*
X148603173Y-55363891D01*
X148596236Y-55352317D01*
X148590467Y-55340119D01*
X148585921Y-55327414D01*
X148582642Y-55314325D01*
X148580662Y-55300977D01*
X148580000Y-55287500D01*
X148580000Y-53962500D01*
X148580662Y-53949023D01*
X148582642Y-53935675D01*
X148585921Y-53922586D01*
X148590467Y-53909881D01*
X148596236Y-53897683D01*
X148603173Y-53886109D01*
X148611211Y-53875271D01*
X148620273Y-53865273D01*
X148630271Y-53856211D01*
X148641109Y-53848173D01*
X148652683Y-53841236D01*
X148664881Y-53835467D01*
X148677586Y-53830921D01*
X148690675Y-53827642D01*
X148704023Y-53825662D01*
X148717500Y-53825000D01*
X148992500Y-53825000D01*
X149005977Y-53825662D01*
X149005977Y-53825662D01*
G37*
D12*
X148855000Y-54625000D03*
D10*
G36*
X150275977Y-53825662D02*
G01*
X150289325Y-53827642D01*
X150302414Y-53830921D01*
X150315119Y-53835467D01*
X150327317Y-53841236D01*
X150338891Y-53848173D01*
X150349729Y-53856211D01*
X150359727Y-53865273D01*
X150368789Y-53875271D01*
X150376827Y-53886109D01*
X150383764Y-53897683D01*
X150389533Y-53909881D01*
X150394079Y-53922586D01*
X150397358Y-53935675D01*
X150399338Y-53949023D01*
X150400000Y-53962500D01*
X150400000Y-55287500D01*
X150399338Y-55300977D01*
X150397358Y-55314325D01*
X150394079Y-55327414D01*
X150389533Y-55340119D01*
X150383764Y-55352317D01*
X150376827Y-55363891D01*
X150368789Y-55374729D01*
X150359727Y-55384727D01*
X150349729Y-55393789D01*
X150338891Y-55401827D01*
X150327317Y-55408764D01*
X150315119Y-55414533D01*
X150302414Y-55419079D01*
X150289325Y-55422358D01*
X150275977Y-55424338D01*
X150262500Y-55425000D01*
X149987500Y-55425000D01*
X149974023Y-55424338D01*
X149960675Y-55422358D01*
X149947586Y-55419079D01*
X149934881Y-55414533D01*
X149922683Y-55408764D01*
X149911109Y-55401827D01*
X149900271Y-55393789D01*
X149890273Y-55384727D01*
X149881211Y-55374729D01*
X149873173Y-55363891D01*
X149866236Y-55352317D01*
X149860467Y-55340119D01*
X149855921Y-55327414D01*
X149852642Y-55314325D01*
X149850662Y-55300977D01*
X149850000Y-55287500D01*
X149850000Y-53962500D01*
X149850662Y-53949023D01*
X149852642Y-53935675D01*
X149855921Y-53922586D01*
X149860467Y-53909881D01*
X149866236Y-53897683D01*
X149873173Y-53886109D01*
X149881211Y-53875271D01*
X149890273Y-53865273D01*
X149900271Y-53856211D01*
X149911109Y-53848173D01*
X149922683Y-53841236D01*
X149934881Y-53835467D01*
X149947586Y-53830921D01*
X149960675Y-53827642D01*
X149974023Y-53825662D01*
X149987500Y-53825000D01*
X150262500Y-53825000D01*
X150275977Y-53825662D01*
X150275977Y-53825662D01*
G37*
D12*
X150125000Y-54625000D03*
D10*
G36*
X151545977Y-53825662D02*
G01*
X151559325Y-53827642D01*
X151572414Y-53830921D01*
X151585119Y-53835467D01*
X151597317Y-53841236D01*
X151608891Y-53848173D01*
X151619729Y-53856211D01*
X151629727Y-53865273D01*
X151638789Y-53875271D01*
X151646827Y-53886109D01*
X151653764Y-53897683D01*
X151659533Y-53909881D01*
X151664079Y-53922586D01*
X151667358Y-53935675D01*
X151669338Y-53949023D01*
X151670000Y-53962500D01*
X151670000Y-55287500D01*
X151669338Y-55300977D01*
X151667358Y-55314325D01*
X151664079Y-55327414D01*
X151659533Y-55340119D01*
X151653764Y-55352317D01*
X151646827Y-55363891D01*
X151638789Y-55374729D01*
X151629727Y-55384727D01*
X151619729Y-55393789D01*
X151608891Y-55401827D01*
X151597317Y-55408764D01*
X151585119Y-55414533D01*
X151572414Y-55419079D01*
X151559325Y-55422358D01*
X151545977Y-55424338D01*
X151532500Y-55425000D01*
X151257500Y-55425000D01*
X151244023Y-55424338D01*
X151230675Y-55422358D01*
X151217586Y-55419079D01*
X151204881Y-55414533D01*
X151192683Y-55408764D01*
X151181109Y-55401827D01*
X151170271Y-55393789D01*
X151160273Y-55384727D01*
X151151211Y-55374729D01*
X151143173Y-55363891D01*
X151136236Y-55352317D01*
X151130467Y-55340119D01*
X151125921Y-55327414D01*
X151122642Y-55314325D01*
X151120662Y-55300977D01*
X151120000Y-55287500D01*
X151120000Y-53962500D01*
X151120662Y-53949023D01*
X151122642Y-53935675D01*
X151125921Y-53922586D01*
X151130467Y-53909881D01*
X151136236Y-53897683D01*
X151143173Y-53886109D01*
X151151211Y-53875271D01*
X151160273Y-53865273D01*
X151170271Y-53856211D01*
X151181109Y-53848173D01*
X151192683Y-53841236D01*
X151204881Y-53835467D01*
X151217586Y-53830921D01*
X151230675Y-53827642D01*
X151244023Y-53825662D01*
X151257500Y-53825000D01*
X151532500Y-53825000D01*
X151545977Y-53825662D01*
X151545977Y-53825662D01*
G37*
D12*
X151395000Y-54625000D03*
D10*
G36*
X72545977Y-71525662D02*
G01*
X72559325Y-71527642D01*
X72572414Y-71530921D01*
X72585119Y-71535467D01*
X72597317Y-71541236D01*
X72608891Y-71548173D01*
X72619729Y-71556211D01*
X72629727Y-71565273D01*
X72638789Y-71575271D01*
X72646827Y-71586109D01*
X72653764Y-71597683D01*
X72659533Y-71609881D01*
X72664079Y-71622586D01*
X72667358Y-71635675D01*
X72669338Y-71649023D01*
X72670000Y-71662500D01*
X72670000Y-72987500D01*
X72669338Y-73000977D01*
X72667358Y-73014325D01*
X72664079Y-73027414D01*
X72659533Y-73040119D01*
X72653764Y-73052317D01*
X72646827Y-73063891D01*
X72638789Y-73074729D01*
X72629727Y-73084727D01*
X72619729Y-73093789D01*
X72608891Y-73101827D01*
X72597317Y-73108764D01*
X72585119Y-73114533D01*
X72572414Y-73119079D01*
X72559325Y-73122358D01*
X72545977Y-73124338D01*
X72532500Y-73125000D01*
X72257500Y-73125000D01*
X72244023Y-73124338D01*
X72230675Y-73122358D01*
X72217586Y-73119079D01*
X72204881Y-73114533D01*
X72192683Y-73108764D01*
X72181109Y-73101827D01*
X72170271Y-73093789D01*
X72160273Y-73084727D01*
X72151211Y-73074729D01*
X72143173Y-73063891D01*
X72136236Y-73052317D01*
X72130467Y-73040119D01*
X72125921Y-73027414D01*
X72122642Y-73014325D01*
X72120662Y-73000977D01*
X72120000Y-72987500D01*
X72120000Y-71662500D01*
X72120662Y-71649023D01*
X72122642Y-71635675D01*
X72125921Y-71622586D01*
X72130467Y-71609881D01*
X72136236Y-71597683D01*
X72143173Y-71586109D01*
X72151211Y-71575271D01*
X72160273Y-71565273D01*
X72170271Y-71556211D01*
X72181109Y-71548173D01*
X72192683Y-71541236D01*
X72204881Y-71535467D01*
X72217586Y-71530921D01*
X72230675Y-71527642D01*
X72244023Y-71525662D01*
X72257500Y-71525000D01*
X72532500Y-71525000D01*
X72545977Y-71525662D01*
X72545977Y-71525662D01*
G37*
D12*
X72395000Y-72325000D03*
D10*
G36*
X71275977Y-71525662D02*
G01*
X71289325Y-71527642D01*
X71302414Y-71530921D01*
X71315119Y-71535467D01*
X71327317Y-71541236D01*
X71338891Y-71548173D01*
X71349729Y-71556211D01*
X71359727Y-71565273D01*
X71368789Y-71575271D01*
X71376827Y-71586109D01*
X71383764Y-71597683D01*
X71389533Y-71609881D01*
X71394079Y-71622586D01*
X71397358Y-71635675D01*
X71399338Y-71649023D01*
X71400000Y-71662500D01*
X71400000Y-72987500D01*
X71399338Y-73000977D01*
X71397358Y-73014325D01*
X71394079Y-73027414D01*
X71389533Y-73040119D01*
X71383764Y-73052317D01*
X71376827Y-73063891D01*
X71368789Y-73074729D01*
X71359727Y-73084727D01*
X71349729Y-73093789D01*
X71338891Y-73101827D01*
X71327317Y-73108764D01*
X71315119Y-73114533D01*
X71302414Y-73119079D01*
X71289325Y-73122358D01*
X71275977Y-73124338D01*
X71262500Y-73125000D01*
X70987500Y-73125000D01*
X70974023Y-73124338D01*
X70960675Y-73122358D01*
X70947586Y-73119079D01*
X70934881Y-73114533D01*
X70922683Y-73108764D01*
X70911109Y-73101827D01*
X70900271Y-73093789D01*
X70890273Y-73084727D01*
X70881211Y-73074729D01*
X70873173Y-73063891D01*
X70866236Y-73052317D01*
X70860467Y-73040119D01*
X70855921Y-73027414D01*
X70852642Y-73014325D01*
X70850662Y-73000977D01*
X70850000Y-72987500D01*
X70850000Y-71662500D01*
X70850662Y-71649023D01*
X70852642Y-71635675D01*
X70855921Y-71622586D01*
X70860467Y-71609881D01*
X70866236Y-71597683D01*
X70873173Y-71586109D01*
X70881211Y-71575271D01*
X70890273Y-71565273D01*
X70900271Y-71556211D01*
X70911109Y-71548173D01*
X70922683Y-71541236D01*
X70934881Y-71535467D01*
X70947586Y-71530921D01*
X70960675Y-71527642D01*
X70974023Y-71525662D01*
X70987500Y-71525000D01*
X71262500Y-71525000D01*
X71275977Y-71525662D01*
X71275977Y-71525662D01*
G37*
D12*
X71125000Y-72325000D03*
D10*
G36*
X70005977Y-71525662D02*
G01*
X70019325Y-71527642D01*
X70032414Y-71530921D01*
X70045119Y-71535467D01*
X70057317Y-71541236D01*
X70068891Y-71548173D01*
X70079729Y-71556211D01*
X70089727Y-71565273D01*
X70098789Y-71575271D01*
X70106827Y-71586109D01*
X70113764Y-71597683D01*
X70119533Y-71609881D01*
X70124079Y-71622586D01*
X70127358Y-71635675D01*
X70129338Y-71649023D01*
X70130000Y-71662500D01*
X70130000Y-72987500D01*
X70129338Y-73000977D01*
X70127358Y-73014325D01*
X70124079Y-73027414D01*
X70119533Y-73040119D01*
X70113764Y-73052317D01*
X70106827Y-73063891D01*
X70098789Y-73074729D01*
X70089727Y-73084727D01*
X70079729Y-73093789D01*
X70068891Y-73101827D01*
X70057317Y-73108764D01*
X70045119Y-73114533D01*
X70032414Y-73119079D01*
X70019325Y-73122358D01*
X70005977Y-73124338D01*
X69992500Y-73125000D01*
X69717500Y-73125000D01*
X69704023Y-73124338D01*
X69690675Y-73122358D01*
X69677586Y-73119079D01*
X69664881Y-73114533D01*
X69652683Y-73108764D01*
X69641109Y-73101827D01*
X69630271Y-73093789D01*
X69620273Y-73084727D01*
X69611211Y-73074729D01*
X69603173Y-73063891D01*
X69596236Y-73052317D01*
X69590467Y-73040119D01*
X69585921Y-73027414D01*
X69582642Y-73014325D01*
X69580662Y-73000977D01*
X69580000Y-72987500D01*
X69580000Y-71662500D01*
X69580662Y-71649023D01*
X69582642Y-71635675D01*
X69585921Y-71622586D01*
X69590467Y-71609881D01*
X69596236Y-71597683D01*
X69603173Y-71586109D01*
X69611211Y-71575271D01*
X69620273Y-71565273D01*
X69630271Y-71556211D01*
X69641109Y-71548173D01*
X69652683Y-71541236D01*
X69664881Y-71535467D01*
X69677586Y-71530921D01*
X69690675Y-71527642D01*
X69704023Y-71525662D01*
X69717500Y-71525000D01*
X69992500Y-71525000D01*
X70005977Y-71525662D01*
X70005977Y-71525662D01*
G37*
D12*
X69855000Y-72325000D03*
D10*
G36*
X68735977Y-71525662D02*
G01*
X68749325Y-71527642D01*
X68762414Y-71530921D01*
X68775119Y-71535467D01*
X68787317Y-71541236D01*
X68798891Y-71548173D01*
X68809729Y-71556211D01*
X68819727Y-71565273D01*
X68828789Y-71575271D01*
X68836827Y-71586109D01*
X68843764Y-71597683D01*
X68849533Y-71609881D01*
X68854079Y-71622586D01*
X68857358Y-71635675D01*
X68859338Y-71649023D01*
X68860000Y-71662500D01*
X68860000Y-72987500D01*
X68859338Y-73000977D01*
X68857358Y-73014325D01*
X68854079Y-73027414D01*
X68849533Y-73040119D01*
X68843764Y-73052317D01*
X68836827Y-73063891D01*
X68828789Y-73074729D01*
X68819727Y-73084727D01*
X68809729Y-73093789D01*
X68798891Y-73101827D01*
X68787317Y-73108764D01*
X68775119Y-73114533D01*
X68762414Y-73119079D01*
X68749325Y-73122358D01*
X68735977Y-73124338D01*
X68722500Y-73125000D01*
X68447500Y-73125000D01*
X68434023Y-73124338D01*
X68420675Y-73122358D01*
X68407586Y-73119079D01*
X68394881Y-73114533D01*
X68382683Y-73108764D01*
X68371109Y-73101827D01*
X68360271Y-73093789D01*
X68350273Y-73084727D01*
X68341211Y-73074729D01*
X68333173Y-73063891D01*
X68326236Y-73052317D01*
X68320467Y-73040119D01*
X68315921Y-73027414D01*
X68312642Y-73014325D01*
X68310662Y-73000977D01*
X68310000Y-72987500D01*
X68310000Y-71662500D01*
X68310662Y-71649023D01*
X68312642Y-71635675D01*
X68315921Y-71622586D01*
X68320467Y-71609881D01*
X68326236Y-71597683D01*
X68333173Y-71586109D01*
X68341211Y-71575271D01*
X68350273Y-71565273D01*
X68360271Y-71556211D01*
X68371109Y-71548173D01*
X68382683Y-71541236D01*
X68394881Y-71535467D01*
X68407586Y-71530921D01*
X68420675Y-71527642D01*
X68434023Y-71525662D01*
X68447500Y-71525000D01*
X68722500Y-71525000D01*
X68735977Y-71525662D01*
X68735977Y-71525662D01*
G37*
D12*
X68585000Y-72325000D03*
D10*
G36*
X67465977Y-71525662D02*
G01*
X67479325Y-71527642D01*
X67492414Y-71530921D01*
X67505119Y-71535467D01*
X67517317Y-71541236D01*
X67528891Y-71548173D01*
X67539729Y-71556211D01*
X67549727Y-71565273D01*
X67558789Y-71575271D01*
X67566827Y-71586109D01*
X67573764Y-71597683D01*
X67579533Y-71609881D01*
X67584079Y-71622586D01*
X67587358Y-71635675D01*
X67589338Y-71649023D01*
X67590000Y-71662500D01*
X67590000Y-72987500D01*
X67589338Y-73000977D01*
X67587358Y-73014325D01*
X67584079Y-73027414D01*
X67579533Y-73040119D01*
X67573764Y-73052317D01*
X67566827Y-73063891D01*
X67558789Y-73074729D01*
X67549727Y-73084727D01*
X67539729Y-73093789D01*
X67528891Y-73101827D01*
X67517317Y-73108764D01*
X67505119Y-73114533D01*
X67492414Y-73119079D01*
X67479325Y-73122358D01*
X67465977Y-73124338D01*
X67452500Y-73125000D01*
X67177500Y-73125000D01*
X67164023Y-73124338D01*
X67150675Y-73122358D01*
X67137586Y-73119079D01*
X67124881Y-73114533D01*
X67112683Y-73108764D01*
X67101109Y-73101827D01*
X67090271Y-73093789D01*
X67080273Y-73084727D01*
X67071211Y-73074729D01*
X67063173Y-73063891D01*
X67056236Y-73052317D01*
X67050467Y-73040119D01*
X67045921Y-73027414D01*
X67042642Y-73014325D01*
X67040662Y-73000977D01*
X67040000Y-72987500D01*
X67040000Y-71662500D01*
X67040662Y-71649023D01*
X67042642Y-71635675D01*
X67045921Y-71622586D01*
X67050467Y-71609881D01*
X67056236Y-71597683D01*
X67063173Y-71586109D01*
X67071211Y-71575271D01*
X67080273Y-71565273D01*
X67090271Y-71556211D01*
X67101109Y-71548173D01*
X67112683Y-71541236D01*
X67124881Y-71535467D01*
X67137586Y-71530921D01*
X67150675Y-71527642D01*
X67164023Y-71525662D01*
X67177500Y-71525000D01*
X67452500Y-71525000D01*
X67465977Y-71525662D01*
X67465977Y-71525662D01*
G37*
D12*
X67315000Y-72325000D03*
D10*
G36*
X66195977Y-71525662D02*
G01*
X66209325Y-71527642D01*
X66222414Y-71530921D01*
X66235119Y-71535467D01*
X66247317Y-71541236D01*
X66258891Y-71548173D01*
X66269729Y-71556211D01*
X66279727Y-71565273D01*
X66288789Y-71575271D01*
X66296827Y-71586109D01*
X66303764Y-71597683D01*
X66309533Y-71609881D01*
X66314079Y-71622586D01*
X66317358Y-71635675D01*
X66319338Y-71649023D01*
X66320000Y-71662500D01*
X66320000Y-72987500D01*
X66319338Y-73000977D01*
X66317358Y-73014325D01*
X66314079Y-73027414D01*
X66309533Y-73040119D01*
X66303764Y-73052317D01*
X66296827Y-73063891D01*
X66288789Y-73074729D01*
X66279727Y-73084727D01*
X66269729Y-73093789D01*
X66258891Y-73101827D01*
X66247317Y-73108764D01*
X66235119Y-73114533D01*
X66222414Y-73119079D01*
X66209325Y-73122358D01*
X66195977Y-73124338D01*
X66182500Y-73125000D01*
X65907500Y-73125000D01*
X65894023Y-73124338D01*
X65880675Y-73122358D01*
X65867586Y-73119079D01*
X65854881Y-73114533D01*
X65842683Y-73108764D01*
X65831109Y-73101827D01*
X65820271Y-73093789D01*
X65810273Y-73084727D01*
X65801211Y-73074729D01*
X65793173Y-73063891D01*
X65786236Y-73052317D01*
X65780467Y-73040119D01*
X65775921Y-73027414D01*
X65772642Y-73014325D01*
X65770662Y-73000977D01*
X65770000Y-72987500D01*
X65770000Y-71662500D01*
X65770662Y-71649023D01*
X65772642Y-71635675D01*
X65775921Y-71622586D01*
X65780467Y-71609881D01*
X65786236Y-71597683D01*
X65793173Y-71586109D01*
X65801211Y-71575271D01*
X65810273Y-71565273D01*
X65820271Y-71556211D01*
X65831109Y-71548173D01*
X65842683Y-71541236D01*
X65854881Y-71535467D01*
X65867586Y-71530921D01*
X65880675Y-71527642D01*
X65894023Y-71525662D01*
X65907500Y-71525000D01*
X66182500Y-71525000D01*
X66195977Y-71525662D01*
X66195977Y-71525662D01*
G37*
D12*
X66045000Y-72325000D03*
D10*
G36*
X64925977Y-71525662D02*
G01*
X64939325Y-71527642D01*
X64952414Y-71530921D01*
X64965119Y-71535467D01*
X64977317Y-71541236D01*
X64988891Y-71548173D01*
X64999729Y-71556211D01*
X65009727Y-71565273D01*
X65018789Y-71575271D01*
X65026827Y-71586109D01*
X65033764Y-71597683D01*
X65039533Y-71609881D01*
X65044079Y-71622586D01*
X65047358Y-71635675D01*
X65049338Y-71649023D01*
X65050000Y-71662500D01*
X65050000Y-72987500D01*
X65049338Y-73000977D01*
X65047358Y-73014325D01*
X65044079Y-73027414D01*
X65039533Y-73040119D01*
X65033764Y-73052317D01*
X65026827Y-73063891D01*
X65018789Y-73074729D01*
X65009727Y-73084727D01*
X64999729Y-73093789D01*
X64988891Y-73101827D01*
X64977317Y-73108764D01*
X64965119Y-73114533D01*
X64952414Y-73119079D01*
X64939325Y-73122358D01*
X64925977Y-73124338D01*
X64912500Y-73125000D01*
X64637500Y-73125000D01*
X64624023Y-73124338D01*
X64610675Y-73122358D01*
X64597586Y-73119079D01*
X64584881Y-73114533D01*
X64572683Y-73108764D01*
X64561109Y-73101827D01*
X64550271Y-73093789D01*
X64540273Y-73084727D01*
X64531211Y-73074729D01*
X64523173Y-73063891D01*
X64516236Y-73052317D01*
X64510467Y-73040119D01*
X64505921Y-73027414D01*
X64502642Y-73014325D01*
X64500662Y-73000977D01*
X64500000Y-72987500D01*
X64500000Y-71662500D01*
X64500662Y-71649023D01*
X64502642Y-71635675D01*
X64505921Y-71622586D01*
X64510467Y-71609881D01*
X64516236Y-71597683D01*
X64523173Y-71586109D01*
X64531211Y-71575271D01*
X64540273Y-71565273D01*
X64550271Y-71556211D01*
X64561109Y-71548173D01*
X64572683Y-71541236D01*
X64584881Y-71535467D01*
X64597586Y-71530921D01*
X64610675Y-71527642D01*
X64624023Y-71525662D01*
X64637500Y-71525000D01*
X64912500Y-71525000D01*
X64925977Y-71525662D01*
X64925977Y-71525662D01*
G37*
D12*
X64775000Y-72325000D03*
D10*
G36*
X63655977Y-71525662D02*
G01*
X63669325Y-71527642D01*
X63682414Y-71530921D01*
X63695119Y-71535467D01*
X63707317Y-71541236D01*
X63718891Y-71548173D01*
X63729729Y-71556211D01*
X63739727Y-71565273D01*
X63748789Y-71575271D01*
X63756827Y-71586109D01*
X63763764Y-71597683D01*
X63769533Y-71609881D01*
X63774079Y-71622586D01*
X63777358Y-71635675D01*
X63779338Y-71649023D01*
X63780000Y-71662500D01*
X63780000Y-72987500D01*
X63779338Y-73000977D01*
X63777358Y-73014325D01*
X63774079Y-73027414D01*
X63769533Y-73040119D01*
X63763764Y-73052317D01*
X63756827Y-73063891D01*
X63748789Y-73074729D01*
X63739727Y-73084727D01*
X63729729Y-73093789D01*
X63718891Y-73101827D01*
X63707317Y-73108764D01*
X63695119Y-73114533D01*
X63682414Y-73119079D01*
X63669325Y-73122358D01*
X63655977Y-73124338D01*
X63642500Y-73125000D01*
X63367500Y-73125000D01*
X63354023Y-73124338D01*
X63340675Y-73122358D01*
X63327586Y-73119079D01*
X63314881Y-73114533D01*
X63302683Y-73108764D01*
X63291109Y-73101827D01*
X63280271Y-73093789D01*
X63270273Y-73084727D01*
X63261211Y-73074729D01*
X63253173Y-73063891D01*
X63246236Y-73052317D01*
X63240467Y-73040119D01*
X63235921Y-73027414D01*
X63232642Y-73014325D01*
X63230662Y-73000977D01*
X63230000Y-72987500D01*
X63230000Y-71662500D01*
X63230662Y-71649023D01*
X63232642Y-71635675D01*
X63235921Y-71622586D01*
X63240467Y-71609881D01*
X63246236Y-71597683D01*
X63253173Y-71586109D01*
X63261211Y-71575271D01*
X63270273Y-71565273D01*
X63280271Y-71556211D01*
X63291109Y-71548173D01*
X63302683Y-71541236D01*
X63314881Y-71535467D01*
X63327586Y-71530921D01*
X63340675Y-71527642D01*
X63354023Y-71525662D01*
X63367500Y-71525000D01*
X63642500Y-71525000D01*
X63655977Y-71525662D01*
X63655977Y-71525662D01*
G37*
D12*
X63505000Y-72325000D03*
D10*
G36*
X63655977Y-65025662D02*
G01*
X63669325Y-65027642D01*
X63682414Y-65030921D01*
X63695119Y-65035467D01*
X63707317Y-65041236D01*
X63718891Y-65048173D01*
X63729729Y-65056211D01*
X63739727Y-65065273D01*
X63748789Y-65075271D01*
X63756827Y-65086109D01*
X63763764Y-65097683D01*
X63769533Y-65109881D01*
X63774079Y-65122586D01*
X63777358Y-65135675D01*
X63779338Y-65149023D01*
X63780000Y-65162500D01*
X63780000Y-66487500D01*
X63779338Y-66500977D01*
X63777358Y-66514325D01*
X63774079Y-66527414D01*
X63769533Y-66540119D01*
X63763764Y-66552317D01*
X63756827Y-66563891D01*
X63748789Y-66574729D01*
X63739727Y-66584727D01*
X63729729Y-66593789D01*
X63718891Y-66601827D01*
X63707317Y-66608764D01*
X63695119Y-66614533D01*
X63682414Y-66619079D01*
X63669325Y-66622358D01*
X63655977Y-66624338D01*
X63642500Y-66625000D01*
X63367500Y-66625000D01*
X63354023Y-66624338D01*
X63340675Y-66622358D01*
X63327586Y-66619079D01*
X63314881Y-66614533D01*
X63302683Y-66608764D01*
X63291109Y-66601827D01*
X63280271Y-66593789D01*
X63270273Y-66584727D01*
X63261211Y-66574729D01*
X63253173Y-66563891D01*
X63246236Y-66552317D01*
X63240467Y-66540119D01*
X63235921Y-66527414D01*
X63232642Y-66514325D01*
X63230662Y-66500977D01*
X63230000Y-66487500D01*
X63230000Y-65162500D01*
X63230662Y-65149023D01*
X63232642Y-65135675D01*
X63235921Y-65122586D01*
X63240467Y-65109881D01*
X63246236Y-65097683D01*
X63253173Y-65086109D01*
X63261211Y-65075271D01*
X63270273Y-65065273D01*
X63280271Y-65056211D01*
X63291109Y-65048173D01*
X63302683Y-65041236D01*
X63314881Y-65035467D01*
X63327586Y-65030921D01*
X63340675Y-65027642D01*
X63354023Y-65025662D01*
X63367500Y-65025000D01*
X63642500Y-65025000D01*
X63655977Y-65025662D01*
X63655977Y-65025662D01*
G37*
D12*
X63505000Y-65825000D03*
D10*
G36*
X64925977Y-65025662D02*
G01*
X64939325Y-65027642D01*
X64952414Y-65030921D01*
X64965119Y-65035467D01*
X64977317Y-65041236D01*
X64988891Y-65048173D01*
X64999729Y-65056211D01*
X65009727Y-65065273D01*
X65018789Y-65075271D01*
X65026827Y-65086109D01*
X65033764Y-65097683D01*
X65039533Y-65109881D01*
X65044079Y-65122586D01*
X65047358Y-65135675D01*
X65049338Y-65149023D01*
X65050000Y-65162500D01*
X65050000Y-66487500D01*
X65049338Y-66500977D01*
X65047358Y-66514325D01*
X65044079Y-66527414D01*
X65039533Y-66540119D01*
X65033764Y-66552317D01*
X65026827Y-66563891D01*
X65018789Y-66574729D01*
X65009727Y-66584727D01*
X64999729Y-66593789D01*
X64988891Y-66601827D01*
X64977317Y-66608764D01*
X64965119Y-66614533D01*
X64952414Y-66619079D01*
X64939325Y-66622358D01*
X64925977Y-66624338D01*
X64912500Y-66625000D01*
X64637500Y-66625000D01*
X64624023Y-66624338D01*
X64610675Y-66622358D01*
X64597586Y-66619079D01*
X64584881Y-66614533D01*
X64572683Y-66608764D01*
X64561109Y-66601827D01*
X64550271Y-66593789D01*
X64540273Y-66584727D01*
X64531211Y-66574729D01*
X64523173Y-66563891D01*
X64516236Y-66552317D01*
X64510467Y-66540119D01*
X64505921Y-66527414D01*
X64502642Y-66514325D01*
X64500662Y-66500977D01*
X64500000Y-66487500D01*
X64500000Y-65162500D01*
X64500662Y-65149023D01*
X64502642Y-65135675D01*
X64505921Y-65122586D01*
X64510467Y-65109881D01*
X64516236Y-65097683D01*
X64523173Y-65086109D01*
X64531211Y-65075271D01*
X64540273Y-65065273D01*
X64550271Y-65056211D01*
X64561109Y-65048173D01*
X64572683Y-65041236D01*
X64584881Y-65035467D01*
X64597586Y-65030921D01*
X64610675Y-65027642D01*
X64624023Y-65025662D01*
X64637500Y-65025000D01*
X64912500Y-65025000D01*
X64925977Y-65025662D01*
X64925977Y-65025662D01*
G37*
D12*
X64775000Y-65825000D03*
D10*
G36*
X66195977Y-65025662D02*
G01*
X66209325Y-65027642D01*
X66222414Y-65030921D01*
X66235119Y-65035467D01*
X66247317Y-65041236D01*
X66258891Y-65048173D01*
X66269729Y-65056211D01*
X66279727Y-65065273D01*
X66288789Y-65075271D01*
X66296827Y-65086109D01*
X66303764Y-65097683D01*
X66309533Y-65109881D01*
X66314079Y-65122586D01*
X66317358Y-65135675D01*
X66319338Y-65149023D01*
X66320000Y-65162500D01*
X66320000Y-66487500D01*
X66319338Y-66500977D01*
X66317358Y-66514325D01*
X66314079Y-66527414D01*
X66309533Y-66540119D01*
X66303764Y-66552317D01*
X66296827Y-66563891D01*
X66288789Y-66574729D01*
X66279727Y-66584727D01*
X66269729Y-66593789D01*
X66258891Y-66601827D01*
X66247317Y-66608764D01*
X66235119Y-66614533D01*
X66222414Y-66619079D01*
X66209325Y-66622358D01*
X66195977Y-66624338D01*
X66182500Y-66625000D01*
X65907500Y-66625000D01*
X65894023Y-66624338D01*
X65880675Y-66622358D01*
X65867586Y-66619079D01*
X65854881Y-66614533D01*
X65842683Y-66608764D01*
X65831109Y-66601827D01*
X65820271Y-66593789D01*
X65810273Y-66584727D01*
X65801211Y-66574729D01*
X65793173Y-66563891D01*
X65786236Y-66552317D01*
X65780467Y-66540119D01*
X65775921Y-66527414D01*
X65772642Y-66514325D01*
X65770662Y-66500977D01*
X65770000Y-66487500D01*
X65770000Y-65162500D01*
X65770662Y-65149023D01*
X65772642Y-65135675D01*
X65775921Y-65122586D01*
X65780467Y-65109881D01*
X65786236Y-65097683D01*
X65793173Y-65086109D01*
X65801211Y-65075271D01*
X65810273Y-65065273D01*
X65820271Y-65056211D01*
X65831109Y-65048173D01*
X65842683Y-65041236D01*
X65854881Y-65035467D01*
X65867586Y-65030921D01*
X65880675Y-65027642D01*
X65894023Y-65025662D01*
X65907500Y-65025000D01*
X66182500Y-65025000D01*
X66195977Y-65025662D01*
X66195977Y-65025662D01*
G37*
D12*
X66045000Y-65825000D03*
D10*
G36*
X67465977Y-65025662D02*
G01*
X67479325Y-65027642D01*
X67492414Y-65030921D01*
X67505119Y-65035467D01*
X67517317Y-65041236D01*
X67528891Y-65048173D01*
X67539729Y-65056211D01*
X67549727Y-65065273D01*
X67558789Y-65075271D01*
X67566827Y-65086109D01*
X67573764Y-65097683D01*
X67579533Y-65109881D01*
X67584079Y-65122586D01*
X67587358Y-65135675D01*
X67589338Y-65149023D01*
X67590000Y-65162500D01*
X67590000Y-66487500D01*
X67589338Y-66500977D01*
X67587358Y-66514325D01*
X67584079Y-66527414D01*
X67579533Y-66540119D01*
X67573764Y-66552317D01*
X67566827Y-66563891D01*
X67558789Y-66574729D01*
X67549727Y-66584727D01*
X67539729Y-66593789D01*
X67528891Y-66601827D01*
X67517317Y-66608764D01*
X67505119Y-66614533D01*
X67492414Y-66619079D01*
X67479325Y-66622358D01*
X67465977Y-66624338D01*
X67452500Y-66625000D01*
X67177500Y-66625000D01*
X67164023Y-66624338D01*
X67150675Y-66622358D01*
X67137586Y-66619079D01*
X67124881Y-66614533D01*
X67112683Y-66608764D01*
X67101109Y-66601827D01*
X67090271Y-66593789D01*
X67080273Y-66584727D01*
X67071211Y-66574729D01*
X67063173Y-66563891D01*
X67056236Y-66552317D01*
X67050467Y-66540119D01*
X67045921Y-66527414D01*
X67042642Y-66514325D01*
X67040662Y-66500977D01*
X67040000Y-66487500D01*
X67040000Y-65162500D01*
X67040662Y-65149023D01*
X67042642Y-65135675D01*
X67045921Y-65122586D01*
X67050467Y-65109881D01*
X67056236Y-65097683D01*
X67063173Y-65086109D01*
X67071211Y-65075271D01*
X67080273Y-65065273D01*
X67090271Y-65056211D01*
X67101109Y-65048173D01*
X67112683Y-65041236D01*
X67124881Y-65035467D01*
X67137586Y-65030921D01*
X67150675Y-65027642D01*
X67164023Y-65025662D01*
X67177500Y-65025000D01*
X67452500Y-65025000D01*
X67465977Y-65025662D01*
X67465977Y-65025662D01*
G37*
D12*
X67315000Y-65825000D03*
D10*
G36*
X68735977Y-65025662D02*
G01*
X68749325Y-65027642D01*
X68762414Y-65030921D01*
X68775119Y-65035467D01*
X68787317Y-65041236D01*
X68798891Y-65048173D01*
X68809729Y-65056211D01*
X68819727Y-65065273D01*
X68828789Y-65075271D01*
X68836827Y-65086109D01*
X68843764Y-65097683D01*
X68849533Y-65109881D01*
X68854079Y-65122586D01*
X68857358Y-65135675D01*
X68859338Y-65149023D01*
X68860000Y-65162500D01*
X68860000Y-66487500D01*
X68859338Y-66500977D01*
X68857358Y-66514325D01*
X68854079Y-66527414D01*
X68849533Y-66540119D01*
X68843764Y-66552317D01*
X68836827Y-66563891D01*
X68828789Y-66574729D01*
X68819727Y-66584727D01*
X68809729Y-66593789D01*
X68798891Y-66601827D01*
X68787317Y-66608764D01*
X68775119Y-66614533D01*
X68762414Y-66619079D01*
X68749325Y-66622358D01*
X68735977Y-66624338D01*
X68722500Y-66625000D01*
X68447500Y-66625000D01*
X68434023Y-66624338D01*
X68420675Y-66622358D01*
X68407586Y-66619079D01*
X68394881Y-66614533D01*
X68382683Y-66608764D01*
X68371109Y-66601827D01*
X68360271Y-66593789D01*
X68350273Y-66584727D01*
X68341211Y-66574729D01*
X68333173Y-66563891D01*
X68326236Y-66552317D01*
X68320467Y-66540119D01*
X68315921Y-66527414D01*
X68312642Y-66514325D01*
X68310662Y-66500977D01*
X68310000Y-66487500D01*
X68310000Y-65162500D01*
X68310662Y-65149023D01*
X68312642Y-65135675D01*
X68315921Y-65122586D01*
X68320467Y-65109881D01*
X68326236Y-65097683D01*
X68333173Y-65086109D01*
X68341211Y-65075271D01*
X68350273Y-65065273D01*
X68360271Y-65056211D01*
X68371109Y-65048173D01*
X68382683Y-65041236D01*
X68394881Y-65035467D01*
X68407586Y-65030921D01*
X68420675Y-65027642D01*
X68434023Y-65025662D01*
X68447500Y-65025000D01*
X68722500Y-65025000D01*
X68735977Y-65025662D01*
X68735977Y-65025662D01*
G37*
D12*
X68585000Y-65825000D03*
D10*
G36*
X70005977Y-65025662D02*
G01*
X70019325Y-65027642D01*
X70032414Y-65030921D01*
X70045119Y-65035467D01*
X70057317Y-65041236D01*
X70068891Y-65048173D01*
X70079729Y-65056211D01*
X70089727Y-65065273D01*
X70098789Y-65075271D01*
X70106827Y-65086109D01*
X70113764Y-65097683D01*
X70119533Y-65109881D01*
X70124079Y-65122586D01*
X70127358Y-65135675D01*
X70129338Y-65149023D01*
X70130000Y-65162500D01*
X70130000Y-66487500D01*
X70129338Y-66500977D01*
X70127358Y-66514325D01*
X70124079Y-66527414D01*
X70119533Y-66540119D01*
X70113764Y-66552317D01*
X70106827Y-66563891D01*
X70098789Y-66574729D01*
X70089727Y-66584727D01*
X70079729Y-66593789D01*
X70068891Y-66601827D01*
X70057317Y-66608764D01*
X70045119Y-66614533D01*
X70032414Y-66619079D01*
X70019325Y-66622358D01*
X70005977Y-66624338D01*
X69992500Y-66625000D01*
X69717500Y-66625000D01*
X69704023Y-66624338D01*
X69690675Y-66622358D01*
X69677586Y-66619079D01*
X69664881Y-66614533D01*
X69652683Y-66608764D01*
X69641109Y-66601827D01*
X69630271Y-66593789D01*
X69620273Y-66584727D01*
X69611211Y-66574729D01*
X69603173Y-66563891D01*
X69596236Y-66552317D01*
X69590467Y-66540119D01*
X69585921Y-66527414D01*
X69582642Y-66514325D01*
X69580662Y-66500977D01*
X69580000Y-66487500D01*
X69580000Y-65162500D01*
X69580662Y-65149023D01*
X69582642Y-65135675D01*
X69585921Y-65122586D01*
X69590467Y-65109881D01*
X69596236Y-65097683D01*
X69603173Y-65086109D01*
X69611211Y-65075271D01*
X69620273Y-65065273D01*
X69630271Y-65056211D01*
X69641109Y-65048173D01*
X69652683Y-65041236D01*
X69664881Y-65035467D01*
X69677586Y-65030921D01*
X69690675Y-65027642D01*
X69704023Y-65025662D01*
X69717500Y-65025000D01*
X69992500Y-65025000D01*
X70005977Y-65025662D01*
X70005977Y-65025662D01*
G37*
D12*
X69855000Y-65825000D03*
D10*
G36*
X71275977Y-65025662D02*
G01*
X71289325Y-65027642D01*
X71302414Y-65030921D01*
X71315119Y-65035467D01*
X71327317Y-65041236D01*
X71338891Y-65048173D01*
X71349729Y-65056211D01*
X71359727Y-65065273D01*
X71368789Y-65075271D01*
X71376827Y-65086109D01*
X71383764Y-65097683D01*
X71389533Y-65109881D01*
X71394079Y-65122586D01*
X71397358Y-65135675D01*
X71399338Y-65149023D01*
X71400000Y-65162500D01*
X71400000Y-66487500D01*
X71399338Y-66500977D01*
X71397358Y-66514325D01*
X71394079Y-66527414D01*
X71389533Y-66540119D01*
X71383764Y-66552317D01*
X71376827Y-66563891D01*
X71368789Y-66574729D01*
X71359727Y-66584727D01*
X71349729Y-66593789D01*
X71338891Y-66601827D01*
X71327317Y-66608764D01*
X71315119Y-66614533D01*
X71302414Y-66619079D01*
X71289325Y-66622358D01*
X71275977Y-66624338D01*
X71262500Y-66625000D01*
X70987500Y-66625000D01*
X70974023Y-66624338D01*
X70960675Y-66622358D01*
X70947586Y-66619079D01*
X70934881Y-66614533D01*
X70922683Y-66608764D01*
X70911109Y-66601827D01*
X70900271Y-66593789D01*
X70890273Y-66584727D01*
X70881211Y-66574729D01*
X70873173Y-66563891D01*
X70866236Y-66552317D01*
X70860467Y-66540119D01*
X70855921Y-66527414D01*
X70852642Y-66514325D01*
X70850662Y-66500977D01*
X70850000Y-66487500D01*
X70850000Y-65162500D01*
X70850662Y-65149023D01*
X70852642Y-65135675D01*
X70855921Y-65122586D01*
X70860467Y-65109881D01*
X70866236Y-65097683D01*
X70873173Y-65086109D01*
X70881211Y-65075271D01*
X70890273Y-65065273D01*
X70900271Y-65056211D01*
X70911109Y-65048173D01*
X70922683Y-65041236D01*
X70934881Y-65035467D01*
X70947586Y-65030921D01*
X70960675Y-65027642D01*
X70974023Y-65025662D01*
X70987500Y-65025000D01*
X71262500Y-65025000D01*
X71275977Y-65025662D01*
X71275977Y-65025662D01*
G37*
D12*
X71125000Y-65825000D03*
D10*
G36*
X72545977Y-65025662D02*
G01*
X72559325Y-65027642D01*
X72572414Y-65030921D01*
X72585119Y-65035467D01*
X72597317Y-65041236D01*
X72608891Y-65048173D01*
X72619729Y-65056211D01*
X72629727Y-65065273D01*
X72638789Y-65075271D01*
X72646827Y-65086109D01*
X72653764Y-65097683D01*
X72659533Y-65109881D01*
X72664079Y-65122586D01*
X72667358Y-65135675D01*
X72669338Y-65149023D01*
X72670000Y-65162500D01*
X72670000Y-66487500D01*
X72669338Y-66500977D01*
X72667358Y-66514325D01*
X72664079Y-66527414D01*
X72659533Y-66540119D01*
X72653764Y-66552317D01*
X72646827Y-66563891D01*
X72638789Y-66574729D01*
X72629727Y-66584727D01*
X72619729Y-66593789D01*
X72608891Y-66601827D01*
X72597317Y-66608764D01*
X72585119Y-66614533D01*
X72572414Y-66619079D01*
X72559325Y-66622358D01*
X72545977Y-66624338D01*
X72532500Y-66625000D01*
X72257500Y-66625000D01*
X72244023Y-66624338D01*
X72230675Y-66622358D01*
X72217586Y-66619079D01*
X72204881Y-66614533D01*
X72192683Y-66608764D01*
X72181109Y-66601827D01*
X72170271Y-66593789D01*
X72160273Y-66584727D01*
X72151211Y-66574729D01*
X72143173Y-66563891D01*
X72136236Y-66552317D01*
X72130467Y-66540119D01*
X72125921Y-66527414D01*
X72122642Y-66514325D01*
X72120662Y-66500977D01*
X72120000Y-66487500D01*
X72120000Y-65162500D01*
X72120662Y-65149023D01*
X72122642Y-65135675D01*
X72125921Y-65122586D01*
X72130467Y-65109881D01*
X72136236Y-65097683D01*
X72143173Y-65086109D01*
X72151211Y-65075271D01*
X72160273Y-65065273D01*
X72170271Y-65056211D01*
X72181109Y-65048173D01*
X72192683Y-65041236D01*
X72204881Y-65035467D01*
X72217586Y-65030921D01*
X72230675Y-65027642D01*
X72244023Y-65025662D01*
X72257500Y-65025000D01*
X72532500Y-65025000D01*
X72545977Y-65025662D01*
X72545977Y-65025662D01*
G37*
D12*
X72395000Y-65825000D03*
D10*
G36*
X154514703Y-75090722D02*
G01*
X154529264Y-75092882D01*
X154543543Y-75096459D01*
X154557403Y-75101418D01*
X154570710Y-75107712D01*
X154583336Y-75115280D01*
X154595159Y-75124048D01*
X154606066Y-75133934D01*
X154615952Y-75144841D01*
X154624720Y-75156664D01*
X154632288Y-75169290D01*
X154638582Y-75182597D01*
X154643541Y-75196457D01*
X154647118Y-75210736D01*
X154649278Y-75225297D01*
X154650000Y-75240000D01*
X154650000Y-75540000D01*
X154649278Y-75554703D01*
X154647118Y-75569264D01*
X154643541Y-75583543D01*
X154638582Y-75597403D01*
X154632288Y-75610710D01*
X154624720Y-75623336D01*
X154615952Y-75635159D01*
X154606066Y-75646066D01*
X154595159Y-75655952D01*
X154583336Y-75664720D01*
X154570710Y-75672288D01*
X154557403Y-75678582D01*
X154543543Y-75683541D01*
X154529264Y-75687118D01*
X154514703Y-75689278D01*
X154500000Y-75690000D01*
X152850000Y-75690000D01*
X152835297Y-75689278D01*
X152820736Y-75687118D01*
X152806457Y-75683541D01*
X152792597Y-75678582D01*
X152779290Y-75672288D01*
X152766664Y-75664720D01*
X152754841Y-75655952D01*
X152743934Y-75646066D01*
X152734048Y-75635159D01*
X152725280Y-75623336D01*
X152717712Y-75610710D01*
X152711418Y-75597403D01*
X152706459Y-75583543D01*
X152702882Y-75569264D01*
X152700722Y-75554703D01*
X152700000Y-75540000D01*
X152700000Y-75240000D01*
X152700722Y-75225297D01*
X152702882Y-75210736D01*
X152706459Y-75196457D01*
X152711418Y-75182597D01*
X152717712Y-75169290D01*
X152725280Y-75156664D01*
X152734048Y-75144841D01*
X152743934Y-75133934D01*
X152754841Y-75124048D01*
X152766664Y-75115280D01*
X152779290Y-75107712D01*
X152792597Y-75101418D01*
X152806457Y-75096459D01*
X152820736Y-75092882D01*
X152835297Y-75090722D01*
X152850000Y-75090000D01*
X154500000Y-75090000D01*
X154514703Y-75090722D01*
X154514703Y-75090722D01*
G37*
D13*
X153675000Y-75390000D03*
D10*
G36*
X154514703Y-76360722D02*
G01*
X154529264Y-76362882D01*
X154543543Y-76366459D01*
X154557403Y-76371418D01*
X154570710Y-76377712D01*
X154583336Y-76385280D01*
X154595159Y-76394048D01*
X154606066Y-76403934D01*
X154615952Y-76414841D01*
X154624720Y-76426664D01*
X154632288Y-76439290D01*
X154638582Y-76452597D01*
X154643541Y-76466457D01*
X154647118Y-76480736D01*
X154649278Y-76495297D01*
X154650000Y-76510000D01*
X154650000Y-76810000D01*
X154649278Y-76824703D01*
X154647118Y-76839264D01*
X154643541Y-76853543D01*
X154638582Y-76867403D01*
X154632288Y-76880710D01*
X154624720Y-76893336D01*
X154615952Y-76905159D01*
X154606066Y-76916066D01*
X154595159Y-76925952D01*
X154583336Y-76934720D01*
X154570710Y-76942288D01*
X154557403Y-76948582D01*
X154543543Y-76953541D01*
X154529264Y-76957118D01*
X154514703Y-76959278D01*
X154500000Y-76960000D01*
X152850000Y-76960000D01*
X152835297Y-76959278D01*
X152820736Y-76957118D01*
X152806457Y-76953541D01*
X152792597Y-76948582D01*
X152779290Y-76942288D01*
X152766664Y-76934720D01*
X152754841Y-76925952D01*
X152743934Y-76916066D01*
X152734048Y-76905159D01*
X152725280Y-76893336D01*
X152717712Y-76880710D01*
X152711418Y-76867403D01*
X152706459Y-76853543D01*
X152702882Y-76839264D01*
X152700722Y-76824703D01*
X152700000Y-76810000D01*
X152700000Y-76510000D01*
X152700722Y-76495297D01*
X152702882Y-76480736D01*
X152706459Y-76466457D01*
X152711418Y-76452597D01*
X152717712Y-76439290D01*
X152725280Y-76426664D01*
X152734048Y-76414841D01*
X152743934Y-76403934D01*
X152754841Y-76394048D01*
X152766664Y-76385280D01*
X152779290Y-76377712D01*
X152792597Y-76371418D01*
X152806457Y-76366459D01*
X152820736Y-76362882D01*
X152835297Y-76360722D01*
X152850000Y-76360000D01*
X154500000Y-76360000D01*
X154514703Y-76360722D01*
X154514703Y-76360722D01*
G37*
D13*
X153675000Y-76660000D03*
D10*
G36*
X154514703Y-77630722D02*
G01*
X154529264Y-77632882D01*
X154543543Y-77636459D01*
X154557403Y-77641418D01*
X154570710Y-77647712D01*
X154583336Y-77655280D01*
X154595159Y-77664048D01*
X154606066Y-77673934D01*
X154615952Y-77684841D01*
X154624720Y-77696664D01*
X154632288Y-77709290D01*
X154638582Y-77722597D01*
X154643541Y-77736457D01*
X154647118Y-77750736D01*
X154649278Y-77765297D01*
X154650000Y-77780000D01*
X154650000Y-78080000D01*
X154649278Y-78094703D01*
X154647118Y-78109264D01*
X154643541Y-78123543D01*
X154638582Y-78137403D01*
X154632288Y-78150710D01*
X154624720Y-78163336D01*
X154615952Y-78175159D01*
X154606066Y-78186066D01*
X154595159Y-78195952D01*
X154583336Y-78204720D01*
X154570710Y-78212288D01*
X154557403Y-78218582D01*
X154543543Y-78223541D01*
X154529264Y-78227118D01*
X154514703Y-78229278D01*
X154500000Y-78230000D01*
X152850000Y-78230000D01*
X152835297Y-78229278D01*
X152820736Y-78227118D01*
X152806457Y-78223541D01*
X152792597Y-78218582D01*
X152779290Y-78212288D01*
X152766664Y-78204720D01*
X152754841Y-78195952D01*
X152743934Y-78186066D01*
X152734048Y-78175159D01*
X152725280Y-78163336D01*
X152717712Y-78150710D01*
X152711418Y-78137403D01*
X152706459Y-78123543D01*
X152702882Y-78109264D01*
X152700722Y-78094703D01*
X152700000Y-78080000D01*
X152700000Y-77780000D01*
X152700722Y-77765297D01*
X152702882Y-77750736D01*
X152706459Y-77736457D01*
X152711418Y-77722597D01*
X152717712Y-77709290D01*
X152725280Y-77696664D01*
X152734048Y-77684841D01*
X152743934Y-77673934D01*
X152754841Y-77664048D01*
X152766664Y-77655280D01*
X152779290Y-77647712D01*
X152792597Y-77641418D01*
X152806457Y-77636459D01*
X152820736Y-77632882D01*
X152835297Y-77630722D01*
X152850000Y-77630000D01*
X154500000Y-77630000D01*
X154514703Y-77630722D01*
X154514703Y-77630722D01*
G37*
D13*
X153675000Y-77930000D03*
D10*
G36*
X154514703Y-78900722D02*
G01*
X154529264Y-78902882D01*
X154543543Y-78906459D01*
X154557403Y-78911418D01*
X154570710Y-78917712D01*
X154583336Y-78925280D01*
X154595159Y-78934048D01*
X154606066Y-78943934D01*
X154615952Y-78954841D01*
X154624720Y-78966664D01*
X154632288Y-78979290D01*
X154638582Y-78992597D01*
X154643541Y-79006457D01*
X154647118Y-79020736D01*
X154649278Y-79035297D01*
X154650000Y-79050000D01*
X154650000Y-79350000D01*
X154649278Y-79364703D01*
X154647118Y-79379264D01*
X154643541Y-79393543D01*
X154638582Y-79407403D01*
X154632288Y-79420710D01*
X154624720Y-79433336D01*
X154615952Y-79445159D01*
X154606066Y-79456066D01*
X154595159Y-79465952D01*
X154583336Y-79474720D01*
X154570710Y-79482288D01*
X154557403Y-79488582D01*
X154543543Y-79493541D01*
X154529264Y-79497118D01*
X154514703Y-79499278D01*
X154500000Y-79500000D01*
X152850000Y-79500000D01*
X152835297Y-79499278D01*
X152820736Y-79497118D01*
X152806457Y-79493541D01*
X152792597Y-79488582D01*
X152779290Y-79482288D01*
X152766664Y-79474720D01*
X152754841Y-79465952D01*
X152743934Y-79456066D01*
X152734048Y-79445159D01*
X152725280Y-79433336D01*
X152717712Y-79420710D01*
X152711418Y-79407403D01*
X152706459Y-79393543D01*
X152702882Y-79379264D01*
X152700722Y-79364703D01*
X152700000Y-79350000D01*
X152700000Y-79050000D01*
X152700722Y-79035297D01*
X152702882Y-79020736D01*
X152706459Y-79006457D01*
X152711418Y-78992597D01*
X152717712Y-78979290D01*
X152725280Y-78966664D01*
X152734048Y-78954841D01*
X152743934Y-78943934D01*
X152754841Y-78934048D01*
X152766664Y-78925280D01*
X152779290Y-78917712D01*
X152792597Y-78911418D01*
X152806457Y-78906459D01*
X152820736Y-78902882D01*
X152835297Y-78900722D01*
X152850000Y-78900000D01*
X154500000Y-78900000D01*
X154514703Y-78900722D01*
X154514703Y-78900722D01*
G37*
D13*
X153675000Y-79200000D03*
D10*
G36*
X154514703Y-80170722D02*
G01*
X154529264Y-80172882D01*
X154543543Y-80176459D01*
X154557403Y-80181418D01*
X154570710Y-80187712D01*
X154583336Y-80195280D01*
X154595159Y-80204048D01*
X154606066Y-80213934D01*
X154615952Y-80224841D01*
X154624720Y-80236664D01*
X154632288Y-80249290D01*
X154638582Y-80262597D01*
X154643541Y-80276457D01*
X154647118Y-80290736D01*
X154649278Y-80305297D01*
X154650000Y-80320000D01*
X154650000Y-80620000D01*
X154649278Y-80634703D01*
X154647118Y-80649264D01*
X154643541Y-80663543D01*
X154638582Y-80677403D01*
X154632288Y-80690710D01*
X154624720Y-80703336D01*
X154615952Y-80715159D01*
X154606066Y-80726066D01*
X154595159Y-80735952D01*
X154583336Y-80744720D01*
X154570710Y-80752288D01*
X154557403Y-80758582D01*
X154543543Y-80763541D01*
X154529264Y-80767118D01*
X154514703Y-80769278D01*
X154500000Y-80770000D01*
X152850000Y-80770000D01*
X152835297Y-80769278D01*
X152820736Y-80767118D01*
X152806457Y-80763541D01*
X152792597Y-80758582D01*
X152779290Y-80752288D01*
X152766664Y-80744720D01*
X152754841Y-80735952D01*
X152743934Y-80726066D01*
X152734048Y-80715159D01*
X152725280Y-80703336D01*
X152717712Y-80690710D01*
X152711418Y-80677403D01*
X152706459Y-80663543D01*
X152702882Y-80649264D01*
X152700722Y-80634703D01*
X152700000Y-80620000D01*
X152700000Y-80320000D01*
X152700722Y-80305297D01*
X152702882Y-80290736D01*
X152706459Y-80276457D01*
X152711418Y-80262597D01*
X152717712Y-80249290D01*
X152725280Y-80236664D01*
X152734048Y-80224841D01*
X152743934Y-80213934D01*
X152754841Y-80204048D01*
X152766664Y-80195280D01*
X152779290Y-80187712D01*
X152792597Y-80181418D01*
X152806457Y-80176459D01*
X152820736Y-80172882D01*
X152835297Y-80170722D01*
X152850000Y-80170000D01*
X154500000Y-80170000D01*
X154514703Y-80170722D01*
X154514703Y-80170722D01*
G37*
D13*
X153675000Y-80470000D03*
D10*
G36*
X154514703Y-81440722D02*
G01*
X154529264Y-81442882D01*
X154543543Y-81446459D01*
X154557403Y-81451418D01*
X154570710Y-81457712D01*
X154583336Y-81465280D01*
X154595159Y-81474048D01*
X154606066Y-81483934D01*
X154615952Y-81494841D01*
X154624720Y-81506664D01*
X154632288Y-81519290D01*
X154638582Y-81532597D01*
X154643541Y-81546457D01*
X154647118Y-81560736D01*
X154649278Y-81575297D01*
X154650000Y-81590000D01*
X154650000Y-81890000D01*
X154649278Y-81904703D01*
X154647118Y-81919264D01*
X154643541Y-81933543D01*
X154638582Y-81947403D01*
X154632288Y-81960710D01*
X154624720Y-81973336D01*
X154615952Y-81985159D01*
X154606066Y-81996066D01*
X154595159Y-82005952D01*
X154583336Y-82014720D01*
X154570710Y-82022288D01*
X154557403Y-82028582D01*
X154543543Y-82033541D01*
X154529264Y-82037118D01*
X154514703Y-82039278D01*
X154500000Y-82040000D01*
X152850000Y-82040000D01*
X152835297Y-82039278D01*
X152820736Y-82037118D01*
X152806457Y-82033541D01*
X152792597Y-82028582D01*
X152779290Y-82022288D01*
X152766664Y-82014720D01*
X152754841Y-82005952D01*
X152743934Y-81996066D01*
X152734048Y-81985159D01*
X152725280Y-81973336D01*
X152717712Y-81960710D01*
X152711418Y-81947403D01*
X152706459Y-81933543D01*
X152702882Y-81919264D01*
X152700722Y-81904703D01*
X152700000Y-81890000D01*
X152700000Y-81590000D01*
X152700722Y-81575297D01*
X152702882Y-81560736D01*
X152706459Y-81546457D01*
X152711418Y-81532597D01*
X152717712Y-81519290D01*
X152725280Y-81506664D01*
X152734048Y-81494841D01*
X152743934Y-81483934D01*
X152754841Y-81474048D01*
X152766664Y-81465280D01*
X152779290Y-81457712D01*
X152792597Y-81451418D01*
X152806457Y-81446459D01*
X152820736Y-81442882D01*
X152835297Y-81440722D01*
X152850000Y-81440000D01*
X154500000Y-81440000D01*
X154514703Y-81440722D01*
X154514703Y-81440722D01*
G37*
D13*
X153675000Y-81740000D03*
D10*
G36*
X154514703Y-82710722D02*
G01*
X154529264Y-82712882D01*
X154543543Y-82716459D01*
X154557403Y-82721418D01*
X154570710Y-82727712D01*
X154583336Y-82735280D01*
X154595159Y-82744048D01*
X154606066Y-82753934D01*
X154615952Y-82764841D01*
X154624720Y-82776664D01*
X154632288Y-82789290D01*
X154638582Y-82802597D01*
X154643541Y-82816457D01*
X154647118Y-82830736D01*
X154649278Y-82845297D01*
X154650000Y-82860000D01*
X154650000Y-83160000D01*
X154649278Y-83174703D01*
X154647118Y-83189264D01*
X154643541Y-83203543D01*
X154638582Y-83217403D01*
X154632288Y-83230710D01*
X154624720Y-83243336D01*
X154615952Y-83255159D01*
X154606066Y-83266066D01*
X154595159Y-83275952D01*
X154583336Y-83284720D01*
X154570710Y-83292288D01*
X154557403Y-83298582D01*
X154543543Y-83303541D01*
X154529264Y-83307118D01*
X154514703Y-83309278D01*
X154500000Y-83310000D01*
X152850000Y-83310000D01*
X152835297Y-83309278D01*
X152820736Y-83307118D01*
X152806457Y-83303541D01*
X152792597Y-83298582D01*
X152779290Y-83292288D01*
X152766664Y-83284720D01*
X152754841Y-83275952D01*
X152743934Y-83266066D01*
X152734048Y-83255159D01*
X152725280Y-83243336D01*
X152717712Y-83230710D01*
X152711418Y-83217403D01*
X152706459Y-83203543D01*
X152702882Y-83189264D01*
X152700722Y-83174703D01*
X152700000Y-83160000D01*
X152700000Y-82860000D01*
X152700722Y-82845297D01*
X152702882Y-82830736D01*
X152706459Y-82816457D01*
X152711418Y-82802597D01*
X152717712Y-82789290D01*
X152725280Y-82776664D01*
X152734048Y-82764841D01*
X152743934Y-82753934D01*
X152754841Y-82744048D01*
X152766664Y-82735280D01*
X152779290Y-82727712D01*
X152792597Y-82721418D01*
X152806457Y-82716459D01*
X152820736Y-82712882D01*
X152835297Y-82710722D01*
X152850000Y-82710000D01*
X154500000Y-82710000D01*
X154514703Y-82710722D01*
X154514703Y-82710722D01*
G37*
D13*
X153675000Y-83010000D03*
D10*
G36*
X149564703Y-82710722D02*
G01*
X149579264Y-82712882D01*
X149593543Y-82716459D01*
X149607403Y-82721418D01*
X149620710Y-82727712D01*
X149633336Y-82735280D01*
X149645159Y-82744048D01*
X149656066Y-82753934D01*
X149665952Y-82764841D01*
X149674720Y-82776664D01*
X149682288Y-82789290D01*
X149688582Y-82802597D01*
X149693541Y-82816457D01*
X149697118Y-82830736D01*
X149699278Y-82845297D01*
X149700000Y-82860000D01*
X149700000Y-83160000D01*
X149699278Y-83174703D01*
X149697118Y-83189264D01*
X149693541Y-83203543D01*
X149688582Y-83217403D01*
X149682288Y-83230710D01*
X149674720Y-83243336D01*
X149665952Y-83255159D01*
X149656066Y-83266066D01*
X149645159Y-83275952D01*
X149633336Y-83284720D01*
X149620710Y-83292288D01*
X149607403Y-83298582D01*
X149593543Y-83303541D01*
X149579264Y-83307118D01*
X149564703Y-83309278D01*
X149550000Y-83310000D01*
X147900000Y-83310000D01*
X147885297Y-83309278D01*
X147870736Y-83307118D01*
X147856457Y-83303541D01*
X147842597Y-83298582D01*
X147829290Y-83292288D01*
X147816664Y-83284720D01*
X147804841Y-83275952D01*
X147793934Y-83266066D01*
X147784048Y-83255159D01*
X147775280Y-83243336D01*
X147767712Y-83230710D01*
X147761418Y-83217403D01*
X147756459Y-83203543D01*
X147752882Y-83189264D01*
X147750722Y-83174703D01*
X147750000Y-83160000D01*
X147750000Y-82860000D01*
X147750722Y-82845297D01*
X147752882Y-82830736D01*
X147756459Y-82816457D01*
X147761418Y-82802597D01*
X147767712Y-82789290D01*
X147775280Y-82776664D01*
X147784048Y-82764841D01*
X147793934Y-82753934D01*
X147804841Y-82744048D01*
X147816664Y-82735280D01*
X147829290Y-82727712D01*
X147842597Y-82721418D01*
X147856457Y-82716459D01*
X147870736Y-82712882D01*
X147885297Y-82710722D01*
X147900000Y-82710000D01*
X149550000Y-82710000D01*
X149564703Y-82710722D01*
X149564703Y-82710722D01*
G37*
D13*
X148725000Y-83010000D03*
D10*
G36*
X149564703Y-81440722D02*
G01*
X149579264Y-81442882D01*
X149593543Y-81446459D01*
X149607403Y-81451418D01*
X149620710Y-81457712D01*
X149633336Y-81465280D01*
X149645159Y-81474048D01*
X149656066Y-81483934D01*
X149665952Y-81494841D01*
X149674720Y-81506664D01*
X149682288Y-81519290D01*
X149688582Y-81532597D01*
X149693541Y-81546457D01*
X149697118Y-81560736D01*
X149699278Y-81575297D01*
X149700000Y-81590000D01*
X149700000Y-81890000D01*
X149699278Y-81904703D01*
X149697118Y-81919264D01*
X149693541Y-81933543D01*
X149688582Y-81947403D01*
X149682288Y-81960710D01*
X149674720Y-81973336D01*
X149665952Y-81985159D01*
X149656066Y-81996066D01*
X149645159Y-82005952D01*
X149633336Y-82014720D01*
X149620710Y-82022288D01*
X149607403Y-82028582D01*
X149593543Y-82033541D01*
X149579264Y-82037118D01*
X149564703Y-82039278D01*
X149550000Y-82040000D01*
X147900000Y-82040000D01*
X147885297Y-82039278D01*
X147870736Y-82037118D01*
X147856457Y-82033541D01*
X147842597Y-82028582D01*
X147829290Y-82022288D01*
X147816664Y-82014720D01*
X147804841Y-82005952D01*
X147793934Y-81996066D01*
X147784048Y-81985159D01*
X147775280Y-81973336D01*
X147767712Y-81960710D01*
X147761418Y-81947403D01*
X147756459Y-81933543D01*
X147752882Y-81919264D01*
X147750722Y-81904703D01*
X147750000Y-81890000D01*
X147750000Y-81590000D01*
X147750722Y-81575297D01*
X147752882Y-81560736D01*
X147756459Y-81546457D01*
X147761418Y-81532597D01*
X147767712Y-81519290D01*
X147775280Y-81506664D01*
X147784048Y-81494841D01*
X147793934Y-81483934D01*
X147804841Y-81474048D01*
X147816664Y-81465280D01*
X147829290Y-81457712D01*
X147842597Y-81451418D01*
X147856457Y-81446459D01*
X147870736Y-81442882D01*
X147885297Y-81440722D01*
X147900000Y-81440000D01*
X149550000Y-81440000D01*
X149564703Y-81440722D01*
X149564703Y-81440722D01*
G37*
D13*
X148725000Y-81740000D03*
D10*
G36*
X149564703Y-80170722D02*
G01*
X149579264Y-80172882D01*
X149593543Y-80176459D01*
X149607403Y-80181418D01*
X149620710Y-80187712D01*
X149633336Y-80195280D01*
X149645159Y-80204048D01*
X149656066Y-80213934D01*
X149665952Y-80224841D01*
X149674720Y-80236664D01*
X149682288Y-80249290D01*
X149688582Y-80262597D01*
X149693541Y-80276457D01*
X149697118Y-80290736D01*
X149699278Y-80305297D01*
X149700000Y-80320000D01*
X149700000Y-80620000D01*
X149699278Y-80634703D01*
X149697118Y-80649264D01*
X149693541Y-80663543D01*
X149688582Y-80677403D01*
X149682288Y-80690710D01*
X149674720Y-80703336D01*
X149665952Y-80715159D01*
X149656066Y-80726066D01*
X149645159Y-80735952D01*
X149633336Y-80744720D01*
X149620710Y-80752288D01*
X149607403Y-80758582D01*
X149593543Y-80763541D01*
X149579264Y-80767118D01*
X149564703Y-80769278D01*
X149550000Y-80770000D01*
X147900000Y-80770000D01*
X147885297Y-80769278D01*
X147870736Y-80767118D01*
X147856457Y-80763541D01*
X147842597Y-80758582D01*
X147829290Y-80752288D01*
X147816664Y-80744720D01*
X147804841Y-80735952D01*
X147793934Y-80726066D01*
X147784048Y-80715159D01*
X147775280Y-80703336D01*
X147767712Y-80690710D01*
X147761418Y-80677403D01*
X147756459Y-80663543D01*
X147752882Y-80649264D01*
X147750722Y-80634703D01*
X147750000Y-80620000D01*
X147750000Y-80320000D01*
X147750722Y-80305297D01*
X147752882Y-80290736D01*
X147756459Y-80276457D01*
X147761418Y-80262597D01*
X147767712Y-80249290D01*
X147775280Y-80236664D01*
X147784048Y-80224841D01*
X147793934Y-80213934D01*
X147804841Y-80204048D01*
X147816664Y-80195280D01*
X147829290Y-80187712D01*
X147842597Y-80181418D01*
X147856457Y-80176459D01*
X147870736Y-80172882D01*
X147885297Y-80170722D01*
X147900000Y-80170000D01*
X149550000Y-80170000D01*
X149564703Y-80170722D01*
X149564703Y-80170722D01*
G37*
D13*
X148725000Y-80470000D03*
D10*
G36*
X149564703Y-78900722D02*
G01*
X149579264Y-78902882D01*
X149593543Y-78906459D01*
X149607403Y-78911418D01*
X149620710Y-78917712D01*
X149633336Y-78925280D01*
X149645159Y-78934048D01*
X149656066Y-78943934D01*
X149665952Y-78954841D01*
X149674720Y-78966664D01*
X149682288Y-78979290D01*
X149688582Y-78992597D01*
X149693541Y-79006457D01*
X149697118Y-79020736D01*
X149699278Y-79035297D01*
X149700000Y-79050000D01*
X149700000Y-79350000D01*
X149699278Y-79364703D01*
X149697118Y-79379264D01*
X149693541Y-79393543D01*
X149688582Y-79407403D01*
X149682288Y-79420710D01*
X149674720Y-79433336D01*
X149665952Y-79445159D01*
X149656066Y-79456066D01*
X149645159Y-79465952D01*
X149633336Y-79474720D01*
X149620710Y-79482288D01*
X149607403Y-79488582D01*
X149593543Y-79493541D01*
X149579264Y-79497118D01*
X149564703Y-79499278D01*
X149550000Y-79500000D01*
X147900000Y-79500000D01*
X147885297Y-79499278D01*
X147870736Y-79497118D01*
X147856457Y-79493541D01*
X147842597Y-79488582D01*
X147829290Y-79482288D01*
X147816664Y-79474720D01*
X147804841Y-79465952D01*
X147793934Y-79456066D01*
X147784048Y-79445159D01*
X147775280Y-79433336D01*
X147767712Y-79420710D01*
X147761418Y-79407403D01*
X147756459Y-79393543D01*
X147752882Y-79379264D01*
X147750722Y-79364703D01*
X147750000Y-79350000D01*
X147750000Y-79050000D01*
X147750722Y-79035297D01*
X147752882Y-79020736D01*
X147756459Y-79006457D01*
X147761418Y-78992597D01*
X147767712Y-78979290D01*
X147775280Y-78966664D01*
X147784048Y-78954841D01*
X147793934Y-78943934D01*
X147804841Y-78934048D01*
X147816664Y-78925280D01*
X147829290Y-78917712D01*
X147842597Y-78911418D01*
X147856457Y-78906459D01*
X147870736Y-78902882D01*
X147885297Y-78900722D01*
X147900000Y-78900000D01*
X149550000Y-78900000D01*
X149564703Y-78900722D01*
X149564703Y-78900722D01*
G37*
D13*
X148725000Y-79200000D03*
D10*
G36*
X149564703Y-77630722D02*
G01*
X149579264Y-77632882D01*
X149593543Y-77636459D01*
X149607403Y-77641418D01*
X149620710Y-77647712D01*
X149633336Y-77655280D01*
X149645159Y-77664048D01*
X149656066Y-77673934D01*
X149665952Y-77684841D01*
X149674720Y-77696664D01*
X149682288Y-77709290D01*
X149688582Y-77722597D01*
X149693541Y-77736457D01*
X149697118Y-77750736D01*
X149699278Y-77765297D01*
X149700000Y-77780000D01*
X149700000Y-78080000D01*
X149699278Y-78094703D01*
X149697118Y-78109264D01*
X149693541Y-78123543D01*
X149688582Y-78137403D01*
X149682288Y-78150710D01*
X149674720Y-78163336D01*
X149665952Y-78175159D01*
X149656066Y-78186066D01*
X149645159Y-78195952D01*
X149633336Y-78204720D01*
X149620710Y-78212288D01*
X149607403Y-78218582D01*
X149593543Y-78223541D01*
X149579264Y-78227118D01*
X149564703Y-78229278D01*
X149550000Y-78230000D01*
X147900000Y-78230000D01*
X147885297Y-78229278D01*
X147870736Y-78227118D01*
X147856457Y-78223541D01*
X147842597Y-78218582D01*
X147829290Y-78212288D01*
X147816664Y-78204720D01*
X147804841Y-78195952D01*
X147793934Y-78186066D01*
X147784048Y-78175159D01*
X147775280Y-78163336D01*
X147767712Y-78150710D01*
X147761418Y-78137403D01*
X147756459Y-78123543D01*
X147752882Y-78109264D01*
X147750722Y-78094703D01*
X147750000Y-78080000D01*
X147750000Y-77780000D01*
X147750722Y-77765297D01*
X147752882Y-77750736D01*
X147756459Y-77736457D01*
X147761418Y-77722597D01*
X147767712Y-77709290D01*
X147775280Y-77696664D01*
X147784048Y-77684841D01*
X147793934Y-77673934D01*
X147804841Y-77664048D01*
X147816664Y-77655280D01*
X147829290Y-77647712D01*
X147842597Y-77641418D01*
X147856457Y-77636459D01*
X147870736Y-77632882D01*
X147885297Y-77630722D01*
X147900000Y-77630000D01*
X149550000Y-77630000D01*
X149564703Y-77630722D01*
X149564703Y-77630722D01*
G37*
D13*
X148725000Y-77930000D03*
D10*
G36*
X149564703Y-76360722D02*
G01*
X149579264Y-76362882D01*
X149593543Y-76366459D01*
X149607403Y-76371418D01*
X149620710Y-76377712D01*
X149633336Y-76385280D01*
X149645159Y-76394048D01*
X149656066Y-76403934D01*
X149665952Y-76414841D01*
X149674720Y-76426664D01*
X149682288Y-76439290D01*
X149688582Y-76452597D01*
X149693541Y-76466457D01*
X149697118Y-76480736D01*
X149699278Y-76495297D01*
X149700000Y-76510000D01*
X149700000Y-76810000D01*
X149699278Y-76824703D01*
X149697118Y-76839264D01*
X149693541Y-76853543D01*
X149688582Y-76867403D01*
X149682288Y-76880710D01*
X149674720Y-76893336D01*
X149665952Y-76905159D01*
X149656066Y-76916066D01*
X149645159Y-76925952D01*
X149633336Y-76934720D01*
X149620710Y-76942288D01*
X149607403Y-76948582D01*
X149593543Y-76953541D01*
X149579264Y-76957118D01*
X149564703Y-76959278D01*
X149550000Y-76960000D01*
X147900000Y-76960000D01*
X147885297Y-76959278D01*
X147870736Y-76957118D01*
X147856457Y-76953541D01*
X147842597Y-76948582D01*
X147829290Y-76942288D01*
X147816664Y-76934720D01*
X147804841Y-76925952D01*
X147793934Y-76916066D01*
X147784048Y-76905159D01*
X147775280Y-76893336D01*
X147767712Y-76880710D01*
X147761418Y-76867403D01*
X147756459Y-76853543D01*
X147752882Y-76839264D01*
X147750722Y-76824703D01*
X147750000Y-76810000D01*
X147750000Y-76510000D01*
X147750722Y-76495297D01*
X147752882Y-76480736D01*
X147756459Y-76466457D01*
X147761418Y-76452597D01*
X147767712Y-76439290D01*
X147775280Y-76426664D01*
X147784048Y-76414841D01*
X147793934Y-76403934D01*
X147804841Y-76394048D01*
X147816664Y-76385280D01*
X147829290Y-76377712D01*
X147842597Y-76371418D01*
X147856457Y-76366459D01*
X147870736Y-76362882D01*
X147885297Y-76360722D01*
X147900000Y-76360000D01*
X149550000Y-76360000D01*
X149564703Y-76360722D01*
X149564703Y-76360722D01*
G37*
D13*
X148725000Y-76660000D03*
D10*
G36*
X149564703Y-75090722D02*
G01*
X149579264Y-75092882D01*
X149593543Y-75096459D01*
X149607403Y-75101418D01*
X149620710Y-75107712D01*
X149633336Y-75115280D01*
X149645159Y-75124048D01*
X149656066Y-75133934D01*
X149665952Y-75144841D01*
X149674720Y-75156664D01*
X149682288Y-75169290D01*
X149688582Y-75182597D01*
X149693541Y-75196457D01*
X149697118Y-75210736D01*
X149699278Y-75225297D01*
X149700000Y-75240000D01*
X149700000Y-75540000D01*
X149699278Y-75554703D01*
X149697118Y-75569264D01*
X149693541Y-75583543D01*
X149688582Y-75597403D01*
X149682288Y-75610710D01*
X149674720Y-75623336D01*
X149665952Y-75635159D01*
X149656066Y-75646066D01*
X149645159Y-75655952D01*
X149633336Y-75664720D01*
X149620710Y-75672288D01*
X149607403Y-75678582D01*
X149593543Y-75683541D01*
X149579264Y-75687118D01*
X149564703Y-75689278D01*
X149550000Y-75690000D01*
X147900000Y-75690000D01*
X147885297Y-75689278D01*
X147870736Y-75687118D01*
X147856457Y-75683541D01*
X147842597Y-75678582D01*
X147829290Y-75672288D01*
X147816664Y-75664720D01*
X147804841Y-75655952D01*
X147793934Y-75646066D01*
X147784048Y-75635159D01*
X147775280Y-75623336D01*
X147767712Y-75610710D01*
X147761418Y-75597403D01*
X147756459Y-75583543D01*
X147752882Y-75569264D01*
X147750722Y-75554703D01*
X147750000Y-75540000D01*
X147750000Y-75240000D01*
X147750722Y-75225297D01*
X147752882Y-75210736D01*
X147756459Y-75196457D01*
X147761418Y-75182597D01*
X147767712Y-75169290D01*
X147775280Y-75156664D01*
X147784048Y-75144841D01*
X147793934Y-75133934D01*
X147804841Y-75124048D01*
X147816664Y-75115280D01*
X147829290Y-75107712D01*
X147842597Y-75101418D01*
X147856457Y-75096459D01*
X147870736Y-75092882D01*
X147885297Y-75090722D01*
X147900000Y-75090000D01*
X149550000Y-75090000D01*
X149564703Y-75090722D01*
X149564703Y-75090722D01*
G37*
D13*
X148725000Y-75390000D03*
D10*
G36*
X95252143Y-72474962D02*
G01*
X95266704Y-72477122D01*
X95280983Y-72480699D01*
X95294843Y-72485658D01*
X95308150Y-72491952D01*
X95320776Y-72499520D01*
X95332599Y-72508288D01*
X95343506Y-72518174D01*
X95353392Y-72529081D01*
X95362160Y-72540904D01*
X95369728Y-72553530D01*
X95376022Y-72566837D01*
X95380981Y-72580697D01*
X95384558Y-72594976D01*
X95386718Y-72609537D01*
X95387440Y-72624240D01*
X95387440Y-74374240D01*
X95386718Y-74388943D01*
X95384558Y-74403504D01*
X95380981Y-74417783D01*
X95376022Y-74431643D01*
X95369728Y-74444950D01*
X95362160Y-74457576D01*
X95353392Y-74469399D01*
X95343506Y-74480306D01*
X95332599Y-74490192D01*
X95320776Y-74498960D01*
X95308150Y-74506528D01*
X95294843Y-74512822D01*
X95280983Y-74517781D01*
X95266704Y-74521358D01*
X95252143Y-74523518D01*
X95237440Y-74524240D01*
X94937440Y-74524240D01*
X94922737Y-74523518D01*
X94908176Y-74521358D01*
X94893897Y-74517781D01*
X94880037Y-74512822D01*
X94866730Y-74506528D01*
X94854104Y-74498960D01*
X94842281Y-74490192D01*
X94831374Y-74480306D01*
X94821488Y-74469399D01*
X94812720Y-74457576D01*
X94805152Y-74444950D01*
X94798858Y-74431643D01*
X94793899Y-74417783D01*
X94790322Y-74403504D01*
X94788162Y-74388943D01*
X94787440Y-74374240D01*
X94787440Y-72624240D01*
X94788162Y-72609537D01*
X94790322Y-72594976D01*
X94793899Y-72580697D01*
X94798858Y-72566837D01*
X94805152Y-72553530D01*
X94812720Y-72540904D01*
X94821488Y-72529081D01*
X94831374Y-72518174D01*
X94842281Y-72508288D01*
X94854104Y-72499520D01*
X94866730Y-72491952D01*
X94880037Y-72485658D01*
X94893897Y-72480699D01*
X94908176Y-72477122D01*
X94922737Y-72474962D01*
X94937440Y-72474240D01*
X95237440Y-72474240D01*
X95252143Y-72474962D01*
X95252143Y-72474962D01*
G37*
D13*
X95087440Y-73499240D03*
D10*
G36*
X93982143Y-72474962D02*
G01*
X93996704Y-72477122D01*
X94010983Y-72480699D01*
X94024843Y-72485658D01*
X94038150Y-72491952D01*
X94050776Y-72499520D01*
X94062599Y-72508288D01*
X94073506Y-72518174D01*
X94083392Y-72529081D01*
X94092160Y-72540904D01*
X94099728Y-72553530D01*
X94106022Y-72566837D01*
X94110981Y-72580697D01*
X94114558Y-72594976D01*
X94116718Y-72609537D01*
X94117440Y-72624240D01*
X94117440Y-74374240D01*
X94116718Y-74388943D01*
X94114558Y-74403504D01*
X94110981Y-74417783D01*
X94106022Y-74431643D01*
X94099728Y-74444950D01*
X94092160Y-74457576D01*
X94083392Y-74469399D01*
X94073506Y-74480306D01*
X94062599Y-74490192D01*
X94050776Y-74498960D01*
X94038150Y-74506528D01*
X94024843Y-74512822D01*
X94010983Y-74517781D01*
X93996704Y-74521358D01*
X93982143Y-74523518D01*
X93967440Y-74524240D01*
X93667440Y-74524240D01*
X93652737Y-74523518D01*
X93638176Y-74521358D01*
X93623897Y-74517781D01*
X93610037Y-74512822D01*
X93596730Y-74506528D01*
X93584104Y-74498960D01*
X93572281Y-74490192D01*
X93561374Y-74480306D01*
X93551488Y-74469399D01*
X93542720Y-74457576D01*
X93535152Y-74444950D01*
X93528858Y-74431643D01*
X93523899Y-74417783D01*
X93520322Y-74403504D01*
X93518162Y-74388943D01*
X93517440Y-74374240D01*
X93517440Y-72624240D01*
X93518162Y-72609537D01*
X93520322Y-72594976D01*
X93523899Y-72580697D01*
X93528858Y-72566837D01*
X93535152Y-72553530D01*
X93542720Y-72540904D01*
X93551488Y-72529081D01*
X93561374Y-72518174D01*
X93572281Y-72508288D01*
X93584104Y-72499520D01*
X93596730Y-72491952D01*
X93610037Y-72485658D01*
X93623897Y-72480699D01*
X93638176Y-72477122D01*
X93652737Y-72474962D01*
X93667440Y-72474240D01*
X93967440Y-72474240D01*
X93982143Y-72474962D01*
X93982143Y-72474962D01*
G37*
D13*
X93817440Y-73499240D03*
D10*
G36*
X92712143Y-72474962D02*
G01*
X92726704Y-72477122D01*
X92740983Y-72480699D01*
X92754843Y-72485658D01*
X92768150Y-72491952D01*
X92780776Y-72499520D01*
X92792599Y-72508288D01*
X92803506Y-72518174D01*
X92813392Y-72529081D01*
X92822160Y-72540904D01*
X92829728Y-72553530D01*
X92836022Y-72566837D01*
X92840981Y-72580697D01*
X92844558Y-72594976D01*
X92846718Y-72609537D01*
X92847440Y-72624240D01*
X92847440Y-74374240D01*
X92846718Y-74388943D01*
X92844558Y-74403504D01*
X92840981Y-74417783D01*
X92836022Y-74431643D01*
X92829728Y-74444950D01*
X92822160Y-74457576D01*
X92813392Y-74469399D01*
X92803506Y-74480306D01*
X92792599Y-74490192D01*
X92780776Y-74498960D01*
X92768150Y-74506528D01*
X92754843Y-74512822D01*
X92740983Y-74517781D01*
X92726704Y-74521358D01*
X92712143Y-74523518D01*
X92697440Y-74524240D01*
X92397440Y-74524240D01*
X92382737Y-74523518D01*
X92368176Y-74521358D01*
X92353897Y-74517781D01*
X92340037Y-74512822D01*
X92326730Y-74506528D01*
X92314104Y-74498960D01*
X92302281Y-74490192D01*
X92291374Y-74480306D01*
X92281488Y-74469399D01*
X92272720Y-74457576D01*
X92265152Y-74444950D01*
X92258858Y-74431643D01*
X92253899Y-74417783D01*
X92250322Y-74403504D01*
X92248162Y-74388943D01*
X92247440Y-74374240D01*
X92247440Y-72624240D01*
X92248162Y-72609537D01*
X92250322Y-72594976D01*
X92253899Y-72580697D01*
X92258858Y-72566837D01*
X92265152Y-72553530D01*
X92272720Y-72540904D01*
X92281488Y-72529081D01*
X92291374Y-72518174D01*
X92302281Y-72508288D01*
X92314104Y-72499520D01*
X92326730Y-72491952D01*
X92340037Y-72485658D01*
X92353897Y-72480699D01*
X92368176Y-72477122D01*
X92382737Y-72474962D01*
X92397440Y-72474240D01*
X92697440Y-72474240D01*
X92712143Y-72474962D01*
X92712143Y-72474962D01*
G37*
D13*
X92547440Y-73499240D03*
D10*
G36*
X91442143Y-72474962D02*
G01*
X91456704Y-72477122D01*
X91470983Y-72480699D01*
X91484843Y-72485658D01*
X91498150Y-72491952D01*
X91510776Y-72499520D01*
X91522599Y-72508288D01*
X91533506Y-72518174D01*
X91543392Y-72529081D01*
X91552160Y-72540904D01*
X91559728Y-72553530D01*
X91566022Y-72566837D01*
X91570981Y-72580697D01*
X91574558Y-72594976D01*
X91576718Y-72609537D01*
X91577440Y-72624240D01*
X91577440Y-74374240D01*
X91576718Y-74388943D01*
X91574558Y-74403504D01*
X91570981Y-74417783D01*
X91566022Y-74431643D01*
X91559728Y-74444950D01*
X91552160Y-74457576D01*
X91543392Y-74469399D01*
X91533506Y-74480306D01*
X91522599Y-74490192D01*
X91510776Y-74498960D01*
X91498150Y-74506528D01*
X91484843Y-74512822D01*
X91470983Y-74517781D01*
X91456704Y-74521358D01*
X91442143Y-74523518D01*
X91427440Y-74524240D01*
X91127440Y-74524240D01*
X91112737Y-74523518D01*
X91098176Y-74521358D01*
X91083897Y-74517781D01*
X91070037Y-74512822D01*
X91056730Y-74506528D01*
X91044104Y-74498960D01*
X91032281Y-74490192D01*
X91021374Y-74480306D01*
X91011488Y-74469399D01*
X91002720Y-74457576D01*
X90995152Y-74444950D01*
X90988858Y-74431643D01*
X90983899Y-74417783D01*
X90980322Y-74403504D01*
X90978162Y-74388943D01*
X90977440Y-74374240D01*
X90977440Y-72624240D01*
X90978162Y-72609537D01*
X90980322Y-72594976D01*
X90983899Y-72580697D01*
X90988858Y-72566837D01*
X90995152Y-72553530D01*
X91002720Y-72540904D01*
X91011488Y-72529081D01*
X91021374Y-72518174D01*
X91032281Y-72508288D01*
X91044104Y-72499520D01*
X91056730Y-72491952D01*
X91070037Y-72485658D01*
X91083897Y-72480699D01*
X91098176Y-72477122D01*
X91112737Y-72474962D01*
X91127440Y-72474240D01*
X91427440Y-72474240D01*
X91442143Y-72474962D01*
X91442143Y-72474962D01*
G37*
D13*
X91277440Y-73499240D03*
D10*
G36*
X90172143Y-72474962D02*
G01*
X90186704Y-72477122D01*
X90200983Y-72480699D01*
X90214843Y-72485658D01*
X90228150Y-72491952D01*
X90240776Y-72499520D01*
X90252599Y-72508288D01*
X90263506Y-72518174D01*
X90273392Y-72529081D01*
X90282160Y-72540904D01*
X90289728Y-72553530D01*
X90296022Y-72566837D01*
X90300981Y-72580697D01*
X90304558Y-72594976D01*
X90306718Y-72609537D01*
X90307440Y-72624240D01*
X90307440Y-74374240D01*
X90306718Y-74388943D01*
X90304558Y-74403504D01*
X90300981Y-74417783D01*
X90296022Y-74431643D01*
X90289728Y-74444950D01*
X90282160Y-74457576D01*
X90273392Y-74469399D01*
X90263506Y-74480306D01*
X90252599Y-74490192D01*
X90240776Y-74498960D01*
X90228150Y-74506528D01*
X90214843Y-74512822D01*
X90200983Y-74517781D01*
X90186704Y-74521358D01*
X90172143Y-74523518D01*
X90157440Y-74524240D01*
X89857440Y-74524240D01*
X89842737Y-74523518D01*
X89828176Y-74521358D01*
X89813897Y-74517781D01*
X89800037Y-74512822D01*
X89786730Y-74506528D01*
X89774104Y-74498960D01*
X89762281Y-74490192D01*
X89751374Y-74480306D01*
X89741488Y-74469399D01*
X89732720Y-74457576D01*
X89725152Y-74444950D01*
X89718858Y-74431643D01*
X89713899Y-74417783D01*
X89710322Y-74403504D01*
X89708162Y-74388943D01*
X89707440Y-74374240D01*
X89707440Y-72624240D01*
X89708162Y-72609537D01*
X89710322Y-72594976D01*
X89713899Y-72580697D01*
X89718858Y-72566837D01*
X89725152Y-72553530D01*
X89732720Y-72540904D01*
X89741488Y-72529081D01*
X89751374Y-72518174D01*
X89762281Y-72508288D01*
X89774104Y-72499520D01*
X89786730Y-72491952D01*
X89800037Y-72485658D01*
X89813897Y-72480699D01*
X89828176Y-72477122D01*
X89842737Y-72474962D01*
X89857440Y-72474240D01*
X90157440Y-72474240D01*
X90172143Y-72474962D01*
X90172143Y-72474962D01*
G37*
D13*
X90007440Y-73499240D03*
D10*
G36*
X88902143Y-72474962D02*
G01*
X88916704Y-72477122D01*
X88930983Y-72480699D01*
X88944843Y-72485658D01*
X88958150Y-72491952D01*
X88970776Y-72499520D01*
X88982599Y-72508288D01*
X88993506Y-72518174D01*
X89003392Y-72529081D01*
X89012160Y-72540904D01*
X89019728Y-72553530D01*
X89026022Y-72566837D01*
X89030981Y-72580697D01*
X89034558Y-72594976D01*
X89036718Y-72609537D01*
X89037440Y-72624240D01*
X89037440Y-74374240D01*
X89036718Y-74388943D01*
X89034558Y-74403504D01*
X89030981Y-74417783D01*
X89026022Y-74431643D01*
X89019728Y-74444950D01*
X89012160Y-74457576D01*
X89003392Y-74469399D01*
X88993506Y-74480306D01*
X88982599Y-74490192D01*
X88970776Y-74498960D01*
X88958150Y-74506528D01*
X88944843Y-74512822D01*
X88930983Y-74517781D01*
X88916704Y-74521358D01*
X88902143Y-74523518D01*
X88887440Y-74524240D01*
X88587440Y-74524240D01*
X88572737Y-74523518D01*
X88558176Y-74521358D01*
X88543897Y-74517781D01*
X88530037Y-74512822D01*
X88516730Y-74506528D01*
X88504104Y-74498960D01*
X88492281Y-74490192D01*
X88481374Y-74480306D01*
X88471488Y-74469399D01*
X88462720Y-74457576D01*
X88455152Y-74444950D01*
X88448858Y-74431643D01*
X88443899Y-74417783D01*
X88440322Y-74403504D01*
X88438162Y-74388943D01*
X88437440Y-74374240D01*
X88437440Y-72624240D01*
X88438162Y-72609537D01*
X88440322Y-72594976D01*
X88443899Y-72580697D01*
X88448858Y-72566837D01*
X88455152Y-72553530D01*
X88462720Y-72540904D01*
X88471488Y-72529081D01*
X88481374Y-72518174D01*
X88492281Y-72508288D01*
X88504104Y-72499520D01*
X88516730Y-72491952D01*
X88530037Y-72485658D01*
X88543897Y-72480699D01*
X88558176Y-72477122D01*
X88572737Y-72474962D01*
X88587440Y-72474240D01*
X88887440Y-72474240D01*
X88902143Y-72474962D01*
X88902143Y-72474962D01*
G37*
D13*
X88737440Y-73499240D03*
D10*
G36*
X87632143Y-72474962D02*
G01*
X87646704Y-72477122D01*
X87660983Y-72480699D01*
X87674843Y-72485658D01*
X87688150Y-72491952D01*
X87700776Y-72499520D01*
X87712599Y-72508288D01*
X87723506Y-72518174D01*
X87733392Y-72529081D01*
X87742160Y-72540904D01*
X87749728Y-72553530D01*
X87756022Y-72566837D01*
X87760981Y-72580697D01*
X87764558Y-72594976D01*
X87766718Y-72609537D01*
X87767440Y-72624240D01*
X87767440Y-74374240D01*
X87766718Y-74388943D01*
X87764558Y-74403504D01*
X87760981Y-74417783D01*
X87756022Y-74431643D01*
X87749728Y-74444950D01*
X87742160Y-74457576D01*
X87733392Y-74469399D01*
X87723506Y-74480306D01*
X87712599Y-74490192D01*
X87700776Y-74498960D01*
X87688150Y-74506528D01*
X87674843Y-74512822D01*
X87660983Y-74517781D01*
X87646704Y-74521358D01*
X87632143Y-74523518D01*
X87617440Y-74524240D01*
X87317440Y-74524240D01*
X87302737Y-74523518D01*
X87288176Y-74521358D01*
X87273897Y-74517781D01*
X87260037Y-74512822D01*
X87246730Y-74506528D01*
X87234104Y-74498960D01*
X87222281Y-74490192D01*
X87211374Y-74480306D01*
X87201488Y-74469399D01*
X87192720Y-74457576D01*
X87185152Y-74444950D01*
X87178858Y-74431643D01*
X87173899Y-74417783D01*
X87170322Y-74403504D01*
X87168162Y-74388943D01*
X87167440Y-74374240D01*
X87167440Y-72624240D01*
X87168162Y-72609537D01*
X87170322Y-72594976D01*
X87173899Y-72580697D01*
X87178858Y-72566837D01*
X87185152Y-72553530D01*
X87192720Y-72540904D01*
X87201488Y-72529081D01*
X87211374Y-72518174D01*
X87222281Y-72508288D01*
X87234104Y-72499520D01*
X87246730Y-72491952D01*
X87260037Y-72485658D01*
X87273897Y-72480699D01*
X87288176Y-72477122D01*
X87302737Y-72474962D01*
X87317440Y-72474240D01*
X87617440Y-72474240D01*
X87632143Y-72474962D01*
X87632143Y-72474962D01*
G37*
D13*
X87467440Y-73499240D03*
D10*
G36*
X86362143Y-72474962D02*
G01*
X86376704Y-72477122D01*
X86390983Y-72480699D01*
X86404843Y-72485658D01*
X86418150Y-72491952D01*
X86430776Y-72499520D01*
X86442599Y-72508288D01*
X86453506Y-72518174D01*
X86463392Y-72529081D01*
X86472160Y-72540904D01*
X86479728Y-72553530D01*
X86486022Y-72566837D01*
X86490981Y-72580697D01*
X86494558Y-72594976D01*
X86496718Y-72609537D01*
X86497440Y-72624240D01*
X86497440Y-74374240D01*
X86496718Y-74388943D01*
X86494558Y-74403504D01*
X86490981Y-74417783D01*
X86486022Y-74431643D01*
X86479728Y-74444950D01*
X86472160Y-74457576D01*
X86463392Y-74469399D01*
X86453506Y-74480306D01*
X86442599Y-74490192D01*
X86430776Y-74498960D01*
X86418150Y-74506528D01*
X86404843Y-74512822D01*
X86390983Y-74517781D01*
X86376704Y-74521358D01*
X86362143Y-74523518D01*
X86347440Y-74524240D01*
X86047440Y-74524240D01*
X86032737Y-74523518D01*
X86018176Y-74521358D01*
X86003897Y-74517781D01*
X85990037Y-74512822D01*
X85976730Y-74506528D01*
X85964104Y-74498960D01*
X85952281Y-74490192D01*
X85941374Y-74480306D01*
X85931488Y-74469399D01*
X85922720Y-74457576D01*
X85915152Y-74444950D01*
X85908858Y-74431643D01*
X85903899Y-74417783D01*
X85900322Y-74403504D01*
X85898162Y-74388943D01*
X85897440Y-74374240D01*
X85897440Y-72624240D01*
X85898162Y-72609537D01*
X85900322Y-72594976D01*
X85903899Y-72580697D01*
X85908858Y-72566837D01*
X85915152Y-72553530D01*
X85922720Y-72540904D01*
X85931488Y-72529081D01*
X85941374Y-72518174D01*
X85952281Y-72508288D01*
X85964104Y-72499520D01*
X85976730Y-72491952D01*
X85990037Y-72485658D01*
X86003897Y-72480699D01*
X86018176Y-72477122D01*
X86032737Y-72474962D01*
X86047440Y-72474240D01*
X86347440Y-72474240D01*
X86362143Y-72474962D01*
X86362143Y-72474962D01*
G37*
D13*
X86197440Y-73499240D03*
D10*
G36*
X85092143Y-72474962D02*
G01*
X85106704Y-72477122D01*
X85120983Y-72480699D01*
X85134843Y-72485658D01*
X85148150Y-72491952D01*
X85160776Y-72499520D01*
X85172599Y-72508288D01*
X85183506Y-72518174D01*
X85193392Y-72529081D01*
X85202160Y-72540904D01*
X85209728Y-72553530D01*
X85216022Y-72566837D01*
X85220981Y-72580697D01*
X85224558Y-72594976D01*
X85226718Y-72609537D01*
X85227440Y-72624240D01*
X85227440Y-74374240D01*
X85226718Y-74388943D01*
X85224558Y-74403504D01*
X85220981Y-74417783D01*
X85216022Y-74431643D01*
X85209728Y-74444950D01*
X85202160Y-74457576D01*
X85193392Y-74469399D01*
X85183506Y-74480306D01*
X85172599Y-74490192D01*
X85160776Y-74498960D01*
X85148150Y-74506528D01*
X85134843Y-74512822D01*
X85120983Y-74517781D01*
X85106704Y-74521358D01*
X85092143Y-74523518D01*
X85077440Y-74524240D01*
X84777440Y-74524240D01*
X84762737Y-74523518D01*
X84748176Y-74521358D01*
X84733897Y-74517781D01*
X84720037Y-74512822D01*
X84706730Y-74506528D01*
X84694104Y-74498960D01*
X84682281Y-74490192D01*
X84671374Y-74480306D01*
X84661488Y-74469399D01*
X84652720Y-74457576D01*
X84645152Y-74444950D01*
X84638858Y-74431643D01*
X84633899Y-74417783D01*
X84630322Y-74403504D01*
X84628162Y-74388943D01*
X84627440Y-74374240D01*
X84627440Y-72624240D01*
X84628162Y-72609537D01*
X84630322Y-72594976D01*
X84633899Y-72580697D01*
X84638858Y-72566837D01*
X84645152Y-72553530D01*
X84652720Y-72540904D01*
X84661488Y-72529081D01*
X84671374Y-72518174D01*
X84682281Y-72508288D01*
X84694104Y-72499520D01*
X84706730Y-72491952D01*
X84720037Y-72485658D01*
X84733897Y-72480699D01*
X84748176Y-72477122D01*
X84762737Y-72474962D01*
X84777440Y-72474240D01*
X85077440Y-72474240D01*
X85092143Y-72474962D01*
X85092143Y-72474962D01*
G37*
D13*
X84927440Y-73499240D03*
D10*
G36*
X83822143Y-72474962D02*
G01*
X83836704Y-72477122D01*
X83850983Y-72480699D01*
X83864843Y-72485658D01*
X83878150Y-72491952D01*
X83890776Y-72499520D01*
X83902599Y-72508288D01*
X83913506Y-72518174D01*
X83923392Y-72529081D01*
X83932160Y-72540904D01*
X83939728Y-72553530D01*
X83946022Y-72566837D01*
X83950981Y-72580697D01*
X83954558Y-72594976D01*
X83956718Y-72609537D01*
X83957440Y-72624240D01*
X83957440Y-74374240D01*
X83956718Y-74388943D01*
X83954558Y-74403504D01*
X83950981Y-74417783D01*
X83946022Y-74431643D01*
X83939728Y-74444950D01*
X83932160Y-74457576D01*
X83923392Y-74469399D01*
X83913506Y-74480306D01*
X83902599Y-74490192D01*
X83890776Y-74498960D01*
X83878150Y-74506528D01*
X83864843Y-74512822D01*
X83850983Y-74517781D01*
X83836704Y-74521358D01*
X83822143Y-74523518D01*
X83807440Y-74524240D01*
X83507440Y-74524240D01*
X83492737Y-74523518D01*
X83478176Y-74521358D01*
X83463897Y-74517781D01*
X83450037Y-74512822D01*
X83436730Y-74506528D01*
X83424104Y-74498960D01*
X83412281Y-74490192D01*
X83401374Y-74480306D01*
X83391488Y-74469399D01*
X83382720Y-74457576D01*
X83375152Y-74444950D01*
X83368858Y-74431643D01*
X83363899Y-74417783D01*
X83360322Y-74403504D01*
X83358162Y-74388943D01*
X83357440Y-74374240D01*
X83357440Y-72624240D01*
X83358162Y-72609537D01*
X83360322Y-72594976D01*
X83363899Y-72580697D01*
X83368858Y-72566837D01*
X83375152Y-72553530D01*
X83382720Y-72540904D01*
X83391488Y-72529081D01*
X83401374Y-72518174D01*
X83412281Y-72508288D01*
X83424104Y-72499520D01*
X83436730Y-72491952D01*
X83450037Y-72485658D01*
X83463897Y-72480699D01*
X83478176Y-72477122D01*
X83492737Y-72474962D01*
X83507440Y-72474240D01*
X83807440Y-72474240D01*
X83822143Y-72474962D01*
X83822143Y-72474962D01*
G37*
D13*
X83657440Y-73499240D03*
D10*
G36*
X83822143Y-63174962D02*
G01*
X83836704Y-63177122D01*
X83850983Y-63180699D01*
X83864843Y-63185658D01*
X83878150Y-63191952D01*
X83890776Y-63199520D01*
X83902599Y-63208288D01*
X83913506Y-63218174D01*
X83923392Y-63229081D01*
X83932160Y-63240904D01*
X83939728Y-63253530D01*
X83946022Y-63266837D01*
X83950981Y-63280697D01*
X83954558Y-63294976D01*
X83956718Y-63309537D01*
X83957440Y-63324240D01*
X83957440Y-65074240D01*
X83956718Y-65088943D01*
X83954558Y-65103504D01*
X83950981Y-65117783D01*
X83946022Y-65131643D01*
X83939728Y-65144950D01*
X83932160Y-65157576D01*
X83923392Y-65169399D01*
X83913506Y-65180306D01*
X83902599Y-65190192D01*
X83890776Y-65198960D01*
X83878150Y-65206528D01*
X83864843Y-65212822D01*
X83850983Y-65217781D01*
X83836704Y-65221358D01*
X83822143Y-65223518D01*
X83807440Y-65224240D01*
X83507440Y-65224240D01*
X83492737Y-65223518D01*
X83478176Y-65221358D01*
X83463897Y-65217781D01*
X83450037Y-65212822D01*
X83436730Y-65206528D01*
X83424104Y-65198960D01*
X83412281Y-65190192D01*
X83401374Y-65180306D01*
X83391488Y-65169399D01*
X83382720Y-65157576D01*
X83375152Y-65144950D01*
X83368858Y-65131643D01*
X83363899Y-65117783D01*
X83360322Y-65103504D01*
X83358162Y-65088943D01*
X83357440Y-65074240D01*
X83357440Y-63324240D01*
X83358162Y-63309537D01*
X83360322Y-63294976D01*
X83363899Y-63280697D01*
X83368858Y-63266837D01*
X83375152Y-63253530D01*
X83382720Y-63240904D01*
X83391488Y-63229081D01*
X83401374Y-63218174D01*
X83412281Y-63208288D01*
X83424104Y-63199520D01*
X83436730Y-63191952D01*
X83450037Y-63185658D01*
X83463897Y-63180699D01*
X83478176Y-63177122D01*
X83492737Y-63174962D01*
X83507440Y-63174240D01*
X83807440Y-63174240D01*
X83822143Y-63174962D01*
X83822143Y-63174962D01*
G37*
D13*
X83657440Y-64199240D03*
D10*
G36*
X85092143Y-63174962D02*
G01*
X85106704Y-63177122D01*
X85120983Y-63180699D01*
X85134843Y-63185658D01*
X85148150Y-63191952D01*
X85160776Y-63199520D01*
X85172599Y-63208288D01*
X85183506Y-63218174D01*
X85193392Y-63229081D01*
X85202160Y-63240904D01*
X85209728Y-63253530D01*
X85216022Y-63266837D01*
X85220981Y-63280697D01*
X85224558Y-63294976D01*
X85226718Y-63309537D01*
X85227440Y-63324240D01*
X85227440Y-65074240D01*
X85226718Y-65088943D01*
X85224558Y-65103504D01*
X85220981Y-65117783D01*
X85216022Y-65131643D01*
X85209728Y-65144950D01*
X85202160Y-65157576D01*
X85193392Y-65169399D01*
X85183506Y-65180306D01*
X85172599Y-65190192D01*
X85160776Y-65198960D01*
X85148150Y-65206528D01*
X85134843Y-65212822D01*
X85120983Y-65217781D01*
X85106704Y-65221358D01*
X85092143Y-65223518D01*
X85077440Y-65224240D01*
X84777440Y-65224240D01*
X84762737Y-65223518D01*
X84748176Y-65221358D01*
X84733897Y-65217781D01*
X84720037Y-65212822D01*
X84706730Y-65206528D01*
X84694104Y-65198960D01*
X84682281Y-65190192D01*
X84671374Y-65180306D01*
X84661488Y-65169399D01*
X84652720Y-65157576D01*
X84645152Y-65144950D01*
X84638858Y-65131643D01*
X84633899Y-65117783D01*
X84630322Y-65103504D01*
X84628162Y-65088943D01*
X84627440Y-65074240D01*
X84627440Y-63324240D01*
X84628162Y-63309537D01*
X84630322Y-63294976D01*
X84633899Y-63280697D01*
X84638858Y-63266837D01*
X84645152Y-63253530D01*
X84652720Y-63240904D01*
X84661488Y-63229081D01*
X84671374Y-63218174D01*
X84682281Y-63208288D01*
X84694104Y-63199520D01*
X84706730Y-63191952D01*
X84720037Y-63185658D01*
X84733897Y-63180699D01*
X84748176Y-63177122D01*
X84762737Y-63174962D01*
X84777440Y-63174240D01*
X85077440Y-63174240D01*
X85092143Y-63174962D01*
X85092143Y-63174962D01*
G37*
D13*
X84927440Y-64199240D03*
D10*
G36*
X86362143Y-63174962D02*
G01*
X86376704Y-63177122D01*
X86390983Y-63180699D01*
X86404843Y-63185658D01*
X86418150Y-63191952D01*
X86430776Y-63199520D01*
X86442599Y-63208288D01*
X86453506Y-63218174D01*
X86463392Y-63229081D01*
X86472160Y-63240904D01*
X86479728Y-63253530D01*
X86486022Y-63266837D01*
X86490981Y-63280697D01*
X86494558Y-63294976D01*
X86496718Y-63309537D01*
X86497440Y-63324240D01*
X86497440Y-65074240D01*
X86496718Y-65088943D01*
X86494558Y-65103504D01*
X86490981Y-65117783D01*
X86486022Y-65131643D01*
X86479728Y-65144950D01*
X86472160Y-65157576D01*
X86463392Y-65169399D01*
X86453506Y-65180306D01*
X86442599Y-65190192D01*
X86430776Y-65198960D01*
X86418150Y-65206528D01*
X86404843Y-65212822D01*
X86390983Y-65217781D01*
X86376704Y-65221358D01*
X86362143Y-65223518D01*
X86347440Y-65224240D01*
X86047440Y-65224240D01*
X86032737Y-65223518D01*
X86018176Y-65221358D01*
X86003897Y-65217781D01*
X85990037Y-65212822D01*
X85976730Y-65206528D01*
X85964104Y-65198960D01*
X85952281Y-65190192D01*
X85941374Y-65180306D01*
X85931488Y-65169399D01*
X85922720Y-65157576D01*
X85915152Y-65144950D01*
X85908858Y-65131643D01*
X85903899Y-65117783D01*
X85900322Y-65103504D01*
X85898162Y-65088943D01*
X85897440Y-65074240D01*
X85897440Y-63324240D01*
X85898162Y-63309537D01*
X85900322Y-63294976D01*
X85903899Y-63280697D01*
X85908858Y-63266837D01*
X85915152Y-63253530D01*
X85922720Y-63240904D01*
X85931488Y-63229081D01*
X85941374Y-63218174D01*
X85952281Y-63208288D01*
X85964104Y-63199520D01*
X85976730Y-63191952D01*
X85990037Y-63185658D01*
X86003897Y-63180699D01*
X86018176Y-63177122D01*
X86032737Y-63174962D01*
X86047440Y-63174240D01*
X86347440Y-63174240D01*
X86362143Y-63174962D01*
X86362143Y-63174962D01*
G37*
D13*
X86197440Y-64199240D03*
D10*
G36*
X87632143Y-63174962D02*
G01*
X87646704Y-63177122D01*
X87660983Y-63180699D01*
X87674843Y-63185658D01*
X87688150Y-63191952D01*
X87700776Y-63199520D01*
X87712599Y-63208288D01*
X87723506Y-63218174D01*
X87733392Y-63229081D01*
X87742160Y-63240904D01*
X87749728Y-63253530D01*
X87756022Y-63266837D01*
X87760981Y-63280697D01*
X87764558Y-63294976D01*
X87766718Y-63309537D01*
X87767440Y-63324240D01*
X87767440Y-65074240D01*
X87766718Y-65088943D01*
X87764558Y-65103504D01*
X87760981Y-65117783D01*
X87756022Y-65131643D01*
X87749728Y-65144950D01*
X87742160Y-65157576D01*
X87733392Y-65169399D01*
X87723506Y-65180306D01*
X87712599Y-65190192D01*
X87700776Y-65198960D01*
X87688150Y-65206528D01*
X87674843Y-65212822D01*
X87660983Y-65217781D01*
X87646704Y-65221358D01*
X87632143Y-65223518D01*
X87617440Y-65224240D01*
X87317440Y-65224240D01*
X87302737Y-65223518D01*
X87288176Y-65221358D01*
X87273897Y-65217781D01*
X87260037Y-65212822D01*
X87246730Y-65206528D01*
X87234104Y-65198960D01*
X87222281Y-65190192D01*
X87211374Y-65180306D01*
X87201488Y-65169399D01*
X87192720Y-65157576D01*
X87185152Y-65144950D01*
X87178858Y-65131643D01*
X87173899Y-65117783D01*
X87170322Y-65103504D01*
X87168162Y-65088943D01*
X87167440Y-65074240D01*
X87167440Y-63324240D01*
X87168162Y-63309537D01*
X87170322Y-63294976D01*
X87173899Y-63280697D01*
X87178858Y-63266837D01*
X87185152Y-63253530D01*
X87192720Y-63240904D01*
X87201488Y-63229081D01*
X87211374Y-63218174D01*
X87222281Y-63208288D01*
X87234104Y-63199520D01*
X87246730Y-63191952D01*
X87260037Y-63185658D01*
X87273897Y-63180699D01*
X87288176Y-63177122D01*
X87302737Y-63174962D01*
X87317440Y-63174240D01*
X87617440Y-63174240D01*
X87632143Y-63174962D01*
X87632143Y-63174962D01*
G37*
D13*
X87467440Y-64199240D03*
D10*
G36*
X88902143Y-63174962D02*
G01*
X88916704Y-63177122D01*
X88930983Y-63180699D01*
X88944843Y-63185658D01*
X88958150Y-63191952D01*
X88970776Y-63199520D01*
X88982599Y-63208288D01*
X88993506Y-63218174D01*
X89003392Y-63229081D01*
X89012160Y-63240904D01*
X89019728Y-63253530D01*
X89026022Y-63266837D01*
X89030981Y-63280697D01*
X89034558Y-63294976D01*
X89036718Y-63309537D01*
X89037440Y-63324240D01*
X89037440Y-65074240D01*
X89036718Y-65088943D01*
X89034558Y-65103504D01*
X89030981Y-65117783D01*
X89026022Y-65131643D01*
X89019728Y-65144950D01*
X89012160Y-65157576D01*
X89003392Y-65169399D01*
X88993506Y-65180306D01*
X88982599Y-65190192D01*
X88970776Y-65198960D01*
X88958150Y-65206528D01*
X88944843Y-65212822D01*
X88930983Y-65217781D01*
X88916704Y-65221358D01*
X88902143Y-65223518D01*
X88887440Y-65224240D01*
X88587440Y-65224240D01*
X88572737Y-65223518D01*
X88558176Y-65221358D01*
X88543897Y-65217781D01*
X88530037Y-65212822D01*
X88516730Y-65206528D01*
X88504104Y-65198960D01*
X88492281Y-65190192D01*
X88481374Y-65180306D01*
X88471488Y-65169399D01*
X88462720Y-65157576D01*
X88455152Y-65144950D01*
X88448858Y-65131643D01*
X88443899Y-65117783D01*
X88440322Y-65103504D01*
X88438162Y-65088943D01*
X88437440Y-65074240D01*
X88437440Y-63324240D01*
X88438162Y-63309537D01*
X88440322Y-63294976D01*
X88443899Y-63280697D01*
X88448858Y-63266837D01*
X88455152Y-63253530D01*
X88462720Y-63240904D01*
X88471488Y-63229081D01*
X88481374Y-63218174D01*
X88492281Y-63208288D01*
X88504104Y-63199520D01*
X88516730Y-63191952D01*
X88530037Y-63185658D01*
X88543897Y-63180699D01*
X88558176Y-63177122D01*
X88572737Y-63174962D01*
X88587440Y-63174240D01*
X88887440Y-63174240D01*
X88902143Y-63174962D01*
X88902143Y-63174962D01*
G37*
D13*
X88737440Y-64199240D03*
D10*
G36*
X90172143Y-63174962D02*
G01*
X90186704Y-63177122D01*
X90200983Y-63180699D01*
X90214843Y-63185658D01*
X90228150Y-63191952D01*
X90240776Y-63199520D01*
X90252599Y-63208288D01*
X90263506Y-63218174D01*
X90273392Y-63229081D01*
X90282160Y-63240904D01*
X90289728Y-63253530D01*
X90296022Y-63266837D01*
X90300981Y-63280697D01*
X90304558Y-63294976D01*
X90306718Y-63309537D01*
X90307440Y-63324240D01*
X90307440Y-65074240D01*
X90306718Y-65088943D01*
X90304558Y-65103504D01*
X90300981Y-65117783D01*
X90296022Y-65131643D01*
X90289728Y-65144950D01*
X90282160Y-65157576D01*
X90273392Y-65169399D01*
X90263506Y-65180306D01*
X90252599Y-65190192D01*
X90240776Y-65198960D01*
X90228150Y-65206528D01*
X90214843Y-65212822D01*
X90200983Y-65217781D01*
X90186704Y-65221358D01*
X90172143Y-65223518D01*
X90157440Y-65224240D01*
X89857440Y-65224240D01*
X89842737Y-65223518D01*
X89828176Y-65221358D01*
X89813897Y-65217781D01*
X89800037Y-65212822D01*
X89786730Y-65206528D01*
X89774104Y-65198960D01*
X89762281Y-65190192D01*
X89751374Y-65180306D01*
X89741488Y-65169399D01*
X89732720Y-65157576D01*
X89725152Y-65144950D01*
X89718858Y-65131643D01*
X89713899Y-65117783D01*
X89710322Y-65103504D01*
X89708162Y-65088943D01*
X89707440Y-65074240D01*
X89707440Y-63324240D01*
X89708162Y-63309537D01*
X89710322Y-63294976D01*
X89713899Y-63280697D01*
X89718858Y-63266837D01*
X89725152Y-63253530D01*
X89732720Y-63240904D01*
X89741488Y-63229081D01*
X89751374Y-63218174D01*
X89762281Y-63208288D01*
X89774104Y-63199520D01*
X89786730Y-63191952D01*
X89800037Y-63185658D01*
X89813897Y-63180699D01*
X89828176Y-63177122D01*
X89842737Y-63174962D01*
X89857440Y-63174240D01*
X90157440Y-63174240D01*
X90172143Y-63174962D01*
X90172143Y-63174962D01*
G37*
D13*
X90007440Y-64199240D03*
D10*
G36*
X91442143Y-63174962D02*
G01*
X91456704Y-63177122D01*
X91470983Y-63180699D01*
X91484843Y-63185658D01*
X91498150Y-63191952D01*
X91510776Y-63199520D01*
X91522599Y-63208288D01*
X91533506Y-63218174D01*
X91543392Y-63229081D01*
X91552160Y-63240904D01*
X91559728Y-63253530D01*
X91566022Y-63266837D01*
X91570981Y-63280697D01*
X91574558Y-63294976D01*
X91576718Y-63309537D01*
X91577440Y-63324240D01*
X91577440Y-65074240D01*
X91576718Y-65088943D01*
X91574558Y-65103504D01*
X91570981Y-65117783D01*
X91566022Y-65131643D01*
X91559728Y-65144950D01*
X91552160Y-65157576D01*
X91543392Y-65169399D01*
X91533506Y-65180306D01*
X91522599Y-65190192D01*
X91510776Y-65198960D01*
X91498150Y-65206528D01*
X91484843Y-65212822D01*
X91470983Y-65217781D01*
X91456704Y-65221358D01*
X91442143Y-65223518D01*
X91427440Y-65224240D01*
X91127440Y-65224240D01*
X91112737Y-65223518D01*
X91098176Y-65221358D01*
X91083897Y-65217781D01*
X91070037Y-65212822D01*
X91056730Y-65206528D01*
X91044104Y-65198960D01*
X91032281Y-65190192D01*
X91021374Y-65180306D01*
X91011488Y-65169399D01*
X91002720Y-65157576D01*
X90995152Y-65144950D01*
X90988858Y-65131643D01*
X90983899Y-65117783D01*
X90980322Y-65103504D01*
X90978162Y-65088943D01*
X90977440Y-65074240D01*
X90977440Y-63324240D01*
X90978162Y-63309537D01*
X90980322Y-63294976D01*
X90983899Y-63280697D01*
X90988858Y-63266837D01*
X90995152Y-63253530D01*
X91002720Y-63240904D01*
X91011488Y-63229081D01*
X91021374Y-63218174D01*
X91032281Y-63208288D01*
X91044104Y-63199520D01*
X91056730Y-63191952D01*
X91070037Y-63185658D01*
X91083897Y-63180699D01*
X91098176Y-63177122D01*
X91112737Y-63174962D01*
X91127440Y-63174240D01*
X91427440Y-63174240D01*
X91442143Y-63174962D01*
X91442143Y-63174962D01*
G37*
D13*
X91277440Y-64199240D03*
D10*
G36*
X92712143Y-63174962D02*
G01*
X92726704Y-63177122D01*
X92740983Y-63180699D01*
X92754843Y-63185658D01*
X92768150Y-63191952D01*
X92780776Y-63199520D01*
X92792599Y-63208288D01*
X92803506Y-63218174D01*
X92813392Y-63229081D01*
X92822160Y-63240904D01*
X92829728Y-63253530D01*
X92836022Y-63266837D01*
X92840981Y-63280697D01*
X92844558Y-63294976D01*
X92846718Y-63309537D01*
X92847440Y-63324240D01*
X92847440Y-65074240D01*
X92846718Y-65088943D01*
X92844558Y-65103504D01*
X92840981Y-65117783D01*
X92836022Y-65131643D01*
X92829728Y-65144950D01*
X92822160Y-65157576D01*
X92813392Y-65169399D01*
X92803506Y-65180306D01*
X92792599Y-65190192D01*
X92780776Y-65198960D01*
X92768150Y-65206528D01*
X92754843Y-65212822D01*
X92740983Y-65217781D01*
X92726704Y-65221358D01*
X92712143Y-65223518D01*
X92697440Y-65224240D01*
X92397440Y-65224240D01*
X92382737Y-65223518D01*
X92368176Y-65221358D01*
X92353897Y-65217781D01*
X92340037Y-65212822D01*
X92326730Y-65206528D01*
X92314104Y-65198960D01*
X92302281Y-65190192D01*
X92291374Y-65180306D01*
X92281488Y-65169399D01*
X92272720Y-65157576D01*
X92265152Y-65144950D01*
X92258858Y-65131643D01*
X92253899Y-65117783D01*
X92250322Y-65103504D01*
X92248162Y-65088943D01*
X92247440Y-65074240D01*
X92247440Y-63324240D01*
X92248162Y-63309537D01*
X92250322Y-63294976D01*
X92253899Y-63280697D01*
X92258858Y-63266837D01*
X92265152Y-63253530D01*
X92272720Y-63240904D01*
X92281488Y-63229081D01*
X92291374Y-63218174D01*
X92302281Y-63208288D01*
X92314104Y-63199520D01*
X92326730Y-63191952D01*
X92340037Y-63185658D01*
X92353897Y-63180699D01*
X92368176Y-63177122D01*
X92382737Y-63174962D01*
X92397440Y-63174240D01*
X92697440Y-63174240D01*
X92712143Y-63174962D01*
X92712143Y-63174962D01*
G37*
D13*
X92547440Y-64199240D03*
D10*
G36*
X93982143Y-63174962D02*
G01*
X93996704Y-63177122D01*
X94010983Y-63180699D01*
X94024843Y-63185658D01*
X94038150Y-63191952D01*
X94050776Y-63199520D01*
X94062599Y-63208288D01*
X94073506Y-63218174D01*
X94083392Y-63229081D01*
X94092160Y-63240904D01*
X94099728Y-63253530D01*
X94106022Y-63266837D01*
X94110981Y-63280697D01*
X94114558Y-63294976D01*
X94116718Y-63309537D01*
X94117440Y-63324240D01*
X94117440Y-65074240D01*
X94116718Y-65088943D01*
X94114558Y-65103504D01*
X94110981Y-65117783D01*
X94106022Y-65131643D01*
X94099728Y-65144950D01*
X94092160Y-65157576D01*
X94083392Y-65169399D01*
X94073506Y-65180306D01*
X94062599Y-65190192D01*
X94050776Y-65198960D01*
X94038150Y-65206528D01*
X94024843Y-65212822D01*
X94010983Y-65217781D01*
X93996704Y-65221358D01*
X93982143Y-65223518D01*
X93967440Y-65224240D01*
X93667440Y-65224240D01*
X93652737Y-65223518D01*
X93638176Y-65221358D01*
X93623897Y-65217781D01*
X93610037Y-65212822D01*
X93596730Y-65206528D01*
X93584104Y-65198960D01*
X93572281Y-65190192D01*
X93561374Y-65180306D01*
X93551488Y-65169399D01*
X93542720Y-65157576D01*
X93535152Y-65144950D01*
X93528858Y-65131643D01*
X93523899Y-65117783D01*
X93520322Y-65103504D01*
X93518162Y-65088943D01*
X93517440Y-65074240D01*
X93517440Y-63324240D01*
X93518162Y-63309537D01*
X93520322Y-63294976D01*
X93523899Y-63280697D01*
X93528858Y-63266837D01*
X93535152Y-63253530D01*
X93542720Y-63240904D01*
X93551488Y-63229081D01*
X93561374Y-63218174D01*
X93572281Y-63208288D01*
X93584104Y-63199520D01*
X93596730Y-63191952D01*
X93610037Y-63185658D01*
X93623897Y-63180699D01*
X93638176Y-63177122D01*
X93652737Y-63174962D01*
X93667440Y-63174240D01*
X93967440Y-63174240D01*
X93982143Y-63174962D01*
X93982143Y-63174962D01*
G37*
D13*
X93817440Y-64199240D03*
D10*
G36*
X95252143Y-63174962D02*
G01*
X95266704Y-63177122D01*
X95280983Y-63180699D01*
X95294843Y-63185658D01*
X95308150Y-63191952D01*
X95320776Y-63199520D01*
X95332599Y-63208288D01*
X95343506Y-63218174D01*
X95353392Y-63229081D01*
X95362160Y-63240904D01*
X95369728Y-63253530D01*
X95376022Y-63266837D01*
X95380981Y-63280697D01*
X95384558Y-63294976D01*
X95386718Y-63309537D01*
X95387440Y-63324240D01*
X95387440Y-65074240D01*
X95386718Y-65088943D01*
X95384558Y-65103504D01*
X95380981Y-65117783D01*
X95376022Y-65131643D01*
X95369728Y-65144950D01*
X95362160Y-65157576D01*
X95353392Y-65169399D01*
X95343506Y-65180306D01*
X95332599Y-65190192D01*
X95320776Y-65198960D01*
X95308150Y-65206528D01*
X95294843Y-65212822D01*
X95280983Y-65217781D01*
X95266704Y-65221358D01*
X95252143Y-65223518D01*
X95237440Y-65224240D01*
X94937440Y-65224240D01*
X94922737Y-65223518D01*
X94908176Y-65221358D01*
X94893897Y-65217781D01*
X94880037Y-65212822D01*
X94866730Y-65206528D01*
X94854104Y-65198960D01*
X94842281Y-65190192D01*
X94831374Y-65180306D01*
X94821488Y-65169399D01*
X94812720Y-65157576D01*
X94805152Y-65144950D01*
X94798858Y-65131643D01*
X94793899Y-65117783D01*
X94790322Y-65103504D01*
X94788162Y-65088943D01*
X94787440Y-65074240D01*
X94787440Y-63324240D01*
X94788162Y-63309537D01*
X94790322Y-63294976D01*
X94793899Y-63280697D01*
X94798858Y-63266837D01*
X94805152Y-63253530D01*
X94812720Y-63240904D01*
X94821488Y-63229081D01*
X94831374Y-63218174D01*
X94842281Y-63208288D01*
X94854104Y-63199520D01*
X94866730Y-63191952D01*
X94880037Y-63185658D01*
X94893897Y-63180699D01*
X94908176Y-63177122D01*
X94922737Y-63174962D01*
X94937440Y-63174240D01*
X95237440Y-63174240D01*
X95252143Y-63174962D01*
X95252143Y-63174962D01*
G37*
D13*
X95087440Y-64199240D03*
D14*
X170520360Y-69871320D03*
X170520360Y-73171320D03*
X162417760Y-59116960D03*
X162417760Y-62416960D03*
D15*
X169011600Y-59229800D03*
X169011600Y-62029800D03*
D16*
X164876480Y-72512000D03*
X163576480Y-72512000D03*
X164226480Y-70612000D03*
X164226480Y-72512000D03*
X163576480Y-70612000D03*
X164876480Y-70612000D03*
D10*
G36*
X163297302Y-64487734D02*
G01*
X163320963Y-64491244D01*
X163344167Y-64497056D01*
X163366689Y-64505114D01*
X163388313Y-64515342D01*
X163408830Y-64527639D01*
X163428043Y-64541889D01*
X163445767Y-64557953D01*
X163461831Y-64575677D01*
X163476081Y-64594890D01*
X163488378Y-64615407D01*
X163498606Y-64637031D01*
X163506664Y-64659553D01*
X163512476Y-64682757D01*
X163515986Y-64706418D01*
X163517160Y-64730310D01*
X163517160Y-65642810D01*
X163515986Y-65666702D01*
X163512476Y-65690363D01*
X163506664Y-65713567D01*
X163498606Y-65736089D01*
X163488378Y-65757713D01*
X163476081Y-65778230D01*
X163461831Y-65797443D01*
X163445767Y-65815167D01*
X163428043Y-65831231D01*
X163408830Y-65845481D01*
X163388313Y-65857778D01*
X163366689Y-65868006D01*
X163344167Y-65876064D01*
X163320963Y-65881876D01*
X163297302Y-65885386D01*
X163273410Y-65886560D01*
X162785910Y-65886560D01*
X162762018Y-65885386D01*
X162738357Y-65881876D01*
X162715153Y-65876064D01*
X162692631Y-65868006D01*
X162671007Y-65857778D01*
X162650490Y-65845481D01*
X162631277Y-65831231D01*
X162613553Y-65815167D01*
X162597489Y-65797443D01*
X162583239Y-65778230D01*
X162570942Y-65757713D01*
X162560714Y-65736089D01*
X162552656Y-65713567D01*
X162546844Y-65690363D01*
X162543334Y-65666702D01*
X162542160Y-65642810D01*
X162542160Y-64730310D01*
X162543334Y-64706418D01*
X162546844Y-64682757D01*
X162552656Y-64659553D01*
X162560714Y-64637031D01*
X162570942Y-64615407D01*
X162583239Y-64594890D01*
X162597489Y-64575677D01*
X162613553Y-64557953D01*
X162631277Y-64541889D01*
X162650490Y-64527639D01*
X162671007Y-64515342D01*
X162692631Y-64505114D01*
X162715153Y-64497056D01*
X162738357Y-64491244D01*
X162762018Y-64487734D01*
X162785910Y-64486560D01*
X163273410Y-64486560D01*
X163297302Y-64487734D01*
X163297302Y-64487734D01*
G37*
D11*
X163029660Y-65186560D03*
D10*
G36*
X165172302Y-64487734D02*
G01*
X165195963Y-64491244D01*
X165219167Y-64497056D01*
X165241689Y-64505114D01*
X165263313Y-64515342D01*
X165283830Y-64527639D01*
X165303043Y-64541889D01*
X165320767Y-64557953D01*
X165336831Y-64575677D01*
X165351081Y-64594890D01*
X165363378Y-64615407D01*
X165373606Y-64637031D01*
X165381664Y-64659553D01*
X165387476Y-64682757D01*
X165390986Y-64706418D01*
X165392160Y-64730310D01*
X165392160Y-65642810D01*
X165390986Y-65666702D01*
X165387476Y-65690363D01*
X165381664Y-65713567D01*
X165373606Y-65736089D01*
X165363378Y-65757713D01*
X165351081Y-65778230D01*
X165336831Y-65797443D01*
X165320767Y-65815167D01*
X165303043Y-65831231D01*
X165283830Y-65845481D01*
X165263313Y-65857778D01*
X165241689Y-65868006D01*
X165219167Y-65876064D01*
X165195963Y-65881876D01*
X165172302Y-65885386D01*
X165148410Y-65886560D01*
X164660910Y-65886560D01*
X164637018Y-65885386D01*
X164613357Y-65881876D01*
X164590153Y-65876064D01*
X164567631Y-65868006D01*
X164546007Y-65857778D01*
X164525490Y-65845481D01*
X164506277Y-65831231D01*
X164488553Y-65815167D01*
X164472489Y-65797443D01*
X164458239Y-65778230D01*
X164445942Y-65757713D01*
X164435714Y-65736089D01*
X164427656Y-65713567D01*
X164421844Y-65690363D01*
X164418334Y-65666702D01*
X164417160Y-65642810D01*
X164417160Y-64730310D01*
X164418334Y-64706418D01*
X164421844Y-64682757D01*
X164427656Y-64659553D01*
X164435714Y-64637031D01*
X164445942Y-64615407D01*
X164458239Y-64594890D01*
X164472489Y-64575677D01*
X164488553Y-64557953D01*
X164506277Y-64541889D01*
X164525490Y-64527639D01*
X164546007Y-64515342D01*
X164567631Y-64505114D01*
X164590153Y-64497056D01*
X164613357Y-64491244D01*
X164637018Y-64487734D01*
X164660910Y-64486560D01*
X165148410Y-64486560D01*
X165172302Y-64487734D01*
X165172302Y-64487734D01*
G37*
D11*
X164904660Y-65186560D03*
D10*
G36*
X76127042Y-61995994D02*
G01*
X76150703Y-61999504D01*
X76173907Y-62005316D01*
X76196429Y-62013374D01*
X76218053Y-62023602D01*
X76238570Y-62035899D01*
X76257783Y-62050149D01*
X76275507Y-62066213D01*
X76291571Y-62083937D01*
X76305821Y-62103150D01*
X76318118Y-62123667D01*
X76328346Y-62145291D01*
X76336404Y-62167813D01*
X76342216Y-62191017D01*
X76345726Y-62214678D01*
X76346900Y-62238570D01*
X76346900Y-63151070D01*
X76345726Y-63174962D01*
X76342216Y-63198623D01*
X76336404Y-63221827D01*
X76328346Y-63244349D01*
X76318118Y-63265973D01*
X76305821Y-63286490D01*
X76291571Y-63305703D01*
X76275507Y-63323427D01*
X76257783Y-63339491D01*
X76238570Y-63353741D01*
X76218053Y-63366038D01*
X76196429Y-63376266D01*
X76173907Y-63384324D01*
X76150703Y-63390136D01*
X76127042Y-63393646D01*
X76103150Y-63394820D01*
X75615650Y-63394820D01*
X75591758Y-63393646D01*
X75568097Y-63390136D01*
X75544893Y-63384324D01*
X75522371Y-63376266D01*
X75500747Y-63366038D01*
X75480230Y-63353741D01*
X75461017Y-63339491D01*
X75443293Y-63323427D01*
X75427229Y-63305703D01*
X75412979Y-63286490D01*
X75400682Y-63265973D01*
X75390454Y-63244349D01*
X75382396Y-63221827D01*
X75376584Y-63198623D01*
X75373074Y-63174962D01*
X75371900Y-63151070D01*
X75371900Y-62238570D01*
X75373074Y-62214678D01*
X75376584Y-62191017D01*
X75382396Y-62167813D01*
X75390454Y-62145291D01*
X75400682Y-62123667D01*
X75412979Y-62103150D01*
X75427229Y-62083937D01*
X75443293Y-62066213D01*
X75461017Y-62050149D01*
X75480230Y-62035899D01*
X75500747Y-62023602D01*
X75522371Y-62013374D01*
X75544893Y-62005316D01*
X75568097Y-61999504D01*
X75591758Y-61995994D01*
X75615650Y-61994820D01*
X76103150Y-61994820D01*
X76127042Y-61995994D01*
X76127042Y-61995994D01*
G37*
D11*
X75859400Y-62694820D03*
D10*
G36*
X78002042Y-61995994D02*
G01*
X78025703Y-61999504D01*
X78048907Y-62005316D01*
X78071429Y-62013374D01*
X78093053Y-62023602D01*
X78113570Y-62035899D01*
X78132783Y-62050149D01*
X78150507Y-62066213D01*
X78166571Y-62083937D01*
X78180821Y-62103150D01*
X78193118Y-62123667D01*
X78203346Y-62145291D01*
X78211404Y-62167813D01*
X78217216Y-62191017D01*
X78220726Y-62214678D01*
X78221900Y-62238570D01*
X78221900Y-63151070D01*
X78220726Y-63174962D01*
X78217216Y-63198623D01*
X78211404Y-63221827D01*
X78203346Y-63244349D01*
X78193118Y-63265973D01*
X78180821Y-63286490D01*
X78166571Y-63305703D01*
X78150507Y-63323427D01*
X78132783Y-63339491D01*
X78113570Y-63353741D01*
X78093053Y-63366038D01*
X78071429Y-63376266D01*
X78048907Y-63384324D01*
X78025703Y-63390136D01*
X78002042Y-63393646D01*
X77978150Y-63394820D01*
X77490650Y-63394820D01*
X77466758Y-63393646D01*
X77443097Y-63390136D01*
X77419893Y-63384324D01*
X77397371Y-63376266D01*
X77375747Y-63366038D01*
X77355230Y-63353741D01*
X77336017Y-63339491D01*
X77318293Y-63323427D01*
X77302229Y-63305703D01*
X77287979Y-63286490D01*
X77275682Y-63265973D01*
X77265454Y-63244349D01*
X77257396Y-63221827D01*
X77251584Y-63198623D01*
X77248074Y-63174962D01*
X77246900Y-63151070D01*
X77246900Y-62238570D01*
X77248074Y-62214678D01*
X77251584Y-62191017D01*
X77257396Y-62167813D01*
X77265454Y-62145291D01*
X77275682Y-62123667D01*
X77287979Y-62103150D01*
X77302229Y-62083937D01*
X77318293Y-62066213D01*
X77336017Y-62050149D01*
X77355230Y-62035899D01*
X77375747Y-62023602D01*
X77397371Y-62013374D01*
X77419893Y-62005316D01*
X77443097Y-61999504D01*
X77466758Y-61995994D01*
X77490650Y-61994820D01*
X77978150Y-61994820D01*
X78002042Y-61995994D01*
X78002042Y-61995994D01*
G37*
D11*
X77734400Y-62694820D03*
D10*
G36*
X156957462Y-68820974D02*
G01*
X156981123Y-68824484D01*
X157004327Y-68830296D01*
X157026849Y-68838354D01*
X157048473Y-68848582D01*
X157068990Y-68860879D01*
X157088203Y-68875129D01*
X157105927Y-68891193D01*
X157121991Y-68908917D01*
X157136241Y-68928130D01*
X157148538Y-68948647D01*
X157158766Y-68970271D01*
X157166824Y-68992793D01*
X157172636Y-69015997D01*
X157176146Y-69039658D01*
X157177320Y-69063550D01*
X157177320Y-69976050D01*
X157176146Y-69999942D01*
X157172636Y-70023603D01*
X157166824Y-70046807D01*
X157158766Y-70069329D01*
X157148538Y-70090953D01*
X157136241Y-70111470D01*
X157121991Y-70130683D01*
X157105927Y-70148407D01*
X157088203Y-70164471D01*
X157068990Y-70178721D01*
X157048473Y-70191018D01*
X157026849Y-70201246D01*
X157004327Y-70209304D01*
X156981123Y-70215116D01*
X156957462Y-70218626D01*
X156933570Y-70219800D01*
X156446070Y-70219800D01*
X156422178Y-70218626D01*
X156398517Y-70215116D01*
X156375313Y-70209304D01*
X156352791Y-70201246D01*
X156331167Y-70191018D01*
X156310650Y-70178721D01*
X156291437Y-70164471D01*
X156273713Y-70148407D01*
X156257649Y-70130683D01*
X156243399Y-70111470D01*
X156231102Y-70090953D01*
X156220874Y-70069329D01*
X156212816Y-70046807D01*
X156207004Y-70023603D01*
X156203494Y-69999942D01*
X156202320Y-69976050D01*
X156202320Y-69063550D01*
X156203494Y-69039658D01*
X156207004Y-69015997D01*
X156212816Y-68992793D01*
X156220874Y-68970271D01*
X156231102Y-68948647D01*
X156243399Y-68928130D01*
X156257649Y-68908917D01*
X156273713Y-68891193D01*
X156291437Y-68875129D01*
X156310650Y-68860879D01*
X156331167Y-68848582D01*
X156352791Y-68838354D01*
X156375313Y-68830296D01*
X156398517Y-68824484D01*
X156422178Y-68820974D01*
X156446070Y-68819800D01*
X156933570Y-68819800D01*
X156957462Y-68820974D01*
X156957462Y-68820974D01*
G37*
D11*
X156689820Y-69519800D03*
D10*
G36*
X158832462Y-68820974D02*
G01*
X158856123Y-68824484D01*
X158879327Y-68830296D01*
X158901849Y-68838354D01*
X158923473Y-68848582D01*
X158943990Y-68860879D01*
X158963203Y-68875129D01*
X158980927Y-68891193D01*
X158996991Y-68908917D01*
X159011241Y-68928130D01*
X159023538Y-68948647D01*
X159033766Y-68970271D01*
X159041824Y-68992793D01*
X159047636Y-69015997D01*
X159051146Y-69039658D01*
X159052320Y-69063550D01*
X159052320Y-69976050D01*
X159051146Y-69999942D01*
X159047636Y-70023603D01*
X159041824Y-70046807D01*
X159033766Y-70069329D01*
X159023538Y-70090953D01*
X159011241Y-70111470D01*
X158996991Y-70130683D01*
X158980927Y-70148407D01*
X158963203Y-70164471D01*
X158943990Y-70178721D01*
X158923473Y-70191018D01*
X158901849Y-70201246D01*
X158879327Y-70209304D01*
X158856123Y-70215116D01*
X158832462Y-70218626D01*
X158808570Y-70219800D01*
X158321070Y-70219800D01*
X158297178Y-70218626D01*
X158273517Y-70215116D01*
X158250313Y-70209304D01*
X158227791Y-70201246D01*
X158206167Y-70191018D01*
X158185650Y-70178721D01*
X158166437Y-70164471D01*
X158148713Y-70148407D01*
X158132649Y-70130683D01*
X158118399Y-70111470D01*
X158106102Y-70090953D01*
X158095874Y-70069329D01*
X158087816Y-70046807D01*
X158082004Y-70023603D01*
X158078494Y-69999942D01*
X158077320Y-69976050D01*
X158077320Y-69063550D01*
X158078494Y-69039658D01*
X158082004Y-69015997D01*
X158087816Y-68992793D01*
X158095874Y-68970271D01*
X158106102Y-68948647D01*
X158118399Y-68928130D01*
X158132649Y-68908917D01*
X158148713Y-68891193D01*
X158166437Y-68875129D01*
X158185650Y-68860879D01*
X158206167Y-68848582D01*
X158227791Y-68838354D01*
X158250313Y-68830296D01*
X158273517Y-68824484D01*
X158297178Y-68820974D01*
X158321070Y-68819800D01*
X158808570Y-68819800D01*
X158832462Y-68820974D01*
X158832462Y-68820974D01*
G37*
D11*
X158564820Y-69519800D03*
D10*
G36*
X165393042Y-77197894D02*
G01*
X165416703Y-77201404D01*
X165439907Y-77207216D01*
X165462429Y-77215274D01*
X165484053Y-77225502D01*
X165504570Y-77237799D01*
X165523783Y-77252049D01*
X165541507Y-77268113D01*
X165557571Y-77285837D01*
X165571821Y-77305050D01*
X165584118Y-77325567D01*
X165594346Y-77347191D01*
X165602404Y-77369713D01*
X165608216Y-77392917D01*
X165611726Y-77416578D01*
X165612900Y-77440470D01*
X165612900Y-78352970D01*
X165611726Y-78376862D01*
X165608216Y-78400523D01*
X165602404Y-78423727D01*
X165594346Y-78446249D01*
X165584118Y-78467873D01*
X165571821Y-78488390D01*
X165557571Y-78507603D01*
X165541507Y-78525327D01*
X165523783Y-78541391D01*
X165504570Y-78555641D01*
X165484053Y-78567938D01*
X165462429Y-78578166D01*
X165439907Y-78586224D01*
X165416703Y-78592036D01*
X165393042Y-78595546D01*
X165369150Y-78596720D01*
X164881650Y-78596720D01*
X164857758Y-78595546D01*
X164834097Y-78592036D01*
X164810893Y-78586224D01*
X164788371Y-78578166D01*
X164766747Y-78567938D01*
X164746230Y-78555641D01*
X164727017Y-78541391D01*
X164709293Y-78525327D01*
X164693229Y-78507603D01*
X164678979Y-78488390D01*
X164666682Y-78467873D01*
X164656454Y-78446249D01*
X164648396Y-78423727D01*
X164642584Y-78400523D01*
X164639074Y-78376862D01*
X164637900Y-78352970D01*
X164637900Y-77440470D01*
X164639074Y-77416578D01*
X164642584Y-77392917D01*
X164648396Y-77369713D01*
X164656454Y-77347191D01*
X164666682Y-77325567D01*
X164678979Y-77305050D01*
X164693229Y-77285837D01*
X164709293Y-77268113D01*
X164727017Y-77252049D01*
X164746230Y-77237799D01*
X164766747Y-77225502D01*
X164788371Y-77215274D01*
X164810893Y-77207216D01*
X164834097Y-77201404D01*
X164857758Y-77197894D01*
X164881650Y-77196720D01*
X165369150Y-77196720D01*
X165393042Y-77197894D01*
X165393042Y-77197894D01*
G37*
D11*
X165125400Y-77896720D03*
D10*
G36*
X163518042Y-77197894D02*
G01*
X163541703Y-77201404D01*
X163564907Y-77207216D01*
X163587429Y-77215274D01*
X163609053Y-77225502D01*
X163629570Y-77237799D01*
X163648783Y-77252049D01*
X163666507Y-77268113D01*
X163682571Y-77285837D01*
X163696821Y-77305050D01*
X163709118Y-77325567D01*
X163719346Y-77347191D01*
X163727404Y-77369713D01*
X163733216Y-77392917D01*
X163736726Y-77416578D01*
X163737900Y-77440470D01*
X163737900Y-78352970D01*
X163736726Y-78376862D01*
X163733216Y-78400523D01*
X163727404Y-78423727D01*
X163719346Y-78446249D01*
X163709118Y-78467873D01*
X163696821Y-78488390D01*
X163682571Y-78507603D01*
X163666507Y-78525327D01*
X163648783Y-78541391D01*
X163629570Y-78555641D01*
X163609053Y-78567938D01*
X163587429Y-78578166D01*
X163564907Y-78586224D01*
X163541703Y-78592036D01*
X163518042Y-78595546D01*
X163494150Y-78596720D01*
X163006650Y-78596720D01*
X162982758Y-78595546D01*
X162959097Y-78592036D01*
X162935893Y-78586224D01*
X162913371Y-78578166D01*
X162891747Y-78567938D01*
X162871230Y-78555641D01*
X162852017Y-78541391D01*
X162834293Y-78525327D01*
X162818229Y-78507603D01*
X162803979Y-78488390D01*
X162791682Y-78467873D01*
X162781454Y-78446249D01*
X162773396Y-78423727D01*
X162767584Y-78400523D01*
X162764074Y-78376862D01*
X162762900Y-78352970D01*
X162762900Y-77440470D01*
X162764074Y-77416578D01*
X162767584Y-77392917D01*
X162773396Y-77369713D01*
X162781454Y-77347191D01*
X162791682Y-77325567D01*
X162803979Y-77305050D01*
X162818229Y-77285837D01*
X162834293Y-77268113D01*
X162852017Y-77252049D01*
X162871230Y-77237799D01*
X162891747Y-77225502D01*
X162913371Y-77215274D01*
X162935893Y-77207216D01*
X162959097Y-77201404D01*
X162982758Y-77197894D01*
X163006650Y-77196720D01*
X163494150Y-77196720D01*
X163518042Y-77197894D01*
X163518042Y-77197894D01*
G37*
D11*
X163250400Y-77896720D03*
D10*
G36*
X201480142Y-41513674D02*
G01*
X201503803Y-41517184D01*
X201527007Y-41522996D01*
X201549529Y-41531054D01*
X201571153Y-41541282D01*
X201591670Y-41553579D01*
X201610883Y-41567829D01*
X201628607Y-41583893D01*
X201644671Y-41601617D01*
X201658921Y-41620830D01*
X201671218Y-41641347D01*
X201681446Y-41662971D01*
X201689504Y-41685493D01*
X201695316Y-41708697D01*
X201698826Y-41732358D01*
X201700000Y-41756250D01*
X201700000Y-42243750D01*
X201698826Y-42267642D01*
X201695316Y-42291303D01*
X201689504Y-42314507D01*
X201681446Y-42337029D01*
X201671218Y-42358653D01*
X201658921Y-42379170D01*
X201644671Y-42398383D01*
X201628607Y-42416107D01*
X201610883Y-42432171D01*
X201591670Y-42446421D01*
X201571153Y-42458718D01*
X201549529Y-42468946D01*
X201527007Y-42477004D01*
X201503803Y-42482816D01*
X201480142Y-42486326D01*
X201456250Y-42487500D01*
X200543750Y-42487500D01*
X200519858Y-42486326D01*
X200496197Y-42482816D01*
X200472993Y-42477004D01*
X200450471Y-42468946D01*
X200428847Y-42458718D01*
X200408330Y-42446421D01*
X200389117Y-42432171D01*
X200371393Y-42416107D01*
X200355329Y-42398383D01*
X200341079Y-42379170D01*
X200328782Y-42358653D01*
X200318554Y-42337029D01*
X200310496Y-42314507D01*
X200304684Y-42291303D01*
X200301174Y-42267642D01*
X200300000Y-42243750D01*
X200300000Y-41756250D01*
X200301174Y-41732358D01*
X200304684Y-41708697D01*
X200310496Y-41685493D01*
X200318554Y-41662971D01*
X200328782Y-41641347D01*
X200341079Y-41620830D01*
X200355329Y-41601617D01*
X200371393Y-41583893D01*
X200389117Y-41567829D01*
X200408330Y-41553579D01*
X200428847Y-41541282D01*
X200450471Y-41531054D01*
X200472993Y-41522996D01*
X200496197Y-41517184D01*
X200519858Y-41513674D01*
X200543750Y-41512500D01*
X201456250Y-41512500D01*
X201480142Y-41513674D01*
X201480142Y-41513674D01*
G37*
D11*
X201000000Y-42000000D03*
D10*
G36*
X201480142Y-43388674D02*
G01*
X201503803Y-43392184D01*
X201527007Y-43397996D01*
X201549529Y-43406054D01*
X201571153Y-43416282D01*
X201591670Y-43428579D01*
X201610883Y-43442829D01*
X201628607Y-43458893D01*
X201644671Y-43476617D01*
X201658921Y-43495830D01*
X201671218Y-43516347D01*
X201681446Y-43537971D01*
X201689504Y-43560493D01*
X201695316Y-43583697D01*
X201698826Y-43607358D01*
X201700000Y-43631250D01*
X201700000Y-44118750D01*
X201698826Y-44142642D01*
X201695316Y-44166303D01*
X201689504Y-44189507D01*
X201681446Y-44212029D01*
X201671218Y-44233653D01*
X201658921Y-44254170D01*
X201644671Y-44273383D01*
X201628607Y-44291107D01*
X201610883Y-44307171D01*
X201591670Y-44321421D01*
X201571153Y-44333718D01*
X201549529Y-44343946D01*
X201527007Y-44352004D01*
X201503803Y-44357816D01*
X201480142Y-44361326D01*
X201456250Y-44362500D01*
X200543750Y-44362500D01*
X200519858Y-44361326D01*
X200496197Y-44357816D01*
X200472993Y-44352004D01*
X200450471Y-44343946D01*
X200428847Y-44333718D01*
X200408330Y-44321421D01*
X200389117Y-44307171D01*
X200371393Y-44291107D01*
X200355329Y-44273383D01*
X200341079Y-44254170D01*
X200328782Y-44233653D01*
X200318554Y-44212029D01*
X200310496Y-44189507D01*
X200304684Y-44166303D01*
X200301174Y-44142642D01*
X200300000Y-44118750D01*
X200300000Y-43631250D01*
X200301174Y-43607358D01*
X200304684Y-43583697D01*
X200310496Y-43560493D01*
X200318554Y-43537971D01*
X200328782Y-43516347D01*
X200341079Y-43495830D01*
X200355329Y-43476617D01*
X200371393Y-43458893D01*
X200389117Y-43442829D01*
X200408330Y-43428579D01*
X200428847Y-43416282D01*
X200450471Y-43406054D01*
X200472993Y-43397996D01*
X200496197Y-43392184D01*
X200519858Y-43388674D01*
X200543750Y-43387500D01*
X201456250Y-43387500D01*
X201480142Y-43388674D01*
X201480142Y-43388674D01*
G37*
D11*
X201000000Y-43875000D03*
D10*
G36*
X171802262Y-47918054D02*
G01*
X171825923Y-47921564D01*
X171849127Y-47927376D01*
X171871649Y-47935434D01*
X171893273Y-47945662D01*
X171913790Y-47957959D01*
X171933003Y-47972209D01*
X171950727Y-47988273D01*
X171966791Y-48005997D01*
X171981041Y-48025210D01*
X171993338Y-48045727D01*
X172003566Y-48067351D01*
X172011624Y-48089873D01*
X172017436Y-48113077D01*
X172020946Y-48136738D01*
X172022120Y-48160630D01*
X172022120Y-48648130D01*
X172020946Y-48672022D01*
X172017436Y-48695683D01*
X172011624Y-48718887D01*
X172003566Y-48741409D01*
X171993338Y-48763033D01*
X171981041Y-48783550D01*
X171966791Y-48802763D01*
X171950727Y-48820487D01*
X171933003Y-48836551D01*
X171913790Y-48850801D01*
X171893273Y-48863098D01*
X171871649Y-48873326D01*
X171849127Y-48881384D01*
X171825923Y-48887196D01*
X171802262Y-48890706D01*
X171778370Y-48891880D01*
X170865870Y-48891880D01*
X170841978Y-48890706D01*
X170818317Y-48887196D01*
X170795113Y-48881384D01*
X170772591Y-48873326D01*
X170750967Y-48863098D01*
X170730450Y-48850801D01*
X170711237Y-48836551D01*
X170693513Y-48820487D01*
X170677449Y-48802763D01*
X170663199Y-48783550D01*
X170650902Y-48763033D01*
X170640674Y-48741409D01*
X170632616Y-48718887D01*
X170626804Y-48695683D01*
X170623294Y-48672022D01*
X170622120Y-48648130D01*
X170622120Y-48160630D01*
X170623294Y-48136738D01*
X170626804Y-48113077D01*
X170632616Y-48089873D01*
X170640674Y-48067351D01*
X170650902Y-48045727D01*
X170663199Y-48025210D01*
X170677449Y-48005997D01*
X170693513Y-47988273D01*
X170711237Y-47972209D01*
X170730450Y-47957959D01*
X170750967Y-47945662D01*
X170772591Y-47935434D01*
X170795113Y-47927376D01*
X170818317Y-47921564D01*
X170841978Y-47918054D01*
X170865870Y-47916880D01*
X171778370Y-47916880D01*
X171802262Y-47918054D01*
X171802262Y-47918054D01*
G37*
D11*
X171322120Y-48404380D03*
D10*
G36*
X171802262Y-49793054D02*
G01*
X171825923Y-49796564D01*
X171849127Y-49802376D01*
X171871649Y-49810434D01*
X171893273Y-49820662D01*
X171913790Y-49832959D01*
X171933003Y-49847209D01*
X171950727Y-49863273D01*
X171966791Y-49880997D01*
X171981041Y-49900210D01*
X171993338Y-49920727D01*
X172003566Y-49942351D01*
X172011624Y-49964873D01*
X172017436Y-49988077D01*
X172020946Y-50011738D01*
X172022120Y-50035630D01*
X172022120Y-50523130D01*
X172020946Y-50547022D01*
X172017436Y-50570683D01*
X172011624Y-50593887D01*
X172003566Y-50616409D01*
X171993338Y-50638033D01*
X171981041Y-50658550D01*
X171966791Y-50677763D01*
X171950727Y-50695487D01*
X171933003Y-50711551D01*
X171913790Y-50725801D01*
X171893273Y-50738098D01*
X171871649Y-50748326D01*
X171849127Y-50756384D01*
X171825923Y-50762196D01*
X171802262Y-50765706D01*
X171778370Y-50766880D01*
X170865870Y-50766880D01*
X170841978Y-50765706D01*
X170818317Y-50762196D01*
X170795113Y-50756384D01*
X170772591Y-50748326D01*
X170750967Y-50738098D01*
X170730450Y-50725801D01*
X170711237Y-50711551D01*
X170693513Y-50695487D01*
X170677449Y-50677763D01*
X170663199Y-50658550D01*
X170650902Y-50638033D01*
X170640674Y-50616409D01*
X170632616Y-50593887D01*
X170626804Y-50570683D01*
X170623294Y-50547022D01*
X170622120Y-50523130D01*
X170622120Y-50035630D01*
X170623294Y-50011738D01*
X170626804Y-49988077D01*
X170632616Y-49964873D01*
X170640674Y-49942351D01*
X170650902Y-49920727D01*
X170663199Y-49900210D01*
X170677449Y-49880997D01*
X170693513Y-49863273D01*
X170711237Y-49847209D01*
X170730450Y-49832959D01*
X170750967Y-49820662D01*
X170772591Y-49810434D01*
X170795113Y-49802376D01*
X170818317Y-49796564D01*
X170841978Y-49793054D01*
X170865870Y-49791880D01*
X171778370Y-49791880D01*
X171802262Y-49793054D01*
X171802262Y-49793054D01*
G37*
D11*
X171322120Y-50279380D03*
D10*
G36*
X155624442Y-60027494D02*
G01*
X155648103Y-60031004D01*
X155671307Y-60036816D01*
X155693829Y-60044874D01*
X155715453Y-60055102D01*
X155735970Y-60067399D01*
X155755183Y-60081649D01*
X155772907Y-60097713D01*
X155788971Y-60115437D01*
X155803221Y-60134650D01*
X155815518Y-60155167D01*
X155825746Y-60176791D01*
X155833804Y-60199313D01*
X155839616Y-60222517D01*
X155843126Y-60246178D01*
X155844300Y-60270070D01*
X155844300Y-61182570D01*
X155843126Y-61206462D01*
X155839616Y-61230123D01*
X155833804Y-61253327D01*
X155825746Y-61275849D01*
X155815518Y-61297473D01*
X155803221Y-61317990D01*
X155788971Y-61337203D01*
X155772907Y-61354927D01*
X155755183Y-61370991D01*
X155735970Y-61385241D01*
X155715453Y-61397538D01*
X155693829Y-61407766D01*
X155671307Y-61415824D01*
X155648103Y-61421636D01*
X155624442Y-61425146D01*
X155600550Y-61426320D01*
X155113050Y-61426320D01*
X155089158Y-61425146D01*
X155065497Y-61421636D01*
X155042293Y-61415824D01*
X155019771Y-61407766D01*
X154998147Y-61397538D01*
X154977630Y-61385241D01*
X154958417Y-61370991D01*
X154940693Y-61354927D01*
X154924629Y-61337203D01*
X154910379Y-61317990D01*
X154898082Y-61297473D01*
X154887854Y-61275849D01*
X154879796Y-61253327D01*
X154873984Y-61230123D01*
X154870474Y-61206462D01*
X154869300Y-61182570D01*
X154869300Y-60270070D01*
X154870474Y-60246178D01*
X154873984Y-60222517D01*
X154879796Y-60199313D01*
X154887854Y-60176791D01*
X154898082Y-60155167D01*
X154910379Y-60134650D01*
X154924629Y-60115437D01*
X154940693Y-60097713D01*
X154958417Y-60081649D01*
X154977630Y-60067399D01*
X154998147Y-60055102D01*
X155019771Y-60044874D01*
X155042293Y-60036816D01*
X155065497Y-60031004D01*
X155089158Y-60027494D01*
X155113050Y-60026320D01*
X155600550Y-60026320D01*
X155624442Y-60027494D01*
X155624442Y-60027494D01*
G37*
D11*
X155356800Y-60726320D03*
D10*
G36*
X153749442Y-60027494D02*
G01*
X153773103Y-60031004D01*
X153796307Y-60036816D01*
X153818829Y-60044874D01*
X153840453Y-60055102D01*
X153860970Y-60067399D01*
X153880183Y-60081649D01*
X153897907Y-60097713D01*
X153913971Y-60115437D01*
X153928221Y-60134650D01*
X153940518Y-60155167D01*
X153950746Y-60176791D01*
X153958804Y-60199313D01*
X153964616Y-60222517D01*
X153968126Y-60246178D01*
X153969300Y-60270070D01*
X153969300Y-61182570D01*
X153968126Y-61206462D01*
X153964616Y-61230123D01*
X153958804Y-61253327D01*
X153950746Y-61275849D01*
X153940518Y-61297473D01*
X153928221Y-61317990D01*
X153913971Y-61337203D01*
X153897907Y-61354927D01*
X153880183Y-61370991D01*
X153860970Y-61385241D01*
X153840453Y-61397538D01*
X153818829Y-61407766D01*
X153796307Y-61415824D01*
X153773103Y-61421636D01*
X153749442Y-61425146D01*
X153725550Y-61426320D01*
X153238050Y-61426320D01*
X153214158Y-61425146D01*
X153190497Y-61421636D01*
X153167293Y-61415824D01*
X153144771Y-61407766D01*
X153123147Y-61397538D01*
X153102630Y-61385241D01*
X153083417Y-61370991D01*
X153065693Y-61354927D01*
X153049629Y-61337203D01*
X153035379Y-61317990D01*
X153023082Y-61297473D01*
X153012854Y-61275849D01*
X153004796Y-61253327D01*
X152998984Y-61230123D01*
X152995474Y-61206462D01*
X152994300Y-61182570D01*
X152994300Y-60270070D01*
X152995474Y-60246178D01*
X152998984Y-60222517D01*
X153004796Y-60199313D01*
X153012854Y-60176791D01*
X153023082Y-60155167D01*
X153035379Y-60134650D01*
X153049629Y-60115437D01*
X153065693Y-60097713D01*
X153083417Y-60081649D01*
X153102630Y-60067399D01*
X153123147Y-60055102D01*
X153144771Y-60044874D01*
X153167293Y-60036816D01*
X153190497Y-60031004D01*
X153214158Y-60027494D01*
X153238050Y-60026320D01*
X153725550Y-60026320D01*
X153749442Y-60027494D01*
X153749442Y-60027494D01*
G37*
D11*
X153481800Y-60726320D03*
D10*
G36*
X76772442Y-71330494D02*
G01*
X76796103Y-71334004D01*
X76819307Y-71339816D01*
X76841829Y-71347874D01*
X76863453Y-71358102D01*
X76883970Y-71370399D01*
X76903183Y-71384649D01*
X76920907Y-71400713D01*
X76936971Y-71418437D01*
X76951221Y-71437650D01*
X76963518Y-71458167D01*
X76973746Y-71479791D01*
X76981804Y-71502313D01*
X76987616Y-71525517D01*
X76991126Y-71549178D01*
X76992300Y-71573070D01*
X76992300Y-72485570D01*
X76991126Y-72509462D01*
X76987616Y-72533123D01*
X76981804Y-72556327D01*
X76973746Y-72578849D01*
X76963518Y-72600473D01*
X76951221Y-72620990D01*
X76936971Y-72640203D01*
X76920907Y-72657927D01*
X76903183Y-72673991D01*
X76883970Y-72688241D01*
X76863453Y-72700538D01*
X76841829Y-72710766D01*
X76819307Y-72718824D01*
X76796103Y-72724636D01*
X76772442Y-72728146D01*
X76748550Y-72729320D01*
X76261050Y-72729320D01*
X76237158Y-72728146D01*
X76213497Y-72724636D01*
X76190293Y-72718824D01*
X76167771Y-72710766D01*
X76146147Y-72700538D01*
X76125630Y-72688241D01*
X76106417Y-72673991D01*
X76088693Y-72657927D01*
X76072629Y-72640203D01*
X76058379Y-72620990D01*
X76046082Y-72600473D01*
X76035854Y-72578849D01*
X76027796Y-72556327D01*
X76021984Y-72533123D01*
X76018474Y-72509462D01*
X76017300Y-72485570D01*
X76017300Y-71573070D01*
X76018474Y-71549178D01*
X76021984Y-71525517D01*
X76027796Y-71502313D01*
X76035854Y-71479791D01*
X76046082Y-71458167D01*
X76058379Y-71437650D01*
X76072629Y-71418437D01*
X76088693Y-71400713D01*
X76106417Y-71384649D01*
X76125630Y-71370399D01*
X76146147Y-71358102D01*
X76167771Y-71347874D01*
X76190293Y-71339816D01*
X76213497Y-71334004D01*
X76237158Y-71330494D01*
X76261050Y-71329320D01*
X76748550Y-71329320D01*
X76772442Y-71330494D01*
X76772442Y-71330494D01*
G37*
D11*
X76504800Y-72029320D03*
D10*
G36*
X74897442Y-71330494D02*
G01*
X74921103Y-71334004D01*
X74944307Y-71339816D01*
X74966829Y-71347874D01*
X74988453Y-71358102D01*
X75008970Y-71370399D01*
X75028183Y-71384649D01*
X75045907Y-71400713D01*
X75061971Y-71418437D01*
X75076221Y-71437650D01*
X75088518Y-71458167D01*
X75098746Y-71479791D01*
X75106804Y-71502313D01*
X75112616Y-71525517D01*
X75116126Y-71549178D01*
X75117300Y-71573070D01*
X75117300Y-72485570D01*
X75116126Y-72509462D01*
X75112616Y-72533123D01*
X75106804Y-72556327D01*
X75098746Y-72578849D01*
X75088518Y-72600473D01*
X75076221Y-72620990D01*
X75061971Y-72640203D01*
X75045907Y-72657927D01*
X75028183Y-72673991D01*
X75008970Y-72688241D01*
X74988453Y-72700538D01*
X74966829Y-72710766D01*
X74944307Y-72718824D01*
X74921103Y-72724636D01*
X74897442Y-72728146D01*
X74873550Y-72729320D01*
X74386050Y-72729320D01*
X74362158Y-72728146D01*
X74338497Y-72724636D01*
X74315293Y-72718824D01*
X74292771Y-72710766D01*
X74271147Y-72700538D01*
X74250630Y-72688241D01*
X74231417Y-72673991D01*
X74213693Y-72657927D01*
X74197629Y-72640203D01*
X74183379Y-72620990D01*
X74171082Y-72600473D01*
X74160854Y-72578849D01*
X74152796Y-72556327D01*
X74146984Y-72533123D01*
X74143474Y-72509462D01*
X74142300Y-72485570D01*
X74142300Y-71573070D01*
X74143474Y-71549178D01*
X74146984Y-71525517D01*
X74152796Y-71502313D01*
X74160854Y-71479791D01*
X74171082Y-71458167D01*
X74183379Y-71437650D01*
X74197629Y-71418437D01*
X74213693Y-71400713D01*
X74231417Y-71384649D01*
X74250630Y-71370399D01*
X74271147Y-71358102D01*
X74292771Y-71347874D01*
X74315293Y-71339816D01*
X74338497Y-71334004D01*
X74362158Y-71330494D01*
X74386050Y-71329320D01*
X74873550Y-71329320D01*
X74897442Y-71330494D01*
X74897442Y-71330494D01*
G37*
D11*
X74629800Y-72029320D03*
D10*
G36*
X99203422Y-72717334D02*
G01*
X99227083Y-72720844D01*
X99250287Y-72726656D01*
X99272809Y-72734714D01*
X99294433Y-72744942D01*
X99314950Y-72757239D01*
X99334163Y-72771489D01*
X99351887Y-72787553D01*
X99367951Y-72805277D01*
X99382201Y-72824490D01*
X99394498Y-72845007D01*
X99404726Y-72866631D01*
X99412784Y-72889153D01*
X99418596Y-72912357D01*
X99422106Y-72936018D01*
X99423280Y-72959910D01*
X99423280Y-73872410D01*
X99422106Y-73896302D01*
X99418596Y-73919963D01*
X99412784Y-73943167D01*
X99404726Y-73965689D01*
X99394498Y-73987313D01*
X99382201Y-74007830D01*
X99367951Y-74027043D01*
X99351887Y-74044767D01*
X99334163Y-74060831D01*
X99314950Y-74075081D01*
X99294433Y-74087378D01*
X99272809Y-74097606D01*
X99250287Y-74105664D01*
X99227083Y-74111476D01*
X99203422Y-74114986D01*
X99179530Y-74116160D01*
X98692030Y-74116160D01*
X98668138Y-74114986D01*
X98644477Y-74111476D01*
X98621273Y-74105664D01*
X98598751Y-74097606D01*
X98577127Y-74087378D01*
X98556610Y-74075081D01*
X98537397Y-74060831D01*
X98519673Y-74044767D01*
X98503609Y-74027043D01*
X98489359Y-74007830D01*
X98477062Y-73987313D01*
X98466834Y-73965689D01*
X98458776Y-73943167D01*
X98452964Y-73919963D01*
X98449454Y-73896302D01*
X98448280Y-73872410D01*
X98448280Y-72959910D01*
X98449454Y-72936018D01*
X98452964Y-72912357D01*
X98458776Y-72889153D01*
X98466834Y-72866631D01*
X98477062Y-72845007D01*
X98489359Y-72824490D01*
X98503609Y-72805277D01*
X98519673Y-72787553D01*
X98537397Y-72771489D01*
X98556610Y-72757239D01*
X98577127Y-72744942D01*
X98598751Y-72734714D01*
X98621273Y-72726656D01*
X98644477Y-72720844D01*
X98668138Y-72717334D01*
X98692030Y-72716160D01*
X99179530Y-72716160D01*
X99203422Y-72717334D01*
X99203422Y-72717334D01*
G37*
D11*
X98935780Y-73416160D03*
D10*
G36*
X97328422Y-72717334D02*
G01*
X97352083Y-72720844D01*
X97375287Y-72726656D01*
X97397809Y-72734714D01*
X97419433Y-72744942D01*
X97439950Y-72757239D01*
X97459163Y-72771489D01*
X97476887Y-72787553D01*
X97492951Y-72805277D01*
X97507201Y-72824490D01*
X97519498Y-72845007D01*
X97529726Y-72866631D01*
X97537784Y-72889153D01*
X97543596Y-72912357D01*
X97547106Y-72936018D01*
X97548280Y-72959910D01*
X97548280Y-73872410D01*
X97547106Y-73896302D01*
X97543596Y-73919963D01*
X97537784Y-73943167D01*
X97529726Y-73965689D01*
X97519498Y-73987313D01*
X97507201Y-74007830D01*
X97492951Y-74027043D01*
X97476887Y-74044767D01*
X97459163Y-74060831D01*
X97439950Y-74075081D01*
X97419433Y-74087378D01*
X97397809Y-74097606D01*
X97375287Y-74105664D01*
X97352083Y-74111476D01*
X97328422Y-74114986D01*
X97304530Y-74116160D01*
X96817030Y-74116160D01*
X96793138Y-74114986D01*
X96769477Y-74111476D01*
X96746273Y-74105664D01*
X96723751Y-74097606D01*
X96702127Y-74087378D01*
X96681610Y-74075081D01*
X96662397Y-74060831D01*
X96644673Y-74044767D01*
X96628609Y-74027043D01*
X96614359Y-74007830D01*
X96602062Y-73987313D01*
X96591834Y-73965689D01*
X96583776Y-73943167D01*
X96577964Y-73919963D01*
X96574454Y-73896302D01*
X96573280Y-73872410D01*
X96573280Y-72959910D01*
X96574454Y-72936018D01*
X96577964Y-72912357D01*
X96583776Y-72889153D01*
X96591834Y-72866631D01*
X96602062Y-72845007D01*
X96614359Y-72824490D01*
X96628609Y-72805277D01*
X96644673Y-72787553D01*
X96662397Y-72771489D01*
X96681610Y-72757239D01*
X96702127Y-72744942D01*
X96723751Y-72734714D01*
X96746273Y-72726656D01*
X96769477Y-72720844D01*
X96793138Y-72717334D01*
X96817030Y-72716160D01*
X97304530Y-72716160D01*
X97328422Y-72717334D01*
X97328422Y-72717334D01*
G37*
D11*
X97060780Y-73416160D03*
D10*
G36*
X152803942Y-47986794D02*
G01*
X152827603Y-47990304D01*
X152850807Y-47996116D01*
X152873329Y-48004174D01*
X152894953Y-48014402D01*
X152915470Y-48026699D01*
X152934683Y-48040949D01*
X152952407Y-48057013D01*
X152968471Y-48074737D01*
X152982721Y-48093950D01*
X152995018Y-48114467D01*
X153005246Y-48136091D01*
X153013304Y-48158613D01*
X153019116Y-48181817D01*
X153022626Y-48205478D01*
X153023800Y-48229370D01*
X153023800Y-48716870D01*
X153022626Y-48740762D01*
X153019116Y-48764423D01*
X153013304Y-48787627D01*
X153005246Y-48810149D01*
X152995018Y-48831773D01*
X152982721Y-48852290D01*
X152968471Y-48871503D01*
X152952407Y-48889227D01*
X152934683Y-48905291D01*
X152915470Y-48919541D01*
X152894953Y-48931838D01*
X152873329Y-48942066D01*
X152850807Y-48950124D01*
X152827603Y-48955936D01*
X152803942Y-48959446D01*
X152780050Y-48960620D01*
X151867550Y-48960620D01*
X151843658Y-48959446D01*
X151819997Y-48955936D01*
X151796793Y-48950124D01*
X151774271Y-48942066D01*
X151752647Y-48931838D01*
X151732130Y-48919541D01*
X151712917Y-48905291D01*
X151695193Y-48889227D01*
X151679129Y-48871503D01*
X151664879Y-48852290D01*
X151652582Y-48831773D01*
X151642354Y-48810149D01*
X151634296Y-48787627D01*
X151628484Y-48764423D01*
X151624974Y-48740762D01*
X151623800Y-48716870D01*
X151623800Y-48229370D01*
X151624974Y-48205478D01*
X151628484Y-48181817D01*
X151634296Y-48158613D01*
X151642354Y-48136091D01*
X151652582Y-48114467D01*
X151664879Y-48093950D01*
X151679129Y-48074737D01*
X151695193Y-48057013D01*
X151712917Y-48040949D01*
X151732130Y-48026699D01*
X151752647Y-48014402D01*
X151774271Y-48004174D01*
X151796793Y-47996116D01*
X151819997Y-47990304D01*
X151843658Y-47986794D01*
X151867550Y-47985620D01*
X152780050Y-47985620D01*
X152803942Y-47986794D01*
X152803942Y-47986794D01*
G37*
D11*
X152323800Y-48473120D03*
D10*
G36*
X152803942Y-49861794D02*
G01*
X152827603Y-49865304D01*
X152850807Y-49871116D01*
X152873329Y-49879174D01*
X152894953Y-49889402D01*
X152915470Y-49901699D01*
X152934683Y-49915949D01*
X152952407Y-49932013D01*
X152968471Y-49949737D01*
X152982721Y-49968950D01*
X152995018Y-49989467D01*
X153005246Y-50011091D01*
X153013304Y-50033613D01*
X153019116Y-50056817D01*
X153022626Y-50080478D01*
X153023800Y-50104370D01*
X153023800Y-50591870D01*
X153022626Y-50615762D01*
X153019116Y-50639423D01*
X153013304Y-50662627D01*
X153005246Y-50685149D01*
X152995018Y-50706773D01*
X152982721Y-50727290D01*
X152968471Y-50746503D01*
X152952407Y-50764227D01*
X152934683Y-50780291D01*
X152915470Y-50794541D01*
X152894953Y-50806838D01*
X152873329Y-50817066D01*
X152850807Y-50825124D01*
X152827603Y-50830936D01*
X152803942Y-50834446D01*
X152780050Y-50835620D01*
X151867550Y-50835620D01*
X151843658Y-50834446D01*
X151819997Y-50830936D01*
X151796793Y-50825124D01*
X151774271Y-50817066D01*
X151752647Y-50806838D01*
X151732130Y-50794541D01*
X151712917Y-50780291D01*
X151695193Y-50764227D01*
X151679129Y-50746503D01*
X151664879Y-50727290D01*
X151652582Y-50706773D01*
X151642354Y-50685149D01*
X151634296Y-50662627D01*
X151628484Y-50639423D01*
X151624974Y-50615762D01*
X151623800Y-50591870D01*
X151623800Y-50104370D01*
X151624974Y-50080478D01*
X151628484Y-50056817D01*
X151634296Y-50033613D01*
X151642354Y-50011091D01*
X151652582Y-49989467D01*
X151664879Y-49968950D01*
X151679129Y-49949737D01*
X151695193Y-49932013D01*
X151712917Y-49915949D01*
X151732130Y-49901699D01*
X151752647Y-49889402D01*
X151774271Y-49879174D01*
X151796793Y-49871116D01*
X151819997Y-49865304D01*
X151843658Y-49861794D01*
X151867550Y-49860620D01*
X152780050Y-49860620D01*
X152803942Y-49861794D01*
X152803942Y-49861794D01*
G37*
D11*
X152323800Y-50348120D03*
D10*
G36*
X154130442Y-54553794D02*
G01*
X154154103Y-54557304D01*
X154177307Y-54563116D01*
X154199829Y-54571174D01*
X154221453Y-54581402D01*
X154241970Y-54593699D01*
X154261183Y-54607949D01*
X154278907Y-54624013D01*
X154294971Y-54641737D01*
X154309221Y-54660950D01*
X154321518Y-54681467D01*
X154331746Y-54703091D01*
X154339804Y-54725613D01*
X154345616Y-54748817D01*
X154349126Y-54772478D01*
X154350300Y-54796370D01*
X154350300Y-55708870D01*
X154349126Y-55732762D01*
X154345616Y-55756423D01*
X154339804Y-55779627D01*
X154331746Y-55802149D01*
X154321518Y-55823773D01*
X154309221Y-55844290D01*
X154294971Y-55863503D01*
X154278907Y-55881227D01*
X154261183Y-55897291D01*
X154241970Y-55911541D01*
X154221453Y-55923838D01*
X154199829Y-55934066D01*
X154177307Y-55942124D01*
X154154103Y-55947936D01*
X154130442Y-55951446D01*
X154106550Y-55952620D01*
X153619050Y-55952620D01*
X153595158Y-55951446D01*
X153571497Y-55947936D01*
X153548293Y-55942124D01*
X153525771Y-55934066D01*
X153504147Y-55923838D01*
X153483630Y-55911541D01*
X153464417Y-55897291D01*
X153446693Y-55881227D01*
X153430629Y-55863503D01*
X153416379Y-55844290D01*
X153404082Y-55823773D01*
X153393854Y-55802149D01*
X153385796Y-55779627D01*
X153379984Y-55756423D01*
X153376474Y-55732762D01*
X153375300Y-55708870D01*
X153375300Y-54796370D01*
X153376474Y-54772478D01*
X153379984Y-54748817D01*
X153385796Y-54725613D01*
X153393854Y-54703091D01*
X153404082Y-54681467D01*
X153416379Y-54660950D01*
X153430629Y-54641737D01*
X153446693Y-54624013D01*
X153464417Y-54607949D01*
X153483630Y-54593699D01*
X153504147Y-54581402D01*
X153525771Y-54571174D01*
X153548293Y-54563116D01*
X153571497Y-54557304D01*
X153595158Y-54553794D01*
X153619050Y-54552620D01*
X154106550Y-54552620D01*
X154130442Y-54553794D01*
X154130442Y-54553794D01*
G37*
D11*
X153862800Y-55252620D03*
D10*
G36*
X156005442Y-54553794D02*
G01*
X156029103Y-54557304D01*
X156052307Y-54563116D01*
X156074829Y-54571174D01*
X156096453Y-54581402D01*
X156116970Y-54593699D01*
X156136183Y-54607949D01*
X156153907Y-54624013D01*
X156169971Y-54641737D01*
X156184221Y-54660950D01*
X156196518Y-54681467D01*
X156206746Y-54703091D01*
X156214804Y-54725613D01*
X156220616Y-54748817D01*
X156224126Y-54772478D01*
X156225300Y-54796370D01*
X156225300Y-55708870D01*
X156224126Y-55732762D01*
X156220616Y-55756423D01*
X156214804Y-55779627D01*
X156206746Y-55802149D01*
X156196518Y-55823773D01*
X156184221Y-55844290D01*
X156169971Y-55863503D01*
X156153907Y-55881227D01*
X156136183Y-55897291D01*
X156116970Y-55911541D01*
X156096453Y-55923838D01*
X156074829Y-55934066D01*
X156052307Y-55942124D01*
X156029103Y-55947936D01*
X156005442Y-55951446D01*
X155981550Y-55952620D01*
X155494050Y-55952620D01*
X155470158Y-55951446D01*
X155446497Y-55947936D01*
X155423293Y-55942124D01*
X155400771Y-55934066D01*
X155379147Y-55923838D01*
X155358630Y-55911541D01*
X155339417Y-55897291D01*
X155321693Y-55881227D01*
X155305629Y-55863503D01*
X155291379Y-55844290D01*
X155279082Y-55823773D01*
X155268854Y-55802149D01*
X155260796Y-55779627D01*
X155254984Y-55756423D01*
X155251474Y-55732762D01*
X155250300Y-55708870D01*
X155250300Y-54796370D01*
X155251474Y-54772478D01*
X155254984Y-54748817D01*
X155260796Y-54725613D01*
X155268854Y-54703091D01*
X155279082Y-54681467D01*
X155291379Y-54660950D01*
X155305629Y-54641737D01*
X155321693Y-54624013D01*
X155339417Y-54607949D01*
X155358630Y-54593699D01*
X155379147Y-54581402D01*
X155400771Y-54571174D01*
X155423293Y-54563116D01*
X155446497Y-54557304D01*
X155470158Y-54553794D01*
X155494050Y-54552620D01*
X155981550Y-54552620D01*
X156005442Y-54553794D01*
X156005442Y-54553794D01*
G37*
D11*
X155737800Y-55252620D03*
D10*
G36*
X148143042Y-44318794D02*
G01*
X148166703Y-44322304D01*
X148189907Y-44328116D01*
X148212429Y-44336174D01*
X148234053Y-44346402D01*
X148254570Y-44358699D01*
X148273783Y-44372949D01*
X148291507Y-44389013D01*
X148307571Y-44406737D01*
X148321821Y-44425950D01*
X148334118Y-44446467D01*
X148344346Y-44468091D01*
X148352404Y-44490613D01*
X148358216Y-44513817D01*
X148361726Y-44537478D01*
X148362900Y-44561370D01*
X148362900Y-45048870D01*
X148361726Y-45072762D01*
X148358216Y-45096423D01*
X148352404Y-45119627D01*
X148344346Y-45142149D01*
X148334118Y-45163773D01*
X148321821Y-45184290D01*
X148307571Y-45203503D01*
X148291507Y-45221227D01*
X148273783Y-45237291D01*
X148254570Y-45251541D01*
X148234053Y-45263838D01*
X148212429Y-45274066D01*
X148189907Y-45282124D01*
X148166703Y-45287936D01*
X148143042Y-45291446D01*
X148119150Y-45292620D01*
X147206650Y-45292620D01*
X147182758Y-45291446D01*
X147159097Y-45287936D01*
X147135893Y-45282124D01*
X147113371Y-45274066D01*
X147091747Y-45263838D01*
X147071230Y-45251541D01*
X147052017Y-45237291D01*
X147034293Y-45221227D01*
X147018229Y-45203503D01*
X147003979Y-45184290D01*
X146991682Y-45163773D01*
X146981454Y-45142149D01*
X146973396Y-45119627D01*
X146967584Y-45096423D01*
X146964074Y-45072762D01*
X146962900Y-45048870D01*
X146962900Y-44561370D01*
X146964074Y-44537478D01*
X146967584Y-44513817D01*
X146973396Y-44490613D01*
X146981454Y-44468091D01*
X146991682Y-44446467D01*
X147003979Y-44425950D01*
X147018229Y-44406737D01*
X147034293Y-44389013D01*
X147052017Y-44372949D01*
X147071230Y-44358699D01*
X147091747Y-44346402D01*
X147113371Y-44336174D01*
X147135893Y-44328116D01*
X147159097Y-44322304D01*
X147182758Y-44318794D01*
X147206650Y-44317620D01*
X148119150Y-44317620D01*
X148143042Y-44318794D01*
X148143042Y-44318794D01*
G37*
D11*
X147662900Y-44805120D03*
D10*
G36*
X148143042Y-46193794D02*
G01*
X148166703Y-46197304D01*
X148189907Y-46203116D01*
X148212429Y-46211174D01*
X148234053Y-46221402D01*
X148254570Y-46233699D01*
X148273783Y-46247949D01*
X148291507Y-46264013D01*
X148307571Y-46281737D01*
X148321821Y-46300950D01*
X148334118Y-46321467D01*
X148344346Y-46343091D01*
X148352404Y-46365613D01*
X148358216Y-46388817D01*
X148361726Y-46412478D01*
X148362900Y-46436370D01*
X148362900Y-46923870D01*
X148361726Y-46947762D01*
X148358216Y-46971423D01*
X148352404Y-46994627D01*
X148344346Y-47017149D01*
X148334118Y-47038773D01*
X148321821Y-47059290D01*
X148307571Y-47078503D01*
X148291507Y-47096227D01*
X148273783Y-47112291D01*
X148254570Y-47126541D01*
X148234053Y-47138838D01*
X148212429Y-47149066D01*
X148189907Y-47157124D01*
X148166703Y-47162936D01*
X148143042Y-47166446D01*
X148119150Y-47167620D01*
X147206650Y-47167620D01*
X147182758Y-47166446D01*
X147159097Y-47162936D01*
X147135893Y-47157124D01*
X147113371Y-47149066D01*
X147091747Y-47138838D01*
X147071230Y-47126541D01*
X147052017Y-47112291D01*
X147034293Y-47096227D01*
X147018229Y-47078503D01*
X147003979Y-47059290D01*
X146991682Y-47038773D01*
X146981454Y-47017149D01*
X146973396Y-46994627D01*
X146967584Y-46971423D01*
X146964074Y-46947762D01*
X146962900Y-46923870D01*
X146962900Y-46436370D01*
X146964074Y-46412478D01*
X146967584Y-46388817D01*
X146973396Y-46365613D01*
X146981454Y-46343091D01*
X146991682Y-46321467D01*
X147003979Y-46300950D01*
X147018229Y-46281737D01*
X147034293Y-46264013D01*
X147052017Y-46247949D01*
X147071230Y-46233699D01*
X147091747Y-46221402D01*
X147113371Y-46211174D01*
X147135893Y-46203116D01*
X147159097Y-46197304D01*
X147182758Y-46193794D01*
X147206650Y-46192620D01*
X148119150Y-46192620D01*
X148143042Y-46193794D01*
X148143042Y-46193794D01*
G37*
D11*
X147662900Y-46680120D03*
D10*
G36*
X143317042Y-49836394D02*
G01*
X143340703Y-49839904D01*
X143363907Y-49845716D01*
X143386429Y-49853774D01*
X143408053Y-49864002D01*
X143428570Y-49876299D01*
X143447783Y-49890549D01*
X143465507Y-49906613D01*
X143481571Y-49924337D01*
X143495821Y-49943550D01*
X143508118Y-49964067D01*
X143518346Y-49985691D01*
X143526404Y-50008213D01*
X143532216Y-50031417D01*
X143535726Y-50055078D01*
X143536900Y-50078970D01*
X143536900Y-50566470D01*
X143535726Y-50590362D01*
X143532216Y-50614023D01*
X143526404Y-50637227D01*
X143518346Y-50659749D01*
X143508118Y-50681373D01*
X143495821Y-50701890D01*
X143481571Y-50721103D01*
X143465507Y-50738827D01*
X143447783Y-50754891D01*
X143428570Y-50769141D01*
X143408053Y-50781438D01*
X143386429Y-50791666D01*
X143363907Y-50799724D01*
X143340703Y-50805536D01*
X143317042Y-50809046D01*
X143293150Y-50810220D01*
X142380650Y-50810220D01*
X142356758Y-50809046D01*
X142333097Y-50805536D01*
X142309893Y-50799724D01*
X142287371Y-50791666D01*
X142265747Y-50781438D01*
X142245230Y-50769141D01*
X142226017Y-50754891D01*
X142208293Y-50738827D01*
X142192229Y-50721103D01*
X142177979Y-50701890D01*
X142165682Y-50681373D01*
X142155454Y-50659749D01*
X142147396Y-50637227D01*
X142141584Y-50614023D01*
X142138074Y-50590362D01*
X142136900Y-50566470D01*
X142136900Y-50078970D01*
X142138074Y-50055078D01*
X142141584Y-50031417D01*
X142147396Y-50008213D01*
X142155454Y-49985691D01*
X142165682Y-49964067D01*
X142177979Y-49943550D01*
X142192229Y-49924337D01*
X142208293Y-49906613D01*
X142226017Y-49890549D01*
X142245230Y-49876299D01*
X142265747Y-49864002D01*
X142287371Y-49853774D01*
X142309893Y-49845716D01*
X142333097Y-49839904D01*
X142356758Y-49836394D01*
X142380650Y-49835220D01*
X143293150Y-49835220D01*
X143317042Y-49836394D01*
X143317042Y-49836394D01*
G37*
D11*
X142836900Y-50322720D03*
D10*
G36*
X143317042Y-47961394D02*
G01*
X143340703Y-47964904D01*
X143363907Y-47970716D01*
X143386429Y-47978774D01*
X143408053Y-47989002D01*
X143428570Y-48001299D01*
X143447783Y-48015549D01*
X143465507Y-48031613D01*
X143481571Y-48049337D01*
X143495821Y-48068550D01*
X143508118Y-48089067D01*
X143518346Y-48110691D01*
X143526404Y-48133213D01*
X143532216Y-48156417D01*
X143535726Y-48180078D01*
X143536900Y-48203970D01*
X143536900Y-48691470D01*
X143535726Y-48715362D01*
X143532216Y-48739023D01*
X143526404Y-48762227D01*
X143518346Y-48784749D01*
X143508118Y-48806373D01*
X143495821Y-48826890D01*
X143481571Y-48846103D01*
X143465507Y-48863827D01*
X143447783Y-48879891D01*
X143428570Y-48894141D01*
X143408053Y-48906438D01*
X143386429Y-48916666D01*
X143363907Y-48924724D01*
X143340703Y-48930536D01*
X143317042Y-48934046D01*
X143293150Y-48935220D01*
X142380650Y-48935220D01*
X142356758Y-48934046D01*
X142333097Y-48930536D01*
X142309893Y-48924724D01*
X142287371Y-48916666D01*
X142265747Y-48906438D01*
X142245230Y-48894141D01*
X142226017Y-48879891D01*
X142208293Y-48863827D01*
X142192229Y-48846103D01*
X142177979Y-48826890D01*
X142165682Y-48806373D01*
X142155454Y-48784749D01*
X142147396Y-48762227D01*
X142141584Y-48739023D01*
X142138074Y-48715362D01*
X142136900Y-48691470D01*
X142136900Y-48203970D01*
X142138074Y-48180078D01*
X142141584Y-48156417D01*
X142147396Y-48133213D01*
X142155454Y-48110691D01*
X142165682Y-48089067D01*
X142177979Y-48068550D01*
X142192229Y-48049337D01*
X142208293Y-48031613D01*
X142226017Y-48015549D01*
X142245230Y-48001299D01*
X142265747Y-47989002D01*
X142287371Y-47978774D01*
X142309893Y-47970716D01*
X142333097Y-47964904D01*
X142356758Y-47961394D01*
X142380650Y-47960220D01*
X143293150Y-47960220D01*
X143317042Y-47961394D01*
X143317042Y-47961394D01*
G37*
D11*
X142836900Y-48447720D03*
D10*
G36*
X143035102Y-64388054D02*
G01*
X143058763Y-64391564D01*
X143081967Y-64397376D01*
X143104489Y-64405434D01*
X143126113Y-64415662D01*
X143146630Y-64427959D01*
X143165843Y-64442209D01*
X143183567Y-64458273D01*
X143199631Y-64475997D01*
X143213881Y-64495210D01*
X143226178Y-64515727D01*
X143236406Y-64537351D01*
X143244464Y-64559873D01*
X143250276Y-64583077D01*
X143253786Y-64606738D01*
X143254960Y-64630630D01*
X143254960Y-65118130D01*
X143253786Y-65142022D01*
X143250276Y-65165683D01*
X143244464Y-65188887D01*
X143236406Y-65211409D01*
X143226178Y-65233033D01*
X143213881Y-65253550D01*
X143199631Y-65272763D01*
X143183567Y-65290487D01*
X143165843Y-65306551D01*
X143146630Y-65320801D01*
X143126113Y-65333098D01*
X143104489Y-65343326D01*
X143081967Y-65351384D01*
X143058763Y-65357196D01*
X143035102Y-65360706D01*
X143011210Y-65361880D01*
X142098710Y-65361880D01*
X142074818Y-65360706D01*
X142051157Y-65357196D01*
X142027953Y-65351384D01*
X142005431Y-65343326D01*
X141983807Y-65333098D01*
X141963290Y-65320801D01*
X141944077Y-65306551D01*
X141926353Y-65290487D01*
X141910289Y-65272763D01*
X141896039Y-65253550D01*
X141883742Y-65233033D01*
X141873514Y-65211409D01*
X141865456Y-65188887D01*
X141859644Y-65165683D01*
X141856134Y-65142022D01*
X141854960Y-65118130D01*
X141854960Y-64630630D01*
X141856134Y-64606738D01*
X141859644Y-64583077D01*
X141865456Y-64559873D01*
X141873514Y-64537351D01*
X141883742Y-64515727D01*
X141896039Y-64495210D01*
X141910289Y-64475997D01*
X141926353Y-64458273D01*
X141944077Y-64442209D01*
X141963290Y-64427959D01*
X141983807Y-64415662D01*
X142005431Y-64405434D01*
X142027953Y-64397376D01*
X142051157Y-64391564D01*
X142074818Y-64388054D01*
X142098710Y-64386880D01*
X143011210Y-64386880D01*
X143035102Y-64388054D01*
X143035102Y-64388054D01*
G37*
D11*
X142554960Y-64874380D03*
D10*
G36*
X143035102Y-62513054D02*
G01*
X143058763Y-62516564D01*
X143081967Y-62522376D01*
X143104489Y-62530434D01*
X143126113Y-62540662D01*
X143146630Y-62552959D01*
X143165843Y-62567209D01*
X143183567Y-62583273D01*
X143199631Y-62600997D01*
X143213881Y-62620210D01*
X143226178Y-62640727D01*
X143236406Y-62662351D01*
X143244464Y-62684873D01*
X143250276Y-62708077D01*
X143253786Y-62731738D01*
X143254960Y-62755630D01*
X143254960Y-63243130D01*
X143253786Y-63267022D01*
X143250276Y-63290683D01*
X143244464Y-63313887D01*
X143236406Y-63336409D01*
X143226178Y-63358033D01*
X143213881Y-63378550D01*
X143199631Y-63397763D01*
X143183567Y-63415487D01*
X143165843Y-63431551D01*
X143146630Y-63445801D01*
X143126113Y-63458098D01*
X143104489Y-63468326D01*
X143081967Y-63476384D01*
X143058763Y-63482196D01*
X143035102Y-63485706D01*
X143011210Y-63486880D01*
X142098710Y-63486880D01*
X142074818Y-63485706D01*
X142051157Y-63482196D01*
X142027953Y-63476384D01*
X142005431Y-63468326D01*
X141983807Y-63458098D01*
X141963290Y-63445801D01*
X141944077Y-63431551D01*
X141926353Y-63415487D01*
X141910289Y-63397763D01*
X141896039Y-63378550D01*
X141883742Y-63358033D01*
X141873514Y-63336409D01*
X141865456Y-63313887D01*
X141859644Y-63290683D01*
X141856134Y-63267022D01*
X141854960Y-63243130D01*
X141854960Y-62755630D01*
X141856134Y-62731738D01*
X141859644Y-62708077D01*
X141865456Y-62684873D01*
X141873514Y-62662351D01*
X141883742Y-62640727D01*
X141896039Y-62620210D01*
X141910289Y-62600997D01*
X141926353Y-62583273D01*
X141944077Y-62567209D01*
X141963290Y-62552959D01*
X141983807Y-62540662D01*
X142005431Y-62530434D01*
X142027953Y-62522376D01*
X142051157Y-62516564D01*
X142074818Y-62513054D01*
X142098710Y-62511880D01*
X143011210Y-62511880D01*
X143035102Y-62513054D01*
X143035102Y-62513054D01*
G37*
D11*
X142554960Y-62999380D03*
D10*
G36*
X139761042Y-62591794D02*
G01*
X139784703Y-62595304D01*
X139807907Y-62601116D01*
X139830429Y-62609174D01*
X139852053Y-62619402D01*
X139872570Y-62631699D01*
X139891783Y-62645949D01*
X139909507Y-62662013D01*
X139925571Y-62679737D01*
X139939821Y-62698950D01*
X139952118Y-62719467D01*
X139962346Y-62741091D01*
X139970404Y-62763613D01*
X139976216Y-62786817D01*
X139979726Y-62810478D01*
X139980900Y-62834370D01*
X139980900Y-63321870D01*
X139979726Y-63345762D01*
X139976216Y-63369423D01*
X139970404Y-63392627D01*
X139962346Y-63415149D01*
X139952118Y-63436773D01*
X139939821Y-63457290D01*
X139925571Y-63476503D01*
X139909507Y-63494227D01*
X139891783Y-63510291D01*
X139872570Y-63524541D01*
X139852053Y-63536838D01*
X139830429Y-63547066D01*
X139807907Y-63555124D01*
X139784703Y-63560936D01*
X139761042Y-63564446D01*
X139737150Y-63565620D01*
X138824650Y-63565620D01*
X138800758Y-63564446D01*
X138777097Y-63560936D01*
X138753893Y-63555124D01*
X138731371Y-63547066D01*
X138709747Y-63536838D01*
X138689230Y-63524541D01*
X138670017Y-63510291D01*
X138652293Y-63494227D01*
X138636229Y-63476503D01*
X138621979Y-63457290D01*
X138609682Y-63436773D01*
X138599454Y-63415149D01*
X138591396Y-63392627D01*
X138585584Y-63369423D01*
X138582074Y-63345762D01*
X138580900Y-63321870D01*
X138580900Y-62834370D01*
X138582074Y-62810478D01*
X138585584Y-62786817D01*
X138591396Y-62763613D01*
X138599454Y-62741091D01*
X138609682Y-62719467D01*
X138621979Y-62698950D01*
X138636229Y-62679737D01*
X138652293Y-62662013D01*
X138670017Y-62645949D01*
X138689230Y-62631699D01*
X138709747Y-62619402D01*
X138731371Y-62609174D01*
X138753893Y-62601116D01*
X138777097Y-62595304D01*
X138800758Y-62591794D01*
X138824650Y-62590620D01*
X139737150Y-62590620D01*
X139761042Y-62591794D01*
X139761042Y-62591794D01*
G37*
D11*
X139280900Y-63078120D03*
D10*
G36*
X139761042Y-64466794D02*
G01*
X139784703Y-64470304D01*
X139807907Y-64476116D01*
X139830429Y-64484174D01*
X139852053Y-64494402D01*
X139872570Y-64506699D01*
X139891783Y-64520949D01*
X139909507Y-64537013D01*
X139925571Y-64554737D01*
X139939821Y-64573950D01*
X139952118Y-64594467D01*
X139962346Y-64616091D01*
X139970404Y-64638613D01*
X139976216Y-64661817D01*
X139979726Y-64685478D01*
X139980900Y-64709370D01*
X139980900Y-65196870D01*
X139979726Y-65220762D01*
X139976216Y-65244423D01*
X139970404Y-65267627D01*
X139962346Y-65290149D01*
X139952118Y-65311773D01*
X139939821Y-65332290D01*
X139925571Y-65351503D01*
X139909507Y-65369227D01*
X139891783Y-65385291D01*
X139872570Y-65399541D01*
X139852053Y-65411838D01*
X139830429Y-65422066D01*
X139807907Y-65430124D01*
X139784703Y-65435936D01*
X139761042Y-65439446D01*
X139737150Y-65440620D01*
X138824650Y-65440620D01*
X138800758Y-65439446D01*
X138777097Y-65435936D01*
X138753893Y-65430124D01*
X138731371Y-65422066D01*
X138709747Y-65411838D01*
X138689230Y-65399541D01*
X138670017Y-65385291D01*
X138652293Y-65369227D01*
X138636229Y-65351503D01*
X138621979Y-65332290D01*
X138609682Y-65311773D01*
X138599454Y-65290149D01*
X138591396Y-65267627D01*
X138585584Y-65244423D01*
X138582074Y-65220762D01*
X138580900Y-65196870D01*
X138580900Y-64709370D01*
X138582074Y-64685478D01*
X138585584Y-64661817D01*
X138591396Y-64638613D01*
X138599454Y-64616091D01*
X138609682Y-64594467D01*
X138621979Y-64573950D01*
X138636229Y-64554737D01*
X138652293Y-64537013D01*
X138670017Y-64520949D01*
X138689230Y-64506699D01*
X138709747Y-64494402D01*
X138731371Y-64484174D01*
X138753893Y-64476116D01*
X138777097Y-64470304D01*
X138800758Y-64466794D01*
X138824650Y-64465620D01*
X139737150Y-64465620D01*
X139761042Y-64466794D01*
X139761042Y-64466794D01*
G37*
D11*
X139280900Y-64953120D03*
D10*
G36*
X148028742Y-65383494D02*
G01*
X148052403Y-65387004D01*
X148075607Y-65392816D01*
X148098129Y-65400874D01*
X148119753Y-65411102D01*
X148140270Y-65423399D01*
X148159483Y-65437649D01*
X148177207Y-65453713D01*
X148193271Y-65471437D01*
X148207521Y-65490650D01*
X148219818Y-65511167D01*
X148230046Y-65532791D01*
X148238104Y-65555313D01*
X148243916Y-65578517D01*
X148247426Y-65602178D01*
X148248600Y-65626070D01*
X148248600Y-66113570D01*
X148247426Y-66137462D01*
X148243916Y-66161123D01*
X148238104Y-66184327D01*
X148230046Y-66206849D01*
X148219818Y-66228473D01*
X148207521Y-66248990D01*
X148193271Y-66268203D01*
X148177207Y-66285927D01*
X148159483Y-66301991D01*
X148140270Y-66316241D01*
X148119753Y-66328538D01*
X148098129Y-66338766D01*
X148075607Y-66346824D01*
X148052403Y-66352636D01*
X148028742Y-66356146D01*
X148004850Y-66357320D01*
X147092350Y-66357320D01*
X147068458Y-66356146D01*
X147044797Y-66352636D01*
X147021593Y-66346824D01*
X146999071Y-66338766D01*
X146977447Y-66328538D01*
X146956930Y-66316241D01*
X146937717Y-66301991D01*
X146919993Y-66285927D01*
X146903929Y-66268203D01*
X146889679Y-66248990D01*
X146877382Y-66228473D01*
X146867154Y-66206849D01*
X146859096Y-66184327D01*
X146853284Y-66161123D01*
X146849774Y-66137462D01*
X146848600Y-66113570D01*
X146848600Y-65626070D01*
X146849774Y-65602178D01*
X146853284Y-65578517D01*
X146859096Y-65555313D01*
X146867154Y-65532791D01*
X146877382Y-65511167D01*
X146889679Y-65490650D01*
X146903929Y-65471437D01*
X146919993Y-65453713D01*
X146937717Y-65437649D01*
X146956930Y-65423399D01*
X146977447Y-65411102D01*
X146999071Y-65400874D01*
X147021593Y-65392816D01*
X147044797Y-65387004D01*
X147068458Y-65383494D01*
X147092350Y-65382320D01*
X148004850Y-65382320D01*
X148028742Y-65383494D01*
X148028742Y-65383494D01*
G37*
D11*
X147548600Y-65869820D03*
D10*
G36*
X148028742Y-63508494D02*
G01*
X148052403Y-63512004D01*
X148075607Y-63517816D01*
X148098129Y-63525874D01*
X148119753Y-63536102D01*
X148140270Y-63548399D01*
X148159483Y-63562649D01*
X148177207Y-63578713D01*
X148193271Y-63596437D01*
X148207521Y-63615650D01*
X148219818Y-63636167D01*
X148230046Y-63657791D01*
X148238104Y-63680313D01*
X148243916Y-63703517D01*
X148247426Y-63727178D01*
X148248600Y-63751070D01*
X148248600Y-64238570D01*
X148247426Y-64262462D01*
X148243916Y-64286123D01*
X148238104Y-64309327D01*
X148230046Y-64331849D01*
X148219818Y-64353473D01*
X148207521Y-64373990D01*
X148193271Y-64393203D01*
X148177207Y-64410927D01*
X148159483Y-64426991D01*
X148140270Y-64441241D01*
X148119753Y-64453538D01*
X148098129Y-64463766D01*
X148075607Y-64471824D01*
X148052403Y-64477636D01*
X148028742Y-64481146D01*
X148004850Y-64482320D01*
X147092350Y-64482320D01*
X147068458Y-64481146D01*
X147044797Y-64477636D01*
X147021593Y-64471824D01*
X146999071Y-64463766D01*
X146977447Y-64453538D01*
X146956930Y-64441241D01*
X146937717Y-64426991D01*
X146919993Y-64410927D01*
X146903929Y-64393203D01*
X146889679Y-64373990D01*
X146877382Y-64353473D01*
X146867154Y-64331849D01*
X146859096Y-64309327D01*
X146853284Y-64286123D01*
X146849774Y-64262462D01*
X146848600Y-64238570D01*
X146848600Y-63751070D01*
X146849774Y-63727178D01*
X146853284Y-63703517D01*
X146859096Y-63680313D01*
X146867154Y-63657791D01*
X146877382Y-63636167D01*
X146889679Y-63615650D01*
X146903929Y-63596437D01*
X146919993Y-63578713D01*
X146937717Y-63562649D01*
X146956930Y-63548399D01*
X146977447Y-63536102D01*
X146999071Y-63525874D01*
X147021593Y-63517816D01*
X147044797Y-63512004D01*
X147068458Y-63508494D01*
X147092350Y-63507320D01*
X148004850Y-63507320D01*
X148028742Y-63508494D01*
X148028742Y-63508494D01*
G37*
D11*
X147548600Y-63994820D03*
D10*
G36*
X151787942Y-64626094D02*
G01*
X151811603Y-64629604D01*
X151834807Y-64635416D01*
X151857329Y-64643474D01*
X151878953Y-64653702D01*
X151899470Y-64665999D01*
X151918683Y-64680249D01*
X151936407Y-64696313D01*
X151952471Y-64714037D01*
X151966721Y-64733250D01*
X151979018Y-64753767D01*
X151989246Y-64775391D01*
X151997304Y-64797913D01*
X152003116Y-64821117D01*
X152006626Y-64844778D01*
X152007800Y-64868670D01*
X152007800Y-65356170D01*
X152006626Y-65380062D01*
X152003116Y-65403723D01*
X151997304Y-65426927D01*
X151989246Y-65449449D01*
X151979018Y-65471073D01*
X151966721Y-65491590D01*
X151952471Y-65510803D01*
X151936407Y-65528527D01*
X151918683Y-65544591D01*
X151899470Y-65558841D01*
X151878953Y-65571138D01*
X151857329Y-65581366D01*
X151834807Y-65589424D01*
X151811603Y-65595236D01*
X151787942Y-65598746D01*
X151764050Y-65599920D01*
X150851550Y-65599920D01*
X150827658Y-65598746D01*
X150803997Y-65595236D01*
X150780793Y-65589424D01*
X150758271Y-65581366D01*
X150736647Y-65571138D01*
X150716130Y-65558841D01*
X150696917Y-65544591D01*
X150679193Y-65528527D01*
X150663129Y-65510803D01*
X150648879Y-65491590D01*
X150636582Y-65471073D01*
X150626354Y-65449449D01*
X150618296Y-65426927D01*
X150612484Y-65403723D01*
X150608974Y-65380062D01*
X150607800Y-65356170D01*
X150607800Y-64868670D01*
X150608974Y-64844778D01*
X150612484Y-64821117D01*
X150618296Y-64797913D01*
X150626354Y-64775391D01*
X150636582Y-64753767D01*
X150648879Y-64733250D01*
X150663129Y-64714037D01*
X150679193Y-64696313D01*
X150696917Y-64680249D01*
X150716130Y-64665999D01*
X150736647Y-64653702D01*
X150758271Y-64643474D01*
X150780793Y-64635416D01*
X150803997Y-64629604D01*
X150827658Y-64626094D01*
X150851550Y-64624920D01*
X151764050Y-64624920D01*
X151787942Y-64626094D01*
X151787942Y-64626094D01*
G37*
D11*
X151307800Y-65112420D03*
D10*
G36*
X151787942Y-66501094D02*
G01*
X151811603Y-66504604D01*
X151834807Y-66510416D01*
X151857329Y-66518474D01*
X151878953Y-66528702D01*
X151899470Y-66540999D01*
X151918683Y-66555249D01*
X151936407Y-66571313D01*
X151952471Y-66589037D01*
X151966721Y-66608250D01*
X151979018Y-66628767D01*
X151989246Y-66650391D01*
X151997304Y-66672913D01*
X152003116Y-66696117D01*
X152006626Y-66719778D01*
X152007800Y-66743670D01*
X152007800Y-67231170D01*
X152006626Y-67255062D01*
X152003116Y-67278723D01*
X151997304Y-67301927D01*
X151989246Y-67324449D01*
X151979018Y-67346073D01*
X151966721Y-67366590D01*
X151952471Y-67385803D01*
X151936407Y-67403527D01*
X151918683Y-67419591D01*
X151899470Y-67433841D01*
X151878953Y-67446138D01*
X151857329Y-67456366D01*
X151834807Y-67464424D01*
X151811603Y-67470236D01*
X151787942Y-67473746D01*
X151764050Y-67474920D01*
X150851550Y-67474920D01*
X150827658Y-67473746D01*
X150803997Y-67470236D01*
X150780793Y-67464424D01*
X150758271Y-67456366D01*
X150736647Y-67446138D01*
X150716130Y-67433841D01*
X150696917Y-67419591D01*
X150679193Y-67403527D01*
X150663129Y-67385803D01*
X150648879Y-67366590D01*
X150636582Y-67346073D01*
X150626354Y-67324449D01*
X150618296Y-67301927D01*
X150612484Y-67278723D01*
X150608974Y-67255062D01*
X150607800Y-67231170D01*
X150607800Y-66743670D01*
X150608974Y-66719778D01*
X150612484Y-66696117D01*
X150618296Y-66672913D01*
X150626354Y-66650391D01*
X150636582Y-66628767D01*
X150648879Y-66608250D01*
X150663129Y-66589037D01*
X150679193Y-66571313D01*
X150696917Y-66555249D01*
X150716130Y-66540999D01*
X150736647Y-66528702D01*
X150758271Y-66518474D01*
X150780793Y-66510416D01*
X150803997Y-66504604D01*
X150827658Y-66501094D01*
X150851550Y-66499920D01*
X151764050Y-66499920D01*
X151787942Y-66501094D01*
X151787942Y-66501094D01*
G37*
D11*
X151307800Y-66987420D03*
D10*
G36*
X77051842Y-66047294D02*
G01*
X77075503Y-66050804D01*
X77098707Y-66056616D01*
X77121229Y-66064674D01*
X77142853Y-66074902D01*
X77163370Y-66087199D01*
X77182583Y-66101449D01*
X77200307Y-66117513D01*
X77216371Y-66135237D01*
X77230621Y-66154450D01*
X77242918Y-66174967D01*
X77253146Y-66196591D01*
X77261204Y-66219113D01*
X77267016Y-66242317D01*
X77270526Y-66265978D01*
X77271700Y-66289870D01*
X77271700Y-67202370D01*
X77270526Y-67226262D01*
X77267016Y-67249923D01*
X77261204Y-67273127D01*
X77253146Y-67295649D01*
X77242918Y-67317273D01*
X77230621Y-67337790D01*
X77216371Y-67357003D01*
X77200307Y-67374727D01*
X77182583Y-67390791D01*
X77163370Y-67405041D01*
X77142853Y-67417338D01*
X77121229Y-67427566D01*
X77098707Y-67435624D01*
X77075503Y-67441436D01*
X77051842Y-67444946D01*
X77027950Y-67446120D01*
X76540450Y-67446120D01*
X76516558Y-67444946D01*
X76492897Y-67441436D01*
X76469693Y-67435624D01*
X76447171Y-67427566D01*
X76425547Y-67417338D01*
X76405030Y-67405041D01*
X76385817Y-67390791D01*
X76368093Y-67374727D01*
X76352029Y-67357003D01*
X76337779Y-67337790D01*
X76325482Y-67317273D01*
X76315254Y-67295649D01*
X76307196Y-67273127D01*
X76301384Y-67249923D01*
X76297874Y-67226262D01*
X76296700Y-67202370D01*
X76296700Y-66289870D01*
X76297874Y-66265978D01*
X76301384Y-66242317D01*
X76307196Y-66219113D01*
X76315254Y-66196591D01*
X76325482Y-66174967D01*
X76337779Y-66154450D01*
X76352029Y-66135237D01*
X76368093Y-66117513D01*
X76385817Y-66101449D01*
X76405030Y-66087199D01*
X76425547Y-66074902D01*
X76447171Y-66064674D01*
X76469693Y-66056616D01*
X76492897Y-66050804D01*
X76516558Y-66047294D01*
X76540450Y-66046120D01*
X77027950Y-66046120D01*
X77051842Y-66047294D01*
X77051842Y-66047294D01*
G37*
D11*
X76784200Y-66746120D03*
D10*
G36*
X75176842Y-66047294D02*
G01*
X75200503Y-66050804D01*
X75223707Y-66056616D01*
X75246229Y-66064674D01*
X75267853Y-66074902D01*
X75288370Y-66087199D01*
X75307583Y-66101449D01*
X75325307Y-66117513D01*
X75341371Y-66135237D01*
X75355621Y-66154450D01*
X75367918Y-66174967D01*
X75378146Y-66196591D01*
X75386204Y-66219113D01*
X75392016Y-66242317D01*
X75395526Y-66265978D01*
X75396700Y-66289870D01*
X75396700Y-67202370D01*
X75395526Y-67226262D01*
X75392016Y-67249923D01*
X75386204Y-67273127D01*
X75378146Y-67295649D01*
X75367918Y-67317273D01*
X75355621Y-67337790D01*
X75341371Y-67357003D01*
X75325307Y-67374727D01*
X75307583Y-67390791D01*
X75288370Y-67405041D01*
X75267853Y-67417338D01*
X75246229Y-67427566D01*
X75223707Y-67435624D01*
X75200503Y-67441436D01*
X75176842Y-67444946D01*
X75152950Y-67446120D01*
X74665450Y-67446120D01*
X74641558Y-67444946D01*
X74617897Y-67441436D01*
X74594693Y-67435624D01*
X74572171Y-67427566D01*
X74550547Y-67417338D01*
X74530030Y-67405041D01*
X74510817Y-67390791D01*
X74493093Y-67374727D01*
X74477029Y-67357003D01*
X74462779Y-67337790D01*
X74450482Y-67317273D01*
X74440254Y-67295649D01*
X74432196Y-67273127D01*
X74426384Y-67249923D01*
X74422874Y-67226262D01*
X74421700Y-67202370D01*
X74421700Y-66289870D01*
X74422874Y-66265978D01*
X74426384Y-66242317D01*
X74432196Y-66219113D01*
X74440254Y-66196591D01*
X74450482Y-66174967D01*
X74462779Y-66154450D01*
X74477029Y-66135237D01*
X74493093Y-66117513D01*
X74510817Y-66101449D01*
X74530030Y-66087199D01*
X74550547Y-66074902D01*
X74572171Y-66064674D01*
X74594693Y-66056616D01*
X74617897Y-66050804D01*
X74641558Y-66047294D01*
X74665450Y-66046120D01*
X75152950Y-66046120D01*
X75176842Y-66047294D01*
X75176842Y-66047294D01*
G37*
D11*
X74909200Y-66746120D03*
D10*
G36*
X156835542Y-74746794D02*
G01*
X156859203Y-74750304D01*
X156882407Y-74756116D01*
X156904929Y-74764174D01*
X156926553Y-74774402D01*
X156947070Y-74786699D01*
X156966283Y-74800949D01*
X156984007Y-74817013D01*
X157000071Y-74834737D01*
X157014321Y-74853950D01*
X157026618Y-74874467D01*
X157036846Y-74896091D01*
X157044904Y-74918613D01*
X157050716Y-74941817D01*
X157054226Y-74965478D01*
X157055400Y-74989370D01*
X157055400Y-75901870D01*
X157054226Y-75925762D01*
X157050716Y-75949423D01*
X157044904Y-75972627D01*
X157036846Y-75995149D01*
X157026618Y-76016773D01*
X157014321Y-76037290D01*
X157000071Y-76056503D01*
X156984007Y-76074227D01*
X156966283Y-76090291D01*
X156947070Y-76104541D01*
X156926553Y-76116838D01*
X156904929Y-76127066D01*
X156882407Y-76135124D01*
X156859203Y-76140936D01*
X156835542Y-76144446D01*
X156811650Y-76145620D01*
X156324150Y-76145620D01*
X156300258Y-76144446D01*
X156276597Y-76140936D01*
X156253393Y-76135124D01*
X156230871Y-76127066D01*
X156209247Y-76116838D01*
X156188730Y-76104541D01*
X156169517Y-76090291D01*
X156151793Y-76074227D01*
X156135729Y-76056503D01*
X156121479Y-76037290D01*
X156109182Y-76016773D01*
X156098954Y-75995149D01*
X156090896Y-75972627D01*
X156085084Y-75949423D01*
X156081574Y-75925762D01*
X156080400Y-75901870D01*
X156080400Y-74989370D01*
X156081574Y-74965478D01*
X156085084Y-74941817D01*
X156090896Y-74918613D01*
X156098954Y-74896091D01*
X156109182Y-74874467D01*
X156121479Y-74853950D01*
X156135729Y-74834737D01*
X156151793Y-74817013D01*
X156169517Y-74800949D01*
X156188730Y-74786699D01*
X156209247Y-74774402D01*
X156230871Y-74764174D01*
X156253393Y-74756116D01*
X156276597Y-74750304D01*
X156300258Y-74746794D01*
X156324150Y-74745620D01*
X156811650Y-74745620D01*
X156835542Y-74746794D01*
X156835542Y-74746794D01*
G37*
D11*
X156567900Y-75445620D03*
D10*
G36*
X158710542Y-74746794D02*
G01*
X158734203Y-74750304D01*
X158757407Y-74756116D01*
X158779929Y-74764174D01*
X158801553Y-74774402D01*
X158822070Y-74786699D01*
X158841283Y-74800949D01*
X158859007Y-74817013D01*
X158875071Y-74834737D01*
X158889321Y-74853950D01*
X158901618Y-74874467D01*
X158911846Y-74896091D01*
X158919904Y-74918613D01*
X158925716Y-74941817D01*
X158929226Y-74965478D01*
X158930400Y-74989370D01*
X158930400Y-75901870D01*
X158929226Y-75925762D01*
X158925716Y-75949423D01*
X158919904Y-75972627D01*
X158911846Y-75995149D01*
X158901618Y-76016773D01*
X158889321Y-76037290D01*
X158875071Y-76056503D01*
X158859007Y-76074227D01*
X158841283Y-76090291D01*
X158822070Y-76104541D01*
X158801553Y-76116838D01*
X158779929Y-76127066D01*
X158757407Y-76135124D01*
X158734203Y-76140936D01*
X158710542Y-76144446D01*
X158686650Y-76145620D01*
X158199150Y-76145620D01*
X158175258Y-76144446D01*
X158151597Y-76140936D01*
X158128393Y-76135124D01*
X158105871Y-76127066D01*
X158084247Y-76116838D01*
X158063730Y-76104541D01*
X158044517Y-76090291D01*
X158026793Y-76074227D01*
X158010729Y-76056503D01*
X157996479Y-76037290D01*
X157984182Y-76016773D01*
X157973954Y-75995149D01*
X157965896Y-75972627D01*
X157960084Y-75949423D01*
X157956574Y-75925762D01*
X157955400Y-75901870D01*
X157955400Y-74989370D01*
X157956574Y-74965478D01*
X157960084Y-74941817D01*
X157965896Y-74918613D01*
X157973954Y-74896091D01*
X157984182Y-74874467D01*
X157996479Y-74853950D01*
X158010729Y-74834737D01*
X158026793Y-74817013D01*
X158044517Y-74800949D01*
X158063730Y-74786699D01*
X158084247Y-74774402D01*
X158105871Y-74764174D01*
X158128393Y-74756116D01*
X158151597Y-74750304D01*
X158175258Y-74746794D01*
X158199150Y-74745620D01*
X158686650Y-74745620D01*
X158710542Y-74746794D01*
X158710542Y-74746794D01*
G37*
D11*
X158442900Y-75445620D03*
M02*
