G04 #@! TF.GenerationSoftware,KiCad,Pcbnew,(5.1.4-0-10_14)*
G04 #@! TF.CreationDate,2020-04-27T10:11:36-04:00*
G04 #@! TF.ProjectId,laser_card,6c617365-725f-4636-9172-642e6b696361,rev?*
G04 #@! TF.SameCoordinates,Original*
G04 #@! TF.FileFunction,Legend,Bot*
G04 #@! TF.FilePolarity,Positive*
%FSLAX46Y46*%
G04 Gerber Fmt 4.6, Leading zero omitted, Abs format (unit mm)*
G04 Created by KiCad (PCBNEW (5.1.4-0-10_14)) date 2020-04-27 10:11:36*
%MOMM*%
%LPD*%
G04 APERTURE LIST*
%ADD10C,0.300000*%
%ADD11C,0.500000*%
%ADD12C,0.120000*%
%ADD13C,0.150000*%
G04 APERTURE END LIST*
D10*
X93642857Y-42357142D02*
X95071428Y-42357142D01*
X95071428Y-39357142D01*
X92785714Y-41500000D02*
X91357142Y-41500000D01*
X93071428Y-42357142D02*
X92071428Y-39357142D01*
X91071428Y-42357142D01*
X90214285Y-42214285D02*
X89785714Y-42357142D01*
X89071428Y-42357142D01*
X88785714Y-42214285D01*
X88642857Y-42071428D01*
X88500000Y-41785714D01*
X88500000Y-41500000D01*
X88642857Y-41214285D01*
X88785714Y-41071428D01*
X89071428Y-40928571D01*
X89642857Y-40785714D01*
X89928571Y-40642857D01*
X90071428Y-40500000D01*
X90214285Y-40214285D01*
X90214285Y-39928571D01*
X90071428Y-39642857D01*
X89928571Y-39500000D01*
X89642857Y-39357142D01*
X88928571Y-39357142D01*
X88500000Y-39500000D01*
X87214285Y-40785714D02*
X86214285Y-40785714D01*
X85785714Y-42357142D02*
X87214285Y-42357142D01*
X87214285Y-39357142D01*
X85785714Y-39357142D01*
X82785714Y-42357142D02*
X83785714Y-40928571D01*
X84500000Y-42357142D02*
X84500000Y-39357142D01*
X83357142Y-39357142D01*
X83071428Y-39500000D01*
X82928571Y-39642857D01*
X82785714Y-39928571D01*
X82785714Y-40357142D01*
X82928571Y-40642857D01*
X83071428Y-40785714D01*
X83357142Y-40928571D01*
X84500000Y-40928571D01*
D11*
X156000000Y-141000000D02*
X156000000Y-100000000D01*
X169000000Y-141000000D02*
X156000000Y-141000000D01*
X169000000Y-100000000D02*
X169000000Y-141000000D01*
D10*
X171142857Y-95785714D02*
X170142857Y-95785714D01*
X169714285Y-97357142D02*
X171142857Y-97357142D01*
X171142857Y-94357142D01*
X169714285Y-94357142D01*
X168428571Y-96214285D02*
X166142857Y-96214285D01*
X164857142Y-97214285D02*
X164428571Y-97357142D01*
X163714285Y-97357142D01*
X163428571Y-97214285D01*
X163285714Y-97071428D01*
X163142857Y-96785714D01*
X163142857Y-96500000D01*
X163285714Y-96214285D01*
X163428571Y-96071428D01*
X163714285Y-95928571D01*
X164285714Y-95785714D01*
X164571428Y-95642857D01*
X164714285Y-95500000D01*
X164857142Y-95214285D01*
X164857142Y-94928571D01*
X164714285Y-94642857D01*
X164571428Y-94500000D01*
X164285714Y-94357142D01*
X163571428Y-94357142D01*
X163142857Y-94500000D01*
X162285714Y-94357142D02*
X160571428Y-94357142D01*
X161428571Y-97357142D02*
X161428571Y-94357142D01*
X159000000Y-94357142D02*
X158428571Y-94357142D01*
X158142857Y-94500000D01*
X157857142Y-94785714D01*
X157714285Y-95357142D01*
X157714285Y-96357142D01*
X157857142Y-96928571D01*
X158142857Y-97214285D01*
X158428571Y-97357142D01*
X159000000Y-97357142D01*
X159285714Y-97214285D01*
X159571428Y-96928571D01*
X159714285Y-96357142D01*
X159714285Y-95357142D01*
X159571428Y-94785714D01*
X159285714Y-94500000D01*
X159000000Y-94357142D01*
X156428571Y-97357142D02*
X156428571Y-94357142D01*
X155285714Y-94357142D01*
X155000000Y-94500000D01*
X154857142Y-94642857D01*
X154714285Y-94928571D01*
X154714285Y-95357142D01*
X154857142Y-95642857D01*
X155000000Y-95785714D01*
X155285714Y-95928571D01*
X156428571Y-95928571D01*
X194389428Y-133012571D02*
X195246571Y-133012571D01*
X194818000Y-133012571D02*
X194818000Y-131512571D01*
X194960857Y-131726857D01*
X195103714Y-131869714D01*
X195246571Y-131941142D01*
X223853428Y-125138571D02*
X224710571Y-125138571D01*
X224282000Y-125138571D02*
X224282000Y-123638571D01*
X224424857Y-123852857D01*
X224567714Y-123995714D01*
X224710571Y-124067142D01*
X224424857Y-142823428D02*
X224567714Y-142752000D01*
X224639142Y-142680571D01*
X224710571Y-142537714D01*
X224710571Y-142466285D01*
X224639142Y-142323428D01*
X224567714Y-142252000D01*
X224424857Y-142180571D01*
X224139142Y-142180571D01*
X223996285Y-142252000D01*
X223924857Y-142323428D01*
X223853428Y-142466285D01*
X223853428Y-142537714D01*
X223924857Y-142680571D01*
X223996285Y-142752000D01*
X224139142Y-142823428D01*
X224424857Y-142823428D01*
X224567714Y-142894857D01*
X224639142Y-142966285D01*
X224710571Y-143109142D01*
X224710571Y-143394857D01*
X224639142Y-143537714D01*
X224567714Y-143609142D01*
X224424857Y-143680571D01*
X224139142Y-143680571D01*
X223996285Y-143609142D01*
X223924857Y-143537714D01*
X223853428Y-143394857D01*
X223853428Y-143109142D01*
X223924857Y-142966285D01*
X223996285Y-142894857D01*
X224139142Y-142823428D01*
X223853428Y-97706571D02*
X224710571Y-97706571D01*
X224282000Y-97706571D02*
X224282000Y-96206571D01*
X224424857Y-96420857D01*
X224567714Y-96563714D01*
X224710571Y-96635142D01*
X224424857Y-115391428D02*
X224567714Y-115320000D01*
X224639142Y-115248571D01*
X224710571Y-115105714D01*
X224710571Y-115034285D01*
X224639142Y-114891428D01*
X224567714Y-114820000D01*
X224424857Y-114748571D01*
X224139142Y-114748571D01*
X223996285Y-114820000D01*
X223924857Y-114891428D01*
X223853428Y-115034285D01*
X223853428Y-115105714D01*
X223924857Y-115248571D01*
X223996285Y-115320000D01*
X224139142Y-115391428D01*
X224424857Y-115391428D01*
X224567714Y-115462857D01*
X224639142Y-115534285D01*
X224710571Y-115677142D01*
X224710571Y-115962857D01*
X224639142Y-116105714D01*
X224567714Y-116177142D01*
X224424857Y-116248571D01*
X224139142Y-116248571D01*
X223996285Y-116177142D01*
X223924857Y-116105714D01*
X223853428Y-115962857D01*
X223853428Y-115677142D01*
X223924857Y-115534285D01*
X223996285Y-115462857D01*
X224139142Y-115391428D01*
X224424857Y-89229428D02*
X224567714Y-89158000D01*
X224639142Y-89086571D01*
X224710571Y-88943714D01*
X224710571Y-88872285D01*
X224639142Y-88729428D01*
X224567714Y-88658000D01*
X224424857Y-88586571D01*
X224139142Y-88586571D01*
X223996285Y-88658000D01*
X223924857Y-88729428D01*
X223853428Y-88872285D01*
X223853428Y-88943714D01*
X223924857Y-89086571D01*
X223996285Y-89158000D01*
X224139142Y-89229428D01*
X224424857Y-89229428D01*
X224567714Y-89300857D01*
X224639142Y-89372285D01*
X224710571Y-89515142D01*
X224710571Y-89800857D01*
X224639142Y-89943714D01*
X224567714Y-90015142D01*
X224424857Y-90086571D01*
X224139142Y-90086571D01*
X223996285Y-90015142D01*
X223924857Y-89943714D01*
X223853428Y-89800857D01*
X223853428Y-89515142D01*
X223924857Y-89372285D01*
X223996285Y-89300857D01*
X224139142Y-89229428D01*
X223853428Y-71544571D02*
X224710571Y-71544571D01*
X224282000Y-71544571D02*
X224282000Y-70044571D01*
X224424857Y-70258857D01*
X224567714Y-70401714D01*
X224710571Y-70473142D01*
X130285714Y-145357142D02*
X131714285Y-145357142D01*
X131714285Y-142357142D01*
X129428571Y-144500000D02*
X128000000Y-144500000D01*
X129714285Y-145357142D02*
X128714285Y-142357142D01*
X127714285Y-145357142D01*
X126857142Y-145214285D02*
X126428571Y-145357142D01*
X125714285Y-145357142D01*
X125428571Y-145214285D01*
X125285714Y-145071428D01*
X125142857Y-144785714D01*
X125142857Y-144500000D01*
X125285714Y-144214285D01*
X125428571Y-144071428D01*
X125714285Y-143928571D01*
X126285714Y-143785714D01*
X126571428Y-143642857D01*
X126714285Y-143500000D01*
X126857142Y-143214285D01*
X126857142Y-142928571D01*
X126714285Y-142642857D01*
X126571428Y-142500000D01*
X126285714Y-142357142D01*
X125571428Y-142357142D01*
X125142857Y-142500000D01*
X123857142Y-143785714D02*
X122857142Y-143785714D01*
X122428571Y-145357142D02*
X123857142Y-145357142D01*
X123857142Y-142357142D01*
X122428571Y-142357142D01*
X119428571Y-145357142D02*
X120428571Y-143928571D01*
X121142857Y-145357142D02*
X121142857Y-142357142D01*
X120000000Y-142357142D01*
X119714285Y-142500000D01*
X119571428Y-142642857D01*
X119428571Y-142928571D01*
X119428571Y-143357142D01*
X119571428Y-143642857D01*
X119714285Y-143785714D01*
X120000000Y-143928571D01*
X121142857Y-143928571D01*
X118857142Y-145642857D02*
X116571428Y-145642857D01*
X114142857Y-145071428D02*
X114285714Y-145214285D01*
X114714285Y-145357142D01*
X115000000Y-145357142D01*
X115428571Y-145214285D01*
X115714285Y-144928571D01*
X115857142Y-144642857D01*
X116000000Y-144071428D01*
X116000000Y-143642857D01*
X115857142Y-143071428D01*
X115714285Y-142785714D01*
X115428571Y-142500000D01*
X115000000Y-142357142D01*
X114714285Y-142357142D01*
X114285714Y-142500000D01*
X114142857Y-142642857D01*
X113000000Y-144500000D02*
X111571428Y-144500000D01*
X113285714Y-145357142D02*
X112285714Y-142357142D01*
X111285714Y-145357142D01*
X108571428Y-145357142D02*
X109571428Y-143928571D01*
X110285714Y-145357142D02*
X110285714Y-142357142D01*
X109142857Y-142357142D01*
X108857142Y-142500000D01*
X108714285Y-142642857D01*
X108571428Y-142928571D01*
X108571428Y-143357142D01*
X108714285Y-143642857D01*
X108857142Y-143785714D01*
X109142857Y-143928571D01*
X110285714Y-143928571D01*
X107285714Y-145357142D02*
X107285714Y-142357142D01*
X106571428Y-142357142D01*
X106142857Y-142500000D01*
X105857142Y-142785714D01*
X105714285Y-143071428D01*
X105571428Y-143642857D01*
X105571428Y-144071428D01*
X105714285Y-144642857D01*
X105857142Y-144928571D01*
X106142857Y-145214285D01*
X106571428Y-145357142D01*
X107285714Y-145357142D01*
X104714285Y-142357142D02*
X103714285Y-145357142D01*
X102714285Y-142357142D01*
X100142857Y-145357142D02*
X101857142Y-145357142D01*
X101000000Y-145357142D02*
X101000000Y-142357142D01*
X101285714Y-142785714D01*
X101571428Y-143071428D01*
X101857142Y-143214285D01*
X98857142Y-145071428D02*
X98714285Y-145214285D01*
X98857142Y-145357142D01*
X99000000Y-145214285D01*
X98857142Y-145071428D01*
X98857142Y-145357142D01*
X96142857Y-143357142D02*
X96142857Y-145357142D01*
X96857142Y-142214285D02*
X97571428Y-144357142D01*
X95714285Y-144357142D01*
X92428571Y-142642857D02*
X92285714Y-142500000D01*
X92000000Y-142357142D01*
X91285714Y-142357142D01*
X91000000Y-142500000D01*
X90857142Y-142642857D01*
X90714285Y-142928571D01*
X90714285Y-143214285D01*
X90857142Y-143642857D01*
X92571428Y-145357142D01*
X90714285Y-145357142D01*
X88857142Y-142357142D02*
X88571428Y-142357142D01*
X88285714Y-142500000D01*
X88142857Y-142642857D01*
X88000000Y-142928571D01*
X87857142Y-143500000D01*
X87857142Y-144214285D01*
X88000000Y-144785714D01*
X88142857Y-145071428D01*
X88285714Y-145214285D01*
X88571428Y-145357142D01*
X88857142Y-145357142D01*
X89142857Y-145214285D01*
X89285714Y-145071428D01*
X89428571Y-144785714D01*
X89571428Y-144214285D01*
X89571428Y-143500000D01*
X89428571Y-142928571D01*
X89285714Y-142642857D01*
X89142857Y-142500000D01*
X88857142Y-142357142D01*
X86714285Y-142642857D02*
X86571428Y-142500000D01*
X86285714Y-142357142D01*
X85571428Y-142357142D01*
X85285714Y-142500000D01*
X85142857Y-142642857D01*
X85000000Y-142928571D01*
X85000000Y-143214285D01*
X85142857Y-143642857D01*
X86857142Y-145357142D01*
X85000000Y-145357142D01*
X83142857Y-142357142D02*
X82857142Y-142357142D01*
X82571428Y-142500000D01*
X82428571Y-142642857D01*
X82285714Y-142928571D01*
X82142857Y-143500000D01*
X82142857Y-144214285D01*
X82285714Y-144785714D01*
X82428571Y-145071428D01*
X82571428Y-145214285D01*
X82857142Y-145357142D01*
X83142857Y-145357142D01*
X83428571Y-145214285D01*
X83571428Y-145071428D01*
X83714285Y-144785714D01*
X83857142Y-144214285D01*
X83857142Y-143500000D01*
X83714285Y-142928571D01*
X83571428Y-142642857D01*
X83428571Y-142500000D01*
X83142857Y-142357142D01*
D12*
X68700000Y-133000000D02*
X67300000Y-133000000D01*
X66600000Y-133700000D02*
X66600000Y-134300000D01*
X67300000Y-135000000D02*
X68700000Y-135000000D01*
X69400000Y-134300000D02*
X69400000Y-133700000D01*
X69400000Y-133700000D02*
G75*
G03X68700000Y-133000000I-700000J0D01*
G01*
X68700000Y-135000000D02*
G75*
G03X69400000Y-134300000I0J700000D01*
G01*
X66600000Y-134300000D02*
G75*
G03X67300000Y-135000000I700000J0D01*
G01*
X67300000Y-133000000D02*
G75*
G03X66600000Y-133700000I0J-700000D01*
G01*
X96850000Y-112900000D02*
X95450000Y-112900000D01*
X94750000Y-113600000D02*
X94750000Y-114200000D01*
X95450000Y-114900000D02*
X96850000Y-114900000D01*
X97550000Y-114200000D02*
X97550000Y-113600000D01*
X97550000Y-113600000D02*
G75*
G03X96850000Y-112900000I-700000J0D01*
G01*
X96850000Y-114900000D02*
G75*
G03X97550000Y-114200000I0J700000D01*
G01*
X94750000Y-114200000D02*
G75*
G03X95450000Y-114900000I700000J0D01*
G01*
X95450000Y-112900000D02*
G75*
G03X94750000Y-113600000I0J-700000D01*
G01*
X69050000Y-115100000D02*
X70450000Y-115100000D01*
X71150000Y-114400000D02*
X71150000Y-113800000D01*
X70450000Y-113100000D02*
X69050000Y-113100000D01*
X68350000Y-113800000D02*
X68350000Y-114400000D01*
X68350000Y-114400000D02*
G75*
G03X69050000Y-115100000I700000J0D01*
G01*
X69050000Y-113100000D02*
G75*
G03X68350000Y-113800000I0J-700000D01*
G01*
X71150000Y-113800000D02*
G75*
G03X70450000Y-113100000I-700000J0D01*
G01*
X70450000Y-115100000D02*
G75*
G03X71150000Y-114400000I0J700000D01*
G01*
X96700000Y-92000000D02*
X95300000Y-92000000D01*
X94600000Y-92700000D02*
X94600000Y-93300000D01*
X95300000Y-94000000D02*
X96700000Y-94000000D01*
X97400000Y-93300000D02*
X97400000Y-92700000D01*
X97400000Y-92700000D02*
G75*
G03X96700000Y-92000000I-700000J0D01*
G01*
X96700000Y-94000000D02*
G75*
G03X97400000Y-93300000I0J700000D01*
G01*
X94600000Y-93300000D02*
G75*
G03X95300000Y-94000000I700000J0D01*
G01*
X95300000Y-92000000D02*
G75*
G03X94600000Y-92700000I0J-700000D01*
G01*
X69300000Y-94000000D02*
X70700000Y-94000000D01*
X71400000Y-93300000D02*
X71400000Y-92700000D01*
X70700000Y-92000000D02*
X69300000Y-92000000D01*
X68600000Y-92700000D02*
X68600000Y-93300000D01*
X68600000Y-93300000D02*
G75*
G03X69300000Y-94000000I700000J0D01*
G01*
X69300000Y-92000000D02*
G75*
G03X68600000Y-92700000I0J-700000D01*
G01*
X71400000Y-92700000D02*
G75*
G03X70700000Y-92000000I-700000J0D01*
G01*
X70700000Y-94000000D02*
G75*
G03X71400000Y-93300000I0J700000D01*
G01*
D13*
X70333600Y-119725600D02*
X70333600Y-118658800D01*
X73584800Y-119725600D02*
X70333600Y-119725600D01*
X73584800Y-118811200D02*
X73584800Y-119725600D01*
D12*
X80138000Y-118658800D02*
X80130800Y-123224400D01*
X63490800Y-118667000D02*
X63490800Y-123224400D01*
X63490800Y-118667000D02*
X80130800Y-118667000D01*
X80138000Y-130241200D02*
X80130800Y-125724400D01*
X63475600Y-130241200D02*
X63490800Y-125724400D01*
X63490800Y-130178200D02*
X80130800Y-130178200D01*
D13*
X70140800Y-99623600D02*
X70140800Y-98556800D01*
X73392000Y-99623600D02*
X70140800Y-99623600D01*
X73392000Y-98709200D02*
X73392000Y-99623600D01*
D12*
X79945200Y-98556800D02*
X79938000Y-103122400D01*
X63298000Y-98565000D02*
X63298000Y-103122400D01*
X63298000Y-98565000D02*
X79938000Y-98565000D01*
X79945200Y-110139200D02*
X79938000Y-105622400D01*
X63282800Y-110139200D02*
X63298000Y-105622400D01*
X63298000Y-110076200D02*
X79938000Y-110076200D01*
D13*
X96270000Y-99650600D02*
X96270000Y-98583800D01*
X99521200Y-99650600D02*
X96270000Y-99650600D01*
X99521200Y-98736200D02*
X99521200Y-99650600D01*
D12*
X106074400Y-98583800D02*
X106067200Y-103149400D01*
X89427200Y-98592000D02*
X89427200Y-103149400D01*
X89427200Y-98592000D02*
X106067200Y-98592000D01*
X106074400Y-110166200D02*
X106067200Y-105649400D01*
X89412000Y-110166200D02*
X89427200Y-105649400D01*
X89427200Y-110103200D02*
X106067200Y-110103200D01*
D13*
X70483600Y-78830800D02*
X70483600Y-77764000D01*
X73734800Y-78830800D02*
X70483600Y-78830800D01*
X73734800Y-77916400D02*
X73734800Y-78830800D01*
D12*
X80288000Y-77764000D02*
X80280800Y-82329600D01*
X63640800Y-77772200D02*
X63640800Y-82329600D01*
X63640800Y-77772200D02*
X80280800Y-77772200D01*
X80288000Y-89346400D02*
X80280800Y-84829600D01*
X63625600Y-89346400D02*
X63640800Y-84829600D01*
X63640800Y-89283400D02*
X80280800Y-89283400D01*
D13*
X96358600Y-78830800D02*
X96358600Y-77764000D01*
X99609800Y-78830800D02*
X96358600Y-78830800D01*
X99609800Y-77916400D02*
X99609800Y-78830800D01*
D12*
X106163000Y-77764000D02*
X106155800Y-82329600D01*
X89515800Y-77772200D02*
X89515800Y-82329600D01*
X89515800Y-77772200D02*
X106155800Y-77772200D01*
X106163000Y-89346400D02*
X106155800Y-84829600D01*
X89500600Y-89346400D02*
X89515800Y-84829600D01*
X89515800Y-89283400D02*
X106155800Y-89283400D01*
D13*
X198505800Y-130048600D02*
X198505800Y-128981800D01*
X201757000Y-130048600D02*
X198505800Y-130048600D01*
X201757000Y-129134200D02*
X201757000Y-130048600D01*
D12*
X208310200Y-128981800D02*
X208303000Y-133547400D01*
X191663000Y-128990000D02*
X191663000Y-133547400D01*
X191663000Y-128990000D02*
X208303000Y-128990000D01*
X208310200Y-140564200D02*
X208303000Y-136047400D01*
X191647800Y-140564200D02*
X191663000Y-136047400D01*
X191663000Y-140501200D02*
X208303000Y-140501200D01*
D13*
X198542800Y-102651200D02*
X198542800Y-101584400D01*
X201794000Y-102651200D02*
X198542800Y-102651200D01*
X201794000Y-101736800D02*
X201794000Y-102651200D01*
D12*
X208347200Y-101584400D02*
X208340000Y-106150000D01*
X191700000Y-101592600D02*
X191700000Y-106150000D01*
X191700000Y-101592600D02*
X208340000Y-101592600D01*
X208347200Y-113166800D02*
X208340000Y-108650000D01*
X191684800Y-113166800D02*
X191700000Y-108650000D01*
X191700000Y-113103800D02*
X208340000Y-113103800D01*
D13*
X198547800Y-76122000D02*
X198547800Y-75055200D01*
X201799000Y-76122000D02*
X198547800Y-76122000D01*
X201799000Y-75207600D02*
X201799000Y-76122000D01*
D12*
X208352200Y-75055200D02*
X208345000Y-79620800D01*
X191705000Y-75063400D02*
X191705000Y-79620800D01*
X191705000Y-75063400D02*
X208345000Y-75063400D01*
X208352200Y-86637600D02*
X208345000Y-82120800D01*
X191689800Y-86637600D02*
X191705000Y-82120800D01*
X191705000Y-86574600D02*
X208345000Y-86574600D01*
X222259200Y-69657920D02*
X220929200Y-69657920D01*
X222259200Y-70987920D02*
X222259200Y-69657920D01*
X222259200Y-72257920D02*
X219599200Y-72257920D01*
X219599200Y-72257920D02*
X219599200Y-90097920D01*
X222259200Y-72257920D02*
X222259200Y-90097920D01*
X222259200Y-90097920D02*
X219599200Y-90097920D01*
X160920000Y-105530000D02*
X162250000Y-105530000D01*
X160920000Y-104200000D02*
X160920000Y-105530000D01*
X160920000Y-102930000D02*
X163580000Y-102930000D01*
X163580000Y-102930000D02*
X163580000Y-100330000D01*
X160920000Y-102930000D02*
X160920000Y-100330000D01*
X160920000Y-100330000D02*
X163580000Y-100330000D01*
X222259200Y-123455120D02*
X220929200Y-123455120D01*
X222259200Y-124785120D02*
X222259200Y-123455120D01*
X222259200Y-126055120D02*
X219599200Y-126055120D01*
X219599200Y-126055120D02*
X219599200Y-143895120D01*
X222259200Y-126055120D02*
X222259200Y-143895120D01*
X222259200Y-143895120D02*
X219599200Y-143895120D01*
X222259200Y-95870720D02*
X220929200Y-95870720D01*
X222259200Y-97200720D02*
X222259200Y-95870720D01*
X222259200Y-98470720D02*
X219599200Y-98470720D01*
X219599200Y-98470720D02*
X219599200Y-116310720D01*
X222259200Y-98470720D02*
X222259200Y-116310720D01*
X222259200Y-116310720D02*
X219599200Y-116310720D01*
X160920000Y-120205000D02*
X162250000Y-120205000D01*
X160920000Y-118875000D02*
X160920000Y-120205000D01*
X160920000Y-117605000D02*
X163580000Y-117605000D01*
X163580000Y-117605000D02*
X163580000Y-115005000D01*
X160920000Y-117605000D02*
X160920000Y-115005000D01*
X160920000Y-115005000D02*
X163580000Y-115005000D01*
X160920000Y-136305000D02*
X162250000Y-136305000D01*
X160920000Y-134975000D02*
X160920000Y-136305000D01*
X160920000Y-133705000D02*
X163580000Y-133705000D01*
X163580000Y-133705000D02*
X163580000Y-131105000D01*
X160920000Y-133705000D02*
X160920000Y-131105000D01*
X160920000Y-131105000D02*
X163580000Y-131105000D01*
X107171470Y-47568256D02*
X106342733Y-52268256D01*
X69438530Y-47568256D02*
X70267267Y-52268256D01*
X104707952Y-53640000D02*
X71902048Y-53640000D01*
X105536689Y-45620000D02*
X71073311Y-45620000D01*
X71685000Y-42858675D02*
X71935000Y-42425662D01*
X71435000Y-42425662D02*
X71685000Y-42858675D01*
X71935000Y-42425662D02*
X71435000Y-42425662D01*
X114915000Y-54880000D02*
X114915000Y-44380000D01*
X62755000Y-55940000D02*
X113855000Y-55940000D01*
X61695000Y-44380000D02*
X61695000Y-54880000D01*
X113855000Y-43320000D02*
X62755000Y-43320000D01*
X70267267Y-52268256D02*
G75*
G03X71902048Y-53640000I1634781J288256D01*
G01*
X106342733Y-52268256D02*
G75*
G02X104707952Y-53640000I-1634781J288256D01*
G01*
X69438530Y-47568256D02*
G75*
G02X71073311Y-45620000I1634781J288256D01*
G01*
X107171470Y-47568256D02*
G75*
G03X105536689Y-45620000I-1634781J288256D01*
G01*
X62755000Y-55940000D02*
G75*
G02X61695000Y-54880000I0J1060000D01*
G01*
X113855000Y-55940000D02*
G75*
G03X114915000Y-54880000I0J1060000D01*
G01*
X61695000Y-44380000D02*
G75*
G02X62755000Y-43320000I1060000J0D01*
G01*
X113855000Y-43320000D02*
G75*
G02X114915000Y-44380000I0J-1060000D01*
G01*
X167666180Y-40166180D02*
X167666180Y-42851180D01*
X165746180Y-40166180D02*
X167666180Y-40166180D01*
X165746180Y-42851180D02*
X165746180Y-40166180D01*
X172114480Y-40166180D02*
X172114480Y-42851180D01*
X170194480Y-40166180D02*
X172114480Y-40166180D01*
X170194480Y-42851180D02*
X170194480Y-40166180D01*
D13*
X68833333Y-131652380D02*
X68833333Y-132366666D01*
X68880952Y-132509523D01*
X68976190Y-132604761D01*
X69119047Y-132652380D01*
X69214285Y-132652380D01*
X68357142Y-132652380D02*
X68357142Y-131652380D01*
X67976190Y-131652380D01*
X67880952Y-131700000D01*
X67833333Y-131747619D01*
X67785714Y-131842857D01*
X67785714Y-131985714D01*
X67833333Y-132080952D01*
X67880952Y-132128571D01*
X67976190Y-132176190D01*
X68357142Y-132176190D01*
X66880952Y-131652380D02*
X67357142Y-131652380D01*
X67404761Y-132128571D01*
X67357142Y-132080952D01*
X67261904Y-132033333D01*
X67023809Y-132033333D01*
X66928571Y-132080952D01*
X66880952Y-132128571D01*
X66833333Y-132223809D01*
X66833333Y-132461904D01*
X66880952Y-132557142D01*
X66928571Y-132604761D01*
X67023809Y-132652380D01*
X67261904Y-132652380D01*
X67357142Y-132604761D01*
X67404761Y-132557142D01*
X96983333Y-111552380D02*
X96983333Y-112266666D01*
X97030952Y-112409523D01*
X97126190Y-112504761D01*
X97269047Y-112552380D01*
X97364285Y-112552380D01*
X96507142Y-112552380D02*
X96507142Y-111552380D01*
X96126190Y-111552380D01*
X96030952Y-111600000D01*
X95983333Y-111647619D01*
X95935714Y-111742857D01*
X95935714Y-111885714D01*
X95983333Y-111980952D01*
X96030952Y-112028571D01*
X96126190Y-112076190D01*
X96507142Y-112076190D01*
X95078571Y-111885714D02*
X95078571Y-112552380D01*
X95316666Y-111504761D02*
X95554761Y-112219047D01*
X94935714Y-112219047D01*
X70583333Y-115352380D02*
X70583333Y-116066666D01*
X70630952Y-116209523D01*
X70726190Y-116304761D01*
X70869047Y-116352380D01*
X70964285Y-116352380D01*
X70107142Y-116352380D02*
X70107142Y-115352380D01*
X69726190Y-115352380D01*
X69630952Y-115400000D01*
X69583333Y-115447619D01*
X69535714Y-115542857D01*
X69535714Y-115685714D01*
X69583333Y-115780952D01*
X69630952Y-115828571D01*
X69726190Y-115876190D01*
X70107142Y-115876190D01*
X69202380Y-115352380D02*
X68583333Y-115352380D01*
X68916666Y-115733333D01*
X68773809Y-115733333D01*
X68678571Y-115780952D01*
X68630952Y-115828571D01*
X68583333Y-115923809D01*
X68583333Y-116161904D01*
X68630952Y-116257142D01*
X68678571Y-116304761D01*
X68773809Y-116352380D01*
X69059523Y-116352380D01*
X69154761Y-116304761D01*
X69202380Y-116257142D01*
X96833333Y-90652380D02*
X96833333Y-91366666D01*
X96880952Y-91509523D01*
X96976190Y-91604761D01*
X97119047Y-91652380D01*
X97214285Y-91652380D01*
X96357142Y-91652380D02*
X96357142Y-90652380D01*
X95976190Y-90652380D01*
X95880952Y-90700000D01*
X95833333Y-90747619D01*
X95785714Y-90842857D01*
X95785714Y-90985714D01*
X95833333Y-91080952D01*
X95880952Y-91128571D01*
X95976190Y-91176190D01*
X96357142Y-91176190D01*
X95404761Y-90747619D02*
X95357142Y-90700000D01*
X95261904Y-90652380D01*
X95023809Y-90652380D01*
X94928571Y-90700000D01*
X94880952Y-90747619D01*
X94833333Y-90842857D01*
X94833333Y-90938095D01*
X94880952Y-91080952D01*
X95452380Y-91652380D01*
X94833333Y-91652380D01*
X70833333Y-94252380D02*
X70833333Y-94966666D01*
X70880952Y-95109523D01*
X70976190Y-95204761D01*
X71119047Y-95252380D01*
X71214285Y-95252380D01*
X70357142Y-95252380D02*
X70357142Y-94252380D01*
X69976190Y-94252380D01*
X69880952Y-94300000D01*
X69833333Y-94347619D01*
X69785714Y-94442857D01*
X69785714Y-94585714D01*
X69833333Y-94680952D01*
X69880952Y-94728571D01*
X69976190Y-94776190D01*
X70357142Y-94776190D01*
X68833333Y-95252380D02*
X69404761Y-95252380D01*
X69119047Y-95252380D02*
X69119047Y-94252380D01*
X69214285Y-94395238D01*
X69309523Y-94490476D01*
X69404761Y-94538095D01*
X77028571Y-132300000D02*
X77219047Y-132204761D01*
X77504761Y-132204761D01*
X77790476Y-132300000D01*
X77980952Y-132490476D01*
X78076190Y-132680952D01*
X78171428Y-133061904D01*
X78171428Y-133347619D01*
X78076190Y-133728571D01*
X77980952Y-133919047D01*
X77790476Y-134109523D01*
X77504761Y-134204761D01*
X77314285Y-134204761D01*
X77028571Y-134109523D01*
X76933333Y-134014285D01*
X76933333Y-133347619D01*
X77314285Y-133347619D01*
X76076190Y-134204761D02*
X76076190Y-132204761D01*
X75314285Y-132204761D01*
X75123809Y-132300000D01*
X75028571Y-132395238D01*
X74933333Y-132585714D01*
X74933333Y-132871428D01*
X75028571Y-133061904D01*
X75123809Y-133157142D01*
X75314285Y-133252380D01*
X76076190Y-133252380D01*
X73123809Y-132204761D02*
X74076190Y-132204761D01*
X74171428Y-133157142D01*
X74076190Y-133061904D01*
X73885714Y-132966666D01*
X73409523Y-132966666D01*
X73219047Y-133061904D01*
X73123809Y-133157142D01*
X73028571Y-133347619D01*
X73028571Y-133823809D01*
X73123809Y-134014285D01*
X73219047Y-134109523D01*
X73409523Y-134204761D01*
X73885714Y-134204761D01*
X74076190Y-134109523D01*
X74171428Y-134014285D01*
X78528571Y-112100000D02*
X78719047Y-112004761D01*
X79004761Y-112004761D01*
X79290476Y-112100000D01*
X79480952Y-112290476D01*
X79576190Y-112480952D01*
X79671428Y-112861904D01*
X79671428Y-113147619D01*
X79576190Y-113528571D01*
X79480952Y-113719047D01*
X79290476Y-113909523D01*
X79004761Y-114004761D01*
X78814285Y-114004761D01*
X78528571Y-113909523D01*
X78433333Y-113814285D01*
X78433333Y-113147619D01*
X78814285Y-113147619D01*
X77576190Y-114004761D02*
X77576190Y-112004761D01*
X76814285Y-112004761D01*
X76623809Y-112100000D01*
X76528571Y-112195238D01*
X76433333Y-112385714D01*
X76433333Y-112671428D01*
X76528571Y-112861904D01*
X76623809Y-112957142D01*
X76814285Y-113052380D01*
X77576190Y-113052380D01*
X75766666Y-112004761D02*
X74528571Y-112004761D01*
X75195238Y-112766666D01*
X74909523Y-112766666D01*
X74719047Y-112861904D01*
X74623809Y-112957142D01*
X74528571Y-113147619D01*
X74528571Y-113623809D01*
X74623809Y-113814285D01*
X74719047Y-113909523D01*
X74909523Y-114004761D01*
X75480952Y-114004761D01*
X75671428Y-113909523D01*
X75766666Y-113814285D01*
X103828571Y-112100000D02*
X104019047Y-112004761D01*
X104304761Y-112004761D01*
X104590476Y-112100000D01*
X104780952Y-112290476D01*
X104876190Y-112480952D01*
X104971428Y-112861904D01*
X104971428Y-113147619D01*
X104876190Y-113528571D01*
X104780952Y-113719047D01*
X104590476Y-113909523D01*
X104304761Y-114004761D01*
X104114285Y-114004761D01*
X103828571Y-113909523D01*
X103733333Y-113814285D01*
X103733333Y-113147619D01*
X104114285Y-113147619D01*
X102876190Y-114004761D02*
X102876190Y-112004761D01*
X102114285Y-112004761D01*
X101923809Y-112100000D01*
X101828571Y-112195238D01*
X101733333Y-112385714D01*
X101733333Y-112671428D01*
X101828571Y-112861904D01*
X101923809Y-112957142D01*
X102114285Y-113052380D01*
X102876190Y-113052380D01*
X100019047Y-112671428D02*
X100019047Y-114004761D01*
X100495238Y-111909523D02*
X100971428Y-113338095D01*
X99733333Y-113338095D01*
X77428571Y-91000000D02*
X77619047Y-90904761D01*
X77904761Y-90904761D01*
X78190476Y-91000000D01*
X78380952Y-91190476D01*
X78476190Y-91380952D01*
X78571428Y-91761904D01*
X78571428Y-92047619D01*
X78476190Y-92428571D01*
X78380952Y-92619047D01*
X78190476Y-92809523D01*
X77904761Y-92904761D01*
X77714285Y-92904761D01*
X77428571Y-92809523D01*
X77333333Y-92714285D01*
X77333333Y-92047619D01*
X77714285Y-92047619D01*
X76476190Y-92904761D02*
X76476190Y-90904761D01*
X75714285Y-90904761D01*
X75523809Y-91000000D01*
X75428571Y-91095238D01*
X75333333Y-91285714D01*
X75333333Y-91571428D01*
X75428571Y-91761904D01*
X75523809Y-91857142D01*
X75714285Y-91952380D01*
X76476190Y-91952380D01*
X74571428Y-91095238D02*
X74476190Y-91000000D01*
X74285714Y-90904761D01*
X73809523Y-90904761D01*
X73619047Y-91000000D01*
X73523809Y-91095238D01*
X73428571Y-91285714D01*
X73428571Y-91476190D01*
X73523809Y-91761904D01*
X74666666Y-92904761D01*
X73428571Y-92904761D01*
X103428571Y-90886400D02*
X103619047Y-90791161D01*
X103904761Y-90791161D01*
X104190476Y-90886400D01*
X104380952Y-91076876D01*
X104476190Y-91267352D01*
X104571428Y-91648304D01*
X104571428Y-91934019D01*
X104476190Y-92314971D01*
X104380952Y-92505447D01*
X104190476Y-92695923D01*
X103904761Y-92791161D01*
X103714285Y-92791161D01*
X103428571Y-92695923D01*
X103333333Y-92600685D01*
X103333333Y-91934019D01*
X103714285Y-91934019D01*
X102476190Y-92791161D02*
X102476190Y-90791161D01*
X101714285Y-90791161D01*
X101523809Y-90886400D01*
X101428571Y-90981638D01*
X101333333Y-91172114D01*
X101333333Y-91457828D01*
X101428571Y-91648304D01*
X101523809Y-91743542D01*
X101714285Y-91838780D01*
X102476190Y-91838780D01*
X99428571Y-92791161D02*
X100571428Y-92791161D01*
X100000000Y-92791161D02*
X100000000Y-90791161D01*
X100190476Y-91076876D01*
X100380952Y-91267352D01*
X100571428Y-91362590D01*
X199619047Y-125857142D02*
X198952380Y-125857142D01*
X198666666Y-126904761D02*
X199619047Y-126904761D01*
X199619047Y-124904761D01*
X198666666Y-124904761D01*
X197809523Y-126904761D02*
X197809523Y-124904761D01*
X196666666Y-126904761D01*
X196666666Y-124904761D01*
X194571428Y-126714285D02*
X194666666Y-126809523D01*
X194952380Y-126904761D01*
X195142857Y-126904761D01*
X195428571Y-126809523D01*
X195619047Y-126619047D01*
X195714285Y-126428571D01*
X195809523Y-126047619D01*
X195809523Y-125761904D01*
X195714285Y-125380952D01*
X195619047Y-125190476D01*
X195428571Y-125000000D01*
X195142857Y-124904761D01*
X194952380Y-124904761D01*
X194666666Y-125000000D01*
X194571428Y-125095238D01*
X193714285Y-126142857D02*
X192190476Y-126142857D01*
X191428571Y-124904761D02*
X190095238Y-124904761D01*
X191428571Y-126904761D01*
X190095238Y-126904761D01*
X188285714Y-126904761D02*
X189428571Y-126904761D01*
X188857142Y-126904761D02*
X188857142Y-124904761D01*
X189047619Y-125190476D01*
X189238095Y-125380952D01*
X189428571Y-125476190D01*
X198373009Y-97732742D02*
X197706342Y-97732742D01*
X197420628Y-98780361D02*
X198373009Y-98780361D01*
X198373009Y-96780361D01*
X197420628Y-96780361D01*
X196563485Y-98780361D02*
X196563485Y-96780361D01*
X195420628Y-98780361D01*
X195420628Y-96780361D01*
X193325390Y-98589885D02*
X193420628Y-98685123D01*
X193706342Y-98780361D01*
X193896819Y-98780361D01*
X194182533Y-98685123D01*
X194373009Y-98494647D01*
X194468247Y-98304171D01*
X194563485Y-97923219D01*
X194563485Y-97637504D01*
X194468247Y-97256552D01*
X194373009Y-97066076D01*
X194182533Y-96875600D01*
X193896819Y-96780361D01*
X193706342Y-96780361D01*
X193420628Y-96875600D01*
X193325390Y-96970838D01*
X192468247Y-98018457D02*
X190944438Y-98018457D01*
X189611104Y-97827980D02*
X189611104Y-98780361D01*
X190277771Y-96780361D02*
X189611104Y-97827980D01*
X188944438Y-96780361D01*
X187230152Y-98780361D02*
X188373009Y-98780361D01*
X187801580Y-98780361D02*
X187801580Y-96780361D01*
X187992057Y-97066076D01*
X188182533Y-97256552D01*
X188373009Y-97351790D01*
X198473247Y-71203542D02*
X197806580Y-71203542D01*
X197520866Y-72251161D02*
X198473247Y-72251161D01*
X198473247Y-70251161D01*
X197520866Y-70251161D01*
X196663723Y-72251161D02*
X196663723Y-70251161D01*
X195520866Y-72251161D01*
X195520866Y-70251161D01*
X193425628Y-72060685D02*
X193520866Y-72155923D01*
X193806580Y-72251161D01*
X193997057Y-72251161D01*
X194282771Y-72155923D01*
X194473247Y-71965447D01*
X194568485Y-71774971D01*
X194663723Y-71394019D01*
X194663723Y-71108304D01*
X194568485Y-70727352D01*
X194473247Y-70536876D01*
X194282771Y-70346400D01*
X193997057Y-70251161D01*
X193806580Y-70251161D01*
X193520866Y-70346400D01*
X193425628Y-70441638D01*
X192568485Y-71489257D02*
X191044676Y-71489257D01*
X190282771Y-70251161D02*
X188949438Y-72251161D01*
X188949438Y-70251161D02*
X190282771Y-72251161D01*
X187139914Y-72251161D02*
X188282771Y-72251161D01*
X187711342Y-72251161D02*
X187711342Y-70251161D01*
X187901819Y-70536876D01*
X188092295Y-70727352D01*
X188282771Y-70822590D01*
X215000000Y-75428571D02*
X214904761Y-75238095D01*
X214904761Y-74952380D01*
X215000000Y-74666666D01*
X215190476Y-74476190D01*
X215380952Y-74380952D01*
X215761904Y-74285714D01*
X216047619Y-74285714D01*
X216428571Y-74380952D01*
X216619047Y-74476190D01*
X216809523Y-74666666D01*
X216904761Y-74952380D01*
X216904761Y-75142857D01*
X216809523Y-75428571D01*
X216714285Y-75523809D01*
X216047619Y-75523809D01*
X216047619Y-75142857D01*
X215857142Y-76380952D02*
X215857142Y-77047619D01*
X216904761Y-77333333D02*
X216904761Y-76380952D01*
X214904761Y-76380952D01*
X214904761Y-77333333D01*
X216714285Y-79333333D02*
X216809523Y-79238095D01*
X216904761Y-78952380D01*
X216904761Y-78761904D01*
X216809523Y-78476190D01*
X216619047Y-78285714D01*
X216428571Y-78190476D01*
X216047619Y-78095238D01*
X215761904Y-78095238D01*
X215380952Y-78190476D01*
X215190476Y-78285714D01*
X215000000Y-78476190D01*
X214904761Y-78761904D01*
X214904761Y-78952380D01*
X215000000Y-79238095D01*
X215095238Y-79333333D01*
X216904761Y-80190476D02*
X214904761Y-80190476D01*
X216904761Y-81333333D02*
X215761904Y-80476190D01*
X214904761Y-81333333D02*
X216047619Y-80190476D01*
X214904761Y-82571428D02*
X214904761Y-82952380D01*
X215000000Y-83142857D01*
X215190476Y-83333333D01*
X215571428Y-83428571D01*
X216238095Y-83428571D01*
X216619047Y-83333333D01*
X216809523Y-83142857D01*
X216904761Y-82952380D01*
X216904761Y-82571428D01*
X216809523Y-82380952D01*
X216619047Y-82190476D01*
X216238095Y-82095238D01*
X215571428Y-82095238D01*
X215190476Y-82190476D01*
X215000000Y-82380952D01*
X214904761Y-82571428D01*
X216142857Y-84285714D02*
X216142857Y-85809523D01*
X214904761Y-86571428D02*
X216904761Y-87904761D01*
X214904761Y-87904761D02*
X216904761Y-86571428D01*
X216904761Y-89714285D02*
X216904761Y-88571428D01*
X216904761Y-89142857D02*
X214904761Y-89142857D01*
X215190476Y-88952380D01*
X215380952Y-88761904D01*
X215476190Y-88571428D01*
X165440476Y-106458571D02*
X165107142Y-106458571D01*
X164964285Y-106982380D02*
X165440476Y-106982380D01*
X165440476Y-105982380D01*
X164964285Y-105982380D01*
X164535714Y-106601428D02*
X163773809Y-106601428D01*
X163345238Y-106934761D02*
X163202380Y-106982380D01*
X162964285Y-106982380D01*
X162869047Y-106934761D01*
X162821428Y-106887142D01*
X162773809Y-106791904D01*
X162773809Y-106696666D01*
X162821428Y-106601428D01*
X162869047Y-106553809D01*
X162964285Y-106506190D01*
X163154761Y-106458571D01*
X163250000Y-106410952D01*
X163297619Y-106363333D01*
X163345238Y-106268095D01*
X163345238Y-106172857D01*
X163297619Y-106077619D01*
X163250000Y-106030000D01*
X163154761Y-105982380D01*
X162916666Y-105982380D01*
X162773809Y-106030000D01*
X162488095Y-105982380D02*
X161916666Y-105982380D01*
X162202380Y-106982380D02*
X162202380Y-105982380D01*
X161392857Y-105982380D02*
X161202380Y-105982380D01*
X161107142Y-106030000D01*
X161011904Y-106125238D01*
X160964285Y-106315714D01*
X160964285Y-106649047D01*
X161011904Y-106839523D01*
X161107142Y-106934761D01*
X161202380Y-106982380D01*
X161392857Y-106982380D01*
X161488095Y-106934761D01*
X161583333Y-106839523D01*
X161630952Y-106649047D01*
X161630952Y-106315714D01*
X161583333Y-106125238D01*
X161488095Y-106030000D01*
X161392857Y-105982380D01*
X160535714Y-106982380D02*
X160535714Y-105982380D01*
X160154761Y-105982380D01*
X160059523Y-106030000D01*
X160011904Y-106077619D01*
X159964285Y-106172857D01*
X159964285Y-106315714D01*
X160011904Y-106410952D01*
X160059523Y-106458571D01*
X160154761Y-106506190D01*
X160535714Y-106506190D01*
X159630952Y-105982380D02*
X159011904Y-105982380D01*
X159345238Y-106363333D01*
X159202380Y-106363333D01*
X159107142Y-106410952D01*
X159059523Y-106458571D01*
X159011904Y-106553809D01*
X159011904Y-106791904D01*
X159059523Y-106887142D01*
X159107142Y-106934761D01*
X159202380Y-106982380D01*
X159488095Y-106982380D01*
X159583333Y-106934761D01*
X159630952Y-106887142D01*
X215000000Y-128428571D02*
X214904761Y-128238095D01*
X214904761Y-127952380D01*
X215000000Y-127666666D01*
X215190476Y-127476190D01*
X215380952Y-127380952D01*
X215761904Y-127285714D01*
X216047619Y-127285714D01*
X216428571Y-127380952D01*
X216619047Y-127476190D01*
X216809523Y-127666666D01*
X216904761Y-127952380D01*
X216904761Y-128142857D01*
X216809523Y-128428571D01*
X216714285Y-128523809D01*
X216047619Y-128523809D01*
X216047619Y-128142857D01*
X215857142Y-129380952D02*
X215857142Y-130047619D01*
X216904761Y-130333333D02*
X216904761Y-129380952D01*
X214904761Y-129380952D01*
X214904761Y-130333333D01*
X216714285Y-132333333D02*
X216809523Y-132238095D01*
X216904761Y-131952380D01*
X216904761Y-131761904D01*
X216809523Y-131476190D01*
X216619047Y-131285714D01*
X216428571Y-131190476D01*
X216047619Y-131095238D01*
X215761904Y-131095238D01*
X215380952Y-131190476D01*
X215190476Y-131285714D01*
X215000000Y-131476190D01*
X214904761Y-131761904D01*
X214904761Y-131952380D01*
X215000000Y-132238095D01*
X215095238Y-132333333D01*
X216904761Y-133190476D02*
X214904761Y-133190476D01*
X216904761Y-134333333D02*
X215761904Y-133476190D01*
X214904761Y-134333333D02*
X216047619Y-133190476D01*
X214904761Y-135571428D02*
X214904761Y-135952380D01*
X215000000Y-136142857D01*
X215190476Y-136333333D01*
X215571428Y-136428571D01*
X216238095Y-136428571D01*
X216619047Y-136333333D01*
X216809523Y-136142857D01*
X216904761Y-135952380D01*
X216904761Y-135571428D01*
X216809523Y-135380952D01*
X216619047Y-135190476D01*
X216238095Y-135095238D01*
X215571428Y-135095238D01*
X215190476Y-135190476D01*
X215000000Y-135380952D01*
X214904761Y-135571428D01*
X216142857Y-137285714D02*
X216142857Y-138809523D01*
X214904761Y-139571428D02*
X214904761Y-140904761D01*
X216904761Y-139571428D01*
X216904761Y-140904761D01*
X216904761Y-142714285D02*
X216904761Y-141571428D01*
X216904761Y-142142857D02*
X214904761Y-142142857D01*
X215190476Y-141952380D01*
X215380952Y-141761904D01*
X215476190Y-141571428D01*
X215000000Y-101523809D02*
X214904761Y-101333333D01*
X214904761Y-101047619D01*
X215000000Y-100761904D01*
X215190476Y-100571428D01*
X215380952Y-100476190D01*
X215761904Y-100380952D01*
X216047619Y-100380952D01*
X216428571Y-100476190D01*
X216619047Y-100571428D01*
X216809523Y-100761904D01*
X216904761Y-101047619D01*
X216904761Y-101238095D01*
X216809523Y-101523809D01*
X216714285Y-101619047D01*
X216047619Y-101619047D01*
X216047619Y-101238095D01*
X215857142Y-102476190D02*
X215857142Y-103142857D01*
X216904761Y-103428571D02*
X216904761Y-102476190D01*
X214904761Y-102476190D01*
X214904761Y-103428571D01*
X216714285Y-105428571D02*
X216809523Y-105333333D01*
X216904761Y-105047619D01*
X216904761Y-104857142D01*
X216809523Y-104571428D01*
X216619047Y-104380952D01*
X216428571Y-104285714D01*
X216047619Y-104190476D01*
X215761904Y-104190476D01*
X215380952Y-104285714D01*
X215190476Y-104380952D01*
X215000000Y-104571428D01*
X214904761Y-104857142D01*
X214904761Y-105047619D01*
X215000000Y-105333333D01*
X215095238Y-105428571D01*
X216904761Y-106285714D02*
X214904761Y-106285714D01*
X216904761Y-107428571D02*
X215761904Y-106571428D01*
X214904761Y-107428571D02*
X216047619Y-106285714D01*
X214904761Y-108666666D02*
X214904761Y-109047619D01*
X215000000Y-109238095D01*
X215190476Y-109428571D01*
X215571428Y-109523809D01*
X216238095Y-109523809D01*
X216619047Y-109428571D01*
X216809523Y-109238095D01*
X216904761Y-109047619D01*
X216904761Y-108666666D01*
X216809523Y-108476190D01*
X216619047Y-108285714D01*
X216238095Y-108190476D01*
X215571428Y-108190476D01*
X215190476Y-108285714D01*
X215000000Y-108476190D01*
X214904761Y-108666666D01*
X216142857Y-110380952D02*
X216142857Y-111904761D01*
X215952380Y-113238095D02*
X216904761Y-113238095D01*
X214904761Y-112571428D02*
X215952380Y-113238095D01*
X214904761Y-113904761D01*
X216904761Y-115619047D02*
X216904761Y-114476190D01*
X216904761Y-115047619D02*
X214904761Y-115047619D01*
X215190476Y-114857142D01*
X215380952Y-114666666D01*
X215476190Y-114476190D01*
X165440476Y-121133571D02*
X165107142Y-121133571D01*
X164964285Y-121657380D02*
X165440476Y-121657380D01*
X165440476Y-120657380D01*
X164964285Y-120657380D01*
X164535714Y-121276428D02*
X163773809Y-121276428D01*
X163345238Y-121609761D02*
X163202380Y-121657380D01*
X162964285Y-121657380D01*
X162869047Y-121609761D01*
X162821428Y-121562142D01*
X162773809Y-121466904D01*
X162773809Y-121371666D01*
X162821428Y-121276428D01*
X162869047Y-121228809D01*
X162964285Y-121181190D01*
X163154761Y-121133571D01*
X163250000Y-121085952D01*
X163297619Y-121038333D01*
X163345238Y-120943095D01*
X163345238Y-120847857D01*
X163297619Y-120752619D01*
X163250000Y-120705000D01*
X163154761Y-120657380D01*
X162916666Y-120657380D01*
X162773809Y-120705000D01*
X162488095Y-120657380D02*
X161916666Y-120657380D01*
X162202380Y-121657380D02*
X162202380Y-120657380D01*
X161392857Y-120657380D02*
X161202380Y-120657380D01*
X161107142Y-120705000D01*
X161011904Y-120800238D01*
X160964285Y-120990714D01*
X160964285Y-121324047D01*
X161011904Y-121514523D01*
X161107142Y-121609761D01*
X161202380Y-121657380D01*
X161392857Y-121657380D01*
X161488095Y-121609761D01*
X161583333Y-121514523D01*
X161630952Y-121324047D01*
X161630952Y-120990714D01*
X161583333Y-120800238D01*
X161488095Y-120705000D01*
X161392857Y-120657380D01*
X160535714Y-121657380D02*
X160535714Y-120657380D01*
X160154761Y-120657380D01*
X160059523Y-120705000D01*
X160011904Y-120752619D01*
X159964285Y-120847857D01*
X159964285Y-120990714D01*
X160011904Y-121085952D01*
X160059523Y-121133571D01*
X160154761Y-121181190D01*
X160535714Y-121181190D01*
X159583333Y-120752619D02*
X159535714Y-120705000D01*
X159440476Y-120657380D01*
X159202380Y-120657380D01*
X159107142Y-120705000D01*
X159059523Y-120752619D01*
X159011904Y-120847857D01*
X159011904Y-120943095D01*
X159059523Y-121085952D01*
X159630952Y-121657380D01*
X159011904Y-121657380D01*
X165440476Y-137233571D02*
X165107142Y-137233571D01*
X164964285Y-137757380D02*
X165440476Y-137757380D01*
X165440476Y-136757380D01*
X164964285Y-136757380D01*
X164535714Y-137376428D02*
X163773809Y-137376428D01*
X163345238Y-137709761D02*
X163202380Y-137757380D01*
X162964285Y-137757380D01*
X162869047Y-137709761D01*
X162821428Y-137662142D01*
X162773809Y-137566904D01*
X162773809Y-137471666D01*
X162821428Y-137376428D01*
X162869047Y-137328809D01*
X162964285Y-137281190D01*
X163154761Y-137233571D01*
X163250000Y-137185952D01*
X163297619Y-137138333D01*
X163345238Y-137043095D01*
X163345238Y-136947857D01*
X163297619Y-136852619D01*
X163250000Y-136805000D01*
X163154761Y-136757380D01*
X162916666Y-136757380D01*
X162773809Y-136805000D01*
X162488095Y-136757380D02*
X161916666Y-136757380D01*
X162202380Y-137757380D02*
X162202380Y-136757380D01*
X161392857Y-136757380D02*
X161202380Y-136757380D01*
X161107142Y-136805000D01*
X161011904Y-136900238D01*
X160964285Y-137090714D01*
X160964285Y-137424047D01*
X161011904Y-137614523D01*
X161107142Y-137709761D01*
X161202380Y-137757380D01*
X161392857Y-137757380D01*
X161488095Y-137709761D01*
X161583333Y-137614523D01*
X161630952Y-137424047D01*
X161630952Y-137090714D01*
X161583333Y-136900238D01*
X161488095Y-136805000D01*
X161392857Y-136757380D01*
X160535714Y-137757380D02*
X160535714Y-136757380D01*
X160154761Y-136757380D01*
X160059523Y-136805000D01*
X160011904Y-136852619D01*
X159964285Y-136947857D01*
X159964285Y-137090714D01*
X160011904Y-137185952D01*
X160059523Y-137233571D01*
X160154761Y-137281190D01*
X160535714Y-137281190D01*
X159011904Y-137757380D02*
X159583333Y-137757380D01*
X159297619Y-137757380D02*
X159297619Y-136757380D01*
X159392857Y-136900238D01*
X159488095Y-136995476D01*
X159583333Y-137043095D01*
X90714285Y-50452380D02*
X90714285Y-49452380D01*
X90476190Y-49452380D01*
X90333333Y-49500000D01*
X90238095Y-49595238D01*
X90190476Y-49690476D01*
X90142857Y-49880952D01*
X90142857Y-50023809D01*
X90190476Y-50214285D01*
X90238095Y-50309523D01*
X90333333Y-50404761D01*
X90476190Y-50452380D01*
X90714285Y-50452380D01*
X89380952Y-49928571D02*
X89238095Y-49976190D01*
X89190476Y-50023809D01*
X89142857Y-50119047D01*
X89142857Y-50261904D01*
X89190476Y-50357142D01*
X89238095Y-50404761D01*
X89333333Y-50452380D01*
X89714285Y-50452380D01*
X89714285Y-49452380D01*
X89380952Y-49452380D01*
X89285714Y-49500000D01*
X89238095Y-49547619D01*
X89190476Y-49642857D01*
X89190476Y-49738095D01*
X89238095Y-49833333D01*
X89285714Y-49880952D01*
X89380952Y-49928571D01*
X89714285Y-49928571D01*
X88761904Y-49547619D02*
X88714285Y-49500000D01*
X88619047Y-49452380D01*
X88380952Y-49452380D01*
X88285714Y-49500000D01*
X88238095Y-49547619D01*
X88190476Y-49642857D01*
X88190476Y-49738095D01*
X88238095Y-49880952D01*
X88809523Y-50452380D01*
X88190476Y-50452380D01*
X87285714Y-49452380D02*
X87761904Y-49452380D01*
X87809523Y-49928571D01*
X87761904Y-49880952D01*
X87666666Y-49833333D01*
X87428571Y-49833333D01*
X87333333Y-49880952D01*
X87285714Y-49928571D01*
X87238095Y-50023809D01*
X87238095Y-50261904D01*
X87285714Y-50357142D01*
X87333333Y-50404761D01*
X87428571Y-50452380D01*
X87666666Y-50452380D01*
X87761904Y-50404761D01*
X87809523Y-50357142D01*
X165508560Y-41113084D02*
X164508560Y-41113084D01*
X164508560Y-41351180D01*
X164556180Y-41494037D01*
X164651418Y-41589275D01*
X164746656Y-41636894D01*
X164937132Y-41684513D01*
X165079989Y-41684513D01*
X165270465Y-41636894D01*
X165365703Y-41589275D01*
X165460941Y-41494037D01*
X165508560Y-41351180D01*
X165508560Y-41113084D01*
X164603799Y-42065465D02*
X164556180Y-42113084D01*
X164508560Y-42208322D01*
X164508560Y-42446418D01*
X164556180Y-42541656D01*
X164603799Y-42589275D01*
X164699037Y-42636894D01*
X164794275Y-42636894D01*
X164937132Y-42589275D01*
X165508560Y-42017846D01*
X165508560Y-42636894D01*
X169956860Y-41113084D02*
X168956860Y-41113084D01*
X168956860Y-41351180D01*
X169004480Y-41494037D01*
X169099718Y-41589275D01*
X169194956Y-41636894D01*
X169385432Y-41684513D01*
X169528289Y-41684513D01*
X169718765Y-41636894D01*
X169814003Y-41589275D01*
X169909241Y-41494037D01*
X169956860Y-41351180D01*
X169956860Y-41113084D01*
X169956860Y-42636894D02*
X169956860Y-42065465D01*
X169956860Y-42351180D02*
X168956860Y-42351180D01*
X169099718Y-42255941D01*
X169194956Y-42160703D01*
X169242575Y-42065465D01*
M02*
