M48
; DRILL file {KiCad (5.1.4-0-10_14)} date Monday, April 27, 2020 at 10:11:30 AM
; FORMAT={-:-/ absolute / inch / decimal}
; #@! TF.CreationDate,2020-04-27T10:11:30-04:00
; #@! TF.GenerationSoftware,Kicad,Pcbnew,(5.1.4-0-10_14)
; #@! TF.FileFunction,NonPlated,1,4,NPTH
FMAT,2
INCH
T1C0.1063
T2C0.1280
%
G90
G05
T1
X9.5556Y-5.7953
X1.8937Y-1.6024
X9.5556Y-1.6024
X1.8937Y-5.7953
T2
X3.5983Y-4.2433
X4.0983Y-4.2433
X2.5772Y-5.0336
X3.0772Y-5.0336
X2.5831Y-3.4236
X3.0831Y-3.4236
X2.5696Y-4.2422
X3.0696Y-4.2422
X3.6018Y-3.4236
X4.1018Y-3.4236
X7.6233Y-5.44
X8.1233Y-5.44
X7.6248Y-4.3614
X8.1248Y-4.3614
X7.625Y-3.3169
X8.125Y-3.3169
T0
M30
