G04 #@! TF.GenerationSoftware,KiCad,Pcbnew,(5.1.4-0-10_14)*
G04 #@! TF.CreationDate,2020-04-27T10:11:37-04:00*
G04 #@! TF.ProjectId,laser_card,6c617365-725f-4636-9172-642e6b696361,rev?*
G04 #@! TF.SameCoordinates,Original*
G04 #@! TF.FileFunction,Profile,NP*
%FSLAX46Y46*%
G04 Gerber Fmt 4.6, Leading zero omitted, Abs format (unit mm)*
G04 Created by KiCad (PCBNEW (5.1.4-0-10_14)) date 2020-04-27 10:11:37*
%MOMM*%
%LPD*%
G04 APERTURE LIST*
%ADD10C,0.080000*%
G04 APERTURE END LIST*
D10*
X243464394Y-37579132D02*
X243464902Y-37579132D01*
X242868256Y-37520712D02*
X243464394Y-37579132D01*
X242866224Y-37520457D02*
X242868256Y-37520712D01*
X232880214Y-37516393D02*
X242866224Y-37520457D01*
X57892837Y-37516393D02*
X232880214Y-37516393D01*
X47906574Y-37520457D02*
X57892837Y-37516393D01*
X47905049Y-37520712D02*
X47906574Y-37520457D01*
X47358950Y-37569733D02*
X47905049Y-37520712D01*
X47352092Y-37570750D02*
X47358950Y-37569733D01*
X47351583Y-37571004D02*
X47352092Y-37570750D01*
X46775258Y-37734580D02*
X47351583Y-37571004D01*
X46771956Y-37735850D02*
X46775258Y-37734580D01*
X46768400Y-37737120D02*
X46771956Y-37735850D01*
X46234492Y-38009916D02*
X46768400Y-37737120D01*
X46231444Y-38011947D02*
X46234492Y-38009916D01*
X46228395Y-38013725D02*
X46231444Y-38011947D01*
X46227888Y-38014234D02*
X46228395Y-38013725D01*
X45757480Y-38385074D02*
X46227888Y-38014234D01*
X45752145Y-38389899D02*
X45757480Y-38385074D01*
X45751892Y-38390408D02*
X45752145Y-38389899D01*
X45362510Y-38845576D02*
X45751892Y-38390408D01*
X45358192Y-38851417D02*
X45362510Y-38845576D01*
X45357937Y-38851926D02*
X45358192Y-38851417D01*
X45064313Y-39374150D02*
X45357937Y-38851926D01*
X45062790Y-39377451D02*
X45064313Y-39374150D01*
X45061519Y-39380753D02*
X45062790Y-39377451D01*
X45061266Y-39381262D02*
X45061519Y-39380753D01*
X44874576Y-39950476D02*
X45061266Y-39381262D01*
X44873051Y-39957587D02*
X44874576Y-39950476D01*
X44873051Y-39958095D02*
X44873051Y-39957587D01*
X44800408Y-40552709D02*
X44873051Y-39958095D01*
X44800408Y-40556266D02*
X44800408Y-40552709D01*
X44800154Y-40560076D02*
X44800408Y-40556266D01*
X44800408Y-40560584D02*
X44800154Y-40560076D01*
X44844603Y-41157992D02*
X44800408Y-40560584D01*
X44845366Y-41161548D02*
X44844603Y-41157992D01*
X243464902Y-37579132D02*
X243472014Y-37580655D01*
X244582248Y-38038364D02*
X244585042Y-38040395D01*
X244581740Y-38038109D02*
X244582248Y-38038364D01*
X244052658Y-37756678D02*
X244581740Y-38038109D01*
X244049356Y-37755407D02*
X244052658Y-37756678D01*
X244046054Y-37753884D02*
X244049356Y-37755407D01*
X245052402Y-38420887D02*
X245057990Y-38426476D01*
X244588090Y-38042428D02*
X245052402Y-38420887D01*
X244585042Y-38040395D02*
X244588090Y-38042428D01*
X244045546Y-37753884D02*
X244046054Y-37753884D01*
X243472014Y-37580655D02*
X244045546Y-37753884D01*
X245491822Y-145440486D02*
X245492076Y-145440740D01*
X245124284Y-144967283D02*
X245491822Y-145440486D01*
X245118696Y-144961696D02*
X245124284Y-144967283D01*
X244666322Y-144569011D02*
X245118696Y-144961696D01*
X45651308Y-42767843D02*
X45648767Y-42765304D01*
X45653847Y-42770637D02*
X45651308Y-42767843D01*
X45654102Y-42770892D02*
X45653847Y-42770637D01*
X46106730Y-43163576D02*
X45654102Y-42770892D01*
X46109524Y-43165608D02*
X46106730Y-43163576D01*
X46112572Y-43167640D02*
X46109524Y-43165608D01*
X45006909Y-41746256D02*
X45005640Y-41742954D01*
X45008179Y-41749812D02*
X45006909Y-41746256D01*
X45277166Y-42285752D02*
X45008179Y-41749812D01*
X45278944Y-42288800D02*
X45277166Y-42285752D01*
X45280976Y-42291848D02*
X45278944Y-42288800D01*
X45281230Y-42292355D02*
X45280976Y-42291848D01*
X45648767Y-42765304D02*
X45281230Y-42292355D01*
X245900000Y-147774491D02*
X245900000Y-147775000D01*
X245972644Y-147179878D02*
X245900000Y-147774491D01*
X245972644Y-147176322D02*
X245972644Y-147179878D01*
X245972898Y-147172766D02*
X245972644Y-147176322D01*
X245972644Y-147172003D02*
X245972898Y-147172766D01*
X245928448Y-146574850D02*
X245972644Y-147172003D01*
X245927686Y-146571039D02*
X245928448Y-146574850D01*
X245927178Y-146567484D02*
X245927686Y-146571039D01*
X245926924Y-146566976D02*
X245927178Y-146567484D01*
X245767412Y-145989634D02*
X245926924Y-146566976D01*
X245766142Y-145986331D02*
X245767412Y-145989634D01*
X245764872Y-145982775D02*
X245766142Y-145986331D01*
X245495886Y-145447089D02*
X245764872Y-145982775D01*
X245494108Y-145444042D02*
X245495886Y-145447089D01*
X245492076Y-145440740D02*
X245494108Y-145444042D01*
X46634796Y-144266497D02*
X57791745Y-139264222D01*
X46633271Y-144267260D02*
X46634796Y-144266497D01*
X46154989Y-144535484D02*
X46633271Y-144267260D01*
X46152196Y-144537262D02*
X46154989Y-144535484D01*
X46149402Y-144539293D02*
X46152196Y-144537262D01*
X46148894Y-144539548D02*
X46149402Y-144539293D01*
X45689916Y-144924612D02*
X46148894Y-144539548D01*
X45687376Y-144927406D02*
X45689916Y-144924612D01*
X45684582Y-144930199D02*
X45687376Y-144927406D01*
X45309170Y-145397051D02*
X45684582Y-144930199D01*
X45305106Y-145403148D02*
X45309170Y-145397051D01*
X45304852Y-145403655D02*
X45305106Y-145403148D01*
X45027484Y-145934515D02*
X45304852Y-145403655D01*
X45025959Y-145937818D02*
X45027484Y-145934515D01*
X45024690Y-145941119D02*
X45025959Y-145937818D01*
X46113079Y-43168148D02*
X46112572Y-43167640D01*
X46634796Y-43466344D02*
X46113079Y-43168148D01*
X57791745Y-48468366D02*
X46634796Y-43466344D01*
X57791745Y-139264222D02*
X57791745Y-48468366D01*
X244663274Y-144566979D02*
X244666322Y-144569011D01*
X244660480Y-144564947D02*
X244663274Y-144566979D01*
X244659972Y-144564694D02*
X244660480Y-144564947D01*
X244139907Y-144267260D02*
X244659972Y-144564694D01*
X244138256Y-144266497D02*
X244139907Y-144267260D01*
X232981052Y-139264222D02*
X244138256Y-144266497D01*
X232981052Y-48468366D02*
X232981052Y-139264222D01*
X244138256Y-43466344D02*
X232981052Y-48468366D01*
X244139780Y-43465328D02*
X244138256Y-43466344D01*
X244618062Y-43197358D02*
X244139780Y-43465328D01*
X244623650Y-43193294D02*
X244618062Y-43197358D01*
X244624158Y-43193039D02*
X244623650Y-43193294D01*
X245083136Y-42807976D02*
X244624158Y-43193039D01*
X245088216Y-42802895D02*
X245083136Y-42807976D01*
X245088470Y-42802388D02*
X245088216Y-42802895D01*
X245463882Y-42335535D02*
X245088470Y-42802388D01*
X245467946Y-42329439D02*
X245463882Y-42335535D01*
X245468200Y-42328932D02*
X245467946Y-42329439D01*
X245745568Y-41798072D02*
X245468200Y-42328932D01*
X245747092Y-41794770D02*
X245745568Y-41798072D01*
X245748362Y-41791468D02*
X245747092Y-41794770D01*
X245748616Y-41790959D02*
X245748362Y-41791468D01*
X245917780Y-41216158D02*
X245748616Y-41790959D01*
X245918288Y-41212602D02*
X245917780Y-41216158D01*
X245919050Y-41209046D02*
X245918288Y-41212602D01*
X245919050Y-41208537D02*
X245919050Y-41209046D01*
X245973406Y-40612145D02*
X245919050Y-41208537D01*
X245973406Y-40604272D02*
X245973406Y-40612145D01*
X245910922Y-40008387D02*
X245973406Y-40604272D01*
X245909398Y-40001276D02*
X245910922Y-40008387D01*
X245909144Y-40000768D02*
X245909398Y-40001276D01*
X245732106Y-39428506D02*
X245909144Y-40000768D01*
X245730582Y-39425204D02*
X245732106Y-39428506D01*
X245729312Y-39421902D02*
X245730582Y-39425204D01*
X245729058Y-39421394D02*
X245729312Y-39421902D01*
X245444070Y-38894343D02*
X245729058Y-39421394D01*
X245442038Y-38891295D02*
X245444070Y-38894343D01*
X245440260Y-38888501D02*
X245442038Y-38891295D01*
X245439752Y-38887994D02*
X245440260Y-38888501D01*
X245057990Y-38426476D02*
X245439752Y-38887994D01*
X44845874Y-41165104D02*
X44845366Y-41161548D01*
X44846128Y-41165611D02*
X44845874Y-41165104D01*
X45005640Y-41742954D02*
X44846128Y-41165611D01*
X45024436Y-145941627D02*
X45024690Y-145941119D01*
X44855272Y-146516429D02*
X45024436Y-145941627D01*
X44854509Y-146519986D02*
X44855272Y-146516429D01*
X44854002Y-146523542D02*
X44854509Y-146519986D01*
X44853748Y-146524050D02*
X44854002Y-146523542D01*
X44799646Y-147120696D02*
X44853748Y-146524050D01*
X44799646Y-147128316D02*
X44799646Y-147120696D01*
X44862130Y-147724200D02*
X44799646Y-147128316D01*
X44863653Y-147731312D02*
X44862130Y-147724200D01*
X44863908Y-147731819D02*
X44863653Y-147731312D01*
X45040945Y-148304082D02*
X44863908Y-147731819D01*
X45042470Y-148307383D02*
X45040945Y-148304082D01*
X45043740Y-148310686D02*
X45042470Y-148307383D01*
X45043993Y-148311194D02*
X45043740Y-148310686D01*
X45328982Y-148838244D02*
X45043993Y-148311194D01*
X45331013Y-148841291D02*
X45328982Y-148838244D01*
X45332791Y-148844340D02*
X45331013Y-148841291D01*
X45333300Y-148844594D02*
X45332791Y-148844340D01*
X45715061Y-149306111D02*
X45333300Y-148844594D01*
X45717602Y-149308652D02*
X45715061Y-149306111D01*
X45720141Y-149311446D02*
X45717602Y-149308652D01*
X45720650Y-149311700D02*
X45720141Y-149311446D01*
X46184708Y-149690414D02*
X45720650Y-149311700D01*
X46190804Y-149694478D02*
X46184708Y-149690414D01*
X46191311Y-149694732D02*
X46190804Y-149694478D01*
X46720140Y-149975910D02*
X46191311Y-149694732D01*
X46723696Y-149977179D02*
X46720140Y-149975910D01*
X46726998Y-149978704D02*
X46723696Y-149977179D01*
X46727505Y-149978957D02*
X46726998Y-149978704D01*
X47301037Y-150151932D02*
X46727505Y-149978957D01*
X47308149Y-150153455D02*
X47301037Y-150151932D01*
X47308658Y-150153455D02*
X47308149Y-150153455D01*
X47904542Y-150211876D02*
X47308658Y-150153455D01*
X47906574Y-150212130D02*
X47904542Y-150211876D01*
X57892837Y-150216193D02*
X47906574Y-150212130D01*
X232874626Y-150216193D02*
X57892837Y-150216193D01*
X232877166Y-150216702D02*
X232874626Y-150216193D01*
X232879452Y-150216702D02*
X232877166Y-150216702D01*
X232881738Y-150216956D02*
X232879452Y-150216702D01*
X232883262Y-150216702D02*
X232881738Y-150216956D01*
X232885040Y-150216702D02*
X232883262Y-150216702D01*
X232887326Y-150216193D02*
X232885040Y-150216702D01*
X242866224Y-150212130D02*
X232887326Y-150216193D01*
X242868002Y-150211876D02*
X242866224Y-150212130D01*
X243414102Y-150163108D02*
X242868002Y-150211876D01*
X243417658Y-150162345D02*
X243414102Y-150163108D01*
X243420960Y-150161838D02*
X243417658Y-150162345D01*
X243421468Y-150161584D02*
X243420960Y-150161838D01*
X243997794Y-149998008D02*
X243421468Y-150161584D01*
X244001096Y-149996738D02*
X243997794Y-149998008D01*
X244004652Y-149995468D02*
X244001096Y-149996738D01*
X244538560Y-149722672D02*
X244004652Y-149995468D01*
X244541608Y-149720893D02*
X244538560Y-149722672D01*
X244544656Y-149718862D02*
X244541608Y-149720893D01*
X244545164Y-149718608D02*
X244544656Y-149718862D01*
X245015572Y-149347768D02*
X244545164Y-149718608D01*
X245018112Y-149345228D02*
X245015572Y-149347768D01*
X245020906Y-149342688D02*
X245018112Y-149345228D01*
X245021160Y-149342179D02*
X245020906Y-149342688D01*
X245410542Y-148887012D02*
X245021160Y-149342179D01*
X245414860Y-148881170D02*
X245410542Y-148887012D01*
X245415114Y-148880662D02*
X245414860Y-148881170D01*
X245708738Y-148358438D02*
X245415114Y-148880662D01*
X245710262Y-148355136D02*
X245708738Y-148358438D01*
X245711532Y-148351834D02*
X245710262Y-148355136D01*
X245711786Y-148351326D02*
X245711532Y-148351834D01*
X245898476Y-147782112D02*
X245711786Y-148351326D01*
X245900000Y-147775000D02*
X245898476Y-147782112D01*
M02*
