G04 #@! TF.GenerationSoftware,KiCad,Pcbnew,(5.1.4-0-10_14)*
G04 #@! TF.CreationDate,2020-04-27T10:11:36-04:00*
G04 #@! TF.ProjectId,laser_card,6c617365-725f-4636-9172-642e6b696361,rev?*
G04 #@! TF.SameCoordinates,Original*
G04 #@! TF.FileFunction,Paste,Bot*
G04 #@! TF.FilePolarity,Positive*
%FSLAX46Y46*%
G04 Gerber Fmt 4.6, Leading zero omitted, Abs format (unit mm)*
G04 Created by KiCad (PCBNEW (5.1.4-0-10_14)) date 2020-04-27 10:11:36*
%MOMM*%
%LPD*%
G04 APERTURE LIST*
%ADD10C,0.100000*%
%ADD11C,0.975000*%
G04 APERTURE END LIST*
D10*
G36*
X167186322Y-42302354D02*
G01*
X167209983Y-42305864D01*
X167233187Y-42311676D01*
X167255709Y-42319734D01*
X167277333Y-42329962D01*
X167297850Y-42342259D01*
X167317063Y-42356509D01*
X167334787Y-42372573D01*
X167350851Y-42390297D01*
X167365101Y-42409510D01*
X167377398Y-42430027D01*
X167387626Y-42451651D01*
X167395684Y-42474173D01*
X167401496Y-42497377D01*
X167405006Y-42521038D01*
X167406180Y-42544930D01*
X167406180Y-43032430D01*
X167405006Y-43056322D01*
X167401496Y-43079983D01*
X167395684Y-43103187D01*
X167387626Y-43125709D01*
X167377398Y-43147333D01*
X167365101Y-43167850D01*
X167350851Y-43187063D01*
X167334787Y-43204787D01*
X167317063Y-43220851D01*
X167297850Y-43235101D01*
X167277333Y-43247398D01*
X167255709Y-43257626D01*
X167233187Y-43265684D01*
X167209983Y-43271496D01*
X167186322Y-43275006D01*
X167162430Y-43276180D01*
X166249930Y-43276180D01*
X166226038Y-43275006D01*
X166202377Y-43271496D01*
X166179173Y-43265684D01*
X166156651Y-43257626D01*
X166135027Y-43247398D01*
X166114510Y-43235101D01*
X166095297Y-43220851D01*
X166077573Y-43204787D01*
X166061509Y-43187063D01*
X166047259Y-43167850D01*
X166034962Y-43147333D01*
X166024734Y-43125709D01*
X166016676Y-43103187D01*
X166010864Y-43079983D01*
X166007354Y-43056322D01*
X166006180Y-43032430D01*
X166006180Y-42544930D01*
X166007354Y-42521038D01*
X166010864Y-42497377D01*
X166016676Y-42474173D01*
X166024734Y-42451651D01*
X166034962Y-42430027D01*
X166047259Y-42409510D01*
X166061509Y-42390297D01*
X166077573Y-42372573D01*
X166095297Y-42356509D01*
X166114510Y-42342259D01*
X166135027Y-42329962D01*
X166156651Y-42319734D01*
X166179173Y-42311676D01*
X166202377Y-42305864D01*
X166226038Y-42302354D01*
X166249930Y-42301180D01*
X167162430Y-42301180D01*
X167186322Y-42302354D01*
X167186322Y-42302354D01*
G37*
D11*
X166706180Y-42788680D03*
D10*
G36*
X167186322Y-40427354D02*
G01*
X167209983Y-40430864D01*
X167233187Y-40436676D01*
X167255709Y-40444734D01*
X167277333Y-40454962D01*
X167297850Y-40467259D01*
X167317063Y-40481509D01*
X167334787Y-40497573D01*
X167350851Y-40515297D01*
X167365101Y-40534510D01*
X167377398Y-40555027D01*
X167387626Y-40576651D01*
X167395684Y-40599173D01*
X167401496Y-40622377D01*
X167405006Y-40646038D01*
X167406180Y-40669930D01*
X167406180Y-41157430D01*
X167405006Y-41181322D01*
X167401496Y-41204983D01*
X167395684Y-41228187D01*
X167387626Y-41250709D01*
X167377398Y-41272333D01*
X167365101Y-41292850D01*
X167350851Y-41312063D01*
X167334787Y-41329787D01*
X167317063Y-41345851D01*
X167297850Y-41360101D01*
X167277333Y-41372398D01*
X167255709Y-41382626D01*
X167233187Y-41390684D01*
X167209983Y-41396496D01*
X167186322Y-41400006D01*
X167162430Y-41401180D01*
X166249930Y-41401180D01*
X166226038Y-41400006D01*
X166202377Y-41396496D01*
X166179173Y-41390684D01*
X166156651Y-41382626D01*
X166135027Y-41372398D01*
X166114510Y-41360101D01*
X166095297Y-41345851D01*
X166077573Y-41329787D01*
X166061509Y-41312063D01*
X166047259Y-41292850D01*
X166034962Y-41272333D01*
X166024734Y-41250709D01*
X166016676Y-41228187D01*
X166010864Y-41204983D01*
X166007354Y-41181322D01*
X166006180Y-41157430D01*
X166006180Y-40669930D01*
X166007354Y-40646038D01*
X166010864Y-40622377D01*
X166016676Y-40599173D01*
X166024734Y-40576651D01*
X166034962Y-40555027D01*
X166047259Y-40534510D01*
X166061509Y-40515297D01*
X166077573Y-40497573D01*
X166095297Y-40481509D01*
X166114510Y-40467259D01*
X166135027Y-40454962D01*
X166156651Y-40444734D01*
X166179173Y-40436676D01*
X166202377Y-40430864D01*
X166226038Y-40427354D01*
X166249930Y-40426180D01*
X167162430Y-40426180D01*
X167186322Y-40427354D01*
X167186322Y-40427354D01*
G37*
D11*
X166706180Y-40913680D03*
D10*
G36*
X171634622Y-42302354D02*
G01*
X171658283Y-42305864D01*
X171681487Y-42311676D01*
X171704009Y-42319734D01*
X171725633Y-42329962D01*
X171746150Y-42342259D01*
X171765363Y-42356509D01*
X171783087Y-42372573D01*
X171799151Y-42390297D01*
X171813401Y-42409510D01*
X171825698Y-42430027D01*
X171835926Y-42451651D01*
X171843984Y-42474173D01*
X171849796Y-42497377D01*
X171853306Y-42521038D01*
X171854480Y-42544930D01*
X171854480Y-43032430D01*
X171853306Y-43056322D01*
X171849796Y-43079983D01*
X171843984Y-43103187D01*
X171835926Y-43125709D01*
X171825698Y-43147333D01*
X171813401Y-43167850D01*
X171799151Y-43187063D01*
X171783087Y-43204787D01*
X171765363Y-43220851D01*
X171746150Y-43235101D01*
X171725633Y-43247398D01*
X171704009Y-43257626D01*
X171681487Y-43265684D01*
X171658283Y-43271496D01*
X171634622Y-43275006D01*
X171610730Y-43276180D01*
X170698230Y-43276180D01*
X170674338Y-43275006D01*
X170650677Y-43271496D01*
X170627473Y-43265684D01*
X170604951Y-43257626D01*
X170583327Y-43247398D01*
X170562810Y-43235101D01*
X170543597Y-43220851D01*
X170525873Y-43204787D01*
X170509809Y-43187063D01*
X170495559Y-43167850D01*
X170483262Y-43147333D01*
X170473034Y-43125709D01*
X170464976Y-43103187D01*
X170459164Y-43079983D01*
X170455654Y-43056322D01*
X170454480Y-43032430D01*
X170454480Y-42544930D01*
X170455654Y-42521038D01*
X170459164Y-42497377D01*
X170464976Y-42474173D01*
X170473034Y-42451651D01*
X170483262Y-42430027D01*
X170495559Y-42409510D01*
X170509809Y-42390297D01*
X170525873Y-42372573D01*
X170543597Y-42356509D01*
X170562810Y-42342259D01*
X170583327Y-42329962D01*
X170604951Y-42319734D01*
X170627473Y-42311676D01*
X170650677Y-42305864D01*
X170674338Y-42302354D01*
X170698230Y-42301180D01*
X171610730Y-42301180D01*
X171634622Y-42302354D01*
X171634622Y-42302354D01*
G37*
D11*
X171154480Y-42788680D03*
D10*
G36*
X171634622Y-40427354D02*
G01*
X171658283Y-40430864D01*
X171681487Y-40436676D01*
X171704009Y-40444734D01*
X171725633Y-40454962D01*
X171746150Y-40467259D01*
X171765363Y-40481509D01*
X171783087Y-40497573D01*
X171799151Y-40515297D01*
X171813401Y-40534510D01*
X171825698Y-40555027D01*
X171835926Y-40576651D01*
X171843984Y-40599173D01*
X171849796Y-40622377D01*
X171853306Y-40646038D01*
X171854480Y-40669930D01*
X171854480Y-41157430D01*
X171853306Y-41181322D01*
X171849796Y-41204983D01*
X171843984Y-41228187D01*
X171835926Y-41250709D01*
X171825698Y-41272333D01*
X171813401Y-41292850D01*
X171799151Y-41312063D01*
X171783087Y-41329787D01*
X171765363Y-41345851D01*
X171746150Y-41360101D01*
X171725633Y-41372398D01*
X171704009Y-41382626D01*
X171681487Y-41390684D01*
X171658283Y-41396496D01*
X171634622Y-41400006D01*
X171610730Y-41401180D01*
X170698230Y-41401180D01*
X170674338Y-41400006D01*
X170650677Y-41396496D01*
X170627473Y-41390684D01*
X170604951Y-41382626D01*
X170583327Y-41372398D01*
X170562810Y-41360101D01*
X170543597Y-41345851D01*
X170525873Y-41329787D01*
X170509809Y-41312063D01*
X170495559Y-41292850D01*
X170483262Y-41272333D01*
X170473034Y-41250709D01*
X170464976Y-41228187D01*
X170459164Y-41204983D01*
X170455654Y-41181322D01*
X170454480Y-41157430D01*
X170454480Y-40669930D01*
X170455654Y-40646038D01*
X170459164Y-40622377D01*
X170464976Y-40599173D01*
X170473034Y-40576651D01*
X170483262Y-40555027D01*
X170495559Y-40534510D01*
X170509809Y-40515297D01*
X170525873Y-40497573D01*
X170543597Y-40481509D01*
X170562810Y-40467259D01*
X170583327Y-40454962D01*
X170604951Y-40444734D01*
X170627473Y-40436676D01*
X170650677Y-40430864D01*
X170674338Y-40427354D01*
X170698230Y-40426180D01*
X171610730Y-40426180D01*
X171634622Y-40427354D01*
X171634622Y-40427354D01*
G37*
D11*
X171154480Y-40913680D03*
M02*
