M48
; DRILL file {KiCad (5.1.4-0-10_14)} date Monday, April 27, 2020 at 10:11:30 AM
; FORMAT={-:-/ absolute / inch / decimal}
; #@! TF.CreationDate,2020-04-27T10:11:30-04:00
; #@! TF.GenerationSoftware,Kicad,Pcbnew,(5.1.4-0-10_14)
; #@! TF.FileFunction,Plated,1,4,PTH
FMAT,2
INCH
T1C0.0157
T2C0.0276
T3C0.0315
T4C0.0315
T5C0.0335
T6C0.0350
T7C0.0394
T8C0.0400
T9C0.0618
T10C0.1260
%
G90
G05
T1
X2.4465Y-2.8228
X2.459Y-2.7123
X2.5866Y-5.2756
X2.8012Y-1.7334
X2.8386Y-4.5217
X2.8425Y-3.6988
X2.9375Y-2.9073
X3.0604Y-2.3709
X3.087Y-2.6283
X3.307Y-2.1274
X3.3448Y-2.6834
X3.5594Y-2.4262
X3.6732Y-4.4843
X3.6772Y-3.6614
X3.8178Y-2.8192
X3.8885Y-2.1453
X4.0045Y-2.1478
X4.2559Y-5.2992
X4.4409Y-5.2992
X5.411Y-2.5773
X5.5265Y-2.6305
X5.5405Y-2.1783
X5.6215Y-1.8348
X5.667Y-2.6543
X5.7165Y-2.4685
X5.754Y-2.0908
X5.788Y-2.9413
X5.789Y-2.7533
X5.789Y-3.0508
X5.7953Y-3.3346
X5.8045Y-2.0308
X5.835Y-1.9318
X5.853Y-2.0908
X5.9764Y-5.3071
X6.038Y-2.6193
X6.0475Y-2.3233
X6.116Y-1.8983
X6.1655Y-2.9023
X6.2205Y-2.1723
X6.3634Y-2.7108
X6.383Y-2.775
X6.4961Y-1.6535
X6.5285Y-2.6211
X6.6476Y-2.5866
X6.7717Y-2.0866
X6.784Y-2.775
X6.8003Y-1.8504
X6.803Y-2.8836
X7.9134Y-1.811
T2
X3.8976Y-2.5197
T3
X8.0241Y-2.2362
X8.0241Y-2.3346
X7.1146Y-3.097
X7.1146Y-3.1954
T4
X8.2839Y-2.0276
X8.2839Y-2.3276
X8.5839Y-2.3276
X8.7839Y-2.0276
X8.7839Y-2.3276
T5
X7.002Y-1.7098
X7.0029Y-2.4421
X7.1024Y-1.7098
X7.1033Y-2.4421
X7.4222Y-1.7089
X7.4232Y-2.4421
X7.5226Y-1.7098
X7.5226Y-2.4421
T6
X7.856Y-4.3394
X7.9363Y-4.3394
X8.0166Y-4.3394
X3.7071Y-4.1093
X3.7492Y-4.2213
X3.7874Y-4.1093
X3.8295Y-4.2213
X3.8677Y-4.1093
X3.9098Y-4.2213
X3.948Y-4.1093
X3.9902Y-4.2213
X7.7335Y-4.2275
X7.7757Y-4.3394
X7.8139Y-4.2275
X7.8942Y-4.2275
X7.9745Y-4.2275
X7.7337Y-3.183
X7.7759Y-3.2949
X7.8141Y-3.183
X7.8562Y-3.2949
X7.8944Y-3.183
X7.9365Y-3.2949
X7.9747Y-3.183
X8.0168Y-3.2949
X2.6859Y-4.8997
X2.734Y-3.4016
X2.8143Y-3.4016
X2.8946Y-3.4016
X2.9749Y-3.4016
X2.8084Y-5.0116
X2.8466Y-4.8997
X2.8887Y-5.0116
X2.969Y-5.0116
X2.6918Y-3.2897
X2.7722Y-3.2897
X2.8525Y-3.2897
X2.7281Y-5.0116
X2.7663Y-4.8997
X2.9328Y-3.2897
X2.9269Y-4.8997
X2.6783Y-4.1083
X2.7205Y-4.2202
X7.8124Y-5.3061
X3.7105Y-3.2897
X3.7527Y-3.4016
X3.7909Y-3.2897
X3.833Y-3.4016
X3.8712Y-3.2897
X3.9133Y-3.4016
X3.9515Y-3.2897
X3.9936Y-3.4016
X7.7321Y-5.3061
X7.7742Y-5.418
X7.8546Y-5.418
X7.8927Y-5.3061
X7.9349Y-5.418
X7.973Y-5.3061
X8.0152Y-5.418
X2.7587Y-4.1083
X2.8008Y-4.2202
X2.839Y-4.1083
X2.8811Y-4.2202
X2.9193Y-4.1083
X2.9614Y-4.2202
T7
X2.8222Y-1.898
X2.8768Y-2.0098
X8.698Y-3.8268
X8.698Y-3.9268
X8.698Y-4.0268
X8.698Y-4.1268
X8.698Y-3.3948
X8.698Y-3.0948
X8.698Y-3.1948
X8.698Y-3.2948
X8.698Y-4.2268
X8.698Y-2.7948
X8.698Y-2.8948
X8.698Y-3.4948
X8.698Y-4.3268
X8.698Y-4.4268
X8.698Y-4.5268
X8.698Y-2.9948
X2.4843Y-2.374
X4.12Y-2.4243
X8.1693Y-1.7362
X8.2693Y-1.7362
X6.3878Y-4.5801
X6.3878Y-4.6801
X6.3878Y-5.214
X6.3878Y-5.314
X4.12Y-2.5243
X4.12Y-2.6243
X2.9313Y-1.898
X2.9858Y-2.0098
X3.0404Y-1.898
X3.0949Y-2.0098
X3.1494Y-1.898
X3.2039Y-2.0098
X3.2585Y-1.898
X3.313Y-2.0098
X3.3675Y-1.898
X3.422Y-2.0098
X3.4766Y-1.898
X3.5311Y-2.0098
X3.5856Y-1.898
X8.698Y-5.0128
X8.698Y-4.9128
X8.698Y-5.1128
X8.698Y-5.2128
X8.698Y-5.3128
X8.698Y-5.4128
X8.698Y-5.5128
X8.698Y-5.6128
X3.7492Y-2.0098
X3.8583Y-2.0098
X3.9673Y-2.0098
X4.0764Y-2.0098
X8.7953Y-1.7362
X3.6402Y-2.0098
X5.1929Y-2.4252
X8.4094Y-2.6102
X3.6947Y-1.898
X3.8037Y-1.898
X3.9128Y-1.898
X4.0219Y-1.898
X4.1309Y-1.898
X6.0157Y-2.7913
X2.7795Y-2.374
X6.3878Y-4.0024
X6.3878Y-4.1024
T8
X5.3809Y-2.9002
X4.688Y-2.8978
X5.3809Y-3.0002
X5.3809Y-3.1002
X5.3809Y-3.2002
X5.3809Y-3.3002
X4.688Y-2.9978
X4.688Y-3.0978
X4.688Y-3.1978
X4.688Y-3.2978
X4.688Y-3.3978
X4.688Y-3.4978
X4.688Y-3.5978
X4.688Y-3.6978
X4.688Y-3.7978
X4.688Y-3.8978
X4.688Y-3.9978
X4.688Y-4.0978
X4.688Y-4.1978
X4.688Y-4.2978
X4.688Y-4.3978
X4.688Y-4.4978
X4.688Y-4.5978
X4.688Y-4.6978
X4.688Y-4.7978
X4.688Y-4.8978
X4.688Y-4.9978
X4.688Y-5.0978
X4.688Y-5.1978
X4.688Y-5.2978
X4.788Y-2.8978
X4.788Y-2.9978
X4.788Y-3.0978
X4.788Y-3.1978
X4.788Y-3.2978
X4.788Y-3.3978
X4.788Y-3.4978
X4.788Y-3.5978
X4.788Y-3.6978
X4.788Y-3.7978
X4.788Y-3.8978
X4.788Y-3.9978
X4.788Y-4.0978
X4.788Y-4.1978
X4.788Y-4.2978
X4.788Y-4.3978
X4.788Y-4.4978
X4.788Y-4.5978
X4.788Y-4.6978
X4.788Y-4.7978
X4.788Y-4.8978
X4.788Y-4.9978
X4.788Y-5.0978
X4.788Y-5.1978
X4.788Y-5.2978
X5.3809Y-3.4002
X5.3809Y-3.5002
X5.3809Y-3.6002
X5.3809Y-3.7002
X5.3809Y-3.8002
X5.3809Y-3.9002
X5.3809Y-4.0002
X5.3809Y-4.1002
X5.3809Y-4.2002
X5.3809Y-4.3002
X5.3809Y-4.4002
X5.3809Y-4.5002
X5.3809Y-4.6002
X5.3809Y-4.7002
X5.3809Y-4.8002
X5.3809Y-4.9002
X5.3809Y-5.0002
X5.3809Y-5.1002
X5.3809Y-5.2002
X5.3809Y-5.3002
X5.4809Y-2.9002
X5.4809Y-3.0002
X5.4809Y-3.1002
X5.4809Y-3.2002
X5.4809Y-3.3002
X5.4809Y-3.4002
X5.4809Y-3.5002
X5.4809Y-3.6002
X5.4809Y-3.7002
X5.4809Y-3.8002
X5.4809Y-3.9002
X5.4809Y-4.0002
X5.4809Y-4.1002
X5.4809Y-4.2002
X5.4809Y-4.3002
X5.4809Y-4.4002
X5.4809Y-4.5002
X5.4809Y-4.6002
X5.4809Y-4.7002
X5.4809Y-4.8002
X5.4809Y-4.9002
X5.4809Y-5.0002
X5.4809Y-5.1002
X5.4809Y-5.2002
X5.4809Y-5.3002
T9
X3.5317Y-3.2905
X4.1719Y-3.2905
X7.5533Y-5.307
X8.1934Y-5.307
X7.5547Y-4.2283
X8.1949Y-4.2283
X3.5282Y-4.1102
X4.1684Y-4.1102
X7.5549Y-3.1839
X8.1951Y-3.1839
X2.513Y-3.2905
X3.1532Y-3.2905
X2.5071Y-4.9006
X3.1473Y-4.9006
X2.4995Y-4.1091
X3.1397Y-4.1091
T10
X2.5494Y-1.9539
X4.4037Y-1.9539
T0
M30
