  0
SECTION
  2
HEADER
  9
$ANGBASE
  50
0.0
  9
$ANGDIR
  70
1
  9
$MEASUREMENT
  70
0
  0
ENDSEC
  0
SECTION
  2
TABLES
  0
TABLE
  2
LTYPE
  70
4
  0
LTYPE
  5
40F
  2
CONTINUOUS
  70
0
  3
Solid line
  72
65
  73
0
  40
0.0
  0
LTYPE
  5
410
  2
DASHDOT
 70
0
  3
Dash Dot ____ _ ____ _
 72
65
 73
4
 40
2.0
 49
1.25
 49
-0.25
 49
0.25
 49
-0.25
  0
LTYPE
  5
411
  2
DASHED
 70
0
  3
Dashed __ __ __ __ __
 72
65
 73
2
 40
0.75
 49
0.5
 49
-0.25
  0
LTYPE
  5
43B
  2
DOTTED
 70
0
  3
Dotted .  .  .  .
 72
65
 73
2
 40
0.2
 49
0.0
 49
-0.2
  0
ENDTAB
  0
TABLE
  2
STYLE
  70
4
  0
STYLE
  2
KICAD
  70
0
  40
0
  41
1
  42
1
  50
0
  71
0
  3
isocp.shx
  0
STYLE
  2
KICADB
  70
0
  40
0
  41
1
  42
1
  50
0
  71
0
  3
isocp.shx
  0
STYLE
  2
KICADI
  70
0
  40
0
  41
1
  42
1
  50
15
  71
0
  3
isocp.shx
  0
STYLE
  2
KICADBI
  70
0
  40
0
  41
1
  42
1
  50
15
  71
0
  3
isocp.shx
  0
ENDTAB
  0
TABLE
  2
LAYER
  70
1
  0
LAYER
  2
BLACK
  70
0
  62
7
  6
CONTINUOUS
  0
ENDTAB
  0
ENDSEC
  0
SECTION
  2
ENTITIES
0
LINE
8
BLACK
6
CONTINUOUS
10
6.58307
20
-1.66559
11
6.58487
21
-1.66613
0
LINE
8
BLACK
6
CONTINUOUS
10
6.58487
20
-1.66613
11
6.58653
21
-1.66702
0
LINE
8
BLACK
6
CONTINUOUS
10
6.58653
20
-1.66702
11
6.58798
21
-1.66821
0
LINE
8
BLACK
6
CONTINUOUS
10
6.58798
20
-1.66821
11
6.58918
21
-1.66967
0
LINE
8
BLACK
6
CONTINUOUS
10
6.58918
20
-1.66967
11
6.59006
21
-1.67132
0
LINE
8
BLACK
6
CONTINUOUS
10
6.59006
20
-1.67132
11
6.59061
21
-1.67313
0
LINE
8
BLACK
6
CONTINUOUS
10
6.59061
20
-1.67313
11
6.59079
21
-1.675
0
LINE
8
BLACK
6
CONTINUOUS
10
6.59079
20
-1.675
11
6.59079
21
-1.69419
0
LINE
8
BLACK
6
CONTINUOUS
10
6.59079
20
-1.69419
11
6.59061
21
-1.69606
0
LINE
8
BLACK
6
CONTINUOUS
10
6.59061
20
-1.69606
11
6.59006
21
-1.69786
0
LINE
8
BLACK
6
CONTINUOUS
10
6.59006
20
-1.69786
11
6.58918
21
-1.69952
0
LINE
8
BLACK
6
CONTINUOUS
10
6.58918
20
-1.69952
11
6.58798
21
-1.70098
0
LINE
8
BLACK
6
CONTINUOUS
10
6.58798
20
-1.70098
11
6.58653
21
-1.70217
0
LINE
8
BLACK
6
CONTINUOUS
10
6.58653
20
-1.70217
11
6.58487
21
-1.70306
0
LINE
8
BLACK
6
CONTINUOUS
10
6.58487
20
-1.70306
11
6.58307
21
-1.7036
0
LINE
8
BLACK
6
CONTINUOUS
10
6.58307
20
-1.7036
11
6.5812
21
-1.70379
0
LINE
8
BLACK
6
CONTINUOUS
10
6.5812
20
-1.70379
11
6.54527
21
-1.70379
0
LINE
8
BLACK
6
CONTINUOUS
10
6.54527
20
-1.70379
11
6.5434
21
-1.7036
0
LINE
8
BLACK
6
CONTINUOUS
10
6.5434
20
-1.7036
11
6.5416
21
-1.70306
0
LINE
8
BLACK
6
CONTINUOUS
10
6.5416
20
-1.70306
11
6.53994
21
-1.70217
0
LINE
8
BLACK
6
CONTINUOUS
10
6.53994
20
-1.70217
11
6.53849
21
-1.70098
0
LINE
8
BLACK
6
CONTINUOUS
10
6.53849
20
-1.70098
11
6.53729
21
-1.69952
0
LINE
8
BLACK
6
CONTINUOUS
10
6.53729
20
-1.69952
11
6.53641
21
-1.69786
0
LINE
8
BLACK
6
CONTINUOUS
10
6.53641
20
-1.69786
11
6.53586
21
-1.69606
0
LINE
8
BLACK
6
CONTINUOUS
10
6.53586
20
-1.69606
11
6.53568
21
-1.69419
0
LINE
8
BLACK
6
CONTINUOUS
10
6.53568
20
-1.69419
11
6.53568
21
-1.675
0
LINE
8
BLACK
6
CONTINUOUS
10
6.53568
20
-1.675
11
6.53586
21
-1.67313
0
LINE
8
BLACK
6
CONTINUOUS
10
6.53586
20
-1.67313
11
6.53641
21
-1.67132
0
LINE
8
BLACK
6
CONTINUOUS
10
6.53641
20
-1.67132
11
6.53729
21
-1.66967
0
LINE
8
BLACK
6
CONTINUOUS
10
6.53729
20
-1.66967
11
6.53849
21
-1.66821
0
LINE
8
BLACK
6
CONTINUOUS
10
6.53849
20
-1.66821
11
6.53994
21
-1.66702
0
LINE
8
BLACK
6
CONTINUOUS
10
6.53994
20
-1.66702
11
6.5416
21
-1.66613
0
LINE
8
BLACK
6
CONTINUOUS
10
6.5416
20
-1.66613
11
6.5434
21
-1.66559
0
LINE
8
BLACK
6
CONTINUOUS
10
6.5434
20
-1.66559
11
6.54527
21
-1.6654
0
LINE
8
BLACK
6
CONTINUOUS
10
6.54527
20
-1.6654
11
6.5812
21
-1.6654
0
LINE
8
BLACK
6
CONTINUOUS
10
6.5812
20
-1.6654
11
6.58307
21
-1.66559
0
LINE
8
BLACK
6
CONTINUOUS
10
6.7582
20
-1.66559
11
6.76
21
-1.66613
0
LINE
8
BLACK
6
CONTINUOUS
10
6.76
20
-1.66613
11
6.76166
21
-1.66702
0
LINE
8
BLACK
6
CONTINUOUS
10
6.76166
20
-1.66702
11
6.76311
21
-1.66821
0
LINE
8
BLACK
6
CONTINUOUS
10
6.76311
20
-1.66821
11
6.76431
21
-1.66967
0
LINE
8
BLACK
6
CONTINUOUS
10
6.76431
20
-1.66967
11
6.76519
21
-1.67132
0
LINE
8
BLACK
6
CONTINUOUS
10
6.76519
20
-1.67132
11
6.76574
21
-1.67313
0
LINE
8
BLACK
6
CONTINUOUS
10
6.76574
20
-1.67313
11
6.76592
21
-1.675
0
LINE
8
BLACK
6
CONTINUOUS
10
6.76592
20
-1.675
11
6.76592
21
-1.69419
0
LINE
8
BLACK
6
CONTINUOUS
10
6.76592
20
-1.69419
11
6.76574
21
-1.69606
0
LINE
8
BLACK
6
CONTINUOUS
10
6.76574
20
-1.69606
11
6.76519
21
-1.69786
0
LINE
8
BLACK
6
CONTINUOUS
10
6.76519
20
-1.69786
11
6.76431
21
-1.69952
0
LINE
8
BLACK
6
CONTINUOUS
10
6.76431
20
-1.69952
11
6.76311
21
-1.70098
0
LINE
8
BLACK
6
CONTINUOUS
10
6.76311
20
-1.70098
11
6.76166
21
-1.70217
0
LINE
8
BLACK
6
CONTINUOUS
10
6.76166
20
-1.70217
11
6.76
21
-1.70306
0
LINE
8
BLACK
6
CONTINUOUS
10
6.76
20
-1.70306
11
6.7582
21
-1.7036
0
LINE
8
BLACK
6
CONTINUOUS
10
6.7582
20
-1.7036
11
6.75633
21
-1.70379
0
LINE
8
BLACK
6
CONTINUOUS
10
6.75633
20
-1.70379
11
6.7204
21
-1.70379
0
LINE
8
BLACK
6
CONTINUOUS
10
6.7204
20
-1.70379
11
6.71853
21
-1.7036
0
LINE
8
BLACK
6
CONTINUOUS
10
6.71853
20
-1.7036
11
6.71673
21
-1.70306
0
LINE
8
BLACK
6
CONTINUOUS
10
6.71673
20
-1.70306
11
6.71507
21
-1.70217
0
LINE
8
BLACK
6
CONTINUOUS
10
6.71507
20
-1.70217
11
6.71362
21
-1.70098
0
LINE
8
BLACK
6
CONTINUOUS
10
6.71362
20
-1.70098
11
6.71242
21
-1.69952
0
LINE
8
BLACK
6
CONTINUOUS
10
6.71242
20
-1.69952
11
6.71154
21
-1.69786
0
LINE
8
BLACK
6
CONTINUOUS
10
6.71154
20
-1.69786
11
6.71099
21
-1.69606
0
LINE
8
BLACK
6
CONTINUOUS
10
6.71099
20
-1.69606
11
6.71081
21
-1.69419
0
LINE
8
BLACK
6
CONTINUOUS
10
6.71081
20
-1.69419
11
6.71081
21
-1.675
0
LINE
8
BLACK
6
CONTINUOUS
10
6.71081
20
-1.675
11
6.71099
21
-1.67313
0
LINE
8
BLACK
6
CONTINUOUS
10
6.71099
20
-1.67313
11
6.71154
21
-1.67132
0
LINE
8
BLACK
6
CONTINUOUS
10
6.71154
20
-1.67132
11
6.71242
21
-1.66967
0
LINE
8
BLACK
6
CONTINUOUS
10
6.71242
20
-1.66967
11
6.71362
21
-1.66821
0
LINE
8
BLACK
6
CONTINUOUS
10
6.71362
20
-1.66821
11
6.71507
21
-1.66702
0
LINE
8
BLACK
6
CONTINUOUS
10
6.71507
20
-1.66702
11
6.71673
21
-1.66613
0
LINE
8
BLACK
6
CONTINUOUS
10
6.71673
20
-1.66613
11
6.71853
21
-1.66559
0
LINE
8
BLACK
6
CONTINUOUS
10
6.71853
20
-1.66559
11
6.7204
21
-1.6654
0
LINE
8
BLACK
6
CONTINUOUS
10
6.7204
20
-1.6654
11
6.75633
21
-1.6654
0
LINE
8
BLACK
6
CONTINUOUS
10
6.75633
20
-1.6654
11
6.7582
21
-1.66559
0
LINE
8
BLACK
6
CONTINUOUS
10
6.58307
20
-1.59177
11
6.58487
21
-1.59231
0
LINE
8
BLACK
6
CONTINUOUS
10
6.58487
20
-1.59231
11
6.58653
21
-1.5932
0
LINE
8
BLACK
6
CONTINUOUS
10
6.58653
20
-1.5932
11
6.58798
21
-1.59439
0
LINE
8
BLACK
6
CONTINUOUS
10
6.58798
20
-1.59439
11
6.58918
21
-1.59585
0
LINE
8
BLACK
6
CONTINUOUS
10
6.58918
20
-1.59585
11
6.59006
21
-1.59751
0
LINE
8
BLACK
6
CONTINUOUS
10
6.59006
20
-1.59751
11
6.59061
21
-1.59931
0
LINE
8
BLACK
6
CONTINUOUS
10
6.59061
20
-1.59931
11
6.59079
21
-1.60118
0
LINE
8
BLACK
6
CONTINUOUS
10
6.59079
20
-1.60118
11
6.59079
21
-1.62037
0
LINE
8
BLACK
6
CONTINUOUS
10
6.59079
20
-1.62037
11
6.59061
21
-1.62224
0
LINE
8
BLACK
6
CONTINUOUS
10
6.59061
20
-1.62224
11
6.59006
21
-1.62404
0
LINE
8
BLACK
6
CONTINUOUS
10
6.59006
20
-1.62404
11
6.58918
21
-1.6257
0
LINE
8
BLACK
6
CONTINUOUS
10
6.58918
20
-1.6257
11
6.58798
21
-1.62716
0
LINE
8
BLACK
6
CONTINUOUS
10
6.58798
20
-1.62716
11
6.58653
21
-1.62835
0
LINE
8
BLACK
6
CONTINUOUS
10
6.58653
20
-1.62835
11
6.58487
21
-1.62924
0
LINE
8
BLACK
6
CONTINUOUS
10
6.58487
20
-1.62924
11
6.58307
21
-1.62978
0
LINE
8
BLACK
6
CONTINUOUS
10
6.58307
20
-1.62978
11
6.5812
21
-1.62997
0
LINE
8
BLACK
6
CONTINUOUS
10
6.5812
20
-1.62997
11
6.54527
21
-1.62997
0
LINE
8
BLACK
6
CONTINUOUS
10
6.54527
20
-1.62997
11
6.5434
21
-1.62978
0
LINE
8
BLACK
6
CONTINUOUS
10
6.5434
20
-1.62978
11
6.5416
21
-1.62924
0
LINE
8
BLACK
6
CONTINUOUS
10
6.5416
20
-1.62924
11
6.53994
21
-1.62835
0
LINE
8
BLACK
6
CONTINUOUS
10
6.53994
20
-1.62835
11
6.53849
21
-1.62716
0
LINE
8
BLACK
6
CONTINUOUS
10
6.53849
20
-1.62716
11
6.53729
21
-1.6257
0
LINE
8
BLACK
6
CONTINUOUS
10
6.53729
20
-1.6257
11
6.53641
21
-1.62404
0
LINE
8
BLACK
6
CONTINUOUS
10
6.53641
20
-1.62404
11
6.53586
21
-1.62224
0
LINE
8
BLACK
6
CONTINUOUS
10
6.53586
20
-1.62224
11
6.53568
21
-1.62037
0
LINE
8
BLACK
6
CONTINUOUS
10
6.53568
20
-1.62037
11
6.53568
21
-1.60118
0
LINE
8
BLACK
6
CONTINUOUS
10
6.53568
20
-1.60118
11
6.53586
21
-1.59931
0
LINE
8
BLACK
6
CONTINUOUS
10
6.53586
20
-1.59931
11
6.53641
21
-1.59751
0
LINE
8
BLACK
6
CONTINUOUS
10
6.53641
20
-1.59751
11
6.53729
21
-1.59585
0
LINE
8
BLACK
6
CONTINUOUS
10
6.53729
20
-1.59585
11
6.53849
21
-1.59439
0
LINE
8
BLACK
6
CONTINUOUS
10
6.53849
20
-1.59439
11
6.53994
21
-1.5932
0
LINE
8
BLACK
6
CONTINUOUS
10
6.53994
20
-1.5932
11
6.5416
21
-1.59231
0
LINE
8
BLACK
6
CONTINUOUS
10
6.5416
20
-1.59231
11
6.5434
21
-1.59177
0
LINE
8
BLACK
6
CONTINUOUS
10
6.5434
20
-1.59177
11
6.54527
21
-1.59158
0
LINE
8
BLACK
6
CONTINUOUS
10
6.54527
20
-1.59158
11
6.5812
21
-1.59158
0
LINE
8
BLACK
6
CONTINUOUS
10
6.5812
20
-1.59158
11
6.58307
21
-1.59177
0
LINE
8
BLACK
6
CONTINUOUS
10
6.7582
20
-1.59177
11
6.76
21
-1.59231
0
LINE
8
BLACK
6
CONTINUOUS
10
6.76
20
-1.59231
11
6.76166
21
-1.5932
0
LINE
8
BLACK
6
CONTINUOUS
10
6.76166
20
-1.5932
11
6.76311
21
-1.59439
0
LINE
8
BLACK
6
CONTINUOUS
10
6.76311
20
-1.59439
11
6.76431
21
-1.59585
0
LINE
8
BLACK
6
CONTINUOUS
10
6.76431
20
-1.59585
11
6.76519
21
-1.59751
0
LINE
8
BLACK
6
CONTINUOUS
10
6.76519
20
-1.59751
11
6.76574
21
-1.59931
0
LINE
8
BLACK
6
CONTINUOUS
10
6.76574
20
-1.59931
11
6.76592
21
-1.60118
0
LINE
8
BLACK
6
CONTINUOUS
10
6.76592
20
-1.60118
11
6.76592
21
-1.62037
0
LINE
8
BLACK
6
CONTINUOUS
10
6.76592
20
-1.62037
11
6.76574
21
-1.62224
0
LINE
8
BLACK
6
CONTINUOUS
10
6.76574
20
-1.62224
11
6.76519
21
-1.62404
0
LINE
8
BLACK
6
CONTINUOUS
10
6.76519
20
-1.62404
11
6.76431
21
-1.6257
0
LINE
8
BLACK
6
CONTINUOUS
10
6.76431
20
-1.6257
11
6.76311
21
-1.62716
0
LINE
8
BLACK
6
CONTINUOUS
10
6.76311
20
-1.62716
11
6.76166
21
-1.62835
0
LINE
8
BLACK
6
CONTINUOUS
10
6.76166
20
-1.62835
11
6.76
21
-1.62924
0
LINE
8
BLACK
6
CONTINUOUS
10
6.76
20
-1.62924
11
6.7582
21
-1.62978
0
LINE
8
BLACK
6
CONTINUOUS
10
6.7582
20
-1.62978
11
6.75633
21
-1.62997
0
LINE
8
BLACK
6
CONTINUOUS
10
6.75633
20
-1.62997
11
6.7204
21
-1.62997
0
LINE
8
BLACK
6
CONTINUOUS
10
6.7204
20
-1.62997
11
6.71853
21
-1.62978
0
LINE
8
BLACK
6
CONTINUOUS
10
6.71853
20
-1.62978
11
6.71673
21
-1.62924
0
LINE
8
BLACK
6
CONTINUOUS
10
6.71673
20
-1.62924
11
6.71507
21
-1.62835
0
LINE
8
BLACK
6
CONTINUOUS
10
6.71507
20
-1.62835
11
6.71362
21
-1.62716
0
LINE
8
BLACK
6
CONTINUOUS
10
6.71362
20
-1.62716
11
6.71242
21
-1.6257
0
LINE
8
BLACK
6
CONTINUOUS
10
6.71242
20
-1.6257
11
6.71154
21
-1.62404
0
LINE
8
BLACK
6
CONTINUOUS
10
6.71154
20
-1.62404
11
6.71099
21
-1.62224
0
LINE
8
BLACK
6
CONTINUOUS
10
6.71099
20
-1.62224
11
6.71081
21
-1.62037
0
LINE
8
BLACK
6
CONTINUOUS
10
6.71081
20
-1.62037
11
6.71081
21
-1.60118
0
LINE
8
BLACK
6
CONTINUOUS
10
6.71081
20
-1.60118
11
6.71099
21
-1.59931
0
LINE
8
BLACK
6
CONTINUOUS
10
6.71099
20
-1.59931
11
6.71154
21
-1.59751
0
LINE
8
BLACK
6
CONTINUOUS
10
6.71154
20
-1.59751
11
6.71242
21
-1.59585
0
LINE
8
BLACK
6
CONTINUOUS
10
6.71242
20
-1.59585
11
6.71362
21
-1.59439
0
LINE
8
BLACK
6
CONTINUOUS
10
6.71362
20
-1.59439
11
6.71507
21
-1.5932
0
LINE
8
BLACK
6
CONTINUOUS
10
6.71507
20
-1.5932
11
6.71673
21
-1.59231
0
LINE
8
BLACK
6
CONTINUOUS
10
6.71673
20
-1.59231
11
6.71853
21
-1.59177
0
LINE
8
BLACK
6
CONTINUOUS
10
6.71853
20
-1.59177
11
6.7204
21
-1.59158
0
LINE
8
BLACK
6
CONTINUOUS
10
6.7204
20
-1.59158
11
6.75633
21
-1.59158
0
LINE
8
BLACK
6
CONTINUOUS
10
6.75633
20
-1.59158
11
6.7582
21
-1.59177
  0
ENDSEC
  0
EOF
