  0
SECTION
  2
HEADER
  9
$ANGBASE
  50
0.0
  9
$ANGDIR
  70
1
  9
$MEASUREMENT
  70
0
  0
ENDSEC
  0
SECTION
  2
TABLES
  0
TABLE
  2
LTYPE
  70
4
  0
LTYPE
  5
40F
  2
CONTINUOUS
  70
0
  3
Solid line
  72
65
  73
0
  40
0.0
  0
LTYPE
  5
410
  2
DASHDOT
 70
0
  3
Dash Dot ____ _ ____ _
 72
65
 73
4
 40
2.0
 49
1.25
 49
-0.25
 49
0.25
 49
-0.25
  0
LTYPE
  5
411
  2
DASHED
 70
0
  3
Dashed __ __ __ __ __
 72
65
 73
2
 40
0.75
 49
0.5
 49
-0.25
  0
LTYPE
  5
43B
  2
DOTTED
 70
0
  3
Dotted .  .  .  .
 72
65
 73
2
 40
0.2
 49
0.0
 49
-0.2
  0
ENDTAB
  0
TABLE
  2
STYLE
  70
4
  0
STYLE
  2
KICAD
  70
0
  40
0
  41
1
  42
1
  50
0
  71
0
  3
isocp.shx
  0
STYLE
  2
KICADB
  70
0
  40
0
  41
1
  42
1
  50
0
  71
0
  3
isocp.shx
  0
STYLE
  2
KICADI
  70
0
  40
0
  41
1
  42
1
  50
15
  71
0
  3
isocp.shx
  0
STYLE
  2
KICADBI
  70
0
  40
0
  41
1
  42
1
  50
15
  71
0
  3
isocp.shx
  0
ENDTAB
  0
TABLE
  2
LAYER
  70
1
  0
LAYER
  2
BLACK
  70
0
  62
7
  6
CONTINUOUS
  0
ENDTAB
  0
ENDSEC
  0
SECTION
  2
ENTITIES
0
LINE
8
BLACK
6
CONTINUOUS
10
3.65903
20
-4.81519
11
3.66084
21
-4.81574
0
LINE
8
BLACK
6
CONTINUOUS
10
3.66084
20
-4.81574
11
3.66249
21
-4.81662
0
LINE
8
BLACK
6
CONTINUOUS
10
3.66249
20
-4.81662
11
3.66395
21
-4.81782
0
LINE
8
BLACK
6
CONTINUOUS
10
3.66395
20
-4.81782
11
3.66514
21
-4.81927
0
LINE
8
BLACK
6
CONTINUOUS
10
3.66514
20
-4.81927
11
3.66603
21
-4.82093
0
LINE
8
BLACK
6
CONTINUOUS
10
3.66603
20
-4.82093
11
3.66657
21
-4.82273
0
LINE
8
BLACK
6
CONTINUOUS
10
3.66657
20
-4.82273
11
3.66676
21
-4.8246
0
LINE
8
BLACK
6
CONTINUOUS
10
3.66676
20
-4.8246
11
3.66676
21
-4.8438
0
LINE
8
BLACK
6
CONTINUOUS
10
3.66676
20
-4.8438
11
3.66657
21
-4.84567
0
LINE
8
BLACK
6
CONTINUOUS
10
3.66657
20
-4.84567
11
3.66603
21
-4.84747
0
LINE
8
BLACK
6
CONTINUOUS
10
3.66603
20
-4.84747
11
3.66514
21
-4.84913
0
LINE
8
BLACK
6
CONTINUOUS
10
3.66514
20
-4.84913
11
3.66395
21
-4.85058
0
LINE
8
BLACK
6
CONTINUOUS
10
3.66395
20
-4.85058
11
3.66249
21
-4.85178
0
LINE
8
BLACK
6
CONTINUOUS
10
3.66249
20
-4.85178
11
3.66084
21
-4.85266
0
LINE
8
BLACK
6
CONTINUOUS
10
3.66084
20
-4.85266
11
3.65903
21
-4.85321
0
LINE
8
BLACK
6
CONTINUOUS
10
3.65903
20
-4.85321
11
3.65716
21
-4.85339
0
LINE
8
BLACK
6
CONTINUOUS
10
3.65716
20
-4.85339
11
3.62124
21
-4.85339
0
LINE
8
BLACK
6
CONTINUOUS
10
3.62124
20
-4.85339
11
3.61937
21
-4.85321
0
LINE
8
BLACK
6
CONTINUOUS
10
3.61937
20
-4.85321
11
3.61756
21
-4.85266
0
LINE
8
BLACK
6
CONTINUOUS
10
3.61756
20
-4.85266
11
3.61591
21
-4.85178
0
LINE
8
BLACK
6
CONTINUOUS
10
3.61591
20
-4.85178
11
3.61445
21
-4.85058
0
LINE
8
BLACK
6
CONTINUOUS
10
3.61445
20
-4.85058
11
3.61326
21
-4.84913
0
LINE
8
BLACK
6
CONTINUOUS
10
3.61326
20
-4.84913
11
3.61237
21
-4.84747
0
LINE
8
BLACK
6
CONTINUOUS
10
3.61237
20
-4.84747
11
3.61183
21
-4.84567
0
LINE
8
BLACK
6
CONTINUOUS
10
3.61183
20
-4.84567
11
3.61164
21
-4.8438
0
LINE
8
BLACK
6
CONTINUOUS
10
3.61164
20
-4.8438
11
3.61164
21
-4.8246
0
LINE
8
BLACK
6
CONTINUOUS
10
3.61164
20
-4.8246
11
3.61183
21
-4.82273
0
LINE
8
BLACK
6
CONTINUOUS
10
3.61183
20
-4.82273
11
3.61237
21
-4.82093
0
LINE
8
BLACK
6
CONTINUOUS
10
3.61237
20
-4.82093
11
3.61326
21
-4.81927
0
LINE
8
BLACK
6
CONTINUOUS
10
3.61326
20
-4.81927
11
3.61445
21
-4.81782
0
LINE
8
BLACK
6
CONTINUOUS
10
3.61445
20
-4.81782
11
3.61591
21
-4.81662
0
LINE
8
BLACK
6
CONTINUOUS
10
3.61591
20
-4.81662
11
3.61756
21
-4.81574
0
LINE
8
BLACK
6
CONTINUOUS
10
3.61756
20
-4.81574
11
3.61937
21
-4.81519
0
LINE
8
BLACK
6
CONTINUOUS
10
3.61937
20
-4.81519
11
3.62124
21
-4.81501
0
LINE
8
BLACK
6
CONTINUOUS
10
3.62124
20
-4.81501
11
3.65716
21
-4.81501
0
LINE
8
BLACK
6
CONTINUOUS
10
3.65716
20
-4.81501
11
3.65903
21
-4.81519
0
LINE
8
BLACK
6
CONTINUOUS
10
3.86653
20
-4.81519
11
3.86834
21
-4.81574
0
LINE
8
BLACK
6
CONTINUOUS
10
3.86834
20
-4.81574
11
3.86999
21
-4.81662
0
LINE
8
BLACK
6
CONTINUOUS
10
3.86999
20
-4.81662
11
3.87145
21
-4.81782
0
LINE
8
BLACK
6
CONTINUOUS
10
3.87145
20
-4.81782
11
3.87264
21
-4.81927
0
LINE
8
BLACK
6
CONTINUOUS
10
3.87264
20
-4.81927
11
3.87353
21
-4.82093
0
LINE
8
BLACK
6
CONTINUOUS
10
3.87353
20
-4.82093
11
3.87407
21
-4.82273
0
LINE
8
BLACK
6
CONTINUOUS
10
3.87407
20
-4.82273
11
3.87426
21
-4.8246
0
LINE
8
BLACK
6
CONTINUOUS
10
3.87426
20
-4.8246
11
3.87426
21
-4.8438
0
LINE
8
BLACK
6
CONTINUOUS
10
3.87426
20
-4.8438
11
3.87407
21
-4.84567
0
LINE
8
BLACK
6
CONTINUOUS
10
3.87407
20
-4.84567
11
3.87353
21
-4.84747
0
LINE
8
BLACK
6
CONTINUOUS
10
3.87353
20
-4.84747
11
3.87264
21
-4.84913
0
LINE
8
BLACK
6
CONTINUOUS
10
3.87264
20
-4.84913
11
3.87145
21
-4.85058
0
LINE
8
BLACK
6
CONTINUOUS
10
3.87145
20
-4.85058
11
3.86999
21
-4.85178
0
LINE
8
BLACK
6
CONTINUOUS
10
3.86999
20
-4.85178
11
3.86834
21
-4.85266
0
LINE
8
BLACK
6
CONTINUOUS
10
3.86834
20
-4.85266
11
3.86653
21
-4.85321
0
LINE
8
BLACK
6
CONTINUOUS
10
3.86653
20
-4.85321
11
3.86466
21
-4.85339
0
LINE
8
BLACK
6
CONTINUOUS
10
3.86466
20
-4.85339
11
3.82874
21
-4.85339
0
LINE
8
BLACK
6
CONTINUOUS
10
3.82874
20
-4.85339
11
3.82687
21
-4.85321
0
LINE
8
BLACK
6
CONTINUOUS
10
3.82687
20
-4.85321
11
3.82506
21
-4.85266
0
LINE
8
BLACK
6
CONTINUOUS
10
3.82506
20
-4.85266
11
3.82341
21
-4.85178
0
LINE
8
BLACK
6
CONTINUOUS
10
3.82341
20
-4.85178
11
3.82195
21
-4.85058
0
LINE
8
BLACK
6
CONTINUOUS
10
3.82195
20
-4.85058
11
3.82076
21
-4.84913
0
LINE
8
BLACK
6
CONTINUOUS
10
3.82076
20
-4.84913
11
3.81987
21
-4.84747
0
LINE
8
BLACK
6
CONTINUOUS
10
3.81987
20
-4.84747
11
3.81933
21
-4.84567
0
LINE
8
BLACK
6
CONTINUOUS
10
3.81933
20
-4.84567
11
3.81914
21
-4.8438
0
LINE
8
BLACK
6
CONTINUOUS
10
3.81914
20
-4.8438
11
3.81914
21
-4.8246
0
LINE
8
BLACK
6
CONTINUOUS
10
3.81914
20
-4.8246
11
3.81933
21
-4.82273
0
LINE
8
BLACK
6
CONTINUOUS
10
3.81933
20
-4.82273
11
3.81987
21
-4.82093
0
LINE
8
BLACK
6
CONTINUOUS
10
3.81987
20
-4.82093
11
3.82076
21
-4.81927
0
LINE
8
BLACK
6
CONTINUOUS
10
3.82076
20
-4.81927
11
3.82195
21
-4.81782
0
LINE
8
BLACK
6
CONTINUOUS
10
3.82195
20
-4.81782
11
3.82341
21
-4.81662
0
LINE
8
BLACK
6
CONTINUOUS
10
3.82341
20
-4.81662
11
3.82506
21
-4.81574
0
LINE
8
BLACK
6
CONTINUOUS
10
3.82506
20
-4.81574
11
3.82687
21
-4.81519
0
LINE
8
BLACK
6
CONTINUOUS
10
3.82687
20
-4.81519
11
3.82874
21
-4.81501
0
LINE
8
BLACK
6
CONTINUOUS
10
3.82874
20
-4.81501
11
3.86466
21
-4.81501
0
LINE
8
BLACK
6
CONTINUOUS
10
3.86466
20
-4.81501
11
3.86653
21
-4.81519
0
LINE
8
BLACK
6
CONTINUOUS
10
4.08103
20
-4.81519
11
4.08284
21
-4.81574
0
LINE
8
BLACK
6
CONTINUOUS
10
4.08284
20
-4.81574
11
4.08449
21
-4.81662
0
LINE
8
BLACK
6
CONTINUOUS
10
4.08449
20
-4.81662
11
4.08595
21
-4.81782
0
LINE
8
BLACK
6
CONTINUOUS
10
4.08595
20
-4.81782
11
4.08714
21
-4.81927
0
LINE
8
BLACK
6
CONTINUOUS
10
4.08714
20
-4.81927
11
4.08803
21
-4.82093
0
LINE
8
BLACK
6
CONTINUOUS
10
4.08803
20
-4.82093
11
4.08857
21
-4.82273
0
LINE
8
BLACK
6
CONTINUOUS
10
4.08857
20
-4.82273
11
4.08876
21
-4.8246
0
LINE
8
BLACK
6
CONTINUOUS
10
4.08876
20
-4.8246
11
4.08876
21
-4.8438
0
LINE
8
BLACK
6
CONTINUOUS
10
4.08876
20
-4.8438
11
4.08857
21
-4.84567
0
LINE
8
BLACK
6
CONTINUOUS
10
4.08857
20
-4.84567
11
4.08803
21
-4.84747
0
LINE
8
BLACK
6
CONTINUOUS
10
4.08803
20
-4.84747
11
4.08714
21
-4.84913
0
LINE
8
BLACK
6
CONTINUOUS
10
4.08714
20
-4.84913
11
4.08595
21
-4.85058
0
LINE
8
BLACK
6
CONTINUOUS
10
4.08595
20
-4.85058
11
4.08449
21
-4.85178
0
LINE
8
BLACK
6
CONTINUOUS
10
4.08449
20
-4.85178
11
4.08284
21
-4.85266
0
LINE
8
BLACK
6
CONTINUOUS
10
4.08284
20
-4.85266
11
4.08103
21
-4.85321
0
LINE
8
BLACK
6
CONTINUOUS
10
4.08103
20
-4.85321
11
4.07916
21
-4.85339
0
LINE
8
BLACK
6
CONTINUOUS
10
4.07916
20
-4.85339
11
4.04324
21
-4.85339
0
LINE
8
BLACK
6
CONTINUOUS
10
4.04324
20
-4.85339
11
4.04137
21
-4.85321
0
LINE
8
BLACK
6
CONTINUOUS
10
4.04137
20
-4.85321
11
4.03956
21
-4.85266
0
LINE
8
BLACK
6
CONTINUOUS
10
4.03956
20
-4.85266
11
4.03791
21
-4.85178
0
LINE
8
BLACK
6
CONTINUOUS
10
4.03791
20
-4.85178
11
4.03645
21
-4.85058
0
LINE
8
BLACK
6
CONTINUOUS
10
4.03645
20
-4.85058
11
4.03526
21
-4.84913
0
LINE
8
BLACK
6
CONTINUOUS
10
4.03526
20
-4.84913
11
4.03437
21
-4.84747
0
LINE
8
BLACK
6
CONTINUOUS
10
4.03437
20
-4.84747
11
4.03383
21
-4.84567
0
LINE
8
BLACK
6
CONTINUOUS
10
4.03383
20
-4.84567
11
4.03364
21
-4.8438
0
LINE
8
BLACK
6
CONTINUOUS
10
4.03364
20
-4.8438
11
4.03364
21
-4.8246
0
LINE
8
BLACK
6
CONTINUOUS
10
4.03364
20
-4.8246
11
4.03383
21
-4.82273
0
LINE
8
BLACK
6
CONTINUOUS
10
4.03383
20
-4.82273
11
4.03437
21
-4.82093
0
LINE
8
BLACK
6
CONTINUOUS
10
4.03437
20
-4.82093
11
4.03526
21
-4.81927
0
LINE
8
BLACK
6
CONTINUOUS
10
4.03526
20
-4.81927
11
4.03645
21
-4.81782
0
LINE
8
BLACK
6
CONTINUOUS
10
4.03645
20
-4.81782
11
4.03791
21
-4.81662
0
LINE
8
BLACK
6
CONTINUOUS
10
4.03791
20
-4.81662
11
4.03956
21
-4.81574
0
LINE
8
BLACK
6
CONTINUOUS
10
4.03956
20
-4.81574
11
4.04137
21
-4.81519
0
LINE
8
BLACK
6
CONTINUOUS
10
4.04137
20
-4.81519
11
4.04324
21
-4.81501
0
LINE
8
BLACK
6
CONTINUOUS
10
4.04324
20
-4.81501
11
4.07916
21
-4.81501
0
LINE
8
BLACK
6
CONTINUOUS
10
4.07916
20
-4.81501
11
4.08103
21
-4.81519
0
LINE
8
BLACK
6
CONTINUOUS
10
3.65903
20
-4.74137
11
3.66084
21
-4.74192
0
LINE
8
BLACK
6
CONTINUOUS
10
3.66084
20
-4.74192
11
3.66249
21
-4.74281
0
LINE
8
BLACK
6
CONTINUOUS
10
3.66249
20
-4.74281
11
3.66395
21
-4.744
0
LINE
8
BLACK
6
CONTINUOUS
10
3.66395
20
-4.744
11
3.66514
21
-4.74545
0
LINE
8
BLACK
6
CONTINUOUS
10
3.66514
20
-4.74545
11
3.66603
21
-4.74711
0
LINE
8
BLACK
6
CONTINUOUS
10
3.66603
20
-4.74711
11
3.66657
21
-4.74891
0
LINE
8
BLACK
6
CONTINUOUS
10
3.66657
20
-4.74891
11
3.66676
21
-4.75078
0
LINE
8
BLACK
6
CONTINUOUS
10
3.66676
20
-4.75078
11
3.66676
21
-4.76998
0
LINE
8
BLACK
6
CONTINUOUS
10
3.66676
20
-4.76998
11
3.66657
21
-4.77185
0
LINE
8
BLACK
6
CONTINUOUS
10
3.66657
20
-4.77185
11
3.66603
21
-4.77365
0
LINE
8
BLACK
6
CONTINUOUS
10
3.66603
20
-4.77365
11
3.66514
21
-4.77531
0
LINE
8
BLACK
6
CONTINUOUS
10
3.66514
20
-4.77531
11
3.66395
21
-4.77676
0
LINE
8
BLACK
6
CONTINUOUS
10
3.66395
20
-4.77676
11
3.66249
21
-4.77796
0
LINE
8
BLACK
6
CONTINUOUS
10
3.66249
20
-4.77796
11
3.66084
21
-4.77884
0
LINE
8
BLACK
6
CONTINUOUS
10
3.66084
20
-4.77884
11
3.65903
21
-4.77939
0
LINE
8
BLACK
6
CONTINUOUS
10
3.65903
20
-4.77939
11
3.65716
21
-4.77957
0
LINE
8
BLACK
6
CONTINUOUS
10
3.65716
20
-4.77957
11
3.62124
21
-4.77957
0
LINE
8
BLACK
6
CONTINUOUS
10
3.62124
20
-4.77957
11
3.61937
21
-4.77939
0
LINE
8
BLACK
6
CONTINUOUS
10
3.61937
20
-4.77939
11
3.61756
21
-4.77884
0
LINE
8
BLACK
6
CONTINUOUS
10
3.61756
20
-4.77884
11
3.61591
21
-4.77796
0
LINE
8
BLACK
6
CONTINUOUS
10
3.61591
20
-4.77796
11
3.61445
21
-4.77676
0
LINE
8
BLACK
6
CONTINUOUS
10
3.61445
20
-4.77676
11
3.61326
21
-4.77531
0
LINE
8
BLACK
6
CONTINUOUS
10
3.61326
20
-4.77531
11
3.61237
21
-4.77365
0
LINE
8
BLACK
6
CONTINUOUS
10
3.61237
20
-4.77365
11
3.61183
21
-4.77185
0
LINE
8
BLACK
6
CONTINUOUS
10
3.61183
20
-4.77185
11
3.61164
21
-4.76998
0
LINE
8
BLACK
6
CONTINUOUS
10
3.61164
20
-4.76998
11
3.61164
21
-4.75078
0
LINE
8
BLACK
6
CONTINUOUS
10
3.61164
20
-4.75078
11
3.61183
21
-4.74891
0
LINE
8
BLACK
6
CONTINUOUS
10
3.61183
20
-4.74891
11
3.61237
21
-4.74711
0
LINE
8
BLACK
6
CONTINUOUS
10
3.61237
20
-4.74711
11
3.61326
21
-4.74545
0
LINE
8
BLACK
6
CONTINUOUS
10
3.61326
20
-4.74545
11
3.61445
21
-4.744
0
LINE
8
BLACK
6
CONTINUOUS
10
3.61445
20
-4.744
11
3.61591
21
-4.74281
0
LINE
8
BLACK
6
CONTINUOUS
10
3.61591
20
-4.74281
11
3.61756
21
-4.74192
0
LINE
8
BLACK
6
CONTINUOUS
10
3.61756
20
-4.74192
11
3.61937
21
-4.74137
0
LINE
8
BLACK
6
CONTINUOUS
10
3.61937
20
-4.74137
11
3.62124
21
-4.74119
0
LINE
8
BLACK
6
CONTINUOUS
10
3.62124
20
-4.74119
11
3.65716
21
-4.74119
0
LINE
8
BLACK
6
CONTINUOUS
10
3.65716
20
-4.74119
11
3.65903
21
-4.74137
0
LINE
8
BLACK
6
CONTINUOUS
10
3.86653
20
-4.74137
11
3.86834
21
-4.74192
0
LINE
8
BLACK
6
CONTINUOUS
10
3.86834
20
-4.74192
11
3.86999
21
-4.74281
0
LINE
8
BLACK
6
CONTINUOUS
10
3.86999
20
-4.74281
11
3.87145
21
-4.744
0
LINE
8
BLACK
6
CONTINUOUS
10
3.87145
20
-4.744
11
3.87264
21
-4.74545
0
LINE
8
BLACK
6
CONTINUOUS
10
3.87264
20
-4.74545
11
3.87353
21
-4.74711
0
LINE
8
BLACK
6
CONTINUOUS
10
3.87353
20
-4.74711
11
3.87407
21
-4.74891
0
LINE
8
BLACK
6
CONTINUOUS
10
3.87407
20
-4.74891
11
3.87426
21
-4.75078
0
LINE
8
BLACK
6
CONTINUOUS
10
3.87426
20
-4.75078
11
3.87426
21
-4.76998
0
LINE
8
BLACK
6
CONTINUOUS
10
3.87426
20
-4.76998
11
3.87407
21
-4.77185
0
LINE
8
BLACK
6
CONTINUOUS
10
3.87407
20
-4.77185
11
3.87353
21
-4.77365
0
LINE
8
BLACK
6
CONTINUOUS
10
3.87353
20
-4.77365
11
3.87264
21
-4.77531
0
LINE
8
BLACK
6
CONTINUOUS
10
3.87264
20
-4.77531
11
3.87145
21
-4.77676
0
LINE
8
BLACK
6
CONTINUOUS
10
3.87145
20
-4.77676
11
3.86999
21
-4.77796
0
LINE
8
BLACK
6
CONTINUOUS
10
3.86999
20
-4.77796
11
3.86834
21
-4.77884
0
LINE
8
BLACK
6
CONTINUOUS
10
3.86834
20
-4.77884
11
3.86653
21
-4.77939
0
LINE
8
BLACK
6
CONTINUOUS
10
3.86653
20
-4.77939
11
3.86466
21
-4.77957
0
LINE
8
BLACK
6
CONTINUOUS
10
3.86466
20
-4.77957
11
3.82874
21
-4.77957
0
LINE
8
BLACK
6
CONTINUOUS
10
3.82874
20
-4.77957
11
3.82687
21
-4.77939
0
LINE
8
BLACK
6
CONTINUOUS
10
3.82687
20
-4.77939
11
3.82506
21
-4.77884
0
LINE
8
BLACK
6
CONTINUOUS
10
3.82506
20
-4.77884
11
3.82341
21
-4.77796
0
LINE
8
BLACK
6
CONTINUOUS
10
3.82341
20
-4.77796
11
3.82195
21
-4.77676
0
LINE
8
BLACK
6
CONTINUOUS
10
3.82195
20
-4.77676
11
3.82076
21
-4.77531
0
LINE
8
BLACK
6
CONTINUOUS
10
3.82076
20
-4.77531
11
3.81987
21
-4.77365
0
LINE
8
BLACK
6
CONTINUOUS
10
3.81987
20
-4.77365
11
3.81933
21
-4.77185
0
LINE
8
BLACK
6
CONTINUOUS
10
3.81933
20
-4.77185
11
3.81914
21
-4.76998
0
LINE
8
BLACK
6
CONTINUOUS
10
3.81914
20
-4.76998
11
3.81914
21
-4.75078
0
LINE
8
BLACK
6
CONTINUOUS
10
3.81914
20
-4.75078
11
3.81933
21
-4.74891
0
LINE
8
BLACK
6
CONTINUOUS
10
3.81933
20
-4.74891
11
3.81987
21
-4.74711
0
LINE
8
BLACK
6
CONTINUOUS
10
3.81987
20
-4.74711
11
3.82076
21
-4.74545
0
LINE
8
BLACK
6
CONTINUOUS
10
3.82076
20
-4.74545
11
3.82195
21
-4.744
0
LINE
8
BLACK
6
CONTINUOUS
10
3.82195
20
-4.744
11
3.82341
21
-4.74281
0
LINE
8
BLACK
6
CONTINUOUS
10
3.82341
20
-4.74281
11
3.82506
21
-4.74192
0
LINE
8
BLACK
6
CONTINUOUS
10
3.82506
20
-4.74192
11
3.82687
21
-4.74137
0
LINE
8
BLACK
6
CONTINUOUS
10
3.82687
20
-4.74137
11
3.82874
21
-4.74119
0
LINE
8
BLACK
6
CONTINUOUS
10
3.82874
20
-4.74119
11
3.86466
21
-4.74119
0
LINE
8
BLACK
6
CONTINUOUS
10
3.86466
20
-4.74119
11
3.86653
21
-4.74137
0
LINE
8
BLACK
6
CONTINUOUS
10
4.08103
20
-4.74137
11
4.08284
21
-4.74192
0
LINE
8
BLACK
6
CONTINUOUS
10
4.08284
20
-4.74192
11
4.08449
21
-4.74281
0
LINE
8
BLACK
6
CONTINUOUS
10
4.08449
20
-4.74281
11
4.08595
21
-4.744
0
LINE
8
BLACK
6
CONTINUOUS
10
4.08595
20
-4.744
11
4.08714
21
-4.74545
0
LINE
8
BLACK
6
CONTINUOUS
10
4.08714
20
-4.74545
11
4.08803
21
-4.74711
0
LINE
8
BLACK
6
CONTINUOUS
10
4.08803
20
-4.74711
11
4.08857
21
-4.74891
0
LINE
8
BLACK
6
CONTINUOUS
10
4.08857
20
-4.74891
11
4.08876
21
-4.75078
0
LINE
8
BLACK
6
CONTINUOUS
10
4.08876
20
-4.75078
11
4.08876
21
-4.76998
0
LINE
8
BLACK
6
CONTINUOUS
10
4.08876
20
-4.76998
11
4.08857
21
-4.77185
0
LINE
8
BLACK
6
CONTINUOUS
10
4.08857
20
-4.77185
11
4.08803
21
-4.77365
0
LINE
8
BLACK
6
CONTINUOUS
10
4.08803
20
-4.77365
11
4.08714
21
-4.77531
0
LINE
8
BLACK
6
CONTINUOUS
10
4.08714
20
-4.77531
11
4.08595
21
-4.77676
0
LINE
8
BLACK
6
CONTINUOUS
10
4.08595
20
-4.77676
11
4.08449
21
-4.77796
0
LINE
8
BLACK
6
CONTINUOUS
10
4.08449
20
-4.77796
11
4.08284
21
-4.77884
0
LINE
8
BLACK
6
CONTINUOUS
10
4.08284
20
-4.77884
11
4.08103
21
-4.77939
0
LINE
8
BLACK
6
CONTINUOUS
10
4.08103
20
-4.77939
11
4.07916
21
-4.77957
0
LINE
8
BLACK
6
CONTINUOUS
10
4.07916
20
-4.77957
11
4.04324
21
-4.77957
0
LINE
8
BLACK
6
CONTINUOUS
10
4.04324
20
-4.77957
11
4.04137
21
-4.77939
0
LINE
8
BLACK
6
CONTINUOUS
10
4.04137
20
-4.77939
11
4.03956
21
-4.77884
0
LINE
8
BLACK
6
CONTINUOUS
10
4.03956
20
-4.77884
11
4.03791
21
-4.77796
0
LINE
8
BLACK
6
CONTINUOUS
10
4.03791
20
-4.77796
11
4.03645
21
-4.77676
0
LINE
8
BLACK
6
CONTINUOUS
10
4.03645
20
-4.77676
11
4.03526
21
-4.77531
0
LINE
8
BLACK
6
CONTINUOUS
10
4.03526
20
-4.77531
11
4.03437
21
-4.77365
0
LINE
8
BLACK
6
CONTINUOUS
10
4.03437
20
-4.77365
11
4.03383
21
-4.77185
0
LINE
8
BLACK
6
CONTINUOUS
10
4.03383
20
-4.77185
11
4.03364
21
-4.76998
0
LINE
8
BLACK
6
CONTINUOUS
10
4.03364
20
-4.76998
11
4.03364
21
-4.75078
0
LINE
8
BLACK
6
CONTINUOUS
10
4.03364
20
-4.75078
11
4.03383
21
-4.74891
0
LINE
8
BLACK
6
CONTINUOUS
10
4.03383
20
-4.74891
11
4.03437
21
-4.74711
0
LINE
8
BLACK
6
CONTINUOUS
10
4.03437
20
-4.74711
11
4.03526
21
-4.74545
0
LINE
8
BLACK
6
CONTINUOUS
10
4.03526
20
-4.74545
11
4.03645
21
-4.744
0
LINE
8
BLACK
6
CONTINUOUS
10
4.03645
20
-4.744
11
4.03791
21
-4.74281
0
LINE
8
BLACK
6
CONTINUOUS
10
4.03791
20
-4.74281
11
4.03956
21
-4.74192
0
LINE
8
BLACK
6
CONTINUOUS
10
4.03956
20
-4.74192
11
4.04137
21
-4.74137
0
LINE
8
BLACK
6
CONTINUOUS
10
4.04137
20
-4.74137
11
4.04324
21
-4.74119
0
LINE
8
BLACK
6
CONTINUOUS
10
4.04324
20
-4.74119
11
4.07916
21
-4.74119
0
LINE
8
BLACK
6
CONTINUOUS
10
4.07916
20
-4.74119
11
4.08103
21
-4.74137
  0
ENDSEC
  0
EOF
