  0
SECTION
  2
HEADER
  9
$ANGBASE
  50
0.0
  9
$ANGDIR
  70
1
  9
$MEASUREMENT
  70
0
  0
ENDSEC
  0
SECTION
  2
TABLES
  0
TABLE
  2
LTYPE
  70
4
  0
LTYPE
  5
40F
  2
CONTINUOUS
  70
0
  3
Solid line
  72
65
  73
0
  40
0.0
  0
LTYPE
  5
410
  2
DASHDOT
 70
0
  3
Dash Dot ____ _ ____ _
 72
65
 73
4
 40
2.0
 49
1.25
 49
-0.25
 49
0.25
 49
-0.25
  0
LTYPE
  5
411
  2
DASHED
 70
0
  3
Dashed __ __ __ __ __
 72
65
 73
2
 40
0.75
 49
0.5
 49
-0.25
  0
LTYPE
  5
43B
  2
DOTTED
 70
0
  3
Dotted .  .  .  .
 72
65
 73
2
 40
0.2
 49
0.0
 49
-0.2
  0
ENDTAB
  0
TABLE
  2
STYLE
  70
4
  0
STYLE
  2
KICAD
  70
0
  40
0
  41
1
  42
1
  50
0
  71
0
  3
isocp.shx
  0
STYLE
  2
KICADB
  70
0
  40
0
  41
1
  42
1
  50
0
  71
0
  3
isocp.shx
  0
STYLE
  2
KICADI
  70
0
  40
0
  41
1
  42
1
  50
15
  71
0
  3
isocp.shx
  0
STYLE
  2
KICADBI
  70
0
  40
0
  41
1
  42
1
  50
15
  71
0
  3
isocp.shx
  0
ENDTAB
  0
TABLE
  2
LAYER
  70
1
  0
LAYER
  2
BLACK
  70
0
  62
7
  6
CONTINUOUS
  0
ENDTAB
  0
ENDSEC
  0
SECTION
  2
ENTITIES
0
LINE
8
BLACK
6
CONTINUOUS
10
2.27917
20
-5.9156
11
1.88622
21
-5.91544
0
LINE
8
BLACK
6
CONTINUOUS
10
1.88622
20
-5.91544
11
1.8862
21
-5.91544
0
LINE
8
BLACK
6
CONTINUOUS
10
1.8862
20
-5.91544
11
1.88607
21
-5.91544
0
LINE
8
BLACK
6
CONTINUOUS
10
1.88607
20
-5.91544
11
1.88601
21
-5.91544
0
LINE
8
BLACK
6
CONTINUOUS
10
1.88601
20
-5.91544
11
1.88599
21
-5.91544
0
LINE
8
BLACK
6
CONTINUOUS
10
1.88599
20
-5.91544
11
1.88597
21
-5.91544
0
LINE
8
BLACK
6
CONTINUOUS
10
1.88597
20
-5.91544
11
1.88591
21
-5.91543
0
LINE
8
BLACK
6
CONTINUOUS
10
1.88591
20
-5.91543
11
1.88578
21
-5.91542
0
LINE
8
BLACK
6
CONTINUOUS
10
1.88578
20
-5.91542
11
1.88577
21
-5.91541
0
LINE
8
BLACK
6
CONTINUOUS
10
1.88577
20
-5.91541
11
1.86253
21
-5.91313
0
LINE
8
BLACK
6
CONTINUOUS
10
1.86253
20
-5.91313
11
1.8625
21
-5.91314
0
LINE
8
BLACK
6
CONTINUOUS
10
1.8625
20
-5.91314
11
1.86236
21
-5.91312
0
LINE
8
BLACK
6
CONTINUOUS
10
1.86236
20
-5.91312
11
1.86222
21
-5.91311
0
LINE
8
BLACK
6
CONTINUOUS
10
1.86222
20
-5.91311
11
1.86213
21
-5.91308
0
LINE
8
BLACK
6
CONTINUOUS
10
1.86213
20
-5.91308
11
1.86193
21
-5.91304
0
LINE
8
BLACK
6
CONTINUOUS
10
1.86193
20
-5.91304
11
1.86186
21
-5.91302
0
LINE
8
BLACK
6
CONTINUOUS
10
1.86186
20
-5.91302
11
1.86185
21
-5.91302
0
LINE
8
BLACK
6
CONTINUOUS
10
1.86185
20
-5.91302
11
1.86184
21
-5.91302
0
LINE
8
BLACK
6
CONTINUOUS
10
1.86184
20
-5.91302
11
1.86178
21
-5.913
0
LINE
8
BLACK
6
CONTINUOUS
10
1.86178
20
-5.913
11
1.8393
21
-5.90622
0
LINE
8
BLACK
6
CONTINUOUS
10
1.8393
20
-5.90622
11
1.83925
21
-5.90621
0
LINE
8
BLACK
6
CONTINUOUS
10
1.83925
20
-5.90621
11
1.83916
21
-5.90617
0
LINE
8
BLACK
6
CONTINUOUS
10
1.83916
20
-5.90617
11
1.83914
21
-5.90617
0
LINE
8
BLACK
6
CONTINUOUS
10
1.83914
20
-5.90617
11
1.83908
21
-5.90615
0
LINE
8
BLACK
6
CONTINUOUS
10
1.83908
20
-5.90615
11
1.83903
21
-5.90613
0
LINE
8
BLACK
6
CONTINUOUS
10
1.83903
20
-5.90613
11
1.83901
21
-5.90612
0
LINE
8
BLACK
6
CONTINUOUS
10
1.83901
20
-5.90612
11
1.83892
21
-5.90608
0
LINE
8
BLACK
6
CONTINUOUS
10
1.83892
20
-5.90608
11
1.83892
21
-5.90608
0
LINE
8
BLACK
6
CONTINUOUS
10
1.83892
20
-5.90608
11
1.83892
21
-5.90608
0
LINE
8
BLACK
6
CONTINUOUS
10
1.83892
20
-5.90608
11
1.83881
21
-5.90603
0
LINE
8
BLACK
6
CONTINUOUS
10
1.83881
20
-5.90603
11
1.83877
21
-5.90602
0
LINE
8
BLACK
6
CONTINUOUS
10
1.83877
20
-5.90602
11
1.83874
21
-5.906
0
LINE
8
BLACK
6
CONTINUOUS
10
1.83874
20
-5.906
11
1.8387
21
-5.90599
0
LINE
8
BLACK
6
CONTINUOUS
10
1.8387
20
-5.90599
11
1.83867
21
-5.90597
0
LINE
8
BLACK
6
CONTINUOUS
10
1.83867
20
-5.90597
11
1.83856
21
-5.90592
0
LINE
8
BLACK
6
CONTINUOUS
10
1.83856
20
-5.90592
11
1.83853
21
-5.9059
0
LINE
8
BLACK
6
CONTINUOUS
10
1.83853
20
-5.9059
11
1.81794
21
-5.89495
0
LINE
8
BLACK
6
CONTINUOUS
10
1.81794
20
-5.89495
11
1.81793
21
-5.89495
0
LINE
8
BLACK
6
CONTINUOUS
10
1.81793
20
-5.89495
11
1.81781
21
-5.89488
0
LINE
8
BLACK
6
CONTINUOUS
10
1.81781
20
-5.89488
11
1.81776
21
-5.89486
0
LINE
8
BLACK
6
CONTINUOUS
10
1.81776
20
-5.89486
11
1.81774
21
-5.89485
0
LINE
8
BLACK
6
CONTINUOUS
10
1.81774
20
-5.89485
11
1.81773
21
-5.89484
0
LINE
8
BLACK
6
CONTINUOUS
10
1.81773
20
-5.89484
11
1.81768
21
-5.89481
0
LINE
8
BLACK
6
CONTINUOUS
10
1.81768
20
-5.89481
11
1.81756
21
-5.89473
0
LINE
8
BLACK
6
CONTINUOUS
10
1.81756
20
-5.89473
11
1.81755
21
-5.89472
0
LINE
8
BLACK
6
CONTINUOUS
10
1.81755
20
-5.89472
11
1.81743
21
-5.89464
0
LINE
8
BLACK
6
CONTINUOUS
10
1.81743
20
-5.89464
11
1.81736
21
-5.89459
0
LINE
8
BLACK
6
CONTINUOUS
10
1.81736
20
-5.89459
11
1.81736
21
-5.89459
0
LINE
8
BLACK
6
CONTINUOUS
10
1.81736
20
-5.89459
11
1.81736
21
-5.89459
0
LINE
8
BLACK
6
CONTINUOUS
10
1.81736
20
-5.89459
11
1.81732
21
-5.89456
0
LINE
8
BLACK
6
CONTINUOUS
10
1.81732
20
-5.89456
11
1.79913
21
-5.87971
0
LINE
8
BLACK
6
CONTINUOUS
10
1.79913
20
-5.87971
11
1.79906
21
-5.87968
0
LINE
8
BLACK
6
CONTINUOUS
10
1.79906
20
-5.87968
11
1.79905
21
-5.87966
0
LINE
8
BLACK
6
CONTINUOUS
10
1.79905
20
-5.87966
11
1.79904
21
-5.87965
0
LINE
8
BLACK
6
CONTINUOUS
10
1.79904
20
-5.87965
11
1.79894
21
-5.87956
0
LINE
8
BLACK
6
CONTINUOUS
10
1.79894
20
-5.87956
11
1.79889
21
-5.87952
0
LINE
8
BLACK
6
CONTINUOUS
10
1.79889
20
-5.87952
11
1.79888
21
-5.87951
0
LINE
8
BLACK
6
CONTINUOUS
10
1.79888
20
-5.87951
11
1.79881
21
-5.87944
0
LINE
8
BLACK
6
CONTINUOUS
10
1.79881
20
-5.87944
11
1.79878
21
-5.87939
0
LINE
8
BLACK
6
CONTINUOUS
10
1.79878
20
-5.87939
11
1.79877
21
-5.87938
0
LINE
8
BLACK
6
CONTINUOUS
10
1.79877
20
-5.87938
11
1.7987
21
-5.87931
0
LINE
8
BLACK
6
CONTINUOUS
10
1.7987
20
-5.87931
11
1.79864
21
-5.87926
0
LINE
8
BLACK
6
CONTINUOUS
10
1.79864
20
-5.87926
11
1.79864
21
-5.87925
0
LINE
8
BLACK
6
CONTINUOUS
10
1.79864
20
-5.87925
11
1.79864
21
-5.87925
0
LINE
8
BLACK
6
CONTINUOUS
10
1.79864
20
-5.87925
11
1.7986
21
-5.87921
0
LINE
8
BLACK
6
CONTINUOUS
10
1.7986
20
-5.87921
11
1.78366
21
-5.86114
0
LINE
8
BLACK
6
CONTINUOUS
10
1.78366
20
-5.86114
11
1.78357
21
-5.86106
0
LINE
8
BLACK
6
CONTINUOUS
10
1.78357
20
-5.86106
11
1.78357
21
-5.86106
0
LINE
8
BLACK
6
CONTINUOUS
10
1.78357
20
-5.86106
11
1.78356
21
-5.86105
0
LINE
8
BLACK
6
CONTINUOUS
10
1.78356
20
-5.86105
11
1.78348
21
-5.86093
0
LINE
8
BLACK
6
CONTINUOUS
10
1.78348
20
-5.86093
11
1.78343
21
-5.86087
0
LINE
8
BLACK
6
CONTINUOUS
10
1.78343
20
-5.86087
11
1.78343
21
-5.86087
0
LINE
8
BLACK
6
CONTINUOUS
10
1.78343
20
-5.86087
11
1.78338
21
-5.8608
0
LINE
8
BLACK
6
CONTINUOUS
10
1.78338
20
-5.8608
11
1.78335
21
-5.86073
0
LINE
8
BLACK
6
CONTINUOUS
10
1.78335
20
-5.86073
11
1.78335
21
-5.86073
0
LINE
8
BLACK
6
CONTINUOUS
10
1.78335
20
-5.86073
11
1.7833
21
-5.86065
0
LINE
8
BLACK
6
CONTINUOUS
10
1.7833
20
-5.86065
11
1.78326
21
-5.86059
0
LINE
8
BLACK
6
CONTINUOUS
10
1.78326
20
-5.86059
11
1.78325
21
-5.86059
0
LINE
8
BLACK
6
CONTINUOUS
10
1.78325
20
-5.86059
11
1.78325
21
-5.86058
0
LINE
8
BLACK
6
CONTINUOUS
10
1.78325
20
-5.86058
11
1.78322
21
-5.86053
0
LINE
8
BLACK
6
CONTINUOUS
10
1.78322
20
-5.86053
11
1.77205
21
-5.83986
0
LINE
8
BLACK
6
CONTINUOUS
10
1.77205
20
-5.83986
11
1.77204
21
-5.83985
0
LINE
8
BLACK
6
CONTINUOUS
10
1.77204
20
-5.83985
11
1.77201
21
-5.8398
0
LINE
8
BLACK
6
CONTINUOUS
10
1.77201
20
-5.8398
11
1.77201
21
-5.83979
0
LINE
8
BLACK
6
CONTINUOUS
10
1.77201
20
-5.83979
11
1.77199
21
-5.83975
0
LINE
8
BLACK
6
CONTINUOUS
10
1.77199
20
-5.83975
11
1.77196
21
-5.8397
0
LINE
8
BLACK
6
CONTINUOUS
10
1.77196
20
-5.8397
11
1.77195
21
-5.83968
0
LINE
8
BLACK
6
CONTINUOUS
10
1.77195
20
-5.83968
11
1.77193
21
-5.83964
0
LINE
8
BLACK
6
CONTINUOUS
10
1.77193
20
-5.83964
11
1.77193
21
-5.83964
0
LINE
8
BLACK
6
CONTINUOUS
10
1.77193
20
-5.83964
11
1.77193
21
-5.83964
0
LINE
8
BLACK
6
CONTINUOUS
10
1.77193
20
-5.83964
11
1.7719
21
-5.83957
0
LINE
8
BLACK
6
CONTINUOUS
10
1.7719
20
-5.83957
11
1.7719
21
-5.83955
0
LINE
8
BLACK
6
CONTINUOUS
10
1.7719
20
-5.83955
11
1.77188
21
-5.83951
0
LINE
8
BLACK
6
CONTINUOUS
10
1.77188
20
-5.83951
11
1.77187
21
-5.8395
0
LINE
8
BLACK
6
CONTINUOUS
10
1.77187
20
-5.8395
11
1.77182
21
-5.83938
0
LINE
8
BLACK
6
CONTINUOUS
10
1.77182
20
-5.83938
11
1.7718
21
-5.83933
0
LINE
8
BLACK
6
CONTINUOUS
10
1.7718
20
-5.83933
11
1.77179
21
-5.83931
0
LINE
8
BLACK
6
CONTINUOUS
10
1.77179
20
-5.83931
11
1.77178
21
-5.83928
0
LINE
8
BLACK
6
CONTINUOUS
10
1.77178
20
-5.83928
11
1.77177
21
-5.83923
0
LINE
8
BLACK
6
CONTINUOUS
10
1.77177
20
-5.83923
11
1.77173
21
-5.83911
0
LINE
8
BLACK
6
CONTINUOUS
10
1.77173
20
-5.83911
11
1.77172
21
-5.83909
0
LINE
8
BLACK
6
CONTINUOUS
10
1.77172
20
-5.83909
11
1.76484
21
-5.81683
0
LINE
8
BLACK
6
CONTINUOUS
10
1.76484
20
-5.81683
11
1.76483
21
-5.81682
0
LINE
8
BLACK
6
CONTINUOUS
10
1.76483
20
-5.81682
11
1.7648
21
-5.81672
0
LINE
8
BLACK
6
CONTINUOUS
10
1.7648
20
-5.81672
11
1.76476
21
-5.81661
0
LINE
8
BLACK
6
CONTINUOUS
10
1.76476
20
-5.81661
11
1.76474
21
-5.81649
0
LINE
8
BLACK
6
CONTINUOUS
10
1.76474
20
-5.81649
11
1.76472
21
-5.81639
0
LINE
8
BLACK
6
CONTINUOUS
10
1.76472
20
-5.81639
11
1.76471
21
-5.81638
0
LINE
8
BLACK
6
CONTINUOUS
10
1.76471
20
-5.81638
11
1.76468
21
-5.81623
0
LINE
8
BLACK
6
CONTINUOUS
10
1.76468
20
-5.81623
11
1.76467
21
-5.81617
0
LINE
8
BLACK
6
CONTINUOUS
10
1.76467
20
-5.81617
11
1.76467
21
-5.81616
0
LINE
8
BLACK
6
CONTINUOUS
10
1.76467
20
-5.81616
11
1.76467
21
-5.81615
0
LINE
8
BLACK
6
CONTINUOUS
10
1.76467
20
-5.81615
11
1.76466
21
-5.81608
0
LINE
8
BLACK
6
CONTINUOUS
10
1.76466
20
-5.81608
11
1.76464
21
-5.81594
0
LINE
8
BLACK
6
CONTINUOUS
10
1.76464
20
-5.81594
11
1.76464
21
-5.81593
0
LINE
8
BLACK
6
CONTINUOUS
10
1.76464
20
-5.81593
11
1.76222
21
-5.79277
0
LINE
8
BLACK
6
CONTINUOUS
10
1.76222
20
-5.79277
11
1.76221
21
-5.79276
0
LINE
8
BLACK
6
CONTINUOUS
10
1.76221
20
-5.79276
11
1.7622
21
-5.79261
0
LINE
8
BLACK
6
CONTINUOUS
10
1.7622
20
-5.79261
11
1.76219
21
-5.79254
0
LINE
8
BLACK
6
CONTINUOUS
10
1.76219
20
-5.79254
11
1.76219
21
-5.79254
0
LINE
8
BLACK
6
CONTINUOUS
10
1.76219
20
-5.79254
11
1.76219
21
-5.79253
0
LINE
8
BLACK
6
CONTINUOUS
10
1.76219
20
-5.79253
11
1.76219
21
-5.79245
0
LINE
8
BLACK
6
CONTINUOUS
10
1.76219
20
-5.79245
11
1.76219
21
-5.79231
0
LINE
8
BLACK
6
CONTINUOUS
10
1.76219
20
-5.79231
11
1.76219
21
-5.7923
0
LINE
8
BLACK
6
CONTINUOUS
10
1.76219
20
-5.7923
11
1.76219
21
-5.79216
0
LINE
8
BLACK
6
CONTINUOUS
10
1.76219
20
-5.79216
11
1.76219
21
-5.79209
0
LINE
8
BLACK
6
CONTINUOUS
10
1.76219
20
-5.79209
11
1.76219
21
-5.79208
0
LINE
8
BLACK
6
CONTINUOUS
10
1.76219
20
-5.79208
11
1.76219
21
-5.79208
0
LINE
8
BLACK
6
CONTINUOUS
10
1.76219
20
-5.79208
11
1.7622
21
-5.792
0
LINE
8
BLACK
6
CONTINUOUS
10
1.7622
20
-5.792
11
1.76432
21
-5.76861
0
LINE
8
BLACK
6
CONTINUOUS
10
1.76432
20
-5.76861
11
1.76432
21
-5.76855
0
LINE
8
BLACK
6
CONTINUOUS
10
1.76432
20
-5.76855
11
1.76433
21
-5.76846
0
LINE
8
BLACK
6
CONTINUOUS
10
1.76433
20
-5.76846
11
1.76433
21
-5.76844
0
LINE
8
BLACK
6
CONTINUOUS
10
1.76433
20
-5.76844
11
1.76435
21
-5.76838
0
LINE
8
BLACK
6
CONTINUOUS
10
1.76435
20
-5.76838
11
1.76437
21
-5.76825
0
LINE
8
BLACK
6
CONTINUOUS
10
1.76437
20
-5.76825
11
1.76437
21
-5.76824
0
LINE
8
BLACK
6
CONTINUOUS
10
1.76437
20
-5.76824
11
1.76437
21
-5.76823
0
LINE
8
BLACK
6
CONTINUOUS
10
1.76437
20
-5.76823
11
1.76438
21
-5.7682
0
LINE
8
BLACK
6
CONTINUOUS
10
1.76438
20
-5.7682
11
1.76439
21
-5.76815
0
LINE
8
BLACK
6
CONTINUOUS
10
1.76439
20
-5.76815
11
1.76441
21
-5.76805
0
LINE
8
BLACK
6
CONTINUOUS
10
1.76441
20
-5.76805
11
1.76442
21
-5.76799
0
LINE
8
BLACK
6
CONTINUOUS
10
1.76442
20
-5.76799
11
1.76443
21
-5.76798
0
LINE
8
BLACK
6
CONTINUOUS
10
1.76443
20
-5.76798
11
1.76443
21
-5.76796
0
LINE
8
BLACK
6
CONTINUOUS
10
1.76443
20
-5.76796
11
1.76445
21
-5.7679
0
LINE
8
BLACK
6
CONTINUOUS
10
1.76445
20
-5.7679
11
1.77108
21
-5.74538
0
LINE
8
BLACK
6
CONTINUOUS
10
1.77108
20
-5.74538
11
1.77109
21
-5.74532
0
LINE
8
BLACK
6
CONTINUOUS
10
1.77109
20
-5.74532
11
1.77112
21
-5.74523
0
LINE
8
BLACK
6
CONTINUOUS
10
1.77112
20
-5.74523
11
1.77113
21
-5.74521
0
LINE
8
BLACK
6
CONTINUOUS
10
1.77113
20
-5.74521
11
1.77115
21
-5.74515
0
LINE
8
BLACK
6
CONTINUOUS
10
1.77115
20
-5.74515
11
1.77117
21
-5.7451
0
LINE
8
BLACK
6
CONTINUOUS
10
1.77117
20
-5.7451
11
1.77118
21
-5.74509
0
LINE
8
BLACK
6
CONTINUOUS
10
1.77118
20
-5.74509
11
1.7712
21
-5.74504
0
LINE
8
BLACK
6
CONTINUOUS
10
1.7712
20
-5.74504
11
1.77121
21
-5.74499
0
LINE
8
BLACK
6
CONTINUOUS
10
1.77121
20
-5.74499
11
1.77122
21
-5.74497
0
LINE
8
BLACK
6
CONTINUOUS
10
1.77122
20
-5.74497
11
1.77123
21
-5.74495
0
LINE
8
BLACK
6
CONTINUOUS
10
1.77123
20
-5.74495
11
1.77126
21
-5.7449
0
LINE
8
BLACK
6
CONTINUOUS
10
1.77126
20
-5.7449
11
1.77129
21
-5.74483
0
LINE
8
BLACK
6
CONTINUOUS
10
1.77129
20
-5.74483
11
1.7713
21
-5.74479
0
LINE
8
BLACK
6
CONTINUOUS
10
1.7713
20
-5.74479
11
1.77132
21
-5.74476
0
LINE
8
BLACK
6
CONTINUOUS
10
1.77132
20
-5.74476
11
1.77134
21
-5.74472
0
LINE
8
BLACK
6
CONTINUOUS
10
1.77134
20
-5.74472
11
1.77136
21
-5.74469
0
LINE
8
BLACK
6
CONTINUOUS
10
1.77136
20
-5.74469
11
1.7822
21
-5.72394
0
LINE
8
BLACK
6
CONTINUOUS
10
1.7822
20
-5.72394
11
1.7822
21
-5.72393
0
LINE
8
BLACK
6
CONTINUOUS
10
1.7822
20
-5.72393
11
1.78227
21
-5.72381
0
LINE
8
BLACK
6
CONTINUOUS
10
1.78227
20
-5.72381
11
1.78229
21
-5.72376
0
LINE
8
BLACK
6
CONTINUOUS
10
1.78229
20
-5.72376
11
1.7823
21
-5.72374
0
LINE
8
BLACK
6
CONTINUOUS
10
1.7823
20
-5.72374
11
1.78231
21
-5.72372
0
LINE
8
BLACK
6
CONTINUOUS
10
1.78231
20
-5.72372
11
1.78234
21
-5.72368
0
LINE
8
BLACK
6
CONTINUOUS
10
1.78234
20
-5.72368
11
1.78242
21
-5.72356
0
LINE
8
BLACK
6
CONTINUOUS
10
1.78242
20
-5.72356
11
1.78243
21
-5.72355
0
LINE
8
BLACK
6
CONTINUOUS
10
1.78243
20
-5.72355
11
1.78251
21
-5.72343
0
LINE
8
BLACK
6
CONTINUOUS
10
1.78251
20
-5.72343
11
1.78255
21
-5.72337
0
LINE
8
BLACK
6
CONTINUOUS
10
1.78255
20
-5.72337
11
1.78255
21
-5.72336
0
LINE
8
BLACK
6
CONTINUOUS
10
1.78255
20
-5.72336
11
1.78256
21
-5.72336
0
LINE
8
BLACK
6
CONTINUOUS
10
1.78256
20
-5.72336
11
1.7826
21
-5.7233
0
LINE
8
BLACK
6
CONTINUOUS
10
1.7826
20
-5.7233
11
1.79729
21
-5.70504
0
LINE
8
BLACK
6
CONTINUOUS
10
1.79729
20
-5.70504
11
1.79729
21
-5.70503
0
LINE
8
BLACK
6
CONTINUOUS
10
1.79729
20
-5.70503
11
1.79738
21
-5.70492
0
LINE
8
BLACK
6
CONTINUOUS
10
1.79738
20
-5.70492
11
1.79743
21
-5.70487
0
LINE
8
BLACK
6
CONTINUOUS
10
1.79743
20
-5.70487
11
1.79743
21
-5.70486
0
LINE
8
BLACK
6
CONTINUOUS
10
1.79743
20
-5.70486
11
1.79744
21
-5.70485
0
LINE
8
BLACK
6
CONTINUOUS
10
1.79744
20
-5.70485
11
1.79749
21
-5.70481
0
LINE
8
BLACK
6
CONTINUOUS
10
1.79749
20
-5.70481
11
1.79757
21
-5.70472
0
LINE
8
BLACK
6
CONTINUOUS
10
1.79757
20
-5.70472
11
1.79758
21
-5.7047
0
LINE
8
BLACK
6
CONTINUOUS
10
1.79758
20
-5.7047
11
1.79767
21
-5.70461
0
LINE
8
BLACK
6
CONTINUOUS
10
1.79767
20
-5.70461
11
1.7977
21
-5.70458
0
LINE
8
BLACK
6
CONTINUOUS
10
1.7977
20
-5.70458
11
1.79772
21
-5.70456
0
LINE
8
BLACK
6
CONTINUOUS
10
1.79772
20
-5.70456
11
1.79774
21
-5.70454
0
LINE
8
BLACK
6
CONTINUOUS
10
1.79774
20
-5.70454
11
1.79778
21
-5.70451
0
LINE
8
BLACK
6
CONTINUOUS
10
1.79778
20
-5.70451
11
1.79787
21
-5.70442
0
LINE
8
BLACK
6
CONTINUOUS
10
1.79787
20
-5.70442
11
1.7979
21
-5.70441
0
LINE
8
BLACK
6
CONTINUOUS
10
1.7979
20
-5.70441
11
1.81584
21
-5.68936
0
LINE
8
BLACK
6
CONTINUOUS
10
1.81584
20
-5.68936
11
1.81591
21
-5.68928
0
LINE
8
BLACK
6
CONTINUOUS
10
1.81591
20
-5.68928
11
1.81602
21
-5.68922
0
LINE
8
BLACK
6
CONTINUOUS
10
1.81602
20
-5.68922
11
1.81607
21
-5.68918
0
LINE
8
BLACK
6
CONTINUOUS
10
1.81607
20
-5.68918
11
1.8161
21
-5.68916
0
LINE
8
BLACK
6
CONTINUOUS
10
1.8161
20
-5.68916
11
1.81613
21
-5.68914
0
LINE
8
BLACK
6
CONTINUOUS
10
1.81613
20
-5.68914
11
1.81615
21
-5.68912
0
LINE
8
BLACK
6
CONTINUOUS
10
1.81615
20
-5.68912
11
1.81619
21
-5.6891
0
LINE
8
BLACK
6
CONTINUOUS
10
1.81619
20
-5.6891
11
1.81625
21
-5.68906
0
LINE
8
BLACK
6
CONTINUOUS
10
1.81625
20
-5.68906
11
1.81629
21
-5.68904
0
LINE
8
BLACK
6
CONTINUOUS
10
1.81629
20
-5.68904
11
1.81632
21
-5.68902
0
LINE
8
BLACK
6
CONTINUOUS
10
1.81632
20
-5.68902
11
1.81634
21
-5.689
0
LINE
8
BLACK
6
CONTINUOUS
10
1.81634
20
-5.689
11
1.81638
21
-5.68898
0
LINE
8
BLACK
6
CONTINUOUS
10
1.81638
20
-5.68898
11
1.83515
21
-5.67846
0
LINE
8
BLACK
6
CONTINUOUS
10
1.83515
20
-5.67846
11
1.83518
21
-5.67844
0
LINE
8
BLACK
6
CONTINUOUS
10
1.83518
20
-5.67844
11
1.83522
21
-5.67842
0
LINE
8
BLACK
6
CONTINUOUS
10
1.83522
20
-5.67842
11
1.83525
21
-5.6784
0
LINE
8
BLACK
6
CONTINUOUS
10
1.83525
20
-5.6784
11
1.83528
21
-5.67839
0
LINE
8
BLACK
6
CONTINUOUS
10
1.83528
20
-5.67839
11
1.8353
21
-5.67838
0
LINE
8
BLACK
6
CONTINUOUS
10
1.8353
20
-5.67838
11
1.83534
21
-5.67836
0
LINE
8
BLACK
6
CONTINUOUS
10
1.83534
20
-5.67836
11
1.83538
21
-5.67834
0
LINE
8
BLACK
6
CONTINUOUS
10
1.83538
20
-5.67834
11
1.83541
21
-5.67833
0
LINE
8
BLACK
6
CONTINUOUS
10
1.83541
20
-5.67833
11
2.27369
21
-5.48182
0
LINE
8
BLACK
6
CONTINUOUS
10
2.27369
20
-5.48182
11
2.27369
21
-1.90922
0
LINE
8
BLACK
6
CONTINUOUS
10
2.27369
20
-1.90922
11
1.83539
21
-1.71272
0
LINE
8
BLACK
6
CONTINUOUS
10
1.83539
20
-1.71272
11
1.8353
21
-1.71268
0
LINE
8
BLACK
6
CONTINUOUS
10
1.8353
20
-1.71268
11
1.81471
21
-1.70091
0
LINE
8
BLACK
6
CONTINUOUS
10
1.81471
20
-1.70091
11
1.8146
21
-1.70085
0
LINE
8
BLACK
6
CONTINUOUS
10
1.8146
20
-1.70085
11
1.81452
21
-1.70079
0
LINE
8
BLACK
6
CONTINUOUS
10
1.81452
20
-1.70079
11
1.81447
21
-1.70075
0
LINE
8
BLACK
6
CONTINUOUS
10
1.81447
20
-1.70075
11
1.81447
21
-1.70075
0
LINE
8
BLACK
6
CONTINUOUS
10
1.81447
20
-1.70075
11
1.81445
21
-1.70074
0
LINE
8
BLACK
6
CONTINUOUS
10
1.81445
20
-1.70074
11
1.81444
21
-1.70073
0
LINE
8
BLACK
6
CONTINUOUS
10
1.81444
20
-1.70073
11
1.81444
21
-1.70073
0
LINE
8
BLACK
6
CONTINUOUS
10
1.81444
20
-1.70073
11
1.81444
21
-1.70073
0
LINE
8
BLACK
6
CONTINUOUS
10
1.81444
20
-1.70073
11
1.8144
21
-1.7007
0
LINE
8
BLACK
6
CONTINUOUS
10
1.8144
20
-1.7007
11
1.81437
21
-1.70068
0
LINE
8
BLACK
6
CONTINUOUS
10
1.81437
20
-1.70068
11
1.81431
21
-1.70063
0
LINE
8
BLACK
6
CONTINUOUS
10
1.81431
20
-1.70063
11
1.81425
21
-1.70059
0
LINE
8
BLACK
6
CONTINUOUS
10
1.81425
20
-1.70059
11
1.81424
21
-1.70059
0
LINE
8
BLACK
6
CONTINUOUS
10
1.81424
20
-1.70059
11
1.81424
21
-1.70058
0
LINE
8
BLACK
6
CONTINUOUS
10
1.81424
20
-1.70058
11
1.81419
21
-1.70054
0
LINE
8
BLACK
6
CONTINUOUS
10
1.81419
20
-1.70054
11
1.79646
21
-1.68516
0
LINE
8
BLACK
6
CONTINUOUS
10
1.79646
20
-1.68516
11
1.79645
21
-1.68516
0
LINE
8
BLACK
6
CONTINUOUS
10
1.79645
20
-1.68516
11
1.79639
21
-1.6851
0
LINE
8
BLACK
6
CONTINUOUS
10
1.79639
20
-1.6851
11
1.79635
21
-1.68506
0
LINE
8
BLACK
6
CONTINUOUS
10
1.79635
20
-1.68506
11
1.79633
21
-1.68505
0
LINE
8
BLACK
6
CONTINUOUS
10
1.79633
20
-1.68505
11
1.79632
21
-1.68503
0
LINE
8
BLACK
6
CONTINUOUS
10
1.79632
20
-1.68503
11
1.7963
21
-1.68501
0
LINE
8
BLACK
6
CONTINUOUS
10
1.7963
20
-1.68501
11
1.79628
21
-1.685
0
LINE
8
BLACK
6
CONTINUOUS
10
1.79628
20
-1.685
11
1.79626
21
-1.68497
0
LINE
8
BLACK
6
CONTINUOUS
10
1.79626
20
-1.68497
11
1.79623
21
-1.68494
0
LINE
8
BLACK
6
CONTINUOUS
10
1.79623
20
-1.68494
11
1.79621
21
-1.68492
0
LINE
8
BLACK
6
CONTINUOUS
10
1.79621
20
-1.68492
11
1.79616
21
-1.68487
0
LINE
8
BLACK
6
CONTINUOUS
10
1.79616
20
-1.68487
11
1.79616
21
-1.68487
0
LINE
8
BLACK
6
CONTINUOUS
10
1.79616
20
-1.68487
11
1.79607
21
-1.68477
0
LINE
8
BLACK
6
CONTINUOUS
10
1.79607
20
-1.68477
11
1.79603
21
-1.68473
0
LINE
8
BLACK
6
CONTINUOUS
10
1.79603
20
-1.68473
11
1.79601
21
-1.68472
0
LINE
8
BLACK
6
CONTINUOUS
10
1.79601
20
-1.68472
11
1.796
21
-1.6847
0
LINE
8
BLACK
6
CONTINUOUS
10
1.796
20
-1.6847
11
1.79596
21
-1.68466
0
LINE
8
BLACK
6
CONTINUOUS
10
1.79596
20
-1.68466
11
1.79588
21
-1.68455
0
LINE
8
BLACK
6
CONTINUOUS
10
1.79588
20
-1.68455
11
1.79587
21
-1.68453
0
LINE
8
BLACK
6
CONTINUOUS
10
1.79587
20
-1.68453
11
1.78153
21
-1.66608
0
LINE
8
BLACK
6
CONTINUOUS
10
1.78153
20
-1.66608
11
1.78148
21
-1.66602
0
LINE
8
BLACK
6
CONTINUOUS
10
1.78148
20
-1.66602
11
1.78135
21
-1.66583
0
LINE
8
BLACK
6
CONTINUOUS
10
1.78135
20
-1.66583
11
1.78135
21
-1.66583
0
LINE
8
BLACK
6
CONTINUOUS
10
1.78135
20
-1.66583
11
1.78135
21
-1.66582
0
LINE
8
BLACK
6
CONTINUOUS
10
1.78135
20
-1.66582
11
1.78134
21
-1.66581
0
LINE
8
BLACK
6
CONTINUOUS
10
1.78134
20
-1.66581
11
1.78131
21
-1.66577
0
LINE
8
BLACK
6
CONTINUOUS
10
1.78131
20
-1.66577
11
1.7813
21
-1.66575
0
LINE
8
BLACK
6
CONTINUOUS
10
1.7813
20
-1.66575
11
1.78128
21
-1.66572
0
LINE
8
BLACK
6
CONTINUOUS
10
1.78128
20
-1.66572
11
1.78126
21
-1.66568
0
LINE
8
BLACK
6
CONTINUOUS
10
1.78126
20
-1.66568
11
1.78122
21
-1.66561
0
LINE
8
BLACK
6
CONTINUOUS
10
1.78122
20
-1.66561
11
1.78119
21
-1.66557
0
LINE
8
BLACK
6
CONTINUOUS
10
1.78119
20
-1.66557
11
1.78118
21
-1.66554
0
LINE
8
BLACK
6
CONTINUOUS
10
1.78118
20
-1.66554
11
1.78117
21
-1.66552
0
LINE
8
BLACK
6
CONTINUOUS
10
1.78117
20
-1.66552
11
1.78115
21
-1.66548
0
LINE
8
BLACK
6
CONTINUOUS
10
1.78115
20
-1.66548
11
1.77063
21
-1.64452
0
LINE
8
BLACK
6
CONTINUOUS
10
1.77063
20
-1.64452
11
1.77062
21
-1.64451
0
LINE
8
BLACK
6
CONTINUOUS
10
1.77062
20
-1.64451
11
1.77056
21
-1.64438
0
LINE
8
BLACK
6
CONTINUOUS
10
1.77056
20
-1.64438
11
1.77053
21
-1.64433
0
LINE
8
BLACK
6
CONTINUOUS
10
1.77053
20
-1.64433
11
1.77053
21
-1.64431
0
LINE
8
BLACK
6
CONTINUOUS
10
1.77053
20
-1.64431
11
1.77052
21
-1.6443
0
LINE
8
BLACK
6
CONTINUOUS
10
1.77052
20
-1.6443
11
1.7705
21
-1.64424
0
LINE
8
BLACK
6
CONTINUOUS
10
1.7705
20
-1.64424
11
1.77045
21
-1.64411
0
LINE
8
BLACK
6
CONTINUOUS
10
1.77045
20
-1.64411
11
1.77045
21
-1.6441
0
LINE
8
BLACK
6
CONTINUOUS
10
1.77045
20
-1.6441
11
1.77041
21
-1.64401
0
LINE
8
BLACK
6
CONTINUOUS
10
1.77041
20
-1.64401
11
1.77038
21
-1.64392
0
LINE
8
BLACK
6
CONTINUOUS
10
1.77038
20
-1.64392
11
1.76411
21
-1.62124
0
LINE
8
BLACK
6
CONTINUOUS
10
1.76411
20
-1.62124
11
1.76409
21
-1.6212
0
LINE
8
BLACK
6
CONTINUOUS
10
1.76409
20
-1.6212
11
1.76408
21
-1.62114
0
LINE
8
BLACK
6
CONTINUOUS
10
1.76408
20
-1.62114
11
1.76406
21
-1.62109
0
LINE
8
BLACK
6
CONTINUOUS
10
1.76406
20
-1.62109
11
1.76404
21
-1.62099
0
LINE
8
BLACK
6
CONTINUOUS
10
1.76404
20
-1.62099
11
1.76404
21
-1.62097
0
LINE
8
BLACK
6
CONTINUOUS
10
1.76404
20
-1.62097
11
1.76403
21
-1.62092
0
LINE
8
BLACK
6
CONTINUOUS
10
1.76403
20
-1.62092
11
1.76401
21
-1.62082
0
LINE
8
BLACK
6
CONTINUOUS
10
1.76401
20
-1.62082
11
1.76401
21
-1.62082
0
LINE
8
BLACK
6
CONTINUOUS
10
1.76401
20
-1.62082
11
1.76399
21
-1.62069
0
LINE
8
BLACK
6
CONTINUOUS
10
1.76399
20
-1.62069
11
1.76398
21
-1.62065
0
LINE
8
BLACK
6
CONTINUOUS
10
1.76398
20
-1.62065
11
1.76398
21
-1.62062
0
LINE
8
BLACK
6
CONTINUOUS
10
1.76398
20
-1.62062
11
1.76397
21
-1.62059
0
LINE
8
BLACK
6
CONTINUOUS
10
1.76397
20
-1.62059
11
1.76397
21
-1.62054
0
LINE
8
BLACK
6
CONTINUOUS
10
1.76397
20
-1.62054
11
1.76395
21
-1.62042
0
LINE
8
BLACK
6
CONTINUOUS
10
1.76395
20
-1.62042
11
1.76396
21
-1.62039
0
LINE
8
BLACK
6
CONTINUOUS
10
1.76396
20
-1.62039
11
1.76224
21
-1.59714
0
LINE
8
BLACK
6
CONTINUOUS
10
1.76224
20
-1.59714
11
1.76222
21
-1.59706
0
LINE
8
BLACK
6
CONTINUOUS
10
1.76222
20
-1.59706
11
1.76222
21
-1.59701
0
LINE
8
BLACK
6
CONTINUOUS
10
1.76222
20
-1.59701
11
1.76221
21
-1.59697
0
LINE
8
BLACK
6
CONTINUOUS
10
1.76221
20
-1.59697
11
1.76221
21
-1.59686
0
LINE
8
BLACK
6
CONTINUOUS
10
1.76221
20
-1.59686
11
1.76221
21
-1.59683
0
LINE
8
BLACK
6
CONTINUOUS
10
1.76221
20
-1.59683
11
1.76221
21
-1.59678
0
LINE
8
BLACK
6
CONTINUOUS
10
1.76221
20
-1.59678
11
1.76222
21
-1.59666
0
LINE
8
BLACK
6
CONTINUOUS
10
1.76222
20
-1.59666
11
1.76222
21
-1.59664
0
LINE
8
BLACK
6
CONTINUOUS
10
1.76222
20
-1.59664
11
1.76222
21
-1.59655
0
LINE
8
BLACK
6
CONTINUOUS
10
1.76222
20
-1.59655
11
1.76222
21
-1.59649
0
LINE
8
BLACK
6
CONTINUOUS
10
1.76222
20
-1.59649
11
1.76222
21
-1.59647
0
LINE
8
BLACK
6
CONTINUOUS
10
1.76222
20
-1.59647
11
1.76222
21
-1.59645
0
LINE
8
BLACK
6
CONTINUOUS
10
1.76222
20
-1.59645
11
1.76223
21
-1.59639
0
LINE
8
BLACK
6
CONTINUOUS
10
1.76223
20
-1.59639
11
1.76224
21
-1.59625
0
LINE
8
BLACK
6
CONTINUOUS
10
1.76224
20
-1.59625
11
1.76225
21
-1.59624
0
LINE
8
BLACK
6
CONTINUOUS
10
1.76225
20
-1.59624
11
1.76507
21
-1.57311
0
LINE
8
BLACK
6
CONTINUOUS
10
1.76507
20
-1.57311
11
1.76507
21
-1.57311
0
LINE
8
BLACK
6
CONTINUOUS
10
1.76507
20
-1.57311
11
1.76509
21
-1.57297
0
LINE
8
BLACK
6
CONTINUOUS
10
1.76509
20
-1.57297
11
1.7651
21
-1.57282
0
LINE
8
BLACK
6
CONTINUOUS
10
1.7651
20
-1.57282
11
1.76513
21
-1.57274
0
LINE
8
BLACK
6
CONTINUOUS
10
1.76513
20
-1.57274
11
1.76514
21
-1.57267
0
LINE
8
BLACK
6
CONTINUOUS
10
1.76514
20
-1.57267
11
1.76514
21
-1.57266
0
LINE
8
BLACK
6
CONTINUOUS
10
1.76514
20
-1.57266
11
1.76518
21
-1.57252
0
LINE
8
BLACK
6
CONTINUOUS
10
1.76518
20
-1.57252
11
1.76519
21
-1.57245
0
LINE
8
BLACK
6
CONTINUOUS
10
1.76519
20
-1.57245
11
1.76519
21
-1.57244
0
LINE
8
BLACK
6
CONTINUOUS
10
1.76519
20
-1.57244
11
1.7652
21
-1.57244
0
LINE
8
BLACK
6
CONTINUOUS
10
1.7652
20
-1.57244
11
1.76522
21
-1.57237
0
LINE
8
BLACK
6
CONTINUOUS
10
1.76522
20
-1.57237
11
1.76526
21
-1.57223
0
LINE
8
BLACK
6
CONTINUOUS
10
1.76526
20
-1.57223
11
1.76527
21
-1.57222
0
LINE
8
BLACK
6
CONTINUOUS
10
1.76527
20
-1.57222
11
1.77253
21
-1.55006
0
LINE
8
BLACK
6
CONTINUOUS
10
1.77253
20
-1.55006
11
1.77254
21
-1.55003
0
LINE
8
BLACK
6
CONTINUOUS
10
1.77254
20
-1.55003
11
1.77258
21
-1.54992
0
LINE
8
BLACK
6
CONTINUOUS
10
1.77258
20
-1.54992
11
1.77259
21
-1.54988
0
LINE
8
BLACK
6
CONTINUOUS
10
1.77259
20
-1.54988
11
1.77261
21
-1.54984
0
LINE
8
BLACK
6
CONTINUOUS
10
1.77261
20
-1.54984
11
1.77262
21
-1.54981
0
LINE
8
BLACK
6
CONTINUOUS
10
1.77262
20
-1.54981
11
1.77263
21
-1.54979
0
LINE
8
BLACK
6
CONTINUOUS
10
1.77263
20
-1.54979
11
1.77265
21
-1.54975
0
LINE
8
BLACK
6
CONTINUOUS
10
1.77265
20
-1.54975
11
1.77266
21
-1.5497
0
LINE
8
BLACK
6
CONTINUOUS
10
1.77266
20
-1.5497
11
1.77267
21
-1.54968
0
LINE
8
BLACK
6
CONTINUOUS
10
1.77267
20
-1.54968
11
1.77268
21
-1.54966
0
LINE
8
BLACK
6
CONTINUOUS
10
1.77268
20
-1.54966
11
1.77271
21
-1.54961
0
LINE
8
BLACK
6
CONTINUOUS
10
1.77271
20
-1.54961
11
1.77275
21
-1.54952
0
LINE
8
BLACK
6
CONTINUOUS
10
1.77275
20
-1.54952
11
1.77278
21
-1.54946
0
LINE
8
BLACK
6
CONTINUOUS
10
1.77278
20
-1.54946
11
1.77278
21
-1.54945
0
LINE
8
BLACK
6
CONTINUOUS
10
1.77278
20
-1.54945
11
1.77279
21
-1.54943
0
LINE
8
BLACK
6
CONTINUOUS
10
1.77279
20
-1.54943
11
1.77282
21
-1.54938
0
LINE
8
BLACK
6
CONTINUOUS
10
1.77282
20
-1.54938
11
1.78432
21
-1.52893
0
LINE
8
BLACK
6
CONTINUOUS
10
1.78432
20
-1.52893
11
1.78432
21
-1.52891
0
LINE
8
BLACK
6
CONTINUOUS
10
1.78432
20
-1.52891
11
1.78437
21
-1.52883
0
LINE
8
BLACK
6
CONTINUOUS
10
1.78437
20
-1.52883
11
1.78438
21
-1.52881
0
LINE
8
BLACK
6
CONTINUOUS
10
1.78438
20
-1.52881
11
1.78441
21
-1.52876
0
LINE
8
BLACK
6
CONTINUOUS
10
1.78441
20
-1.52876
11
1.78444
21
-1.52871
0
LINE
8
BLACK
6
CONTINUOUS
10
1.78444
20
-1.52871
11
1.78445
21
-1.52869
0
LINE
8
BLACK
6
CONTINUOUS
10
1.78445
20
-1.52869
11
1.78451
21
-1.52861
0
LINE
8
BLACK
6
CONTINUOUS
10
1.78451
20
-1.52861
11
1.78455
21
-1.52857
0
LINE
8
BLACK
6
CONTINUOUS
10
1.78455
20
-1.52857
11
1.78465
21
-1.52843
0
LINE
8
BLACK
6
CONTINUOUS
10
1.78465
20
-1.52843
11
1.78468
21
-1.52839
0
LINE
8
BLACK
6
CONTINUOUS
10
1.78468
20
-1.52839
11
1.78469
21
-1.52837
0
LINE
8
BLACK
6
CONTINUOUS
10
1.78469
20
-1.52837
11
1.78471
21
-1.52836
0
LINE
8
BLACK
6
CONTINUOUS
10
1.78471
20
-1.52836
11
1.78474
21
-1.52831
0
LINE
8
BLACK
6
CONTINUOUS
10
1.78474
20
-1.52831
11
1.79997
21
-1.51052
0
LINE
8
BLACK
6
CONTINUOUS
10
1.79997
20
-1.51052
11
1.8
21
-1.51047
0
LINE
8
BLACK
6
CONTINUOUS
10
1.8
20
-1.51047
11
1.80001
21
-1.51046
0
LINE
8
BLACK
6
CONTINUOUS
10
1.80001
20
-1.51046
11
1.80001
21
-1.51045
0
LINE
8
BLACK
6
CONTINUOUS
10
1.80001
20
-1.51045
11
1.80011
21
-1.51034
0
LINE
8
BLACK
6
CONTINUOUS
10
1.80011
20
-1.51034
11
1.80015
21
-1.5103
0
LINE
8
BLACK
6
CONTINUOUS
10
1.80015
20
-1.5103
11
1.80016
21
-1.51029
0
LINE
8
BLACK
6
CONTINUOUS
10
1.80016
20
-1.51029
11
1.80023
21
-1.51022
0
LINE
8
BLACK
6
CONTINUOUS
10
1.80023
20
-1.51022
11
1.80028
21
-1.51018
0
LINE
8
BLACK
6
CONTINUOUS
10
1.80028
20
-1.51018
11
1.8004
21
-1.51007
0
LINE
8
BLACK
6
CONTINUOUS
10
1.8004
20
-1.51007
11
1.80044
21
-1.51003
0
LINE
8
BLACK
6
CONTINUOUS
10
1.80044
20
-1.51003
11
1.80046
21
-1.51002
0
LINE
8
BLACK
6
CONTINUOUS
10
1.80046
20
-1.51002
11
1.80048
21
-1.51
0
LINE
8
BLACK
6
CONTINUOUS
10
1.80048
20
-1.51
11
1.80052
21
-1.50997
0
LINE
8
BLACK
6
CONTINUOUS
10
1.80052
20
-1.50997
11
1.81893
21
-1.49546
0
LINE
8
BLACK
6
CONTINUOUS
10
1.81893
20
-1.49546
11
1.81897
21
-1.49542
0
LINE
8
BLACK
6
CONTINUOUS
10
1.81897
20
-1.49542
11
1.81905
21
-1.49536
0
LINE
8
BLACK
6
CONTINUOUS
10
1.81905
20
-1.49536
11
1.81913
21
-1.49529
0
LINE
8
BLACK
6
CONTINUOUS
10
1.81913
20
-1.49529
11
1.81925
21
-1.49523
0
LINE
8
BLACK
6
CONTINUOUS
10
1.81925
20
-1.49523
11
1.81927
21
-1.49521
0
LINE
8
BLACK
6
CONTINUOUS
10
1.81927
20
-1.49521
11
1.81927
21
-1.49521
0
LINE
8
BLACK
6
CONTINUOUS
10
1.81927
20
-1.49521
11
1.81939
21
-1.49514
0
LINE
8
BLACK
6
CONTINUOUS
10
1.81939
20
-1.49514
11
1.81945
21
-1.4951
0
LINE
8
BLACK
6
CONTINUOUS
10
1.81945
20
-1.4951
11
1.81946
21
-1.49509
0
LINE
8
BLACK
6
CONTINUOUS
10
1.81946
20
-1.49509
11
1.81947
21
-1.49509
0
LINE
8
BLACK
6
CONTINUOUS
10
1.81947
20
-1.49509
11
1.81953
21
-1.49506
0
LINE
8
BLACK
6
CONTINUOUS
10
1.81953
20
-1.49506
11
1.81965
21
-1.49499
0
LINE
8
BLACK
6
CONTINUOUS
10
1.81965
20
-1.49499
11
1.81966
21
-1.49499
0
LINE
8
BLACK
6
CONTINUOUS
10
1.81966
20
-1.49499
11
1.84044
21
-1.48437
0
LINE
8
BLACK
6
CONTINUOUS
10
1.84044
20
-1.48437
11
1.84046
21
-1.48436
0
LINE
8
BLACK
6
CONTINUOUS
10
1.84046
20
-1.48436
11
1.84058
21
-1.4843
0
LINE
8
BLACK
6
CONTINUOUS
10
1.84058
20
-1.4843
11
1.84063
21
-1.48428
0
LINE
8
BLACK
6
CONTINUOUS
10
1.84063
20
-1.48428
11
1.84065
21
-1.48427
0
LINE
8
BLACK
6
CONTINUOUS
10
1.84065
20
-1.48427
11
1.84067
21
-1.48426
0
LINE
8
BLACK
6
CONTINUOUS
10
1.84067
20
-1.48426
11
1.84072
21
-1.48424
0
LINE
8
BLACK
6
CONTINUOUS
10
1.84072
20
-1.48424
11
1.84084
21
-1.48419
0
LINE
8
BLACK
6
CONTINUOUS
10
1.84084
20
-1.48419
11
1.84087
21
-1.48419
0
LINE
8
BLACK
6
CONTINUOUS
10
1.84087
20
-1.48419
11
1.84098
21
-1.48414
0
LINE
8
BLACK
6
CONTINUOUS
10
1.84098
20
-1.48414
11
1.84104
21
-1.48412
0
LINE
8
BLACK
6
CONTINUOUS
10
1.84104
20
-1.48412
11
1.84105
21
-1.48412
0
LINE
8
BLACK
6
CONTINUOUS
10
1.84105
20
-1.48412
11
1.84105
21
-1.48412
0
LINE
8
BLACK
6
CONTINUOUS
10
1.84105
20
-1.48412
11
1.84112
21
-1.4841
0
LINE
8
BLACK
6
CONTINUOUS
10
1.84112
20
-1.4841
11
1.86368
21
-1.47769
0
LINE
8
BLACK
6
CONTINUOUS
10
1.86368
20
-1.47769
11
1.86372
21
-1.47767
0
LINE
8
BLACK
6
CONTINUOUS
10
1.86372
20
-1.47767
11
1.86378
21
-1.47766
0
LINE
8
BLACK
6
CONTINUOUS
10
1.86378
20
-1.47766
11
1.86384
21
-1.47764
0
LINE
8
BLACK
6
CONTINUOUS
10
1.86384
20
-1.47764
11
1.86393
21
-1.47762
0
LINE
8
BLACK
6
CONTINUOUS
10
1.86393
20
-1.47762
11
1.86395
21
-1.47762
0
LINE
8
BLACK
6
CONTINUOUS
10
1.86395
20
-1.47762
11
1.86401
21
-1.47761
0
LINE
8
BLACK
6
CONTINUOUS
10
1.86401
20
-1.47761
11
1.86414
21
-1.47758
0
LINE
8
BLACK
6
CONTINUOUS
10
1.86414
20
-1.47758
11
1.86416
21
-1.47759
0
LINE
8
BLACK
6
CONTINUOUS
10
1.86416
20
-1.47759
11
1.86426
21
-1.47757
0
LINE
8
BLACK
6
CONTINUOUS
10
1.86426
20
-1.47757
11
1.86431
21
-1.47756
0
LINE
8
BLACK
6
CONTINUOUS
10
1.86431
20
-1.47756
11
1.86434
21
-1.47756
0
LINE
8
BLACK
6
CONTINUOUS
10
1.86434
20
-1.47756
11
1.86437
21
-1.47755
0
LINE
8
BLACK
6
CONTINUOUS
10
1.86437
20
-1.47755
11
1.86442
21
-1.47755
0
LINE
8
BLACK
6
CONTINUOUS
10
1.86442
20
-1.47755
11
1.88576
21
-1.47564
0
LINE
8
BLACK
6
CONTINUOUS
10
1.88576
20
-1.47564
11
1.88578
21
-1.47563
0
LINE
8
BLACK
6
CONTINUOUS
10
1.88578
20
-1.47563
11
1.88588
21
-1.47562
0
LINE
8
BLACK
6
CONTINUOUS
10
1.88588
20
-1.47562
11
1.8859
21
-1.47562
0
LINE
8
BLACK
6
CONTINUOUS
10
1.8859
20
-1.47562
11
1.88595
21
-1.47561
0
LINE
8
BLACK
6
CONTINUOUS
10
1.88595
20
-1.47561
11
1.88601
21
-1.47561
0
LINE
8
BLACK
6
CONTINUOUS
10
1.88601
20
-1.47561
11
1.88603
21
-1.47561
0
LINE
8
BLACK
6
CONTINUOUS
10
1.88603
20
-1.47561
11
1.88613
21
-1.4756
0
LINE
8
BLACK
6
CONTINUOUS
10
1.88613
20
-1.4756
11
1.88619
21
-1.47561
0
LINE
8
BLACK
6
CONTINUOUS
10
1.88619
20
-1.47561
11
2.27917
21
-1.47545
0
LINE
8
BLACK
6
CONTINUOUS
10
2.27917
20
-1.47545
11
2.27917
21
-1.47545
0
LINE
8
BLACK
6
CONTINUOUS
10
2.27917
20
-1.47545
11
9.16859
21
-1.47545
0
LINE
8
BLACK
6
CONTINUOUS
10
9.16859
20
-1.47545
11
9.16859
21
-1.47545
0
LINE
8
BLACK
6
CONTINUOUS
10
9.16859
20
-1.47545
11
9.56153
21
-1.47561
0
LINE
8
BLACK
6
CONTINUOUS
10
9.56153
20
-1.47561
11
9.56155
21
-1.47561
0
LINE
8
BLACK
6
CONTINUOUS
10
9.56155
20
-1.47561
11
9.56168
21
-1.47561
0
LINE
8
BLACK
6
CONTINUOUS
10
9.56168
20
-1.47561
11
9.56174
21
-1.47561
0
LINE
8
BLACK
6
CONTINUOUS
10
9.56174
20
-1.47561
11
9.56176
21
-1.47561
0
LINE
8
BLACK
6
CONTINUOUS
10
9.56176
20
-1.47561
11
9.56178
21
-1.47561
0
LINE
8
BLACK
6
CONTINUOUS
10
9.56178
20
-1.47561
11
9.56184
21
-1.47562
0
LINE
8
BLACK
6
CONTINUOUS
10
9.56184
20
-1.47562
11
9.56197
21
-1.47563
0
LINE
8
BLACK
6
CONTINUOUS
10
9.56197
20
-1.47563
11
9.56198
21
-1.47563
0
LINE
8
BLACK
6
CONTINUOUS
10
9.56198
20
-1.47563
11
9.58523
21
-1.47791
0
LINE
8
BLACK
6
CONTINUOUS
10
9.58523
20
-1.47791
11
9.58526
21
-1.47791
0
LINE
8
BLACK
6
CONTINUOUS
10
9.58526
20
-1.47791
11
9.5854
21
-1.47793
0
LINE
8
BLACK
6
CONTINUOUS
10
9.5854
20
-1.47793
11
9.58554
21
-1.47794
0
LINE
8
BLACK
6
CONTINUOUS
10
9.58554
20
-1.47794
11
9.58563
21
-1.47797
0
LINE
8
BLACK
6
CONTINUOUS
10
9.58563
20
-1.47797
11
9.58583
21
-1.47801
0
LINE
8
BLACK
6
CONTINUOUS
10
9.58583
20
-1.47801
11
9.58589
21
-1.47802
0
LINE
8
BLACK
6
CONTINUOUS
10
9.58589
20
-1.47802
11
9.58591
21
-1.47803
0
LINE
8
BLACK
6
CONTINUOUS
10
9.58591
20
-1.47803
11
9.58592
21
-1.47803
0
LINE
8
BLACK
6
CONTINUOUS
10
9.58592
20
-1.47803
11
9.58598
21
-1.47805
0
LINE
8
BLACK
6
CONTINUOUS
10
9.58598
20
-1.47805
11
9.60839
21
-1.48482
0
LINE
8
BLACK
6
CONTINUOUS
10
9.60839
20
-1.48482
11
9.60842
21
-1.48482
0
LINE
8
BLACK
6
CONTINUOUS
10
9.60842
20
-1.48482
11
9.60845
21
-1.48483
0
LINE
8
BLACK
6
CONTINUOUS
10
9.60845
20
-1.48483
11
9.60848
21
-1.48483
0
LINE
8
BLACK
6
CONTINUOUS
10
9.60848
20
-1.48483
11
9.6086
21
-1.48488
0
LINE
8
BLACK
6
CONTINUOUS
10
9.6086
20
-1.48488
11
9.60872
21
-1.48491
0
LINE
8
BLACK
6
CONTINUOUS
10
9.60872
20
-1.48491
11
9.60881
21
-1.48496
0
LINE
8
BLACK
6
CONTINUOUS
10
9.60881
20
-1.48496
11
9.60882
21
-1.48497
0
LINE
8
BLACK
6
CONTINUOUS
10
9.60882
20
-1.48497
11
9.60883
21
-1.48497
0
LINE
8
BLACK
6
CONTINUOUS
10
9.60883
20
-1.48497
11
9.60895
21
-1.48502
0
LINE
8
BLACK
6
CONTINUOUS
10
9.60895
20
-1.48502
11
9.60901
21
-1.48504
0
LINE
8
BLACK
6
CONTINUOUS
10
9.60901
20
-1.48504
11
9.60903
21
-1.48505
0
LINE
8
BLACK
6
CONTINUOUS
10
9.60903
20
-1.48505
11
9.60904
21
-1.48506
0
LINE
8
BLACK
6
CONTINUOUS
10
9.60904
20
-1.48506
11
9.6091
21
-1.48508
0
LINE
8
BLACK
6
CONTINUOUS
10
9.6091
20
-1.48508
11
9.60922
21
-1.48515
0
LINE
8
BLACK
6
CONTINUOUS
10
9.60922
20
-1.48515
11
9.60923
21
-1.48516
0
LINE
8
BLACK
6
CONTINUOUS
10
9.60923
20
-1.48516
11
9.62985
21
-1.49612
0
LINE
8
BLACK
6
CONTINUOUS
10
9.62985
20
-1.49612
11
9.62989
21
-1.49614
0
LINE
8
BLACK
6
CONTINUOUS
10
9.62989
20
-1.49614
11
9.62997
21
-1.49619
0
LINE
8
BLACK
6
CONTINUOUS
10
9.62997
20
-1.49619
11
9.63
21
-1.4962
0
LINE
8
BLACK
6
CONTINUOUS
10
9.63
20
-1.4962
11
9.63004
21
-1.49623
0
LINE
8
BLACK
6
CONTINUOUS
10
9.63004
20
-1.49623
11
9.63009
21
-1.49625
0
LINE
8
BLACK
6
CONTINUOUS
10
9.63009
20
-1.49625
11
9.63011
21
-1.49627
0
LINE
8
BLACK
6
CONTINUOUS
10
9.63011
20
-1.49627
11
9.63019
21
-1.49632
0
LINE
8
BLACK
6
CONTINUOUS
10
9.63019
20
-1.49632
11
9.63023
21
-1.49636
0
LINE
8
BLACK
6
CONTINUOUS
10
9.63023
20
-1.49636
11
9.63023
21
-1.49636
0
LINE
8
BLACK
6
CONTINUOUS
10
9.63023
20
-1.49636
11
9.63033
21
-1.49642
0
LINE
8
BLACK
6
CONTINUOUS
10
9.63033
20
-1.49642
11
9.63039
21
-1.49646
0
LINE
8
BLACK
6
CONTINUOUS
10
9.63039
20
-1.49646
11
9.63039
21
-1.49646
0
LINE
8
BLACK
6
CONTINUOUS
10
9.63039
20
-1.49646
11
9.63039
21
-1.49647
0
LINE
8
BLACK
6
CONTINUOUS
10
9.63039
20
-1.49647
11
9.63045
21
-1.49651
0
LINE
8
BLACK
6
CONTINUOUS
10
9.63045
20
-1.49651
11
9.64861
21
-1.51132
0
LINE
8
BLACK
6
CONTINUOUS
10
9.64861
20
-1.51132
11
9.64861
21
-1.51132
0
LINE
8
BLACK
6
CONTINUOUS
10
9.64861
20
-1.51132
11
9.64872
21
-1.51141
0
LINE
8
BLACK
6
CONTINUOUS
10
9.64872
20
-1.51141
11
9.64879
21
-1.51146
0
LINE
8
BLACK
6
CONTINUOUS
10
9.64879
20
-1.51146
11
9.64879
21
-1.51146
0
LINE
8
BLACK
6
CONTINUOUS
10
9.64879
20
-1.51146
11
9.64879
21
-1.51147
0
LINE
8
BLACK
6
CONTINUOUS
10
9.64879
20
-1.51147
11
9.64884
21
-1.51151
0
LINE
8
BLACK
6
CONTINUOUS
10
9.64884
20
-1.51151
11
9.64895
21
-1.51163
0
LINE
8
BLACK
6
CONTINUOUS
10
9.64895
20
-1.51163
11
9.64895
21
-1.51163
0
LINE
8
BLACK
6
CONTINUOUS
10
9.64895
20
-1.51163
11
9.64907
21
-1.51174
0
LINE
8
BLACK
6
CONTINUOUS
10
9.64907
20
-1.51174
11
9.64912
21
-1.51179
0
LINE
8
BLACK
6
CONTINUOUS
10
9.64912
20
-1.51179
11
9.64912
21
-1.51179
0
LINE
8
BLACK
6
CONTINUOUS
10
9.64912
20
-1.51179
11
9.64912
21
-1.51179
0
LINE
8
BLACK
6
CONTINUOUS
10
9.64912
20
-1.51179
11
9.64917
21
-1.51185
0
LINE
8
BLACK
6
CONTINUOUS
10
9.64917
20
-1.51185
11
9.66412
21
-1.52993
0
LINE
8
BLACK
6
CONTINUOUS
10
9.66412
20
-1.52993
11
9.66415
21
-1.52995
0
LINE
8
BLACK
6
CONTINUOUS
10
9.66415
20
-1.52995
11
9.66423
21
-1.53006
0
LINE
8
BLACK
6
CONTINUOUS
10
9.66423
20
-1.53006
11
9.66432
21
-1.53016
0
LINE
8
BLACK
6
CONTINUOUS
10
9.66432
20
-1.53016
11
9.66436
21
-1.53025
0
LINE
8
BLACK
6
CONTINUOUS
10
9.66436
20
-1.53025
11
9.66439
21
-1.53029
0
LINE
8
BLACK
6
CONTINUOUS
10
9.66439
20
-1.53029
11
9.66446
21
-1.5304
0
LINE
8
BLACK
6
CONTINUOUS
10
9.66446
20
-1.5304
11
9.6645
21
-1.53046
0
LINE
8
BLACK
6
CONTINUOUS
10
9.6645
20
-1.53046
11
9.6645
21
-1.53046
0
LINE
8
BLACK
6
CONTINUOUS
10
9.6645
20
-1.53046
11
9.66451
21
-1.53046
0
LINE
8
BLACK
6
CONTINUOUS
10
9.66451
20
-1.53046
11
9.66454
21
-1.53053
0
LINE
8
BLACK
6
CONTINUOUS
10
9.66454
20
-1.53053
11
9.67571
21
-1.55118
0
LINE
8
BLACK
6
CONTINUOUS
10
9.67571
20
-1.55118
11
9.67572
21
-1.5512
0
LINE
8
BLACK
6
CONTINUOUS
10
9.67572
20
-1.5512
11
9.67575
21
-1.55125
0
LINE
8
BLACK
6
CONTINUOUS
10
9.67575
20
-1.55125
11
9.67575
21
-1.55125
0
LINE
8
BLACK
6
CONTINUOUS
10
9.67575
20
-1.55125
11
9.67577
21
-1.5513
0
LINE
8
BLACK
6
CONTINUOUS
10
9.67577
20
-1.5513
11
9.67579
21
-1.55134
0
LINE
8
BLACK
6
CONTINUOUS
10
9.67579
20
-1.55134
11
9.6758
21
-1.55136
0
LINE
8
BLACK
6
CONTINUOUS
10
9.6758
20
-1.55136
11
9.67582
21
-1.55141
0
LINE
8
BLACK
6
CONTINUOUS
10
9.67582
20
-1.55141
11
9.67582
21
-1.55141
0
LINE
8
BLACK
6
CONTINUOUS
10
9.67582
20
-1.55141
11
9.67583
21
-1.55141
0
LINE
8
BLACK
6
CONTINUOUS
10
9.67583
20
-1.55141
11
9.67585
21
-1.55146
0
LINE
8
BLACK
6
CONTINUOUS
10
9.67585
20
-1.55146
11
9.67586
21
-1.5515
0
LINE
8
BLACK
6
CONTINUOUS
10
9.67586
20
-1.5515
11
9.67588
21
-1.55154
0
LINE
8
BLACK
6
CONTINUOUS
10
9.67588
20
-1.55154
11
9.67588
21
-1.55155
0
LINE
8
BLACK
6
CONTINUOUS
10
9.67588
20
-1.55155
11
9.67593
21
-1.55167
0
LINE
8
BLACK
6
CONTINUOUS
10
9.67593
20
-1.55167
11
9.67595
21
-1.55171
0
LINE
8
BLACK
6
CONTINUOUS
10
9.67595
20
-1.55171
11
9.67596
21
-1.55174
0
LINE
8
BLACK
6
CONTINUOUS
10
9.67596
20
-1.55174
11
9.67597
21
-1.55176
0
LINE
8
BLACK
6
CONTINUOUS
10
9.67597
20
-1.55176
11
9.67599
21
-1.55181
0
LINE
8
BLACK
6
CONTINUOUS
10
9.67599
20
-1.55181
11
9.67603
21
-1.55193
0
LINE
8
BLACK
6
CONTINUOUS
10
9.67603
20
-1.55193
11
9.67603
21
-1.55196
0
LINE
8
BLACK
6
CONTINUOUS
10
9.67603
20
-1.55196
11
9.68292
21
-1.57422
0
LINE
8
BLACK
6
CONTINUOUS
10
9.68292
20
-1.57422
11
9.68293
21
-1.57423
0
LINE
8
BLACK
6
CONTINUOUS
10
9.68293
20
-1.57423
11
9.68296
21
-1.57433
0
LINE
8
BLACK
6
CONTINUOUS
10
9.68296
20
-1.57433
11
9.683
21
-1.57444
0
LINE
8
BLACK
6
CONTINUOUS
10
9.683
20
-1.57444
11
9.68302
21
-1.57455
0
LINE
8
BLACK
6
CONTINUOUS
10
9.68302
20
-1.57455
11
9.68304
21
-1.57466
0
LINE
8
BLACK
6
CONTINUOUS
10
9.68304
20
-1.57466
11
9.68304
21
-1.57466
0
LINE
8
BLACK
6
CONTINUOUS
10
9.68304
20
-1.57466
11
9.68307
21
-1.57481
0
LINE
8
BLACK
6
CONTINUOUS
10
9.68307
20
-1.57481
11
9.68309
21
-1.57488
0
LINE
8
BLACK
6
CONTINUOUS
10
9.68309
20
-1.57488
11
9.68309
21
-1.57489
0
LINE
8
BLACK
6
CONTINUOUS
10
9.68309
20
-1.57489
11
9.68309
21
-1.57489
0
LINE
8
BLACK
6
CONTINUOUS
10
9.68309
20
-1.57489
11
9.6831
21
-1.57496
0
LINE
8
BLACK
6
CONTINUOUS
10
9.6831
20
-1.57496
11
9.68311
21
-1.57511
0
LINE
8
BLACK
6
CONTINUOUS
10
9.68311
20
-1.57511
11
9.68311
21
-1.57512
0
LINE
8
BLACK
6
CONTINUOUS
10
9.68311
20
-1.57512
11
9.68554
21
-1.59828
0
LINE
8
BLACK
6
CONTINUOUS
10
9.68554
20
-1.59828
11
9.68554
21
-1.59828
0
LINE
8
BLACK
6
CONTINUOUS
10
9.68554
20
-1.59828
11
9.68556
21
-1.59843
0
LINE
8
BLACK
6
CONTINUOUS
10
9.68556
20
-1.59843
11
9.68557
21
-1.59851
0
LINE
8
BLACK
6
CONTINUOUS
10
9.68557
20
-1.59851
11
9.68557
21
-1.59851
0
LINE
8
BLACK
6
CONTINUOUS
10
9.68557
20
-1.59851
11
9.68557
21
-1.59852
0
LINE
8
BLACK
6
CONTINUOUS
10
9.68557
20
-1.59852
11
9.68557
21
-1.59859
0
LINE
8
BLACK
6
CONTINUOUS
10
9.68557
20
-1.59859
11
9.68557
21
-1.59874
0
LINE
8
BLACK
6
CONTINUOUS
10
9.68557
20
-1.59874
11
9.68557
21
-1.59874
0
LINE
8
BLACK
6
CONTINUOUS
10
9.68557
20
-1.59874
11
9.68557
21
-1.5989
0
LINE
8
BLACK
6
CONTINUOUS
10
9.68557
20
-1.5989
11
9.68557
21
-1.59897
0
LINE
8
BLACK
6
CONTINUOUS
10
9.68557
20
-1.59897
11
9.68557
21
-1.59897
0
LINE
8
BLACK
6
CONTINUOUS
10
9.68557
20
-1.59897
11
9.68557
21
-1.59898
0
LINE
8
BLACK
6
CONTINUOUS
10
9.68557
20
-1.59898
11
9.68556
21
-1.59905
0
LINE
8
BLACK
6
CONTINUOUS
10
9.68556
20
-1.59905
11
9.68343
21
-1.6224
0
LINE
8
BLACK
6
CONTINUOUS
10
9.68343
20
-1.6224
11
9.68343
21
-1.62243
0
LINE
8
BLACK
6
CONTINUOUS
10
9.68343
20
-1.62243
11
9.68342
21
-1.62257
0
LINE
8
BLACK
6
CONTINUOUS
10
9.68342
20
-1.62257
11
9.6834
21
-1.62271
0
LINE
8
BLACK
6
CONTINUOUS
10
9.6834
20
-1.62271
11
9.68338
21
-1.6228
0
LINE
8
BLACK
6
CONTINUOUS
10
9.68338
20
-1.6228
11
9.68338
21
-1.6228
0
LINE
8
BLACK
6
CONTINUOUS
10
9.68338
20
-1.6228
11
9.68338
21
-1.62283
0
LINE
8
BLACK
6
CONTINUOUS
10
9.68338
20
-1.62283
11
9.68336
21
-1.62294
0
LINE
8
BLACK
6
CONTINUOUS
10
9.68336
20
-1.62294
11
9.68335
21
-1.62298
0
LINE
8
BLACK
6
CONTINUOUS
10
9.68335
20
-1.62298
11
9.68334
21
-1.62302
0
LINE
8
BLACK
6
CONTINUOUS
10
9.68334
20
-1.62302
11
9.68333
21
-1.62305
0
LINE
8
BLACK
6
CONTINUOUS
10
9.68333
20
-1.62305
11
9.68332
21
-1.62309
0
LINE
8
BLACK
6
CONTINUOUS
10
9.68332
20
-1.62309
11
9.6833
21
-1.62321
0
LINE
8
BLACK
6
CONTINUOUS
10
9.6833
20
-1.62321
11
9.68328
21
-1.62324
0
LINE
8
BLACK
6
CONTINUOUS
10
9.68328
20
-1.62324
11
9.67668
21
-1.64567
0
LINE
8
BLACK
6
CONTINUOUS
10
9.67668
20
-1.64567
11
9.67667
21
-1.64573
0
LINE
8
BLACK
6
CONTINUOUS
10
9.67667
20
-1.64573
11
9.67664
21
-1.64582
0
LINE
8
BLACK
6
CONTINUOUS
10
9.67664
20
-1.64582
11
9.67663
21
-1.64583
0
LINE
8
BLACK
6
CONTINUOUS
10
9.67663
20
-1.64583
11
9.67661
21
-1.64589
0
LINE
8
BLACK
6
CONTINUOUS
10
9.67661
20
-1.64589
11
9.67659
21
-1.64595
0
LINE
8
BLACK
6
CONTINUOUS
10
9.67659
20
-1.64595
11
9.67658
21
-1.64596
0
LINE
8
BLACK
6
CONTINUOUS
10
9.67658
20
-1.64596
11
9.67656
21
-1.64601
0
LINE
8
BLACK
6
CONTINUOUS
10
9.67656
20
-1.64601
11
9.67654
21
-1.64605
0
LINE
8
BLACK
6
CONTINUOUS
10
9.67654
20
-1.64605
11
9.67653
21
-1.64608
0
LINE
8
BLACK
6
CONTINUOUS
10
9.67653
20
-1.64608
11
9.67652
21
-1.6461
0
LINE
8
BLACK
6
CONTINUOUS
10
9.67652
20
-1.6461
11
9.6765
21
-1.64615
0
LINE
8
BLACK
6
CONTINUOUS
10
9.6765
20
-1.64615
11
9.67647
21
-1.64622
0
LINE
8
BLACK
6
CONTINUOUS
10
9.67647
20
-1.64622
11
9.67645
21
-1.64625
0
LINE
8
BLACK
6
CONTINUOUS
10
9.67645
20
-1.64625
11
9.67644
21
-1.64629
0
LINE
8
BLACK
6
CONTINUOUS
10
9.67644
20
-1.64629
11
9.67642
21
-1.64632
0
LINE
8
BLACK
6
CONTINUOUS
10
9.67642
20
-1.64632
11
9.6764
21
-1.64636
0
LINE
8
BLACK
6
CONTINUOUS
10
9.6764
20
-1.64636
11
9.66556
21
-1.66711
0
LINE
8
BLACK
6
CONTINUOUS
10
9.66556
20
-1.66711
11
9.66555
21
-1.66712
0
LINE
8
BLACK
6
CONTINUOUS
10
9.66555
20
-1.66712
11
9.66549
21
-1.66724
0
LINE
8
BLACK
6
CONTINUOUS
10
9.66549
20
-1.66724
11
9.66547
21
-1.66729
0
LINE
8
BLACK
6
CONTINUOUS
10
9.66547
20
-1.66729
11
9.66545
21
-1.66731
0
LINE
8
BLACK
6
CONTINUOUS
10
9.66545
20
-1.66731
11
9.66545
21
-1.66732
0
LINE
8
BLACK
6
CONTINUOUS
10
9.66545
20
-1.66732
11
9.66541
21
-1.66737
0
LINE
8
BLACK
6
CONTINUOUS
10
9.66541
20
-1.66737
11
9.66534
21
-1.66748
0
LINE
8
BLACK
6
CONTINUOUS
10
9.66534
20
-1.66748
11
9.66533
21
-1.6675
0
LINE
8
BLACK
6
CONTINUOUS
10
9.66533
20
-1.6675
11
9.66525
21
-1.66762
0
LINE
8
BLACK
6
CONTINUOUS
10
9.66525
20
-1.66762
11
9.66521
21
-1.66768
0
LINE
8
BLACK
6
CONTINUOUS
10
9.66521
20
-1.66768
11
9.6652
21
-1.66769
0
LINE
8
BLACK
6
CONTINUOUS
10
9.6652
20
-1.66769
11
9.6652
21
-1.66769
0
LINE
8
BLACK
6
CONTINUOUS
10
9.6652
20
-1.66769
11
9.66516
21
-1.66774
0
LINE
8
BLACK
6
CONTINUOUS
10
9.66516
20
-1.66774
11
9.65047
21
-1.686
0
LINE
8
BLACK
6
CONTINUOUS
10
9.65047
20
-1.686
11
9.65046
21
-1.68603
0
LINE
8
BLACK
6
CONTINUOUS
10
9.65046
20
-1.68603
11
9.65042
21
-1.68608
0
LINE
8
BLACK
6
CONTINUOUS
10
9.65042
20
-1.68608
11
9.65039
21
-1.68612
0
LINE
8
BLACK
6
CONTINUOUS
10
9.65039
20
-1.68612
11
9.65032
21
-1.6862
0
LINE
8
BLACK
6
CONTINUOUS
10
9.65032
20
-1.6862
11
9.65031
21
-1.68621
0
LINE
8
BLACK
6
CONTINUOUS
10
9.65031
20
-1.68621
11
9.65027
21
-1.68625
0
LINE
8
BLACK
6
CONTINUOUS
10
9.65027
20
-1.68625
11
9.65018
21
-1.68635
0
LINE
8
BLACK
6
CONTINUOUS
10
9.65018
20
-1.68635
11
9.65016
21
-1.68636
0
LINE
8
BLACK
6
CONTINUOUS
10
9.65016
20
-1.68636
11
9.65006
21
-1.68646
0
LINE
8
BLACK
6
CONTINUOUS
10
9.65006
20
-1.68646
11
9.65001
21
-1.68651
0
LINE
8
BLACK
6
CONTINUOUS
10
9.65001
20
-1.68651
11
9.65001
21
-1.68652
0
LINE
8
BLACK
6
CONTINUOUS
10
9.65001
20
-1.68652
11
9.65
21
-1.68652
0
LINE
8
BLACK
6
CONTINUOUS
10
9.65
20
-1.68652
11
9.64995
21
-1.68656
0
LINE
8
BLACK
6
CONTINUOUS
10
9.64995
20
-1.68656
11
9.63192
21
-1.70169
0
LINE
8
BLACK
6
CONTINUOUS
10
9.63192
20
-1.70169
11
9.63184
21
-1.70176
0
LINE
8
BLACK
6
CONTINUOUS
10
9.63184
20
-1.70176
11
9.63174
21
-1.70183
0
LINE
8
BLACK
6
CONTINUOUS
10
9.63174
20
-1.70183
11
9.63168
21
-1.70187
0
LINE
8
BLACK
6
CONTINUOUS
10
9.63168
20
-1.70187
11
9.63167
21
-1.70188
0
LINE
8
BLACK
6
CONTINUOUS
10
9.63167
20
-1.70188
11
9.63166
21
-1.70189
0
LINE
8
BLACK
6
CONTINUOUS
10
9.63166
20
-1.70189
11
9.63155
21
-1.70197
0
LINE
8
BLACK
6
CONTINUOUS
10
9.63155
20
-1.70197
11
9.6315
21
-1.702
0
LINE
8
BLACK
6
CONTINUOUS
10
9.6315
20
-1.702
11
9.63148
21
-1.70201
0
LINE
8
BLACK
6
CONTINUOUS
10
9.63148
20
-1.70201
11
9.63147
21
-1.70202
0
LINE
8
BLACK
6
CONTINUOUS
10
9.63147
20
-1.70202
11
9.63141
21
-1.70205
0
LINE
8
BLACK
6
CONTINUOUS
10
9.63141
20
-1.70205
11
9.6313
21
-1.70212
0
LINE
8
BLACK
6
CONTINUOUS
10
9.6313
20
-1.70212
11
9.63128
21
-1.70213
0
LINE
8
BLACK
6
CONTINUOUS
10
9.63128
20
-1.70213
11
9.61267
21
-1.71255
0
LINE
8
BLACK
6
CONTINUOUS
10
9.61267
20
-1.71255
11
9.61266
21
-1.71256
0
LINE
8
BLACK
6
CONTINUOUS
10
9.61266
20
-1.71256
11
9.61257
21
-1.71261
0
LINE
8
BLACK
6
CONTINUOUS
10
9.61257
20
-1.71261
11
9.61255
21
-1.71263
0
LINE
8
BLACK
6
CONTINUOUS
10
9.61255
20
-1.71263
11
9.6125
21
-1.71265
0
LINE
8
BLACK
6
CONTINUOUS
10
9.6125
20
-1.71265
11
9.61246
21
-1.71268
0
LINE
8
BLACK
6
CONTINUOUS
10
9.61246
20
-1.71268
11
9.61243
21
-1.71269
0
LINE
8
BLACK
6
CONTINUOUS
10
9.61243
20
-1.71269
11
9.61235
21
-1.71274
0
LINE
8
BLACK
6
CONTINUOUS
10
9.61235
20
-1.71274
11
9.6123
21
-1.71275
0
LINE
8
BLACK
6
CONTINUOUS
10
9.6123
20
-1.71275
11
9.17406
21
-1.90922
0
LINE
8
BLACK
6
CONTINUOUS
10
9.17406
20
-1.90922
11
9.17406
21
-5.48182
0
LINE
8
BLACK
6
CONTINUOUS
10
9.17406
20
-5.48182
11
9.61232
21
-5.67832
0
LINE
8
BLACK
6
CONTINUOUS
10
9.61232
20
-5.67832
11
9.61233
21
-5.67832
0
LINE
8
BLACK
6
CONTINUOUS
10
9.61233
20
-5.67832
11
9.61239
21
-5.67835
0
LINE
8
BLACK
6
CONTINUOUS
10
9.61239
20
-5.67835
11
9.61246
21
-5.67838
0
LINE
8
BLACK
6
CONTINUOUS
10
9.61246
20
-5.67838
11
9.61246
21
-5.67838
0
LINE
8
BLACK
6
CONTINUOUS
10
9.61246
20
-5.67838
11
9.61252
21
-5.67841
0
LINE
8
BLACK
6
CONTINUOUS
10
9.61252
20
-5.67841
11
9.61253
21
-5.67841
0
LINE
8
BLACK
6
CONTINUOUS
10
9.61253
20
-5.67841
11
9.61254
21
-5.67842
0
LINE
8
BLACK
6
CONTINUOUS
10
9.61254
20
-5.67842
11
9.6126
21
-5.67845
0
LINE
8
BLACK
6
CONTINUOUS
10
9.6126
20
-5.67845
11
9.63295
21
-5.69009
0
LINE
8
BLACK
6
CONTINUOUS
10
9.63295
20
-5.69009
11
9.63297
21
-5.6901
0
LINE
8
BLACK
6
CONTINUOUS
10
9.63297
20
-5.6901
11
9.63305
21
-5.69015
0
LINE
8
BLACK
6
CONTINUOUS
10
9.63305
20
-5.69015
11
9.63307
21
-5.69016
0
LINE
8
BLACK
6
CONTINUOUS
10
9.63307
20
-5.69016
11
9.63312
21
-5.69019
0
LINE
8
BLACK
6
CONTINUOUS
10
9.63312
20
-5.69019
11
9.63317
21
-5.69021
0
LINE
8
BLACK
6
CONTINUOUS
10
9.63317
20
-5.69021
11
9.63318
21
-5.69023
0
LINE
8
BLACK
6
CONTINUOUS
10
9.63318
20
-5.69023
11
9.63327
21
-5.69028
0
LINE
8
BLACK
6
CONTINUOUS
10
9.63327
20
-5.69028
11
9.6333
21
-5.69031
0
LINE
8
BLACK
6
CONTINUOUS
10
9.6333
20
-5.69031
11
9.63332
21
-5.69032
0
LINE
8
BLACK
6
CONTINUOUS
10
9.63332
20
-5.69032
11
9.63342
21
-5.6904
0
LINE
8
BLACK
6
CONTINUOUS
10
9.63342
20
-5.6904
11
9.63347
21
-5.69043
0
LINE
8
BLACK
6
CONTINUOUS
10
9.63347
20
-5.69043
11
9.63349
21
-5.69044
0
LINE
8
BLACK
6
CONTINUOUS
10
9.63349
20
-5.69044
11
9.63351
21
-5.69045
0
LINE
8
BLACK
6
CONTINUOUS
10
9.63351
20
-5.69045
11
9.63355
21
-5.69049
0
LINE
8
BLACK
6
CONTINUOUS
10
9.63355
20
-5.69049
11
9.63365
21
-5.69057
0
LINE
8
BLACK
6
CONTINUOUS
10
9.63365
20
-5.69057
11
9.63366
21
-5.69059
0
LINE
8
BLACK
6
CONTINUOUS
10
9.63366
20
-5.69059
11
9.65136
21
-5.70595
0
LINE
8
BLACK
6
CONTINUOUS
10
9.65136
20
-5.70595
11
9.6514
21
-5.70599
0
LINE
8
BLACK
6
CONTINUOUS
10
9.6514
20
-5.70599
11
9.65142
21
-5.706
0
LINE
8
BLACK
6
CONTINUOUS
10
9.65142
20
-5.706
11
9.65143
21
-5.70601
0
LINE
8
BLACK
6
CONTINUOUS
10
9.65143
20
-5.70601
11
9.65147
21
-5.70606
0
LINE
8
BLACK
6
CONTINUOUS
10
9.65147
20
-5.70606
11
9.65158
21
-5.70617
0
LINE
8
BLACK
6
CONTINUOUS
10
9.65158
20
-5.70617
11
9.6516
21
-5.70618
0
LINE
8
BLACK
6
CONTINUOUS
10
9.6516
20
-5.70618
11
9.65169
21
-5.70627
0
LINE
8
BLACK
6
CONTINUOUS
10
9.65169
20
-5.70627
11
9.65173
21
-5.70631
0
LINE
8
BLACK
6
CONTINUOUS
10
9.65173
20
-5.70631
11
9.65174
21
-5.70633
0
LINE
8
BLACK
6
CONTINUOUS
10
9.65174
20
-5.70633
11
9.65176
21
-5.70635
0
LINE
8
BLACK
6
CONTINUOUS
10
9.65176
20
-5.70635
11
9.65179
21
-5.70639
0
LINE
8
BLACK
6
CONTINUOUS
10
9.65179
20
-5.70639
11
9.65188
21
-5.70649
0
LINE
8
BLACK
6
CONTINUOUS
10
9.65188
20
-5.70649
11
9.65189
21
-5.70651
0
LINE
8
BLACK
6
CONTINUOUS
10
9.65189
20
-5.70651
11
9.66619
21
-5.72493
0
LINE
8
BLACK
6
CONTINUOUS
10
9.66619
20
-5.72493
11
9.6662
21
-5.72494
0
LINE
8
BLACK
6
CONTINUOUS
10
9.6662
20
-5.72494
11
9.66628
21
-5.72504
0
LINE
8
BLACK
6
CONTINUOUS
10
9.66628
20
-5.72504
11
9.66636
21
-5.72513
0
LINE
8
BLACK
6
CONTINUOUS
10
9.66636
20
-5.72513
11
9.66641
21
-5.72523
0
LINE
8
BLACK
6
CONTINUOUS
10
9.66641
20
-5.72523
11
9.66643
21
-5.72527
0
LINE
8
BLACK
6
CONTINUOUS
10
9.66643
20
-5.72527
11
9.66644
21
-5.72528
0
LINE
8
BLACK
6
CONTINUOUS
10
9.66644
20
-5.72528
11
9.66647
21
-5.72533
0
LINE
8
BLACK
6
CONTINUOUS
10
9.66647
20
-5.72533
11
9.6665
21
-5.72538
0
LINE
8
BLACK
6
CONTINUOUS
10
9.6665
20
-5.72538
11
9.66651
21
-5.7254
0
LINE
8
BLACK
6
CONTINUOUS
10
9.66651
20
-5.7254
11
9.66654
21
-5.72545
0
LINE
8
BLACK
6
CONTINUOUS
10
9.66654
20
-5.72545
11
9.66657
21
-5.72549
0
LINE
8
BLACK
6
CONTINUOUS
10
9.66657
20
-5.72549
11
9.66658
21
-5.72551
0
LINE
8
BLACK
6
CONTINUOUS
10
9.66658
20
-5.72551
11
9.66659
21
-5.72554
0
LINE
8
BLACK
6
CONTINUOUS
10
9.66659
20
-5.72554
11
9.66661
21
-5.72558
0
LINE
8
BLACK
6
CONTINUOUS
10
9.66661
20
-5.72558
11
9.67713
21
-5.74653
0
LINE
8
BLACK
6
CONTINUOUS
10
9.67713
20
-5.74653
11
9.67714
21
-5.74654
0
LINE
8
BLACK
6
CONTINUOUS
10
9.67714
20
-5.74654
11
9.6772
21
-5.74666
0
LINE
8
BLACK
6
CONTINUOUS
10
9.6772
20
-5.74666
11
9.67722
21
-5.74672
0
LINE
8
BLACK
6
CONTINUOUS
10
9.67722
20
-5.74672
11
9.67723
21
-5.74673
0
LINE
8
BLACK
6
CONTINUOUS
10
9.67723
20
-5.74673
11
9.67724
21
-5.74675
0
LINE
8
BLACK
6
CONTINUOUS
10
9.67724
20
-5.74675
11
9.67726
21
-5.74681
0
LINE
8
BLACK
6
CONTINUOUS
10
9.67726
20
-5.74681
11
9.67731
21
-5.74693
0
LINE
8
BLACK
6
CONTINUOUS
10
9.67731
20
-5.74693
11
9.67731
21
-5.74695
0
LINE
8
BLACK
6
CONTINUOUS
10
9.67731
20
-5.74695
11
9.67734
21
-5.74704
0
LINE
8
BLACK
6
CONTINUOUS
10
9.67734
20
-5.74704
11
9.67738
21
-5.74713
0
LINE
8
BLACK
6
CONTINUOUS
10
9.67738
20
-5.74713
11
9.67738
21
-5.74713
0
LINE
8
BLACK
6
CONTINUOUS
10
9.67738
20
-5.74713
11
9.67738
21
-5.74713
0
LINE
8
BLACK
6
CONTINUOUS
10
9.67738
20
-5.74713
11
9.67739
21
-5.74716
0
LINE
8
BLACK
6
CONTINUOUS
10
9.67739
20
-5.74716
11
9.68364
21
-5.7698
0
LINE
8
BLACK
6
CONTINUOUS
10
9.68364
20
-5.7698
11
9.68367
21
-5.76985
0
LINE
8
BLACK
6
CONTINUOUS
10
9.68367
20
-5.76985
11
9.68368
21
-5.7699
0
LINE
8
BLACK
6
CONTINUOUS
10
9.68368
20
-5.7699
11
9.6837
21
-5.76996
0
LINE
8
BLACK
6
CONTINUOUS
10
9.6837
20
-5.76996
11
9.68372
21
-5.77005
0
LINE
8
BLACK
6
CONTINUOUS
10
9.68372
20
-5.77005
11
9.68372
21
-5.77007
0
LINE
8
BLACK
6
CONTINUOUS
10
9.68372
20
-5.77007
11
9.68373
21
-5.77013
0
LINE
8
BLACK
6
CONTINUOUS
10
9.68373
20
-5.77013
11
9.68375
21
-5.77024
0
LINE
8
BLACK
6
CONTINUOUS
10
9.68375
20
-5.77024
11
9.68375
21
-5.77024
0
LINE
8
BLACK
6
CONTINUOUS
10
9.68375
20
-5.77024
11
9.68377
21
-5.77037
0
LINE
8
BLACK
6
CONTINUOUS
10
9.68377
20
-5.77037
11
9.68378
21
-5.77043
0
LINE
8
BLACK
6
CONTINUOUS
10
9.68378
20
-5.77043
11
9.68378
21
-5.77045
0
LINE
8
BLACK
6
CONTINUOUS
10
9.68378
20
-5.77045
11
9.68379
21
-5.77047
0
LINE
8
BLACK
6
CONTINUOUS
10
9.68379
20
-5.77047
11
9.68379
21
-5.77053
0
LINE
8
BLACK
6
CONTINUOUS
10
9.68379
20
-5.77053
11
9.6838
21
-5.77066
0
LINE
8
BLACK
6
CONTINUOUS
10
9.6838
20
-5.77066
11
9.6838
21
-5.77068
0
LINE
8
BLACK
6
CONTINUOUS
10
9.6838
20
-5.77068
11
9.68552
21
-5.79392
0
LINE
8
BLACK
6
CONTINUOUS
10
9.68552
20
-5.79392
11
9.68554
21
-5.79401
0
LINE
8
BLACK
6
CONTINUOUS
10
9.68554
20
-5.79401
11
9.68555
21
-5.79432
0
LINE
8
BLACK
6
CONTINUOUS
10
9.68555
20
-5.79432
11
9.68554
21
-5.79438
0
LINE
8
BLACK
6
CONTINUOUS
10
9.68554
20
-5.79438
11
9.68554
21
-5.7945
0
LINE
8
BLACK
6
CONTINUOUS
10
9.68554
20
-5.7945
11
9.68554
21
-5.79456
0
LINE
8
BLACK
6
CONTINUOUS
10
9.68554
20
-5.79456
11
9.68554
21
-5.79458
0
LINE
8
BLACK
6
CONTINUOUS
10
9.68554
20
-5.79458
11
9.68553
21
-5.7946
0
LINE
8
BLACK
6
CONTINUOUS
10
9.68553
20
-5.7946
11
9.68553
21
-5.79466
0
LINE
8
BLACK
6
CONTINUOUS
10
9.68553
20
-5.79466
11
9.68551
21
-5.79479
0
LINE
8
BLACK
6
CONTINUOUS
10
9.68551
20
-5.79479
11
9.68551
21
-5.79481
0
LINE
8
BLACK
6
CONTINUOUS
10
9.68551
20
-5.79481
11
9.68268
21
-5.81793
0
LINE
8
BLACK
6
CONTINUOUS
10
9.68268
20
-5.81793
11
9.68268
21
-5.81794
0
LINE
8
BLACK
6
CONTINUOUS
10
9.68268
20
-5.81794
11
9.68267
21
-5.81808
0
LINE
8
BLACK
6
CONTINUOUS
10
9.68267
20
-5.81808
11
9.68265
21
-5.81822
0
LINE
8
BLACK
6
CONTINUOUS
10
9.68265
20
-5.81822
11
9.68263
21
-5.81831
0
LINE
8
BLACK
6
CONTINUOUS
10
9.68263
20
-5.81831
11
9.68261
21
-5.81838
0
LINE
8
BLACK
6
CONTINUOUS
10
9.68261
20
-5.81838
11
9.68261
21
-5.81838
0
LINE
8
BLACK
6
CONTINUOUS
10
9.68261
20
-5.81838
11
9.68258
21
-5.81853
0
LINE
8
BLACK
6
CONTINUOUS
10
9.68258
20
-5.81853
11
9.68257
21
-5.8186
0
LINE
8
BLACK
6
CONTINUOUS
10
9.68257
20
-5.8186
11
9.68256
21
-5.8186
0
LINE
8
BLACK
6
CONTINUOUS
10
9.68256
20
-5.8186
11
9.68256
21
-5.81861
0
LINE
8
BLACK
6
CONTINUOUS
10
9.68256
20
-5.81861
11
9.68254
21
-5.81868
0
LINE
8
BLACK
6
CONTINUOUS
10
9.68254
20
-5.81868
11
9.6825
21
-5.81882
0
LINE
8
BLACK
6
CONTINUOUS
10
9.6825
20
-5.81882
11
9.68249
21
-5.81883
0
LINE
8
BLACK
6
CONTINUOUS
10
9.68249
20
-5.81883
11
9.67522
21
-5.84098
0
LINE
8
BLACK
6
CONTINUOUS
10
9.67522
20
-5.84098
11
9.67522
21
-5.84102
0
LINE
8
BLACK
6
CONTINUOUS
10
9.67522
20
-5.84102
11
9.67518
21
-5.84113
0
LINE
8
BLACK
6
CONTINUOUS
10
9.67518
20
-5.84113
11
9.67516
21
-5.84117
0
LINE
8
BLACK
6
CONTINUOUS
10
9.67516
20
-5.84117
11
9.67515
21
-5.8412
0
LINE
8
BLACK
6
CONTINUOUS
10
9.67515
20
-5.8412
11
9.67514
21
-5.84124
0
LINE
8
BLACK
6
CONTINUOUS
10
9.67514
20
-5.84124
11
9.67512
21
-5.84126
0
LINE
8
BLACK
6
CONTINUOUS
10
9.67512
20
-5.84126
11
9.67511
21
-5.8413
0
LINE
8
BLACK
6
CONTINUOUS
10
9.67511
20
-5.8413
11
9.67509
21
-5.84134
0
LINE
8
BLACK
6
CONTINUOUS
10
9.67509
20
-5.84134
11
9.67508
21
-5.84137
0
LINE
8
BLACK
6
CONTINUOUS
10
9.67508
20
-5.84137
11
9.67507
21
-5.84139
0
LINE
8
BLACK
6
CONTINUOUS
10
9.67507
20
-5.84139
11
9.67505
21
-5.84144
0
LINE
8
BLACK
6
CONTINUOUS
10
9.67505
20
-5.84144
11
9.67501
21
-5.84153
0
LINE
8
BLACK
6
CONTINUOUS
10
9.67501
20
-5.84153
11
9.67498
21
-5.84159
0
LINE
8
BLACK
6
CONTINUOUS
10
9.67498
20
-5.84159
11
9.67498
21
-5.8416
0
LINE
8
BLACK
6
CONTINUOUS
10
9.67498
20
-5.8416
11
9.67497
21
-5.84161
0
LINE
8
BLACK
6
CONTINUOUS
10
9.67497
20
-5.84161
11
9.67494
21
-5.84167
0
LINE
8
BLACK
6
CONTINUOUS
10
9.67494
20
-5.84167
11
9.66344
21
-5.86211
0
LINE
8
BLACK
6
CONTINUOUS
10
9.66344
20
-5.86211
11
9.66343
21
-5.86214
0
LINE
8
BLACK
6
CONTINUOUS
10
9.66343
20
-5.86214
11
9.66338
21
-5.86222
0
LINE
8
BLACK
6
CONTINUOUS
10
9.66338
20
-5.86222
11
9.66338
21
-5.86224
0
LINE
8
BLACK
6
CONTINUOUS
10
9.66338
20
-5.86224
11
9.66335
21
-5.86229
0
LINE
8
BLACK
6
CONTINUOUS
10
9.66335
20
-5.86229
11
9.66331
21
-5.86234
0
LINE
8
BLACK
6
CONTINUOUS
10
9.66331
20
-5.86234
11
9.6633
21
-5.86235
0
LINE
8
BLACK
6
CONTINUOUS
10
9.6633
20
-5.86235
11
9.66325
21
-5.86243
0
LINE
8
BLACK
6
CONTINUOUS
10
9.66325
20
-5.86243
11
9.66321
21
-5.86248
0
LINE
8
BLACK
6
CONTINUOUS
10
9.66321
20
-5.86248
11
9.66311
21
-5.86261
0
LINE
8
BLACK
6
CONTINUOUS
10
9.66311
20
-5.86261
11
9.66308
21
-5.86266
0
LINE
8
BLACK
6
CONTINUOUS
10
9.66308
20
-5.86266
11
9.66307
21
-5.86267
0
LINE
8
BLACK
6
CONTINUOUS
10
9.66307
20
-5.86267
11
9.66305
21
-5.86269
0
LINE
8
BLACK
6
CONTINUOUS
10
9.66305
20
-5.86269
11
9.66302
21
-5.86273
0
LINE
8
BLACK
6
CONTINUOUS
10
9.66302
20
-5.86273
11
9.64779
21
-5.88053
0
LINE
8
BLACK
6
CONTINUOUS
10
9.64779
20
-5.88053
11
9.64776
21
-5.88057
0
LINE
8
BLACK
6
CONTINUOUS
10
9.64776
20
-5.88057
11
9.64775
21
-5.88059
0
LINE
8
BLACK
6
CONTINUOUS
10
9.64775
20
-5.88059
11
9.64774
21
-5.8806
0
LINE
8
BLACK
6
CONTINUOUS
10
9.64774
20
-5.8806
11
9.64765
21
-5.8807
0
LINE
8
BLACK
6
CONTINUOUS
10
9.64765
20
-5.8807
11
9.64761
21
-5.88075
0
LINE
8
BLACK
6
CONTINUOUS
10
9.64761
20
-5.88075
11
9.6476
21
-5.88076
0
LINE
8
BLACK
6
CONTINUOUS
10
9.6476
20
-5.88076
11
9.64753
21
-5.88083
0
LINE
8
BLACK
6
CONTINUOUS
10
9.64753
20
-5.88083
11
9.64749
21
-5.88086
0
LINE
8
BLACK
6
CONTINUOUS
10
9.64749
20
-5.88086
11
9.64749
21
-5.88086
0
LINE
8
BLACK
6
CONTINUOUS
10
9.64749
20
-5.88086
11
9.64739
21
-5.88096
0
LINE
8
BLACK
6
CONTINUOUS
10
9.64739
20
-5.88096
11
9.64734
21
-5.881
0
LINE
8
BLACK
6
CONTINUOUS
10
9.64734
20
-5.881
11
9.64733
21
-5.88101
0
LINE
8
BLACK
6
CONTINUOUS
10
9.64733
20
-5.88101
11
9.64732
21
-5.88102
0
LINE
8
BLACK
6
CONTINUOUS
10
9.64732
20
-5.88102
11
9.64727
21
-5.88106
0
LINE
8
BLACK
6
CONTINUOUS
10
9.64727
20
-5.88106
11
9.64716
21
-5.88115
0
LINE
8
BLACK
6
CONTINUOUS
10
9.64716
20
-5.88115
11
9.64715
21
-5.88116
0
LINE
8
BLACK
6
CONTINUOUS
10
9.64715
20
-5.88116
11
9.62879
21
-5.89563
0
LINE
8
BLACK
6
CONTINUOUS
10
9.62879
20
-5.89563
11
9.62873
21
-5.89568
0
LINE
8
BLACK
6
CONTINUOUS
10
9.62873
20
-5.89568
11
9.62861
21
-5.89576
0
LINE
8
BLACK
6
CONTINUOUS
10
9.62861
20
-5.89576
11
9.62851
21
-5.89582
0
LINE
8
BLACK
6
CONTINUOUS
10
9.62851
20
-5.89582
11
9.62848
21
-5.89584
0
LINE
8
BLACK
6
CONTINUOUS
10
9.62848
20
-5.89584
11
9.62846
21
-5.89586
0
LINE
8
BLACK
6
CONTINUOUS
10
9.62846
20
-5.89586
11
9.62843
21
-5.89588
0
LINE
8
BLACK
6
CONTINUOUS
10
9.62843
20
-5.89588
11
9.62839
21
-5.8959
0
LINE
8
BLACK
6
CONTINUOUS
10
9.62839
20
-5.8959
11
9.62832
21
-5.89594
0
LINE
8
BLACK
6
CONTINUOUS
10
9.62832
20
-5.89594
11
9.62829
21
-5.89596
0
LINE
8
BLACK
6
CONTINUOUS
10
9.62829
20
-5.89596
11
9.62826
21
-5.89598
0
LINE
8
BLACK
6
CONTINUOUS
10
9.62826
20
-5.89598
11
9.62823
21
-5.89599
0
LINE
8
BLACK
6
CONTINUOUS
10
9.62823
20
-5.89599
11
9.62819
21
-5.89601
0
LINE
8
BLACK
6
CONTINUOUS
10
9.62819
20
-5.89601
11
9.60731
21
-5.90668
0
LINE
8
BLACK
6
CONTINUOUS
10
9.60731
20
-5.90668
11
9.6073
21
-5.90669
0
LINE
8
BLACK
6
CONTINUOUS
10
9.6073
20
-5.90669
11
9.60718
21
-5.90675
0
LINE
8
BLACK
6
CONTINUOUS
10
9.60718
20
-5.90675
11
9.60713
21
-5.90677
0
LINE
8
BLACK
6
CONTINUOUS
10
9.60713
20
-5.90677
11
9.60711
21
-5.90678
0
LINE
8
BLACK
6
CONTINUOUS
10
9.60711
20
-5.90678
11
9.60708
21
-5.90679
0
LINE
8
BLACK
6
CONTINUOUS
10
9.60708
20
-5.90679
11
9.60703
21
-5.90681
0
LINE
8
BLACK
6
CONTINUOUS
10
9.60703
20
-5.90681
11
9.60691
21
-5.90686
0
LINE
8
BLACK
6
CONTINUOUS
10
9.60691
20
-5.90686
11
9.60689
21
-5.90686
0
LINE
8
BLACK
6
CONTINUOUS
10
9.60689
20
-5.90686
11
9.60678
21
-5.9069
0
LINE
8
BLACK
6
CONTINUOUS
10
9.60678
20
-5.9069
11
9.60672
21
-5.90693
0
LINE
8
BLACK
6
CONTINUOUS
10
9.60672
20
-5.90693
11
9.60671
21
-5.90693
0
LINE
8
BLACK
6
CONTINUOUS
10
9.60671
20
-5.90693
11
9.60671
21
-5.90693
0
LINE
8
BLACK
6
CONTINUOUS
10
9.60671
20
-5.90693
11
9.60664
21
-5.90695
0
LINE
8
BLACK
6
CONTINUOUS
10
9.60664
20
-5.90695
11
9.58408
21
-5.91335
0
LINE
8
BLACK
6
CONTINUOUS
10
9.58408
20
-5.91335
11
9.58404
21
-5.91337
0
LINE
8
BLACK
6
CONTINUOUS
10
9.58404
20
-5.91337
11
9.58398
21
-5.91339
0
LINE
8
BLACK
6
CONTINUOUS
10
9.58398
20
-5.91339
11
9.58392
21
-5.91341
0
LINE
8
BLACK
6
CONTINUOUS
10
9.58392
20
-5.91341
11
9.58383
21
-5.91342
0
LINE
8
BLACK
6
CONTINUOUS
10
9.58383
20
-5.91342
11
9.58382
21
-5.91343
0
LINE
8
BLACK
6
CONTINUOUS
10
9.58382
20
-5.91343
11
9.58375
21
-5.91344
0
LINE
8
BLACK
6
CONTINUOUS
10
9.58375
20
-5.91344
11
9.58368
21
-5.91345
0
LINE
8
BLACK
6
CONTINUOUS
10
9.58368
20
-5.91345
11
9.58368
21
-5.91345
0
LINE
8
BLACK
6
CONTINUOUS
10
9.58368
20
-5.91345
11
9.58354
21
-5.91348
0
LINE
8
BLACK
6
CONTINUOUS
10
9.58354
20
-5.91348
11
9.58349
21
-5.91349
0
LINE
8
BLACK
6
CONTINUOUS
10
9.58349
20
-5.91349
11
9.58347
21
-5.91349
0
LINE
8
BLACK
6
CONTINUOUS
10
9.58347
20
-5.91349
11
9.58345
21
-5.9135
0
LINE
8
BLACK
6
CONTINUOUS
10
9.58345
20
-5.9135
11
9.58339
21
-5.9135
0
LINE
8
BLACK
6
CONTINUOUS
10
9.58339
20
-5.9135
11
9.58326
21
-5.91352
0
LINE
8
BLACK
6
CONTINUOUS
10
9.58326
20
-5.91352
11
9.58324
21
-5.91351
0
LINE
8
BLACK
6
CONTINUOUS
10
9.58324
20
-5.91351
11
9.56198
21
-5.91541
0
LINE
8
BLACK
6
CONTINUOUS
10
9.56198
20
-5.91541
11
9.56197
21
-5.91542
0
LINE
8
BLACK
6
CONTINUOUS
10
9.56197
20
-5.91542
11
9.56185
21
-5.91543
0
LINE
8
BLACK
6
CONTINUOUS
10
9.56185
20
-5.91543
11
9.56181
21
-5.91543
0
LINE
8
BLACK
6
CONTINUOUS
10
9.56181
20
-5.91543
11
9.56177
21
-5.91543
0
LINE
8
BLACK
6
CONTINUOUS
10
9.56177
20
-5.91543
11
9.56174
21
-5.91544
0
LINE
8
BLACK
6
CONTINUOUS
10
9.56174
20
-5.91544
11
9.5617
21
-5.91544
0
LINE
8
BLACK
6
CONTINUOUS
10
9.5617
20
-5.91544
11
9.56158
21
-5.91544
0
LINE
8
BLACK
6
CONTINUOUS
10
9.56158
20
-5.91544
11
9.56154
21
-5.91544
0
LINE
8
BLACK
6
CONTINUOUS
10
9.56154
20
-5.91544
11
9.16898
21
-5.9156
0
LINE
8
BLACK
6
CONTINUOUS
10
9.16898
20
-5.9156
11
9.16887
21
-5.91561
0
LINE
8
BLACK
6
CONTINUOUS
10
9.16887
20
-5.91561
11
9.16874
21
-5.91563
0
LINE
8
BLACK
6
CONTINUOUS
10
9.16874
20
-5.91563
11
9.16873
21
-5.91563
0
LINE
8
BLACK
6
CONTINUOUS
10
9.16873
20
-5.91563
11
9.16871
21
-5.91563
0
LINE
8
BLACK
6
CONTINUOUS
10
9.16871
20
-5.91563
11
9.16862
21
-5.91563
0
LINE
8
BLACK
6
CONTINUOUS
10
9.16862
20
-5.91563
11
9.16852
21
-5.91563
0
LINE
8
BLACK
6
CONTINUOUS
10
9.16852
20
-5.91563
11
9.16843
21
-5.91562
0
LINE
8
BLACK
6
CONTINUOUS
10
9.16843
20
-5.91562
11
9.16839
21
-5.91563
0
LINE
8
BLACK
6
CONTINUOUS
10
9.16839
20
-5.91563
11
9.16824
21
-5.91561
0
LINE
8
BLACK
6
CONTINUOUS
10
9.16824
20
-5.91561
11
9.16811
21
-5.9156
0
LINE
8
BLACK
6
CONTINUOUS
10
9.16811
20
-5.9156
11
2.27917
21
-5.9156
0
LINE
8
BLACK
6
CONTINUOUS
10
2.27917
20
-5.9156
11
2.27917
21
-5.9156
0
LINE
8
BLACK
6
CONTINUOUS
10
2.27923
20
-1.4786
11
1.88622
21
-1.47876
0
LINE
8
BLACK
6
CONTINUOUS
10
1.88622
20
-1.47876
11
1.88621
21
-1.47876
0
LINE
8
BLACK
6
CONTINUOUS
10
1.88621
20
-1.47876
11
1.88615
21
-1.47876
0
LINE
8
BLACK
6
CONTINUOUS
10
1.88615
20
-1.47876
11
1.86471
21
-1.48069
0
LINE
8
BLACK
6
CONTINUOUS
10
1.86471
20
-1.48069
11
1.86467
21
-1.48069
0
LINE
8
BLACK
6
CONTINUOUS
10
1.86467
20
-1.48069
11
1.86465
21
-1.4807
0
LINE
8
BLACK
6
CONTINUOUS
10
1.86465
20
-1.4807
11
1.86458
21
-1.48071
0
LINE
8
BLACK
6
CONTINUOUS
10
1.86458
20
-1.48071
11
1.84204
21
-1.48711
0
LINE
8
BLACK
6
CONTINUOUS
10
1.84204
20
-1.48711
11
1.84204
21
-1.48711
0
LINE
8
BLACK
6
CONTINUOUS
10
1.84204
20
-1.48711
11
1.84202
21
-1.48712
0
LINE
8
BLACK
6
CONTINUOUS
10
1.84202
20
-1.48712
11
1.84196
21
-1.48714
0
LINE
8
BLACK
6
CONTINUOUS
10
1.84196
20
-1.48714
11
1.84191
21
-1.48716
0
LINE
8
BLACK
6
CONTINUOUS
10
1.84191
20
-1.48716
11
1.8419
21
-1.48716
0
LINE
8
BLACK
6
CONTINUOUS
10
1.8419
20
-1.48716
11
1.82105
21
-1.49781
0
LINE
8
BLACK
6
CONTINUOUS
10
1.82105
20
-1.49781
11
1.82103
21
-1.49783
0
LINE
8
BLACK
6
CONTINUOUS
10
1.82103
20
-1.49783
11
1.821
21
-1.49785
0
LINE
8
BLACK
6
CONTINUOUS
10
1.821
20
-1.49785
11
1.82097
21
-1.49787
0
LINE
8
BLACK
6
CONTINUOUS
10
1.82097
20
-1.49787
11
1.82094
21
-1.49789
0
LINE
8
BLACK
6
CONTINUOUS
10
1.82094
20
-1.49789
11
1.82093
21
-1.4979
0
LINE
8
BLACK
6
CONTINUOUS
10
1.82093
20
-1.4979
11
1.82088
21
-1.49794
0
LINE
8
BLACK
6
CONTINUOUS
10
1.82088
20
-1.49794
11
1.82086
21
-1.49795
0
LINE
8
BLACK
6
CONTINUOUS
10
1.82086
20
-1.49795
11
1.80249
21
-1.51243
0
LINE
8
BLACK
6
CONTINUOUS
10
1.80249
20
-1.51243
11
1.80243
21
-1.51248
0
LINE
8
BLACK
6
CONTINUOUS
10
1.80243
20
-1.51248
11
1.80243
21
-1.51249
0
LINE
8
BLACK
6
CONTINUOUS
10
1.80243
20
-1.51249
11
1.78716
21
-1.53033
0
LINE
8
BLACK
6
CONTINUOUS
10
1.78716
20
-1.53033
11
1.78709
21
-1.53043
0
LINE
8
BLACK
6
CONTINUOUS
10
1.78709
20
-1.53043
11
1.77559
21
-1.55088
0
LINE
8
BLACK
6
CONTINUOUS
10
1.77559
20
-1.55088
11
1.77558
21
-1.55091
0
LINE
8
BLACK
6
CONTINUOUS
10
1.77558
20
-1.55091
11
1.77555
21
-1.55099
0
LINE
8
BLACK
6
CONTINUOUS
10
1.77555
20
-1.55099
11
1.77554
21
-1.55101
0
LINE
8
BLACK
6
CONTINUOUS
10
1.77554
20
-1.55101
11
1.76824
21
-1.57327
0
LINE
8
BLACK
6
CONTINUOUS
10
1.76824
20
-1.57327
11
1.76822
21
-1.57336
0
LINE
8
BLACK
6
CONTINUOUS
10
1.76822
20
-1.57336
11
1.76821
21
-1.57346
0
LINE
8
BLACK
6
CONTINUOUS
10
1.76821
20
-1.57346
11
1.7682
21
-1.57348
0
LINE
8
BLACK
6
CONTINUOUS
10
1.7682
20
-1.57348
11
1.76537
21
-1.59666
0
LINE
8
BLACK
6
CONTINUOUS
10
1.76537
20
-1.59666
11
1.76537
21
-1.59668
0
LINE
8
BLACK
6
CONTINUOUS
10
1.76537
20
-1.59668
11
1.76537
21
-1.59673
0
LINE
8
BLACK
6
CONTINUOUS
10
1.76537
20
-1.59673
11
1.76537
21
-1.59674
0
LINE
8
BLACK
6
CONTINUOUS
10
1.76537
20
-1.59674
11
1.76537
21
-1.59676
0
LINE
8
BLACK
6
CONTINUOUS
10
1.76537
20
-1.59676
11
1.76537
21
-1.59684
0
LINE
8
BLACK
6
CONTINUOUS
10
1.76537
20
-1.59684
11
1.7671
21
-1.62017
0
LINE
8
BLACK
6
CONTINUOUS
10
1.7671
20
-1.62017
11
1.7671
21
-1.62018
0
LINE
8
BLACK
6
CONTINUOUS
10
1.7671
20
-1.62018
11
1.76711
21
-1.62023
0
LINE
8
BLACK
6
CONTINUOUS
10
1.76711
20
-1.62023
11
1.76712
21
-1.62026
0
LINE
8
BLACK
6
CONTINUOUS
10
1.76712
20
-1.62026
11
1.76712
21
-1.62027
0
LINE
8
BLACK
6
CONTINUOUS
10
1.76712
20
-1.62027
11
1.76712
21
-1.62027
0
LINE
8
BLACK
6
CONTINUOUS
10
1.76712
20
-1.62027
11
1.76713
21
-1.62035
0
LINE
8
BLACK
6
CONTINUOUS
10
1.76713
20
-1.62035
11
1.77337
21
-1.64293
0
LINE
8
BLACK
6
CONTINUOUS
10
1.77337
20
-1.64293
11
1.77337
21
-1.64293
0
LINE
8
BLACK
6
CONTINUOUS
10
1.77337
20
-1.64293
11
1.77338
21
-1.64295
0
LINE
8
BLACK
6
CONTINUOUS
10
1.77338
20
-1.64295
11
1.7734
21
-1.64301
0
LINE
8
BLACK
6
CONTINUOUS
10
1.7734
20
-1.64301
11
1.77342
21
-1.64306
0
LINE
8
BLACK
6
CONTINUOUS
10
1.77342
20
-1.64306
11
1.77343
21
-1.64308
0
LINE
8
BLACK
6
CONTINUOUS
10
1.77343
20
-1.64308
11
1.78395
21
-1.66404
0
LINE
8
BLACK
6
CONTINUOUS
10
1.78395
20
-1.66404
11
1.78396
21
-1.66405
0
LINE
8
BLACK
6
CONTINUOUS
10
1.78396
20
-1.66405
11
1.78396
21
-1.66406
0
LINE
8
BLACK
6
CONTINUOUS
10
1.78396
20
-1.66406
11
1.78403
21
-1.66417
0
LINE
8
BLACK
6
CONTINUOUS
10
1.78403
20
-1.66417
11
1.79838
21
-1.68263
0
LINE
8
BLACK
6
CONTINUOUS
10
1.79838
20
-1.68263
11
1.79838
21
-1.68263
0
LINE
8
BLACK
6
CONTINUOUS
10
1.79838
20
-1.68263
11
1.79841
21
-1.68266
0
LINE
8
BLACK
6
CONTINUOUS
10
1.79841
20
-1.68266
11
1.79844
21
-1.68269
0
LINE
8
BLACK
6
CONTINUOUS
10
1.79844
20
-1.68269
11
1.79846
21
-1.68271
0
LINE
8
BLACK
6
CONTINUOUS
10
1.79846
20
-1.68271
11
1.79849
21
-1.68274
0
LINE
8
BLACK
6
CONTINUOUS
10
1.79849
20
-1.68274
11
1.7985
21
-1.68276
0
LINE
8
BLACK
6
CONTINUOUS
10
1.7985
20
-1.68276
11
1.81621
21
-1.69812
0
LINE
8
BLACK
6
CONTINUOUS
10
1.81621
20
-1.69812
11
1.81624
21
-1.69814
0
LINE
8
BLACK
6
CONTINUOUS
10
1.81624
20
-1.69814
11
1.81627
21
-1.69816
0
LINE
8
BLACK
6
CONTINUOUS
10
1.81627
20
-1.69816
11
1.81634
21
-1.6982
0
LINE
8
BLACK
6
CONTINUOUS
10
1.81634
20
-1.6982
11
1.81639
21
-1.69824
0
LINE
8
BLACK
6
CONTINUOUS
10
1.81639
20
-1.69824
11
1.83673
21
-1.70987
0
LINE
8
BLACK
6
CONTINUOUS
10
1.83673
20
-1.70987
11
2.27582
21
-1.90673
0
LINE
8
BLACK
6
CONTINUOUS
10
2.27582
20
-1.90673
11
2.27587
21
-1.90674
0
LINE
8
BLACK
6
CONTINUOUS
10
2.27587
20
-1.90674
11
2.27596
21
-1.90679
0
LINE
8
BLACK
6
CONTINUOUS
10
2.27596
20
-1.90679
11
2.27598
21
-1.9068
0
LINE
8
BLACK
6
CONTINUOUS
10
2.27598
20
-1.9068
11
2.27603
21
-1.90683
0
LINE
8
BLACK
6
CONTINUOUS
10
2.27603
20
-1.90683
11
2.27614
21
-1.90689
0
LINE
8
BLACK
6
CONTINUOUS
10
2.27614
20
-1.90689
11
2.27616
21
-1.9069
0
LINE
8
BLACK
6
CONTINUOUS
10
2.27616
20
-1.9069
11
2.27618
21
-1.90691
0
LINE
8
BLACK
6
CONTINUOUS
10
2.27618
20
-1.90691
11
2.27628
21
-1.907
0
LINE
8
BLACK
6
CONTINUOUS
10
2.27628
20
-1.907
11
2.27638
21
-1.90708
0
LINE
8
BLACK
6
CONTINUOUS
10
2.27638
20
-1.90708
11
2.2764
21
-1.9071
0
LINE
8
BLACK
6
CONTINUOUS
10
2.2764
20
-1.9071
11
2.27642
21
-1.90712
0
LINE
8
BLACK
6
CONTINUOUS
10
2.27642
20
-1.90712
11
2.2765
21
-1.90722
0
LINE
8
BLACK
6
CONTINUOUS
10
2.2765
20
-1.90722
11
2.27658
21
-1.90732
0
LINE
8
BLACK
6
CONTINUOUS
10
2.27658
20
-1.90732
11
2.27659
21
-1.90734
0
LINE
8
BLACK
6
CONTINUOUS
10
2.27659
20
-1.90734
11
2.27661
21
-1.90736
0
LINE
8
BLACK
6
CONTINUOUS
10
2.27661
20
-1.90736
11
2.27667
21
-1.90748
0
LINE
8
BLACK
6
CONTINUOUS
10
2.27667
20
-1.90748
11
2.27673
21
-1.9076
0
LINE
8
BLACK
6
CONTINUOUS
10
2.27673
20
-1.9076
11
2.27673
21
-1.90762
0
LINE
8
BLACK
6
CONTINUOUS
10
2.27673
20
-1.90762
11
2.27674
21
-1.90764
0
LINE
8
BLACK
6
CONTINUOUS
10
2.27674
20
-1.90764
11
2.27678
21
-1.90777
0
LINE
8
BLACK
6
CONTINUOUS
10
2.27678
20
-1.90777
11
2.27682
21
-1.90789
0
LINE
8
BLACK
6
CONTINUOUS
10
2.27682
20
-1.90789
11
2.27682
21
-1.90792
0
LINE
8
BLACK
6
CONTINUOUS
10
2.27682
20
-1.90792
11
2.27683
21
-1.90794
0
LINE
8
BLACK
6
CONTINUOUS
10
2.27683
20
-1.90794
11
2.27683
21
-1.90807
0
LINE
8
BLACK
6
CONTINUOUS
10
2.27683
20
-1.90807
11
2.27684
21
-1.90813
0
LINE
8
BLACK
6
CONTINUOUS
10
2.27684
20
-1.90813
11
2.27684
21
-1.90815
0
LINE
8
BLACK
6
CONTINUOUS
10
2.27684
20
-1.90815
11
2.27685
21
-1.90825
0
LINE
8
BLACK
6
CONTINUOUS
10
2.27685
20
-1.90825
11
2.27684
21
-1.9083
0
LINE
8
BLACK
6
CONTINUOUS
10
2.27684
20
-1.9083
11
2.27684
21
-5.48274
0
LINE
8
BLACK
6
CONTINUOUS
10
2.27684
20
-5.48274
11
2.27685
21
-5.4828
0
LINE
8
BLACK
6
CONTINUOUS
10
2.27685
20
-5.4828
11
2.27684
21
-5.4829
0
LINE
8
BLACK
6
CONTINUOUS
10
2.27684
20
-5.4829
11
2.27684
21
-5.48292
0
LINE
8
BLACK
6
CONTINUOUS
10
2.27684
20
-5.48292
11
2.27683
21
-5.48298
0
LINE
8
BLACK
6
CONTINUOUS
10
2.27683
20
-5.48298
11
2.27683
21
-5.48311
0
LINE
8
BLACK
6
CONTINUOUS
10
2.27683
20
-5.48311
11
2.27682
21
-5.48313
0
LINE
8
BLACK
6
CONTINUOUS
10
2.27682
20
-5.48313
11
2.27682
21
-5.48315
0
LINE
8
BLACK
6
CONTINUOUS
10
2.27682
20
-5.48315
11
2.27678
21
-5.48328
0
LINE
8
BLACK
6
CONTINUOUS
10
2.27678
20
-5.48328
11
2.27674
21
-5.48341
0
LINE
8
BLACK
6
CONTINUOUS
10
2.27674
20
-5.48341
11
2.27673
21
-5.48343
0
LINE
8
BLACK
6
CONTINUOUS
10
2.27673
20
-5.48343
11
2.27673
21
-5.48345
0
LINE
8
BLACK
6
CONTINUOUS
10
2.27673
20
-5.48345
11
2.27667
21
-5.48357
0
LINE
8
BLACK
6
CONTINUOUS
10
2.27667
20
-5.48357
11
2.27661
21
-5.48368
0
LINE
8
BLACK
6
CONTINUOUS
10
2.27661
20
-5.48368
11
2.27659
21
-5.4837
0
LINE
8
BLACK
6
CONTINUOUS
10
2.27659
20
-5.4837
11
2.27658
21
-5.48372
0
LINE
8
BLACK
6
CONTINUOUS
10
2.27658
20
-5.48372
11
2.2765
21
-5.48383
0
LINE
8
BLACK
6
CONTINUOUS
10
2.2765
20
-5.48383
11
2.27642
21
-5.48393
0
LINE
8
BLACK
6
CONTINUOUS
10
2.27642
20
-5.48393
11
2.2764
21
-5.48394
0
LINE
8
BLACK
6
CONTINUOUS
10
2.2764
20
-5.48394
11
2.27638
21
-5.48396
0
LINE
8
BLACK
6
CONTINUOUS
10
2.27638
20
-5.48396
11
2.27628
21
-5.48405
0
LINE
8
BLACK
6
CONTINUOUS
10
2.27628
20
-5.48405
11
2.27618
21
-5.48413
0
LINE
8
BLACK
6
CONTINUOUS
10
2.27618
20
-5.48413
11
2.27616
21
-5.48414
0
LINE
8
BLACK
6
CONTINUOUS
10
2.27616
20
-5.48414
11
2.27614
21
-5.48416
0
LINE
8
BLACK
6
CONTINUOUS
10
2.27614
20
-5.48416
11
2.27603
21
-5.48422
0
LINE
8
BLACK
6
CONTINUOUS
10
2.27603
20
-5.48422
11
2.27598
21
-5.48425
0
LINE
8
BLACK
6
CONTINUOUS
10
2.27598
20
-5.48425
11
2.27596
21
-5.48426
0
LINE
8
BLACK
6
CONTINUOUS
10
2.27596
20
-5.48426
11
2.27587
21
-5.48431
0
LINE
8
BLACK
6
CONTINUOUS
10
2.27587
20
-5.48431
11
2.27582
21
-5.48432
0
LINE
8
BLACK
6
CONTINUOUS
10
2.27582
20
-5.48432
11
1.83669
21
-5.68121
0
LINE
8
BLACK
6
CONTINUOUS
10
1.83669
20
-5.68121
11
1.81793
21
-5.69173
0
LINE
8
BLACK
6
CONTINUOUS
10
1.81793
20
-5.69173
11
1.81791
21
-5.69174
0
LINE
8
BLACK
6
CONTINUOUS
10
1.81791
20
-5.69174
11
1.81788
21
-5.69177
0
LINE
8
BLACK
6
CONTINUOUS
10
1.81788
20
-5.69177
11
1.8178
21
-5.69182
0
LINE
8
BLACK
6
CONTINUOUS
10
1.8178
20
-5.69182
11
1.79991
21
-5.70683
0
LINE
8
BLACK
6
CONTINUOUS
10
1.79991
20
-5.70683
11
1.79991
21
-5.70683
0
LINE
8
BLACK
6
CONTINUOUS
10
1.79991
20
-5.70683
11
1.79988
21
-5.70686
0
LINE
8
BLACK
6
CONTINUOUS
10
1.79988
20
-5.70686
11
1.79986
21
-5.70689
0
LINE
8
BLACK
6
CONTINUOUS
10
1.79986
20
-5.70689
11
1.79983
21
-5.70692
0
LINE
8
BLACK
6
CONTINUOUS
10
1.79983
20
-5.70692
11
1.7998
21
-5.70695
0
LINE
8
BLACK
6
CONTINUOUS
10
1.7998
20
-5.70695
11
1.79978
21
-5.70697
0
LINE
8
BLACK
6
CONTINUOUS
10
1.79978
20
-5.70697
11
1.7851
21
-5.72523
0
LINE
8
BLACK
6
CONTINUOUS
10
1.7851
20
-5.72523
11
1.78503
21
-5.72533
0
LINE
8
BLACK
6
CONTINUOUS
10
1.78503
20
-5.72533
11
1.78503
21
-5.72533
0
LINE
8
BLACK
6
CONTINUOUS
10
1.78503
20
-5.72533
11
1.78502
21
-5.72534
0
LINE
8
BLACK
6
CONTINUOUS
10
1.78502
20
-5.72534
11
1.77415
21
-5.74615
0
LINE
8
BLACK
6
CONTINUOUS
10
1.77415
20
-5.74615
11
1.77413
21
-5.7462
0
LINE
8
BLACK
6
CONTINUOUS
10
1.77413
20
-5.7462
11
1.7741
21
-5.74626
0
LINE
8
BLACK
6
CONTINUOUS
10
1.7741
20
-5.74626
11
1.76748
21
-5.76875
0
LINE
8
BLACK
6
CONTINUOUS
10
1.76748
20
-5.76875
11
1.76748
21
-5.76876
0
LINE
8
BLACK
6
CONTINUOUS
10
1.76748
20
-5.76876
11
1.76746
21
-5.76889
0
LINE
8
BLACK
6
CONTINUOUS
10
1.76746
20
-5.76889
11
1.76745
21
-5.76894
0
LINE
8
BLACK
6
CONTINUOUS
10
1.76745
20
-5.76894
11
1.76745
21
-5.76896
0
LINE
8
BLACK
6
CONTINUOUS
10
1.76745
20
-5.76896
11
1.76534
21
-5.79222
0
LINE
8
BLACK
6
CONTINUOUS
10
1.76534
20
-5.79222
11
1.76534
21
-5.79237
0
LINE
8
BLACK
6
CONTINUOUS
10
1.76534
20
-5.79237
11
1.76778
21
-5.81567
0
LINE
8
BLACK
6
CONTINUOUS
10
1.76778
20
-5.81567
11
1.7678
21
-5.81573
0
LINE
8
BLACK
6
CONTINUOUS
10
1.7678
20
-5.81573
11
1.76782
21
-5.81579
0
LINE
8
BLACK
6
CONTINUOUS
10
1.76782
20
-5.81579
11
1.76783
21
-5.81584
0
LINE
8
BLACK
6
CONTINUOUS
10
1.76783
20
-5.81584
11
1.77474
21
-5.83818
0
LINE
8
BLACK
6
CONTINUOUS
10
1.77474
20
-5.83818
11
1.77475
21
-5.83819
0
LINE
8
BLACK
6
CONTINUOUS
10
1.77475
20
-5.83819
11
1.77477
21
-5.83824
0
LINE
8
BLACK
6
CONTINUOUS
10
1.77477
20
-5.83824
11
1.77478
21
-5.83826
0
LINE
8
BLACK
6
CONTINUOUS
10
1.77478
20
-5.83826
11
1.77479
21
-5.83828
0
LINE
8
BLACK
6
CONTINUOUS
10
1.77479
20
-5.83828
11
1.7748
21
-5.83833
0
LINE
8
BLACK
6
CONTINUOUS
10
1.7748
20
-5.83833
11
1.77481
21
-5.83835
0
LINE
8
BLACK
6
CONTINUOUS
10
1.77481
20
-5.83835
11
1.78596
21
-5.85896
0
LINE
8
BLACK
6
CONTINUOUS
10
1.78596
20
-5.85896
11
1.78598
21
-5.859
0
LINE
8
BLACK
6
CONTINUOUS
10
1.78598
20
-5.859
11
1.78601
21
-5.85903
0
LINE
8
BLACK
6
CONTINUOUS
10
1.78601
20
-5.85903
11
1.78602
21
-5.85906
0
LINE
8
BLACK
6
CONTINUOUS
10
1.78602
20
-5.85906
11
1.78603
21
-5.85906
0
LINE
8
BLACK
6
CONTINUOUS
10
1.78603
20
-5.85906
11
1.80097
21
-5.87713
0
LINE
8
BLACK
6
CONTINUOUS
10
1.80097
20
-5.87713
11
1.80099
21
-5.87715
0
LINE
8
BLACK
6
CONTINUOUS
10
1.80099
20
-5.87715
11
1.80102
21
-5.87718
0
LINE
8
BLACK
6
CONTINUOUS
10
1.80102
20
-5.87718
11
1.80105
21
-5.87721
0
LINE
8
BLACK
6
CONTINUOUS
10
1.80105
20
-5.87721
11
1.80107
21
-5.87723
0
LINE
8
BLACK
6
CONTINUOUS
10
1.80107
20
-5.87723
11
1.80108
21
-5.87724
0
LINE
8
BLACK
6
CONTINUOUS
10
1.80108
20
-5.87724
11
1.81923
21
-5.89206
0
LINE
8
BLACK
6
CONTINUOUS
10
1.81923
20
-5.89206
11
1.81933
21
-5.89212
0
LINE
8
BLACK
6
CONTINUOUS
10
1.81933
20
-5.89212
11
1.81933
21
-5.89212
0
LINE
8
BLACK
6
CONTINUOUS
10
1.81933
20
-5.89212
11
1.81935
21
-5.89213
0
LINE
8
BLACK
6
CONTINUOUS
10
1.81935
20
-5.89213
11
1.84001
21
-5.90312
0
LINE
8
BLACK
6
CONTINUOUS
10
1.84001
20
-5.90312
11
1.84004
21
-5.90313
0
LINE
8
BLACK
6
CONTINUOUS
10
1.84004
20
-5.90313
11
1.84011
21
-5.90315
0
LINE
8
BLACK
6
CONTINUOUS
10
1.84011
20
-5.90315
11
1.84011
21
-5.90315
0
LINE
8
BLACK
6
CONTINUOUS
10
1.84011
20
-5.90315
11
1.84012
21
-5.90316
0
LINE
8
BLACK
6
CONTINUOUS
10
1.84012
20
-5.90316
11
1.84018
21
-5.90319
0
LINE
8
BLACK
6
CONTINUOUS
10
1.84018
20
-5.90319
11
1.84023
21
-5.90321
0
LINE
8
BLACK
6
CONTINUOUS
10
1.84023
20
-5.90321
11
1.86264
21
-5.90997
0
LINE
8
BLACK
6
CONTINUOUS
10
1.86264
20
-5.90997
11
1.86275
21
-5.90999
0
LINE
8
BLACK
6
CONTINUOUS
10
1.86275
20
-5.90999
11
1.8861
21
-5.91228
0
LINE
8
BLACK
6
CONTINUOUS
10
1.8861
20
-5.91228
11
1.88612
21
-5.91228
0
LINE
8
BLACK
6
CONTINUOUS
10
1.88612
20
-5.91228
11
1.88618
21
-5.91229
0
LINE
8
BLACK
6
CONTINUOUS
10
1.88618
20
-5.91229
11
1.88619
21
-5.91229
0
LINE
8
BLACK
6
CONTINUOUS
10
1.88619
20
-5.91229
11
2.27923
21
-5.91245
0
LINE
8
BLACK
6
CONTINUOUS
10
2.27923
20
-5.91245
11
9.16822
21
-5.91245
0
LINE
8
BLACK
6
CONTINUOUS
10
9.16822
20
-5.91245
11
9.16829
21
-5.91244
0
LINE
8
BLACK
6
CONTINUOUS
10
9.16829
20
-5.91244
11
9.16844
21
-5.91246
0
LINE
8
BLACK
6
CONTINUOUS
10
9.16844
20
-5.91246
11
9.16854
21
-5.91247
0
LINE
8
BLACK
6
CONTINUOUS
10
9.16854
20
-5.91247
11
9.16862
21
-5.91246
0
LINE
8
BLACK
6
CONTINUOUS
10
9.16862
20
-5.91246
11
9.16876
21
-5.91244
0
LINE
8
BLACK
6
CONTINUOUS
10
9.16876
20
-5.91244
11
9.16885
21
-5.91245
0
LINE
8
BLACK
6
CONTINUOUS
10
9.16885
20
-5.91245
11
9.56155
21
-5.91229
0
LINE
8
BLACK
6
CONTINUOUS
10
9.56155
20
-5.91229
11
9.56155
21
-5.91229
0
LINE
8
BLACK
6
CONTINUOUS
10
9.56155
20
-5.91229
11
9.56159
21
-5.91228
0
LINE
8
BLACK
6
CONTINUOUS
10
9.56159
20
-5.91228
11
9.56163
21
-5.91228
0
LINE
8
BLACK
6
CONTINUOUS
10
9.56163
20
-5.91228
11
9.583
21
-5.91037
0
LINE
8
BLACK
6
CONTINUOUS
10
9.583
20
-5.91037
11
9.58301
21
-5.91037
0
LINE
8
BLACK
6
CONTINUOUS
10
9.58301
20
-5.91037
11
9.58306
21
-5.91036
0
LINE
8
BLACK
6
CONTINUOUS
10
9.58306
20
-5.91036
11
9.58309
21
-5.91035
0
LINE
8
BLACK
6
CONTINUOUS
10
9.58309
20
-5.91035
11
9.5831
21
-5.91035
0
LINE
8
BLACK
6
CONTINUOUS
10
9.5831
20
-5.91035
11
9.58317
21
-5.91034
0
LINE
8
BLACK
6
CONTINUOUS
10
9.58317
20
-5.91034
11
9.60571
21
-5.90394
0
LINE
8
BLACK
6
CONTINUOUS
10
9.60571
20
-5.90394
11
9.60572
21
-5.90393
0
LINE
8
BLACK
6
CONTINUOUS
10
9.60572
20
-5.90393
11
9.60574
21
-5.90393
0
LINE
8
BLACK
6
CONTINUOUS
10
9.60574
20
-5.90393
11
9.60579
21
-5.90391
0
LINE
8
BLACK
6
CONTINUOUS
10
9.60579
20
-5.90391
11
9.60585
21
-5.90389
0
LINE
8
BLACK
6
CONTINUOUS
10
9.60585
20
-5.90389
11
9.60586
21
-5.90388
0
LINE
8
BLACK
6
CONTINUOUS
10
9.60586
20
-5.90388
11
9.62675
21
-5.89321
0
LINE
8
BLACK
6
CONTINUOUS
10
9.62675
20
-5.89321
11
9.62676
21
-5.8932
0
LINE
8
BLACK
6
CONTINUOUS
10
9.62676
20
-5.8932
11
9.62677
21
-5.89319
0
LINE
8
BLACK
6
CONTINUOUS
10
9.62677
20
-5.89319
11
9.62687
21
-5.89313
0
LINE
8
BLACK
6
CONTINUOUS
10
9.62687
20
-5.89313
11
9.64523
21
-5.87865
0
LINE
8
BLACK
6
CONTINUOUS
10
9.64523
20
-5.87865
11
9.64524
21
-5.87865
0
LINE
8
BLACK
6
CONTINUOUS
10
9.64524
20
-5.87865
11
9.64527
21
-5.87862
0
LINE
8
BLACK
6
CONTINUOUS
10
9.64527
20
-5.87862
11
9.6453
21
-5.87859
0
LINE
8
BLACK
6
CONTINUOUS
10
9.6453
20
-5.87859
11
9.64532
21
-5.87857
0
LINE
8
BLACK
6
CONTINUOUS
10
9.64532
20
-5.87857
11
9.64533
21
-5.87856
0
LINE
8
BLACK
6
CONTINUOUS
10
9.64533
20
-5.87856
11
9.6606
21
-5.86071
0
LINE
8
BLACK
6
CONTINUOUS
10
9.6606
20
-5.86071
11
9.66067
21
-5.86061
0
LINE
8
BLACK
6
CONTINUOUS
10
9.66067
20
-5.86061
11
9.67217
21
-5.84017
0
LINE
8
BLACK
6
CONTINUOUS
10
9.67217
20
-5.84017
11
9.67218
21
-5.84014
0
LINE
8
BLACK
6
CONTINUOUS
10
9.67218
20
-5.84014
11
9.67222
21
-5.84003
0
LINE
8
BLACK
6
CONTINUOUS
10
9.67222
20
-5.84003
11
9.67952
21
-5.81778
0
LINE
8
BLACK
6
CONTINUOUS
10
9.67952
20
-5.81778
11
9.67954
21
-5.81769
0
LINE
8
BLACK
6
CONTINUOUS
10
9.67954
20
-5.81769
11
9.67955
21
-5.81758
0
LINE
8
BLACK
6
CONTINUOUS
10
9.67955
20
-5.81758
11
9.67956
21
-5.81757
0
LINE
8
BLACK
6
CONTINUOUS
10
9.67956
20
-5.81757
11
9.68239
21
-5.79439
0
LINE
8
BLACK
6
CONTINUOUS
10
9.68239
20
-5.79439
11
9.68239
21
-5.79436
0
LINE
8
BLACK
6
CONTINUOUS
10
9.68239
20
-5.79436
11
9.68239
21
-5.79431
0
LINE
8
BLACK
6
CONTINUOUS
10
9.68239
20
-5.79431
11
9.68239
21
-5.79429
0
LINE
8
BLACK
6
CONTINUOUS
10
9.68239
20
-5.79429
11
9.68239
21
-5.79427
0
LINE
8
BLACK
6
CONTINUOUS
10
9.68239
20
-5.79427
11
9.68239
21
-5.79425
0
LINE
8
BLACK
6
CONTINUOUS
10
9.68239
20
-5.79425
11
9.68066
21
-5.77088
0
LINE
8
BLACK
6
CONTINUOUS
10
9.68066
20
-5.77088
11
9.68065
21
-5.77085
0
LINE
8
BLACK
6
CONTINUOUS
10
9.68065
20
-5.77085
11
9.68064
21
-5.77081
0
LINE
8
BLACK
6
CONTINUOUS
10
9.68064
20
-5.77081
11
9.68064
21
-5.77078
0
LINE
8
BLACK
6
CONTINUOUS
10
9.68064
20
-5.77078
11
9.68064
21
-5.77077
0
LINE
8
BLACK
6
CONTINUOUS
10
9.68064
20
-5.77077
11
9.68062
21
-5.7707
0
LINE
8
BLACK
6
CONTINUOUS
10
9.68062
20
-5.7707
11
9.67438
21
-5.74812
0
LINE
8
BLACK
6
CONTINUOUS
10
9.67438
20
-5.74812
11
9.67438
21
-5.74811
0
LINE
8
BLACK
6
CONTINUOUS
10
9.67438
20
-5.74811
11
9.67438
21
-5.7481
0
LINE
8
BLACK
6
CONTINUOUS
10
9.67438
20
-5.7481
11
9.67436
21
-5.74804
0
LINE
8
BLACK
6
CONTINUOUS
10
9.67436
20
-5.74804
11
9.67433
21
-5.74799
0
LINE
8
BLACK
6
CONTINUOUS
10
9.67433
20
-5.74799
11
9.67433
21
-5.74797
0
LINE
8
BLACK
6
CONTINUOUS
10
9.67433
20
-5.74797
11
9.66381
21
-5.72701
0
LINE
8
BLACK
6
CONTINUOUS
10
9.66381
20
-5.72701
11
9.66377
21
-5.72695
0
LINE
8
BLACK
6
CONTINUOUS
10
9.66377
20
-5.72695
11
9.66376
21
-5.72694
0
LINE
8
BLACK
6
CONTINUOUS
10
9.66376
20
-5.72694
11
9.66372
21
-5.72688
0
LINE
8
BLACK
6
CONTINUOUS
10
9.66372
20
-5.72688
11
9.66371
21
-5.72686
0
LINE
8
BLACK
6
CONTINUOUS
10
9.66371
20
-5.72686
11
9.64938
21
-5.70842
0
LINE
8
BLACK
6
CONTINUOUS
10
9.64938
20
-5.70842
11
9.64927
21
-5.70831
0
LINE
8
BLACK
6
CONTINUOUS
10
9.64927
20
-5.70831
11
9.63158
21
-5.69295
0
LINE
8
BLACK
6
CONTINUOUS
10
9.63158
20
-5.69295
11
9.63155
21
-5.69293
0
LINE
8
BLACK
6
CONTINUOUS
10
9.63155
20
-5.69293
11
9.63151
21
-5.69291
0
LINE
8
BLACK
6
CONTINUOUS
10
9.63151
20
-5.69291
11
9.63147
21
-5.69288
0
LINE
8
BLACK
6
CONTINUOUS
10
9.63147
20
-5.69288
11
9.63145
21
-5.69286
0
LINE
8
BLACK
6
CONTINUOUS
10
9.63145
20
-5.69286
11
9.61109
21
-5.68121
0
LINE
8
BLACK
6
CONTINUOUS
10
9.61109
20
-5.68121
11
9.17193
21
-5.48432
0
LINE
8
BLACK
6
CONTINUOUS
10
9.17193
20
-5.48432
11
9.17188
21
-5.48431
0
LINE
8
BLACK
6
CONTINUOUS
10
9.17188
20
-5.48431
11
9.17179
21
-5.48426
0
LINE
8
BLACK
6
CONTINUOUS
10
9.17179
20
-5.48426
11
9.17177
21
-5.48425
0
LINE
8
BLACK
6
CONTINUOUS
10
9.17177
20
-5.48425
11
9.17172
21
-5.48422
0
LINE
8
BLACK
6
CONTINUOUS
10
9.17172
20
-5.48422
11
9.1716
21
-5.48416
0
LINE
8
BLACK
6
CONTINUOUS
10
9.1716
20
-5.48416
11
9.17159
21
-5.48414
0
LINE
8
BLACK
6
CONTINUOUS
10
9.17159
20
-5.48414
11
9.17157
21
-5.48413
0
LINE
8
BLACK
6
CONTINUOUS
10
9.17157
20
-5.48413
11
9.17147
21
-5.48405
0
LINE
8
BLACK
6
CONTINUOUS
10
9.17147
20
-5.48405
11
9.17136
21
-5.48396
0
LINE
8
BLACK
6
CONTINUOUS
10
9.17136
20
-5.48396
11
9.17135
21
-5.48394
0
LINE
8
BLACK
6
CONTINUOUS
10
9.17135
20
-5.48394
11
9.17133
21
-5.48393
0
LINE
8
BLACK
6
CONTINUOUS
10
9.17133
20
-5.48393
11
9.17125
21
-5.48383
0
LINE
8
BLACK
6
CONTINUOUS
10
9.17125
20
-5.48383
11
9.17117
21
-5.48372
0
LINE
8
BLACK
6
CONTINUOUS
10
9.17117
20
-5.48372
11
9.17116
21
-5.4837
0
LINE
8
BLACK
6
CONTINUOUS
10
9.17116
20
-5.4837
11
9.17114
21
-5.48368
0
LINE
8
BLACK
6
CONTINUOUS
10
9.17114
20
-5.48368
11
9.17108
21
-5.48357
0
LINE
8
BLACK
6
CONTINUOUS
10
9.17108
20
-5.48357
11
9.17102
21
-5.48345
0
LINE
8
BLACK
6
CONTINUOUS
10
9.17102
20
-5.48345
11
9.17101
21
-5.48343
0
LINE
8
BLACK
6
CONTINUOUS
10
9.17101
20
-5.48343
11
9.171
21
-5.48341
0
LINE
8
BLACK
6
CONTINUOUS
10
9.171
20
-5.48341
11
9.17097
21
-5.48328
0
LINE
8
BLACK
6
CONTINUOUS
10
9.17097
20
-5.48328
11
9.17093
21
-5.48315
0
LINE
8
BLACK
6
CONTINUOUS
10
9.17093
20
-5.48315
11
9.17093
21
-5.48313
0
LINE
8
BLACK
6
CONTINUOUS
10
9.17093
20
-5.48313
11
9.17092
21
-5.48311
0
LINE
8
BLACK
6
CONTINUOUS
10
9.17092
20
-5.48311
11
9.17091
21
-5.48298
0
LINE
8
BLACK
6
CONTINUOUS
10
9.17091
20
-5.48298
11
9.17091
21
-5.48292
0
LINE
8
BLACK
6
CONTINUOUS
10
9.17091
20
-5.48292
11
9.17091
21
-5.4829
0
LINE
8
BLACK
6
CONTINUOUS
10
9.17091
20
-5.4829
11
9.1709
21
-5.4828
0
LINE
8
BLACK
6
CONTINUOUS
10
9.1709
20
-5.4828
11
9.17091
21
-5.48274
0
LINE
8
BLACK
6
CONTINUOUS
10
9.17091
20
-5.48274
11
9.17091
21
-1.9083
0
LINE
8
BLACK
6
CONTINUOUS
10
9.17091
20
-1.9083
11
9.1709
21
-1.90825
0
LINE
8
BLACK
6
CONTINUOUS
10
9.1709
20
-1.90825
11
9.17091
21
-1.90815
0
LINE
8
BLACK
6
CONTINUOUS
10
9.17091
20
-1.90815
11
9.17091
21
-1.90813
0
LINE
8
BLACK
6
CONTINUOUS
10
9.17091
20
-1.90813
11
9.17091
21
-1.90807
0
LINE
8
BLACK
6
CONTINUOUS
10
9.17091
20
-1.90807
11
9.17092
21
-1.90794
0
LINE
8
BLACK
6
CONTINUOUS
10
9.17092
20
-1.90794
11
9.17093
21
-1.90792
0
LINE
8
BLACK
6
CONTINUOUS
10
9.17093
20
-1.90792
11
9.17093
21
-1.90789
0
LINE
8
BLACK
6
CONTINUOUS
10
9.17093
20
-1.90789
11
9.17097
21
-1.90777
0
LINE
8
BLACK
6
CONTINUOUS
10
9.17097
20
-1.90777
11
9.171
21
-1.90764
0
LINE
8
BLACK
6
CONTINUOUS
10
9.171
20
-1.90764
11
9.17101
21
-1.90762
0
LINE
8
BLACK
6
CONTINUOUS
10
9.17101
20
-1.90762
11
9.17102
21
-1.9076
0
LINE
8
BLACK
6
CONTINUOUS
10
9.17102
20
-1.9076
11
9.17108
21
-1.90748
0
LINE
8
BLACK
6
CONTINUOUS
10
9.17108
20
-1.90748
11
9.17114
21
-1.90736
0
LINE
8
BLACK
6
CONTINUOUS
10
9.17114
20
-1.90736
11
9.17116
21
-1.90734
0
LINE
8
BLACK
6
CONTINUOUS
10
9.17116
20
-1.90734
11
9.17117
21
-1.90732
0
LINE
8
BLACK
6
CONTINUOUS
10
9.17117
20
-1.90732
11
9.17125
21
-1.90722
0
LINE
8
BLACK
6
CONTINUOUS
10
9.17125
20
-1.90722
11
9.17133
21
-1.90712
0
LINE
8
BLACK
6
CONTINUOUS
10
9.17133
20
-1.90712
11
9.17135
21
-1.9071
0
LINE
8
BLACK
6
CONTINUOUS
10
9.17135
20
-1.9071
11
9.17136
21
-1.90708
0
LINE
8
BLACK
6
CONTINUOUS
10
9.17136
20
-1.90708
11
9.17147
21
-1.907
0
LINE
8
BLACK
6
CONTINUOUS
10
9.17147
20
-1.907
11
9.17157
21
-1.90691
0
LINE
8
BLACK
6
CONTINUOUS
10
9.17157
20
-1.90691
11
9.17159
21
-1.9069
0
LINE
8
BLACK
6
CONTINUOUS
10
9.17159
20
-1.9069
11
9.1716
21
-1.90689
0
LINE
8
BLACK
6
CONTINUOUS
10
9.1716
20
-1.90689
11
9.17172
21
-1.90682
0
LINE
8
BLACK
6
CONTINUOUS
10
9.17172
20
-1.90682
11
9.17177
21
-1.9068
0
LINE
8
BLACK
6
CONTINUOUS
10
9.17177
20
-1.9068
11
9.17179
21
-1.90679
0
LINE
8
BLACK
6
CONTINUOUS
10
9.17179
20
-1.90679
11
9.17188
21
-1.90674
0
LINE
8
BLACK
6
CONTINUOUS
10
9.17188
20
-1.90674
11
9.17193
21
-1.90673
0
LINE
8
BLACK
6
CONTINUOUS
10
9.17193
20
-1.90673
11
9.61098
21
-1.70989
0
LINE
8
BLACK
6
CONTINUOUS
10
9.61098
20
-1.70989
11
9.61098
21
-1.70989
0
LINE
8
BLACK
6
CONTINUOUS
10
9.61098
20
-1.70989
11
9.61099
21
-1.70988
0
LINE
8
BLACK
6
CONTINUOUS
10
9.61099
20
-1.70988
11
9.61105
21
-1.70985
0
LINE
8
BLACK
6
CONTINUOUS
10
9.61105
20
-1.70985
11
9.62978
21
-1.69935
0
LINE
8
BLACK
6
CONTINUOUS
10
9.62978
20
-1.69935
11
9.62984
21
-1.69931
0
LINE
8
BLACK
6
CONTINUOUS
10
9.62984
20
-1.69931
11
9.62988
21
-1.69927
0
LINE
8
BLACK
6
CONTINUOUS
10
9.62988
20
-1.69927
11
9.62995
21
-1.69923
0
LINE
8
BLACK
6
CONTINUOUS
10
9.62995
20
-1.69923
11
9.64788
21
-1.68419
0
LINE
8
BLACK
6
CONTINUOUS
10
9.64788
20
-1.68419
11
9.6479
21
-1.68417
0
LINE
8
BLACK
6
CONTINUOUS
10
9.6479
20
-1.68417
11
9.6479
21
-1.68416
0
LINE
8
BLACK
6
CONTINUOUS
10
9.6479
20
-1.68416
11
9.64797
21
-1.6841
0
LINE
8
BLACK
6
CONTINUOUS
10
9.64797
20
-1.6841
11
9.66266
21
-1.66582
0
LINE
8
BLACK
6
CONTINUOUS
10
9.66266
20
-1.66582
11
9.66273
21
-1.66572
0
LINE
8
BLACK
6
CONTINUOUS
10
9.66273
20
-1.66572
11
9.66273
21
-1.66572
0
LINE
8
BLACK
6
CONTINUOUS
10
9.66273
20
-1.66572
11
9.66274
21
-1.66571
0
LINE
8
BLACK
6
CONTINUOUS
10
9.66274
20
-1.66571
11
9.67361
21
-1.6449
0
LINE
8
BLACK
6
CONTINUOUS
10
9.67361
20
-1.6449
11
9.67363
21
-1.64485
0
LINE
8
BLACK
6
CONTINUOUS
10
9.67363
20
-1.64485
11
9.67366
21
-1.64478
0
LINE
8
BLACK
6
CONTINUOUS
10
9.67366
20
-1.64478
11
9.68026
21
-1.62235
0
LINE
8
BLACK
6
CONTINUOUS
10
9.68026
20
-1.62235
11
9.68026
21
-1.62234
0
LINE
8
BLACK
6
CONTINUOUS
10
9.68026
20
-1.62234
11
9.68027
21
-1.62229
0
LINE
8
BLACK
6
CONTINUOUS
10
9.68027
20
-1.62229
11
9.68027
21
-1.62227
0
LINE
8
BLACK
6
CONTINUOUS
10
9.68027
20
-1.62227
11
9.68027
21
-1.62224
0
LINE
8
BLACK
6
CONTINUOUS
10
9.68027
20
-1.62224
11
9.68029
21
-1.62219
0
LINE
8
BLACK
6
CONTINUOUS
10
9.68029
20
-1.62219
11
9.68029
21
-1.62218
0
LINE
8
BLACK
6
CONTINUOUS
10
9.68029
20
-1.62218
11
9.68242
21
-1.59883
0
LINE
8
BLACK
6
CONTINUOUS
10
9.68242
20
-1.59883
11
9.68242
21
-1.59868
0
LINE
8
BLACK
6
CONTINUOUS
10
9.68242
20
-1.59868
11
9.67997
21
-1.57538
0
LINE
8
BLACK
6
CONTINUOUS
10
9.67997
20
-1.57538
11
9.67996
21
-1.57532
0
LINE
8
BLACK
6
CONTINUOUS
10
9.67996
20
-1.57532
11
9.67994
21
-1.57525
0
LINE
8
BLACK
6
CONTINUOUS
10
9.67994
20
-1.57525
11
9.67993
21
-1.5752
0
LINE
8
BLACK
6
CONTINUOUS
10
9.67993
20
-1.5752
11
9.67302
21
-1.55287
0
LINE
8
BLACK
6
CONTINUOUS
10
9.67302
20
-1.55287
11
9.67301
21
-1.55286
0
LINE
8
BLACK
6
CONTINUOUS
10
9.67301
20
-1.55286
11
9.67299
21
-1.55281
0
LINE
8
BLACK
6
CONTINUOUS
10
9.67299
20
-1.55281
11
9.67298
21
-1.55279
0
LINE
8
BLACK
6
CONTINUOUS
10
9.67298
20
-1.55279
11
9.67297
21
-1.55276
0
LINE
8
BLACK
6
CONTINUOUS
10
9.67297
20
-1.55276
11
9.67295
21
-1.55272
0
LINE
8
BLACK
6
CONTINUOUS
10
9.67295
20
-1.55272
11
9.67295
21
-1.5527
0
LINE
8
BLACK
6
CONTINUOUS
10
9.67295
20
-1.5527
11
9.6618
21
-1.53209
0
LINE
8
BLACK
6
CONTINUOUS
10
9.6618
20
-1.53209
11
9.6618
21
-1.53208
0
LINE
8
BLACK
6
CONTINUOUS
10
9.6618
20
-1.53208
11
9.66179
21
-1.53206
0
LINE
8
BLACK
6
CONTINUOUS
10
9.66179
20
-1.53206
11
9.66175
21
-1.53201
0
LINE
8
BLACK
6
CONTINUOUS
10
9.66175
20
-1.53201
11
9.66173
21
-1.53199
0
LINE
8
BLACK
6
CONTINUOUS
10
9.66173
20
-1.53199
11
9.64679
21
-1.51391
0
LINE
8
BLACK
6
CONTINUOUS
10
9.64679
20
-1.51391
11
9.64668
21
-1.5138
0
LINE
8
BLACK
6
CONTINUOUS
10
9.64668
20
-1.5138
11
9.62852
21
-1.499
0
LINE
8
BLACK
6
CONTINUOUS
10
9.62852
20
-1.499
11
9.6285
21
-1.49899
0
LINE
8
BLACK
6
CONTINUOUS
10
9.6285
20
-1.49899
11
9.62847
21
-1.49897
0
LINE
8
BLACK
6
CONTINUOUS
10
9.62847
20
-1.49897
11
9.62843
21
-1.49895
0
LINE
8
BLACK
6
CONTINUOUS
10
9.62843
20
-1.49895
11
9.62839
21
-1.49892
0
LINE
8
BLACK
6
CONTINUOUS
10
9.62839
20
-1.49892
11
9.62838
21
-1.49891
0
LINE
8
BLACK
6
CONTINUOUS
10
9.62838
20
-1.49891
11
9.60772
21
-1.48792
0
LINE
8
BLACK
6
CONTINUOUS
10
9.60772
20
-1.48792
11
9.6077
21
-1.48791
0
LINE
8
BLACK
6
CONTINUOUS
10
9.6077
20
-1.48791
11
9.60765
21
-1.4879
0
LINE
8
BLACK
6
CONTINUOUS
10
9.60765
20
-1.4879
11
9.60763
21
-1.48788
0
LINE
8
BLACK
6
CONTINUOUS
10
9.60763
20
-1.48788
11
9.6076
21
-1.48788
0
LINE
8
BLACK
6
CONTINUOUS
10
9.6076
20
-1.48788
11
9.60758
21
-1.48786
0
LINE
8
BLACK
6
CONTINUOUS
10
9.60758
20
-1.48786
11
9.58512
21
-1.48108
0
LINE
8
BLACK
6
CONTINUOUS
10
9.58512
20
-1.48108
11
9.58501
21
-1.48106
0
LINE
8
BLACK
6
CONTINUOUS
10
9.58501
20
-1.48106
11
9.56164
21
-1.47877
0
LINE
8
BLACK
6
CONTINUOUS
10
9.56164
20
-1.47877
11
9.56162
21
-1.47877
0
LINE
8
BLACK
6
CONTINUOUS
10
9.56162
20
-1.47877
11
9.56157
21
-1.47876
0
LINE
8
BLACK
6
CONTINUOUS
10
9.56157
20
-1.47876
11
9.56156
21
-1.47876
0
LINE
8
BLACK
6
CONTINUOUS
10
9.56156
20
-1.47876
11
9.16853
21
-1.4786
0
LINE
8
BLACK
6
CONTINUOUS
10
9.16853
20
-1.4786
11
2.27923
21
-1.4786
  0
ENDSEC
  0
EOF
